<?xml version="1.0" encoding="UTF-8" standalone="no"?><!-- Generator: Gravit.io --><svg xmlns="http://www.w3.org/2000/svg" xmlns:xlink="http://www.w3.org/1999/xlink" style="isolation:isolate" viewBox="2183.5 -234 1136.5 452.776" width="1136.5pt" height="452.776pt"><text transform="matrix(1,0,0,1,2191.5,-205.084)" style="font-family:'Swis721 Ex BT';font-weight:700;font-size:30px;font-style:normal;fill:#000000;stroke:none;">FRANCIS </text><text transform="matrix(1,0,0,1,2365.576,-205.084)" style="font-family:'Swis721 Ex BT';font-weight:700;font-size:30px;font-style:normal;fill:#000000;stroke:none;">McRIDDLEGOUPH </text><text transform="matrix(1,0,0,1,2698.881,-205.084)" style="font-family:'Swiss 721 SWA';font-weight:400;font-size:30px;font-style:normal;fill:#000000;stroke:none;">- </text><text transform="matrix(1,0,0,1,2718.05,-205.084)" style="font-family:'Swiss 721 SWA';font-weight:400;font-size:30px;font-style:normal;fill:#000000;stroke:none;">er </text><text transform="matrix(1,0,0,1,2753.904,-205.084)" style="font-family:'Swiss 721 SWA';font-weight:400;font-size:30px;font-style:normal;fill:#000000;stroke:none;">et </text><text transform="matrix(1,0,0,1,2788.103,-205.084)" style="font-family:'Swiss 721 SWA';font-weight:400;font-size:30px;font-style:normal;fill:#000000;stroke:none;">band, </text><text transform="matrix(1,0,0,1,2872.355,-205.084)" style="font-family:'Swiss 721 SWA';font-weight:400;font-size:30px;font-style:normal;fill:#000000;stroke:none;">der </text><text transform="matrix(1,0,0,1,2924.893,-205.084)" style="font-family:'Swiss 721 SWA';font-weight:400;font-size:30px;font-style:normal;fill:#000000;stroke:none;">udelukkende </text><text transform="matrix(1,0,0,1,3104.214,-205.084)" style="font-family:'Swiss 721 SWA';font-weight:400;font-size:30px;font-style:normal;fill:#000000;stroke:none;">fortolker </text><text transform="matrix(1,0,0,1,3221.762,-205.084)" style="font-family:'Swiss 721 SWA';font-weight:400;font-size:30px;font-style:normal;fill:#000000;stroke:none;">sange </text><text transform="matrix(1,0,0,1,2191.5,-168.785)" style="font-family:'Swiss 721 SWA';font-weight:400;font-size:30px;font-style:normal;fill:#000000;stroke:none;">af </text><text transform="matrix(1,0,0,1,2236.449,-168.785)" style="font-family:'Swiss 721 SWA';font-weight:400;font-size:30px;font-style:normal;fill:#000000;stroke:none;">THE </text><text transform="matrix(1,0,0,1,2316.378,-168.785)" style="font-family:'Swiss 721 SWA';font-weight:400;font-size:30px;font-style:normal;fill:#000000;stroke:none;">BEATLES </text><text transform="matrix(1,0,0,1,2468.612,-168.785)" style="font-family:'Swiss 721 SWA';font-weight:400;font-size:30px;font-style:normal;fill:#000000;stroke:none;">Bandet </text><text transform="matrix(1,0,0,1,2583.624,-168.785)" style="font-family:'Swiss 721 SWA';font-weight:400;font-size:30px;font-style:normal;fill:#000000;stroke:none;">med </text><text transform="matrix(1,0,0,1,2661.913,-168.785)" style="font-family:'Swiss 721 SWA';font-weight:400;font-size:30px;font-style:normal;fill:#000000;stroke:none;">det </text><text transform="matrix(1,0,0,1,2723.546,-168.785)" style="font-family:'Swiss 721 SWA';font-weight:400;font-size:30px;font-style:normal;fill:#000000;stroke:none;">finurlige </text><text transform="matrix(1,0,0,1,2848.534,-168.785)" style="font-family:'Swiss 721 SWA';font-weight:400;font-size:30px;font-style:normal;fill:#000000;stroke:none;">navn, </text><text transform="matrix(1,0,0,1,2941.852,-168.785)" style="font-family:'Swiss 721 SWA';font-weight:400;font-size:30px;font-style:normal;fill:#000000;stroke:none;">opstod </text><text transform="matrix(1,0,0,1,3051.854,-168.785)" style="font-family:'Swiss 721 SWA';font-weight:400;font-size:30px;font-style:normal;fill:#000000;stroke:none;">i </text><text transform="matrix(1,0,0,1,3078.449,-168.785)" style="font-family:'Swiss 721 SWA';font-weight:400;font-size:30px;font-style:normal;fill:#000000;stroke:none;">forbindelse </text><text transform="matrix(1,0,0,1,3245.141,-168.785)" style="font-family:'Swiss 721 SWA';font-weight:400;font-size:30px;font-style:normal;fill:#000000;stroke:none;">med </text><text transform="matrix(1,0,0,1,2191.5,-132.486)" style="font-family:'Swiss 721 SWA';font-weight:400;font-size:30px;font-style:normal;fill:#000000;stroke:none;">samarbejdet </text><text transform="matrix(1,0,0,1,2374.759,-132.486)" style="font-family:'Swiss 721 SWA';font-weight:400;font-size:30px;font-style:normal;fill:#000000;stroke:none;">på </text><text transform="matrix(1,0,0,1,2426.3,-132.486)" style="font-family:'Swiss 721 SWA';font-weight:400;font-size:30px;font-style:normal;fill:#000000;stroke:none;">et </text><text transform="matrix(1,0,0,1,2469.491,-132.486)" style="font-family:'Swiss 721 SWA';font-weight:400;font-size:30px;font-style:normal;fill:#000000;stroke:none;">One-man </text><text transform="matrix(1,0,0,1,2612.716,-132.486)" style="font-family:'Swiss 721 SWA';font-weight:400;font-size:30px;font-style:normal;fill:#000000;stroke:none;">show </text><text transform="matrix(1,0,0,1,2700.922,-132.486)" style="font-family:'Swiss 721 SWA';font-weight:400;font-size:30px;font-style:normal;fill:#000000;stroke:none;">med </text><text transform="matrix(1,0,0,1,2777.452,-132.486)" style="font-family:'Swiss 721 SWA';font-weight:400;font-size:30px;font-style:normal;fill:#000000;stroke:none;">Søren </text><text transform="matrix(1,0,0,1,2877.318,-132.486)" style="font-family:'Swiss 721 SWA';font-weight:400;font-size:30px;font-style:normal;fill:#000000;stroke:none;">Pilmark </text><text transform="matrix(1,0,0,1,2995.494,-132.486)" style="font-family:'Swiss 721 SWA';font-weight:400;font-size:30px;font-style:normal;fill:#000000;stroke:none;">i </text><text transform="matrix(1,0,0,1,3020.331,-132.486)" style="font-family:'Swiss 721 SWA';font-weight:400;font-size:30px;font-style:normal;fill:#000000;stroke:none;">2003. </text><text transform="matrix(1,0,0,1,3113.576,-132.486)" style="font-family:'Swiss 721 SWA';font-weight:400;font-size:30px;font-style:normal;fill:#000000;stroke:none;">Musikerne </text><text transform="matrix(1,0,0,1,3270.131,-132.486)" style="font-family:'Swiss 721 SWA';font-weight:400;font-size:30px;font-style:normal;fill:#000000;stroke:none;">og </text><text transform="matrix(1,0,0,1,2191.5,-96.187)" style="font-family:'Swiss 721 SWA';font-weight:400;font-size:30px;font-style:normal;fill:#000000;stroke:none;">Pilmark </text><text transform="matrix(1,0,0,1,2302.325,-96.187)" style="font-family:'Swiss 721 SWA';font-weight:400;font-size:30px;font-style:normal;fill:#000000;stroke:none;">fandt </text><text transform="matrix(1,0,0,1,2379.868,-96.187)" style="font-family:'Swiss 721 SWA';font-weight:400;font-size:30px;font-style:normal;fill:#000000;stroke:none;">hurtigt </text><text transform="matrix(1,0,0,1,2474.067,-96.187)" style="font-family:'Swiss 721 SWA';font-weight:400;font-size:30px;font-style:normal;fill:#000000;stroke:none;">sammen </text><text transform="matrix(1,0,0,1,2599.921,-96.187)" style="font-family:'Swiss 721 SWA';font-weight:400;font-size:30px;font-style:normal;fill:#000000;stroke:none;">i </text><text transform="matrix(1,0,0,1,2617.405,-96.187)" style="font-family:'Swiss 721 SWA';font-weight:400;font-size:30px;font-style:normal;fill:#000000;stroke:none;">deres </text><text transform="matrix(1,0,0,1,2703.269,-96.187)" style="font-family:'Swiss 721 SWA';font-weight:400;font-size:30px;font-style:normal;fill:#000000;stroke:none;">fælles </text><text transform="matrix(1,0,0,1,2794.113,-96.187)" style="font-family:'Swiss 721 SWA';font-weight:400;font-size:30px;font-style:normal;fill:#000000;stroke:none;">kærlighed </text><text transform="matrix(1,0,0,1,2936.666,-96.187)" style="font-family:'Swiss 721 SWA';font-weight:400;font-size:30px;font-style:normal;fill:#000000;stroke:none;">og </text><text transform="matrix(1,0,0,1,2980.855,-96.187)" style="font-family:'Swiss 721 SWA';font-weight:400;font-size:30px;font-style:normal;fill:#000000;stroke:none;">glæde </text><text transform="matrix(1,0,0,1,3075.069,-96.187)" style="font-family:'Swiss 721 SWA';font-weight:400;font-size:30px;font-style:normal;fill:#000000;stroke:none;">ved </text><text transform="matrix(1,0,0,1,3134.257,-96.187)" style="font-family:'Swiss 721 SWA';font-weight:400;font-size:30px;font-style:normal;fill:#000000;stroke:none;">The </text><text transform="matrix(1,0,0,1,3196.771,-96.187)" style="font-family:'Swiss 721 SWA';font-weight:400;font-size:30px;font-style:normal;fill:#000000;stroke:none;">Beatles’ </text><text transform="matrix(1,0,0,1,2191.5,-59.889)" style="font-family:'Swiss 721 SWA';font-weight:400;font-size:30px;font-style:normal;fill:#000000;stroke:none;">fantastiske </text><text transform="matrix(1,0,0,1,2348.305,-59.889)" style="font-family:'Swiss 721 SWA';font-weight:400;font-size:30px;font-style:normal;fill:#000000;stroke:none;">musik </text><text transform="matrix(1,0,0,1,2440.042,-59.889)" style="font-family:'Swiss 721 SWA';font-weight:400;font-size:30px;font-style:normal;fill:#000000;stroke:none;">og </text><text transform="matrix(1,0,0,1,2486.808,-59.889)" style="font-family:'Swiss 721 SWA';font-weight:400;font-size:30px;font-style:normal;fill:#000000;stroke:none;">har </text><text transform="matrix(1,0,0,1,2543.565,-59.889)" style="font-family:'Swiss 721 SWA';font-weight:400;font-size:30px;font-style:normal;fill:#000000;stroke:none;">lige </text><text transform="matrix(1,0,0,1,2603.661,-59.889)" style="font-family:'Swiss 721 SWA';font-weight:400;font-size:30px;font-style:normal;fill:#000000;stroke:none;">siden, </text><text transform="matrix(1,0,0,1,2697.112,-59.889)" style="font-family:'Swiss 721 SWA';font-weight:400;font-size:30px;font-style:normal;fill:#000000;stroke:none;">hvilket </text><text transform="matrix(1,0,0,1,2795.543,-59.889)" style="font-family:'Swiss 721 SWA';font-weight:400;font-size:30px;font-style:normal;fill:#000000;stroke:none;">vil </text><text transform="matrix(1,0,0,1,2837.27,-59.889)" style="font-family:'Swiss 721 SWA';font-weight:400;font-size:30px;font-style:normal;fill:#000000;stroke:none;">sige </text><text transform="matrix(1,0,0,1,2905.701,-59.889)" style="font-family:'Swiss 721 SWA';font-weight:400;font-size:30px;font-style:normal;fill:#000000;stroke:none;">i </text><text transform="matrix(1,0,0,1,2925.763,-59.889)" style="font-family:'Swiss 721 SWA';font-weight:400;font-size:30px;font-style:normal;fill:#000000;stroke:none;">15 </text><text transform="matrix(1,0,0,1,2972.529,-59.889)" style="font-family:'Swiss 721 SWA';font-weight:400;font-size:30px;font-style:normal;fill:#000000;stroke:none;">år, </text><text transform="matrix(1,0,0,1,3018.182,-59.889)" style="font-family:'Swiss 721 SWA';font-weight:400;font-size:30px;font-style:normal;fill:#000000;stroke:none;">loyalt </text><text transform="matrix(1,0,0,1,3101.613,-59.889)" style="font-family:'Swiss 721 SWA';font-weight:400;font-size:30px;font-style:normal;fill:#000000;stroke:none;">og </text><text transform="matrix(1,0,0,1,3148.379,-59.889)" style="font-family:'Swiss 721 SWA';font-weight:400;font-size:30px;font-style:normal;fill:#000000;stroke:none;">trofast </text><text transform="matrix(1,0,0,1,3245.141,-59.889)" style="font-family:'Swiss 721 SWA';font-weight:400;font-size:30px;font-style:normal;fill:#000000;stroke:none;">mod </text><text transform="matrix(1,0,0,1,2191.5,-23.59)" style="font-family:'Swiss 721 SWA';font-weight:400;font-size:30px;font-style:normal;fill:#000000;stroke:none;">forlægget </text><text transform="matrix(1,0,0,1,2331.095,-23.59)" style="font-family:'Swiss 721 SWA';font-weight:400;font-size:30px;font-style:normal;fill:#000000;stroke:none;">og </text><text transform="matrix(1,0,0,1,2377.321,-23.59)" style="font-family:'Swiss 721 SWA';font-weight:400;font-size:30px;font-style:normal;fill:#000000;stroke:none;">forbillederne, </text><text transform="matrix(1,0,0,1,2563.615,-23.59)" style="font-family:'Swiss 721 SWA';font-weight:400;font-size:30px;font-style:normal;fill:#000000;stroke:none;">spillet </text><text transform="matrix(1,0,0,1,2653.171,-23.59)" style="font-family:'Swiss 721 SWA';font-weight:400;font-size:30px;font-style:normal;fill:#000000;stroke:none;">og </text><text transform="matrix(1,0,0,1,2699.397,-23.59)" style="font-family:'Swiss 721 SWA';font-weight:400;font-size:30px;font-style:normal;fill:#000000;stroke:none;">optrådt </text><text transform="matrix(1,0,0,1,2805.652,-23.59)" style="font-family:'Swiss 721 SWA';font-weight:400;font-size:30px;font-style:normal;fill:#000000;stroke:none;">med </text><text transform="matrix(1,0,0,1,2876.868,-23.59)" style="font-family:'Swiss 721 SWA';font-weight:400;font-size:30px;font-style:normal;fill:#000000;stroke:none;">Beatles </text><text transform="matrix(1,0,0,1,2989.788,-23.59)" style="font-family:'Swiss 721 SWA';font-weight:400;font-size:30px;font-style:normal;fill:#000000;stroke:none;">musik </text><text transform="matrix(1,0,0,1,3080.985,-23.59)" style="font-family:'Swiss 721 SWA';font-weight:400;font-size:30px;font-style:normal;fill:#000000;stroke:none;">over </text><text transform="matrix(1,0,0,1,3152.201,-23.59)" style="font-family:'Swiss 721 SWA';font-weight:400;font-size:30px;font-style:normal;fill:#000000;stroke:none;">det </text><text transform="matrix(1,0,0,1,3206.762,-23.59)" style="font-family:'Swiss 721 SWA';font-weight:400;font-size:30px;font-style:normal;fill:#000000;stroke:none;">ganske </text><text transform="matrix(1,0,0,1,2191.5,12.709)" style="font-family:'Swiss 721 SWA';font-weight:400;font-size:30px;font-style:normal;fill:#000000;stroke:none;">land. </text><text transform="matrix(1,0,0,1,2265.284,12.709)" style="font-family:'Swiss 721 SWA';font-weight:400;font-size:30px;font-style:normal;fill:#000000;stroke:none;">Med </text><text transform="matrix(1,0,0,1,2332.373,12.709)" style="font-family:'Swiss 721 SWA';font-weight:400;font-size:30px;font-style:normal;fill:#000000;stroke:none;">en </text><text transform="matrix(1,0,0,1,2374.472,12.709)" style="font-family:'Swiss 721 SWA';font-weight:400;font-size:30px;font-style:normal;fill:#000000;stroke:none;">smittende </text><text transform="matrix(1,0,0,1,2513.265,12.709)" style="font-family:'Swiss 721 SWA';font-weight:400;font-size:30px;font-style:normal;fill:#000000;stroke:none;">spilleglæde </text><text transform="matrix(1,0,0,1,2673.753,12.709)" style="font-family:'Swiss 721 SWA';font-weight:400;font-size:30px;font-style:normal;fill:#000000;stroke:none;">fra </text><text transform="matrix(1,0,0,1,2717.493,12.709)" style="font-family:'Swiss 721 SWA';font-weight:400;font-size:30px;font-style:normal;fill:#000000;stroke:none;">fire </text><text transform="matrix(1,0,0,1,2767.897,12.709)" style="font-family:'Swiss 721 SWA';font-weight:400;font-size:30px;font-style:normal;fill:#000000;stroke:none;">af </text><text transform="matrix(1,0,0,1,2801.647,12.709)" style="font-family:'Swiss 721 SWA';font-weight:400;font-size:30px;font-style:normal;fill:#000000;stroke:none;">landets </text><text transform="matrix(1,0,0,1,2907.115,12.709)" style="font-family:'Swiss 721 SWA';font-weight:400;font-size:30px;font-style:normal;fill:#000000;stroke:none;">suverænt </text><text transform="matrix(1,0,0,1,3040.899,12.709)" style="font-family:'Swiss 721 SWA';font-weight:400;font-size:30px;font-style:normal;fill:#000000;stroke:none;">bedste </text><text transform="matrix(1,0,0,1,3139.702,12.709)" style="font-family:'Swiss 721 SWA';font-weight:400;font-size:30px;font-style:normal;fill:#000000;stroke:none;">musikere </text><text transform="matrix(1,0,0,1,3270.131,12.709)" style="font-family:'Swiss 721 SWA';font-weight:400;font-size:30px;font-style:normal;fill:#000000;stroke:none;">og </text><text transform="matrix(1,0,0,1,2191.5,49.008)" style="font-family:'Swiss 721 SWA';font-weight:400;font-size:30px;font-style:normal;fill:#000000;stroke:none;">med </text><text transform="matrix(1,0,0,1,2261.352,49.008)" style="font-family:'Swiss 721 SWA';font-weight:400;font-size:30px;font-style:normal;fill:#000000;stroke:none;">Søren </text><text transform="matrix(1,0,0,1,2354.539,49.008)" style="font-family:'Swiss 721 SWA';font-weight:400;font-size:30px;font-style:normal;fill:#000000;stroke:none;">Pilmark </text><text transform="matrix(1,0,0,1,2466.036,49.008)" style="font-family:'Swiss 721 SWA';font-weight:400;font-size:30px;font-style:normal;fill:#000000;stroke:none;">i </text><text transform="matrix(1,0,0,1,2484.194,49.008)" style="font-family:'Swiss 721 SWA';font-weight:400;font-size:30px;font-style:normal;fill:#000000;stroke:none;">front, </text><text transform="matrix(1,0,0,1,2564.051,49.008)" style="font-family:'Swiss 721 SWA';font-weight:400;font-size:30px;font-style:normal;fill:#000000;stroke:none;">er </text><text transform="matrix(1,0,0,1,2602.218,49.008)" style="font-family:'Swiss 721 SWA';font-weight:400;font-size:30px;font-style:normal;fill:#000000;stroke:none;">der </text><text transform="matrix(1,0,0,1,2657.07,49.008)" style="font-family:'Swiss 721 SWA';font-weight:400;font-size:30px;font-style:normal;fill:#000000;stroke:none;">lagt </text><text transform="matrix(1,0,0,1,2716.932,49.008)" style="font-family:'Swiss 721 SWA';font-weight:400;font-size:30px;font-style:normal;fill:#000000;stroke:none;">op </text><text transform="matrix(1,0,0,1,2761.794,49.008)" style="font-family:'Swiss 721 SWA';font-weight:400;font-size:30px;font-style:normal;fill:#000000;stroke:none;">til </text><text transform="matrix(1,0,0,1,2794.951,49.008)" style="font-family:'Swiss 721 SWA';font-weight:400;font-size:30px;font-style:normal;fill:#000000;stroke:none;">en </text><text transform="matrix(1,0,0,1,2839.813,49.008)" style="font-family:'Swiss 721 SWA';font-weight:400;font-size:30px;font-style:normal;fill:#000000;stroke:none;">Beatles </text><text transform="matrix(1,0,0,1,2951.369,49.008)" style="font-family:'Swiss 721 SWA';font-weight:400;font-size:30px;font-style:normal;fill:#000000;stroke:none;">aften </text><text transform="matrix(1,0,0,1,3029.585,49.008)" style="font-family:'Swiss 721 SWA';font-weight:400;font-size:30px;font-style:normal;fill:#000000;stroke:none;">af </text><text transform="matrix(1,0,0,1,3066.097,49.008)" style="font-family:'Swiss 721 SWA';font-weight:400;font-size:30px;font-style:normal;fill:#000000;stroke:none;">de </text><text transform="matrix(1,0,0,1,3110.959,49.008)" style="font-family:'Swiss 721 SWA';font-weight:400;font-size:30px;font-style:normal;fill:#000000;stroke:none;">store. </text><text transform="matrix(1,0,0,1,3197.481,49.008)" style="font-family:'Swiss 721 SWA';font-weight:400;font-size:30px;font-style:normal;fill:#000000;stroke:none;">Kom </text><text transform="matrix(1,0,0,1,3270.131,49.008)" style="font-family:'Swiss 721 SWA';font-weight:400;font-size:30px;font-style:normal;fill:#000000;stroke:none;">og </text><text transform="matrix(1,0,0,1,2191.5,85.307)" style="font-family:'Swiss 721 SWA';font-weight:400;font-size:30px;font-style:normal;fill:#000000;stroke:none;">nyd </text><text transform="matrix(1,0,0,1,2258.347,85.307)" style="font-family:'Swiss 721 SWA';font-weight:400;font-size:30px;font-style:normal;fill:#000000;stroke:none;">Troels </text><text transform="matrix(1,0,0,1,2356.879,85.307)" style="font-family:'Swiss 721 SWA';font-weight:400;font-size:30px;font-style:normal;fill:#000000;stroke:none;">Skovgaards </text><text transform="matrix(1,0,0,1,2533.781,85.307)" style="font-family:'Swiss 721 SWA';font-weight:400;font-size:30px;font-style:normal;fill:#000000;stroke:none;">fænomenale </text><text transform="matrix(1,0,0,1,2719.031,85.307)" style="font-family:'Swiss 721 SWA';font-weight:400;font-size:30px;font-style:normal;fill:#000000;stroke:none;">guitarspil, </text><text transform="matrix(1,0,0,1,2865.903,85.307)" style="font-family:'Swiss 721 SWA';font-weight:400;font-size:30px;font-style:normal;fill:#000000;stroke:none;">og </text><text transform="matrix(1,0,0,1,2917.751,85.307)" style="font-family:'Swiss 721 SWA';font-weight:400;font-size:30px;font-style:normal;fill:#000000;stroke:none;">lad </text><text transform="matrix(1,0,0,1,2976.263,85.307)" style="font-family:'Swiss 721 SWA';font-weight:400;font-size:30px;font-style:normal;fill:#000000;stroke:none;">dig </text><text transform="matrix(1,0,0,1,3034.776,85.307)" style="font-family:'Swiss 721 SWA';font-weight:400;font-size:30px;font-style:normal;fill:#000000;stroke:none;">overvælde </text><text transform="matrix(1,0,0,1,3193.322,85.307)" style="font-family:'Swiss 721 SWA';font-weight:400;font-size:30px;font-style:normal;fill:#000000;stroke:none;">af </text><text transform="matrix(1,0,0,1,3236.82,85.307)" style="font-family:'Swiss 721 SWA';font-weight:400;font-size:30px;font-style:normal;fill:#000000;stroke:none;">Niels </text><text transform="matrix(1,0,0,1,2191.5,121.605)" style="font-family:'Swiss 721 SWA';font-weight:400;font-size:30px;font-style:normal;fill:#000000;stroke:none;">Ratzers </text><text transform="matrix(1,0,0,1,2303.194,121.605)" style="font-family:'Swiss 721 SWA';font-weight:400;font-size:30px;font-style:normal;fill:#000000;stroke:none;">generøse </text><text transform="matrix(1,0,0,1,2438.268,121.605)" style="font-family:'Swiss 721 SWA';font-weight:400;font-size:30px;font-style:normal;fill:#000000;stroke:none;">trommespil </text><text transform="matrix(1,0,0,1,2593.292,121.605)" style="font-family:'Swiss 721 SWA';font-weight:400;font-size:30px;font-style:normal;fill:#000000;stroke:none;">i </text><text transform="matrix(1,0,0,1,2608.292,121.605)" style="font-family:'Swiss 721 SWA';font-weight:400;font-size:30px;font-style:normal;fill:#000000;stroke:none;">verdensklasse.</text><text transform="matrix(1,0,0,1,2183.5,172.634)" style="font-family:'JohnLennon';font-weight:400;font-size:40px;font-style:normal;fill:#000000;stroke:none;">Line </text><text transform="matrix(1,0,0,1,2257.67,172.634)" style="font-family:'JohnLennon';font-weight:400;font-size:40px;font-style:normal;fill:#000000;stroke:none;">up: </text><text transform="matrix(1,0,0,1,2305.531,172.634)" style="font-family:'Swiss 721 SWA';font-weight:400;font-size:30px;font-style:normal;fill:#000000;stroke:none;">Niels </text><text transform="matrix(1,0,0,1,2384.676,172.634)" style="font-family:'Swiss 721 SWA';font-weight:400;font-size:30px;font-style:normal;fill:#000000;stroke:none;">Ratzer </text><text transform="matrix(1,0,0,1,2485.501,172.634)" style="font-family:'Swiss 721 SWA';font-weight:400;font-size:30px;font-style:normal;fill:#000000;stroke:none;">(trommer), </text><text transform="matrix(1,0,0,1,2637.947,172.634)" style="font-family:'Swiss 721 SWA';font-weight:400;font-size:30px;font-style:normal;fill:#000000;stroke:none;">Ole </text><text transform="matrix(1,0,0,1,2697.098,172.634)" style="font-family:'Swiss 721 SWA';font-weight:400;font-size:30px;font-style:normal;fill:#000000;stroke:none;">Skipper </text><text transform="matrix(1,0,0,1,2811.282,172.634)" style="font-family:'Swiss 721 SWA';font-weight:400;font-size:30px;font-style:normal;fill:#000000;stroke:none;">(bas), </text><text transform="matrix(1,0,0,1,2900.432,172.634)" style="font-family:'Swiss 721 SWA';font-weight:400;font-size:30px;font-style:normal;fill:#000000;stroke:none;">Søren </text><text transform="matrix(1,0,0,1,2994.592,172.634)" style="font-family:'Swiss 721 SWA';font-weight:400;font-size:30px;font-style:normal;fill:#000000;stroke:none;">Skov </text><text transform="matrix(1,0,0,1,3073.752,172.634)" style="font-family:'Swiss 721 SWA';font-weight:400;font-size:30px;font-style:normal;fill:#000000;stroke:none;">(keyboard), </text><text transform="matrix(1,0,0,1,3237.946,172.634)" style="font-family:'Swiss 721 SWA';font-weight:400;font-size:30px;font-style:normal;fill:#000000;stroke:none;">Troels </text><text transform="matrix(1,0,0,1,2183.5,211.394)" style="font-family:'Swiss 721 SWA';font-weight:400;font-size:30px;font-style:normal;fill:#000000;stroke:none;">Skovgaard</text><text transform="matrix(1,0,0,1,2326.923,211.394)" style="font-family:'Swiss 721 SWA';font-weight:400;font-size:30px;font-style:normal;fill:#000000;stroke:none;">( </text><text transform="matrix(1,0,0,1,2345.248,211.394)" style="font-family:'Swiss 721 SWA';font-weight:400;font-size:30px;font-style:normal;fill:#000000;stroke:none;">guitar) </text><text transform="matrix(1,0,0,1,2438.617,211.394)" style="font-family:'Swiss 721 SWA';font-weight:400;font-size:30px;font-style:normal;fill:#000000;stroke:none;">samt </text><text transform="matrix(1,0,0,1,2511.962,211.394)" style="font-family:'Swiss 721 SWA';font-weight:400;font-size:30px;font-style:normal;fill:#000000;stroke:none;">af </text><text transform="matrix(1,0,0,1,2545.316,211.394)" style="font-family:'Swiss 721 SWA';font-weight:400;font-size:30px;font-style:normal;fill:#000000;stroke:none;">skuespilleren, </text><text transform="matrix(1,0,0,1,2737.079,211.394)" style="font-family:'Swiss 721 SWA';font-weight:400;font-size:30px;font-style:normal;fill:#000000;stroke:none;">Søren </text><text transform="matrix(1,0,0,1,2827.108,211.394)" style="font-family:'Swiss 721 SWA';font-weight:400;font-size:30px;font-style:normal;fill:#000000;stroke:none;">Pilmark </text><text transform="matrix(1,0,0,1,2935.448,211.394)" style="font-family:'Swiss 721 SWA';font-weight:400;font-size:30px;font-style:normal;fill:#000000;stroke:none;">( </text><text transform="matrix(1,0,0,1,2953.773,211.394)" style="font-family:'Swiss 721 SWA';font-weight:400;font-size:30px;font-style:normal;fill:#000000;stroke:none;">piano </text><text transform="matrix(1,0,0,1,3035.512,211.394)" style="font-family:'Swiss 721 SWA';font-weight:400;font-size:30px;font-style:normal;fill:#000000;stroke:none;">og </text><text transform="matrix(1,0,0,1,3077.216,211.394)" style="font-family:'Swiss 721 SWA';font-weight:400;font-size:30px;font-style:normal;fill:#000000;stroke:none;">guitar</text><text transform="matrix(1,0,0,1,3152.26,211.394)" style="font-family:'Swiss 721 SWA';font-weight:400;font-size:30px;font-style:normal;fill:#000000;stroke:none;"> ).</text></svg>