<?xml version="1.0" encoding="UTF-8" standalone="no"?><!-- Generator: Gravit.io --><svg xmlns="http://www.w3.org/2000/svg" xmlns:xlink="http://www.w3.org/1999/xlink" style="isolation:isolate" viewBox="678 255.871 692.77 79.922" width="692.77pt" height="79.922pt"><g><path d=" M 996.564 289.434 L 992.805 289.434 L 992.805 294.287 L 996.564 294.287 L 996.564 294.287 Q 998.566 294.287 999.416 293.696 L 999.416 293.696 L 999.416 293.696 Q 1000.266 293.105 1000.266 291.748 L 1000.266 291.748 L 1000.266 291.748 Q 1000.266 290.537 999.489 289.985 L 999.489 289.985 L 999.489 289.985 Q 998.713 289.434 996.965 289.434 L 996.965 289.434 L 996.564 289.434 L 996.564 289.434 Z  M 990.842 302.109 L 990.842 287.725 L 996.906 287.725 L 996.906 287.725 Q 997.18 287.725 997.473 287.739 L 997.473 287.739 L 997.473 287.739 Q 997.766 287.754 997.785 287.754 L 997.785 287.754 L 997.785 287.754 Q 999.895 287.754 1001.101 288.779 L 1001.101 288.779 L 1001.101 288.779 Q 1002.307 289.805 1002.307 291.592 L 1002.307 291.592 L 1002.307 291.592 Q 1002.307 292.851 1001.794 293.672 L 1001.794 293.672 L 1001.794 293.672 Q 1001.281 294.492 1000.178 294.99 L 1000.178 294.99 L 1000.178 294.99 Q 1001.066 295.234 1001.442 295.767 L 1001.442 295.767 L 1001.442 295.767 Q 1001.818 296.299 1001.926 297.666 L 1001.926 297.666 L 1002.102 300.029 L 1002.102 300.029 Q 1002.15 300.752 1002.316 301.138 L 1002.316 301.138 L 1002.316 301.138 Q 1002.482 301.523 1002.824 301.689 L 1002.824 301.689 L 1002.824 302.109 L 1000.52 302.109 L 1000.52 302.109 Q 1000.227 301.641 1000.119 300.185 L 1000.119 300.185 L 1000.119 300.127 L 999.982 298.252 L 999.982 298.252 Q 999.875 296.797 999.279 296.372 L 999.279 296.372 L 999.279 296.372 Q 998.684 295.947 996.779 295.947 L 996.779 295.947 L 996.379 295.947 L 992.805 295.947 L 992.805 302.109 L 990.842 302.109 L 990.842 302.109 Z  M 1005.207 302.109 L 1005.207 287.725 L 1015.891 287.725 L 1015.891 289.512 L 1007.15 289.512 L 1007.15 293.809 L 1015.207 293.809 L 1015.207 295.488 L 1007.15 295.488 L 1007.15 300.312 L 1016.066 300.312 L 1016.066 302.109 L 1005.207 302.109 L 1005.207 302.109 Z  M 1018.43 296.65 L 1018.43 287.725 L 1020.383 287.725 L 1020.383 296.67 L 1020.383 296.67 Q 1020.383 298.701 1021.301 299.663 L 1021.301 299.663 L 1021.301 299.663 Q 1022.219 300.625 1024.143 300.625 L 1024.143 300.625 L 1024.143 300.625 Q 1026.047 300.625 1026.975 299.648 L 1026.975 299.648 L 1026.975 299.648 Q 1027.902 298.672 1027.902 296.67 L 1027.902 296.67 L 1027.902 287.725 L 1029.865 287.725 L 1029.865 296.65 L 1029.865 296.65 Q 1029.865 299.531 1028.356 301.02 L 1028.356 301.02 L 1028.356 301.02 Q 1026.848 302.51 1023.928 302.51 L 1023.928 302.51 L 1023.928 302.51 Q 1021.174 302.51 1019.802 301.045 L 1019.802 301.045 L 1019.802 301.045 Q 1018.43 299.58 1018.43 296.65 L 1018.43 296.65 L 1018.43 296.65 Z  M 1032.912 302.109 L 1032.912 287.725 L 1035.051 287.725 L 1041.77 298.174 L 1041.77 298.174 Q 1042.023 298.574 1042.175 298.852 L 1042.175 298.852 L 1042.175 298.852 Q 1042.326 299.131 1042.434 299.385 L 1042.434 299.385 L 1042.434 287.725 L 1044.289 287.725 L 1044.289 302.109 L 1042.17 302.109 L 1035.305 291.533 L 1035.305 291.533 Q 1035.158 291.309 1035.031 291.05 L 1035.031 291.05 L 1035.031 291.05 Q 1034.904 290.791 1034.768 290.449 L 1034.768 290.449 L 1034.768 302.109 L 1032.912 302.109 L 1032.912 302.109 Z  M 1047.609 302.109 L 1047.609 287.725 L 1049.572 287.725 L 1049.572 302.109 L 1047.609 302.109 L 1047.609 302.109 Z  M 1059.152 287.353 L 1059.152 287.353 L 1059.152 287.353 Q 1062.336 287.353 1064.143 289.365 L 1064.143 289.365 L 1064.143 289.365 Q 1065.949 291.377 1065.949 294.932 L 1065.949 294.932 L 1065.949 294.932 Q 1065.949 298.486 1064.143 300.498 L 1064.143 300.498 L 1064.143 300.498 Q 1062.336 302.51 1059.152 302.51 L 1059.152 302.51 L 1059.152 302.51 Q 1055.959 302.51 1054.152 300.498 L 1054.152 300.498 L 1054.152 300.498 Q 1052.346 298.486 1052.346 294.932 L 1052.346 294.932 L 1052.346 294.932 Q 1052.346 291.377 1054.152 289.365 L 1054.152 289.365 L 1054.152 289.365 Q 1055.959 287.353 1059.152 287.353 Z  M 1059.152 289.053 L 1059.152 289.053 L 1059.152 289.053 Q 1056.906 289.053 1055.637 290.61 L 1055.637 290.61 L 1055.637 290.61 Q 1054.367 292.168 1054.367 294.932 L 1054.367 294.932 L 1054.367 294.932 Q 1054.367 297.695 1055.642 299.263 L 1055.642 299.263 L 1055.642 299.263 Q 1056.916 300.83 1059.152 300.83 L 1059.152 300.83 L 1059.152 300.83 Q 1061.389 300.83 1062.658 299.263 L 1062.658 299.263 L 1062.658 299.263 Q 1063.928 297.695 1063.928 294.932 L 1063.928 294.932 L 1063.928 294.932 Q 1063.928 292.168 1062.658 290.61 L 1062.658 290.61 L 1062.658 290.61 Q 1061.389 289.053 1059.152 289.053 Z  M 1068.469 302.109 L 1068.469 287.725 L 1070.607 287.725 L 1077.326 298.174 L 1077.326 298.174 Q 1077.58 298.574 1077.731 298.852 L 1077.731 298.852 L 1077.731 298.852 Q 1077.883 299.131 1077.99 299.385 L 1077.99 299.385 L 1077.99 287.725 L 1079.846 287.725 L 1079.846 302.109 L 1077.727 302.109 L 1070.861 291.533 L 1070.861 291.533 Q 1070.715 291.309 1070.588 291.05 L 1070.588 291.05 L 1070.588 291.05 Q 1070.461 290.791 1070.324 290.449 L 1070.324 290.449 L 1070.324 302.109 L 1068.469 302.109 L 1068.469 302.109 Z  M 811.799 302.109 L 811.799 287.725 L 814.592 287.725 L 818.176 298.73 L 818.176 298.73 Q 818.254 298.965 818.342 299.272 L 818.342 299.272 L 818.342 299.272 Q 818.43 299.58 818.518 299.932 L 818.518 299.932 L 818.518 299.932 Q 818.586 299.639 818.669 299.346 L 818.669 299.346 L 818.669 299.346 Q 818.752 299.053 818.859 298.73 L 818.859 298.73 L 822.561 287.725 L 825.354 287.725 L 825.354 302.109 L 823.439 302.109 L 823.439 289.834 L 823.439 289.834 Q 823.313 290.381 823.239 290.649 L 823.239 290.649 L 823.239 290.649 Q 823.166 290.918 823.098 291.113 L 823.098 291.113 L 819.396 302.109 L 817.561 302.109 L 813.918 291.113 L 813.918 291.113 Q 813.82 290.82 813.742 290.503 L 813.742 290.503 L 813.742 290.503 Q 813.664 290.185 813.596 289.834 L 813.596 289.834 L 813.596 302.109 L 811.799 302.109 L 811.799 302.109 Z  M 836.438 295.127 L 836.438 295.127 L 834.699 295.127 L 834.699 295.127 Q 834.641 294.062 833.991 293.476 L 833.991 293.476 L 833.991 293.476 Q 833.342 292.891 832.219 292.891 L 832.219 292.891 L 832.219 292.891 Q 830.9 292.891 830.188 293.921 L 830.188 293.921 L 830.188 293.921 Q 829.475 294.951 829.475 296.846 L 829.475 296.846 L 829.475 296.846 Q 829.475 298.799 830.173 299.814 L 830.173 299.814 L 830.173 299.814 Q 830.871 300.83 832.219 300.83 L 832.219 300.83 L 832.219 300.83 Q 833.273 300.83 833.947 300.176 L 833.947 300.176 L 833.947 300.176 Q 834.621 299.521 834.777 298.35 L 834.777 298.35 L 836.457 298.35 L 836.457 298.35 Q 836.34 300.264 835.168 301.348 L 835.168 301.348 L 835.168 301.348 Q 833.996 302.432 832.033 302.432 L 832.033 302.432 L 832.033 302.432 Q 829.982 302.432 828.82 300.952 L 828.82 300.952 L 828.82 300.952 Q 827.658 299.473 827.658 296.846 L 827.658 296.846 L 827.658 296.846 Q 827.658 294.277 828.879 292.803 L 828.879 292.803 L 828.879 292.803 Q 830.1 291.328 832.219 291.328 L 832.219 291.328 L 832.219 291.328 Q 834.094 291.328 835.241 292.368 L 835.241 292.368 L 835.241 292.368 Q 836.389 293.408 836.438 295.127 Z  M 844.318 289.434 L 840.559 289.434 L 840.559 294.287 L 844.318 294.287 L 844.318 294.287 Q 846.32 294.287 847.17 293.696 L 847.17 293.696 L 847.17 293.696 Q 848.02 293.105 848.02 291.748 L 848.02 291.748 L 848.02 291.748 Q 848.02 290.537 847.243 289.985 L 847.243 289.985 L 847.243 289.985 Q 846.467 289.434 844.719 289.434 L 844.719 289.434 L 844.318 289.434 L 844.318 289.434 Z  M 838.596 302.109 L 838.596 287.725 L 844.66 287.725 L 844.66 287.725 Q 844.934 287.725 845.227 287.739 L 845.227 287.739 L 845.227 287.739 Q 845.52 287.754 845.539 287.754 L 845.539 287.754 L 845.539 287.754 Q 847.648 287.754 848.854 288.779 L 848.854 288.779 L 848.854 288.779 Q 850.061 289.805 850.061 291.592 L 850.061 291.592 L 850.061 291.592 Q 850.061 292.851 849.548 293.672 L 849.548 293.672 L 849.548 293.672 Q 849.035 294.492 847.932 294.99 L 847.932 294.99 L 847.932 294.99 Q 848.82 295.234 849.196 295.767 L 849.196 295.767 L 849.196 295.767 Q 849.572 296.299 849.68 297.666 L 849.68 297.666 L 849.855 300.029 L 849.855 300.029 Q 849.904 300.752 850.07 301.138 L 850.07 301.138 L 850.07 301.138 Q 850.236 301.523 850.578 301.689 L 850.578 301.689 L 850.578 302.109 L 848.273 302.109 L 848.273 302.109 Q 847.98 301.641 847.873 300.185 L 847.873 300.185 L 847.873 300.127 L 847.736 298.252 L 847.736 298.252 Q 847.629 296.797 847.033 296.372 L 847.033 296.372 L 847.033 296.372 Q 846.438 295.947 844.533 295.947 L 844.533 295.947 L 844.133 295.947 L 840.559 295.947 L 840.559 302.109 L 838.596 302.109 L 838.596 302.109 Z  M 853.137 302.109 L 853.137 287.725 L 855.1 287.725 L 855.1 302.109 L 853.137 302.109 L 853.137 302.109 Z  M 863.918 289.414 L 860.432 289.414 L 860.432 300.351 L 863.918 300.351 L 863.918 300.351 Q 866.164 300.351 867.282 298.931 L 867.282 298.931 L 867.282 298.931 Q 868.4 297.51 868.4 294.629 L 868.4 294.629 L 868.4 294.629 Q 868.4 292.139 867.224 290.776 L 867.224 290.776 L 867.224 290.776 Q 866.047 289.414 863.918 289.414 L 863.918 289.414 L 863.918 289.414 Z  M 858.479 302.109 L 858.479 287.725 L 864.074 287.725 L 864.074 287.725 Q 867.141 287.725 868.767 289.521 L 868.767 289.521 L 868.767 289.521 Q 870.393 291.318 870.393 294.707 L 870.393 294.707 L 870.393 294.707 Q 870.393 298.203 868.713 300.156 L 868.713 300.156 L 868.713 300.156 Q 867.033 302.109 864.016 302.109 L 864.016 302.109 L 858.479 302.109 L 858.479 302.109 Z  M 878.361 289.414 L 874.875 289.414 L 874.875 300.351 L 878.361 300.351 L 878.361 300.351 Q 880.607 300.351 881.726 298.931 L 881.726 298.931 L 881.726 298.931 Q 882.844 297.51 882.844 294.629 L 882.844 294.629 L 882.844 294.629 Q 882.844 292.139 881.667 290.776 L 881.667 290.776 L 881.667 290.776 Q 880.49 289.414 878.361 289.414 L 878.361 289.414 L 878.361 289.414 Z  M 872.922 302.109 L 872.922 287.725 L 878.518 287.725 L 878.518 287.725 Q 881.584 287.725 883.21 289.521 L 883.21 289.521 L 883.21 289.521 Q 884.836 291.318 884.836 294.707 L 884.836 294.707 L 884.836 294.707 Q 884.836 298.203 883.156 300.156 L 883.156 300.156 L 883.156 300.156 Q 881.477 302.109 878.459 302.109 L 878.459 302.109 L 872.922 302.109 L 872.922 302.109 Z  M 887.404 302.109 L 887.404 287.725 L 889.387 287.725 L 889.387 300.293 L 896.867 300.293 L 896.867 302.109 L 887.404 302.109 L 887.404 302.109 Z  M 898.527 302.109 L 898.527 287.725 L 909.211 287.725 L 909.211 289.512 L 900.471 289.512 L 900.471 293.809 L 908.527 293.809 L 908.527 295.488 L 900.471 295.488 L 900.471 300.312 L 909.387 300.312 L 909.387 302.109 L 898.527 302.109 L 898.527 302.109 Z  M 924.25 292.07 L 924.25 292.07 L 922.346 292.07 L 922.346 292.07 Q 922.072 290.635 921.003 289.834 L 921.003 289.834 L 921.003 289.834 Q 919.934 289.033 918.283 289.033 L 918.283 289.033 L 918.283 289.033 Q 915.871 289.033 914.538 290.561 L 914.538 290.561 L 914.538 290.561 Q 913.205 292.09 913.205 294.873 L 913.205 294.873 L 913.205 294.873 Q 913.205 297.617 914.528 299.175 L 914.528 299.175 L 914.528 299.175 Q 915.852 300.732 918.146 300.732 L 918.146 300.732 L 918.146 300.732 Q 920.207 300.732 921.447 299.492 L 921.447 299.492 L 921.447 299.492 Q 922.688 298.252 922.688 296.191 L 922.688 296.191 L 922.688 295.967 L 918.127 295.967 L 918.127 294.365 L 924.484 294.365 L 924.484 302.109 L 923.225 302.109 L 922.785 300.166 L 922.785 300.166 Q 921.936 301.328 920.69 301.919 L 920.69 301.919 L 920.69 301.919 Q 919.445 302.51 917.863 302.51 L 917.863 302.51 L 917.863 302.51 Q 914.914 302.51 913.059 300.42 L 913.059 300.42 L 913.059 300.42 Q 911.203 298.33 911.203 294.951 L 911.203 294.951 L 911.203 294.951 Q 911.203 291.455 913.112 289.404 L 913.112 289.404 L 913.112 289.404 Q 915.021 287.353 918.283 287.353 L 918.283 287.353 L 918.283 287.353 Q 920.764 287.353 922.355 288.613 L 922.355 288.613 L 922.355 288.613 Q 923.947 289.873 924.25 292.07 Z  M 933.586 287.353 L 933.586 287.353 L 933.586 287.353 Q 936.77 287.353 938.576 289.365 L 938.576 289.365 L 938.576 289.365 Q 940.383 291.377 940.383 294.932 L 940.383 294.932 L 940.383 294.932 Q 940.383 298.486 938.576 300.498 L 938.576 300.498 L 938.576 300.498 Q 936.77 302.51 933.586 302.51 L 933.586 302.51 L 933.586 302.51 Q 930.393 302.51 928.586 300.498 L 928.586 300.498 L 928.586 300.498 Q 926.779 298.486 926.779 294.932 L 926.779 294.932 L 926.779 294.932 Q 926.779 291.377 928.586 289.365 L 928.586 289.365 L 928.586 289.365 Q 930.393 287.353 933.586 287.353 Z  M 933.586 289.053 L 933.586 289.053 L 933.586 289.053 Q 931.34 289.053 930.07 290.61 L 930.07 290.61 L 930.07 290.61 Q 928.801 292.168 928.801 294.932 L 928.801 294.932 L 928.801 294.932 Q 928.801 297.695 930.075 299.263 L 930.075 299.263 L 930.075 299.263 Q 931.35 300.83 933.586 300.83 L 933.586 300.83 L 933.586 300.83 Q 935.822 300.83 937.092 299.263 L 937.092 299.263 L 937.092 299.263 Q 938.361 297.695 938.361 294.932 L 938.361 294.932 L 938.361 294.932 Q 938.361 292.168 937.092 290.61 L 937.092 290.61 L 937.092 290.61 Q 935.822 289.053 933.586 289.053 Z  M 942.863 296.65 L 942.863 287.725 L 944.816 287.725 L 944.816 296.67 L 944.816 296.67 Q 944.816 298.701 945.734 299.663 L 945.734 299.663 L 945.734 299.663 Q 946.652 300.625 948.576 300.625 L 948.576 300.625 L 948.576 300.625 Q 950.48 300.625 951.408 299.648 L 951.408 299.648 L 951.408 299.648 Q 952.336 298.672 952.336 296.67 L 952.336 296.67 L 952.336 287.725 L 954.299 287.725 L 954.299 296.65 L 954.299 296.65 Q 954.299 299.531 952.79 301.02 L 952.79 301.02 L 952.79 301.02 Q 951.281 302.51 948.361 302.51 L 948.361 302.51 L 948.361 302.51 Q 945.607 302.51 944.235 301.045 L 944.235 301.045 L 944.235 301.045 Q 942.863 299.58 942.863 296.65 L 942.863 296.65 L 942.863 296.65 Z  M 963.146 289.492 L 959.426 289.492 L 959.426 294.326 L 963 294.326 L 963 294.326 Q 964.846 294.326 965.583 293.765 L 965.583 293.765 L 965.583 293.765 Q 966.32 293.203 966.32 291.885 L 966.32 291.885 L 966.32 291.885 Q 966.32 290.615 965.588 290.054 L 965.588 290.054 L 965.588 290.054 Q 964.855 289.492 963.146 289.492 L 963.146 289.492 L 963.146 289.492 Z  M 957.463 302.109 L 957.463 287.725 L 962.521 287.725 L 962.521 287.725 Q 962.902 287.725 963.288 287.739 L 963.288 287.739 L 963.288 287.739 Q 963.674 287.754 963.684 287.754 L 963.684 287.754 L 963.684 287.754 Q 965.969 287.754 967.146 288.804 L 967.146 288.804 L 967.146 288.804 Q 968.322 289.853 968.322 291.885 L 968.322 291.885 L 968.322 291.885 Q 968.322 293.076 967.819 293.999 L 967.819 293.999 L 967.819 293.999 Q 967.316 294.922 966.379 295.469 L 966.379 295.469 L 966.379 295.469 Q 965.842 295.781 965.129 295.913 L 965.129 295.913 L 965.129 295.913 Q 964.416 296.045 962.658 296.045 L 962.658 296.045 L 959.426 296.045 L 959.426 302.109 L 957.463 302.109 L 957.463 302.109 Z  M 970.686 302.109 L 970.686 287.725 L 972.639 287.725 L 972.639 293.633 L 980.08 293.633 L 980.08 287.725 L 982.043 287.725 L 982.043 302.109 L 980.08 302.109 L 980.08 295.391 L 972.639 295.391 L 972.639 302.109 L 970.686 302.109 L 970.686 302.109 Z  M 718.518 302.109 L 718.518 287.725 L 728.635 287.725 L 728.635 289.531 L 720.5 289.531 L 720.5 293.848 L 727.6 293.848 L 727.6 295.605 L 720.5 295.605 L 720.5 302.109 L 718.518 302.109 L 718.518 302.109 Z  M 736.535 289.434 L 732.775 289.434 L 732.775 294.287 L 736.535 294.287 L 736.535 294.287 Q 738.537 294.287 739.387 293.696 L 739.387 293.696 L 739.387 293.696 Q 740.236 293.105 740.236 291.748 L 740.236 291.748 L 740.236 291.748 Q 740.236 290.537 739.46 289.985 L 739.46 289.985 L 739.46 289.985 Q 738.684 289.434 736.936 289.434 L 736.936 289.434 L 736.535 289.434 L 736.535 289.434 Z  M 730.813 302.109 L 730.813 287.725 L 736.877 287.725 L 736.877 287.725 Q 737.15 287.725 737.443 287.739 L 737.443 287.739 L 737.443 287.739 Q 737.736 287.754 737.756 287.754 L 737.756 287.754 L 737.756 287.754 Q 739.865 287.754 741.071 288.779 L 741.071 288.779 L 741.071 288.779 Q 742.277 289.805 742.277 291.592 L 742.277 291.592 L 742.277 291.592 Q 742.277 292.851 741.765 293.672 L 741.765 293.672 L 741.765 293.672 Q 741.252 294.492 740.148 294.99 L 740.148 294.99 L 740.148 294.99 Q 741.037 295.234 741.413 295.767 L 741.413 295.767 L 741.413 295.767 Q 741.789 296.299 741.896 297.666 L 741.896 297.666 L 742.072 300.029 L 742.072 300.029 Q 742.121 300.752 742.287 301.138 L 742.287 301.138 L 742.287 301.138 Q 742.453 301.523 742.795 301.689 L 742.795 301.689 L 742.795 302.109 L 740.49 302.109 L 740.49 302.109 Q 740.197 301.641 740.09 300.185 L 740.09 300.185 L 740.09 300.127 L 739.953 298.252 L 739.953 298.252 Q 739.846 296.797 739.25 296.372 L 739.25 296.372 L 739.25 296.372 Q 738.654 295.947 736.75 295.947 L 736.75 295.947 L 736.35 295.947 L 732.775 295.947 L 732.775 302.109 L 730.813 302.109 L 730.813 302.109 Z  M 752.639 296.152 L 750.236 289.668 L 747.795 296.152 L 752.639 296.152 L 752.639 296.152 Z  M 743.498 302.109 L 749.152 287.725 L 751.34 287.725 L 756.975 302.109 L 754.816 302.109 L 753.234 297.812 L 747.18 297.812 L 745.539 302.109 L 743.498 302.109 L 743.498 302.109 Z  M 758.439 302.109 L 758.439 287.725 L 760.578 287.725 L 767.297 298.174 L 767.297 298.174 Q 767.551 298.574 767.702 298.852 L 767.702 298.852 L 767.702 298.852 Q 767.854 299.131 767.961 299.385 L 767.961 299.385 L 767.961 287.725 L 769.816 287.725 L 769.816 302.109 L 767.697 302.109 L 760.832 291.533 L 760.832 291.533 Q 760.686 291.309 760.559 291.05 L 760.559 291.05 L 760.559 291.05 Q 760.432 290.791 760.295 290.449 L 760.295 290.449 L 760.295 302.109 L 758.439 302.109 L 758.439 302.109 Z  M 784.904 292.07 L 784.904 292.07 L 782.98 292.07 L 782.98 292.07 Q 782.707 290.644 781.667 289.868 L 781.667 289.868 L 781.667 289.868 Q 780.627 289.092 778.977 289.092 L 778.977 289.092 L 778.977 289.092 Q 776.74 289.092 775.51 290.625 L 775.51 290.625 L 775.51 290.625 Q 774.279 292.158 774.279 294.951 L 774.279 294.951 L 774.279 294.951 Q 774.279 297.568 775.554 299.17 L 775.554 299.17 L 775.554 299.17 Q 776.828 300.771 778.918 300.771 L 778.918 300.771 L 778.918 300.771 Q 780.734 300.771 781.892 299.673 L 781.892 299.673 L 781.892 299.673 Q 783.049 298.574 783.117 296.768 L 783.117 296.768 L 785.021 296.768 L 785.021 296.768 Q 784.914 299.355 783.22 300.933 L 783.22 300.933 L 783.22 300.933 Q 781.525 302.51 778.859 302.51 L 778.859 302.51 L 778.859 302.51 Q 775.822 302.51 774.05 300.454 L 774.05 300.454 L 774.05 300.454 Q 772.277 298.398 772.277 294.873 L 772.277 294.873 L 772.277 294.873 Q 772.277 291.387 774.094 289.37 L 774.094 289.37 L 774.094 289.37 Q 775.91 287.353 779.064 287.353 L 779.064 287.353 L 779.064 287.353 Q 781.506 287.353 783.088 288.633 L 783.088 288.633 L 783.088 288.633 Q 784.67 289.912 784.904 292.07 Z  M 787.58 302.109 L 787.58 287.725 L 789.543 287.725 L 789.543 302.109 L 787.58 302.109 L 787.58 302.109 Z  M 803.322 291.953 L 803.322 291.953 L 801.457 291.953 L 801.457 291.953 Q 801.389 290.537 800.456 289.751 L 800.456 289.751 L 800.456 289.751 Q 799.523 288.965 797.922 288.965 L 797.922 288.965 L 797.922 288.965 Q 796.369 288.965 795.485 289.604 L 795.485 289.604 L 795.485 289.604 Q 794.602 290.244 794.602 291.348 L 794.602 291.348 L 794.602 291.348 Q 794.602 292.939 798.4 293.789 L 798.4 293.789 L 798.4 293.789 Q 798.879 293.887 799.143 293.945 L 799.143 293.945 L 799.143 293.945 Q 801.926 294.59 802.844 295.469 L 802.844 295.469 L 802.844 295.469 Q 803.762 296.348 803.762 297.949 L 803.762 297.949 L 803.762 297.949 Q 803.762 300.029 802.233 301.26 L 802.233 301.26 L 802.233 301.26 Q 800.705 302.49 798.078 302.49 L 798.078 302.49 L 798.078 302.49 Q 795.393 302.49 793.889 301.162 L 793.889 301.162 L 793.889 301.162 Q 792.385 299.834 792.258 297.353 L 792.258 297.353 L 794.143 297.353 L 794.143 297.353 Q 794.172 298.945 795.246 299.868 L 795.246 299.868 L 795.246 299.868 Q 796.32 300.791 798.156 300.791 L 798.156 300.791 L 798.156 300.791 Q 799.836 300.791 800.827 300.073 L 800.827 300.073 L 800.827 300.073 Q 801.818 299.355 801.818 298.144 L 801.818 298.144 L 801.818 298.144 Q 801.818 296.533 798.176 295.713 L 798.176 295.713 L 798.176 295.713 Q 797.551 295.566 797.219 295.488 L 797.219 295.488 L 797.219 295.488 Q 794.631 294.873 793.684 294.009 L 793.684 294.009 L 793.684 294.009 Q 792.736 293.144 792.736 291.611 L 792.736 291.611 L 792.736 291.611 Q 792.736 289.687 794.182 288.52 L 794.182 288.52 L 794.182 288.52 Q 795.627 287.353 798.039 287.353 L 798.039 287.353 L 798.039 287.353 Q 800.48 287.353 801.892 288.579 L 801.892 288.579 L 801.892 288.579 Q 803.303 289.805 803.322 291.953 Z  M 689.982 291.953 L 689.982 291.953 L 688.117 291.953 L 688.117 291.953 Q 688.049 290.537 687.116 289.751 L 687.116 289.751 L 687.116 289.751 Q 686.184 288.965 684.582 288.965 L 684.582 288.965 L 684.582 288.965 Q 683.029 288.965 682.146 289.604 L 682.146 289.604 L 682.146 289.604 Q 681.262 290.244 681.262 291.348 L 681.262 291.348 L 681.262 291.348 Q 681.262 292.939 685.061 293.789 L 685.061 293.789 L 685.061 293.789 Q 685.539 293.887 685.803 293.945 L 685.803 293.945 L 685.803 293.945 Q 688.586 294.59 689.504 295.469 L 689.504 295.469 L 689.504 295.469 Q 690.422 296.348 690.422 297.949 L 690.422 297.949 L 690.422 297.949 Q 690.422 300.029 688.894 301.26 L 688.894 301.26 L 688.894 301.26 Q 687.365 302.49 684.738 302.49 L 684.738 302.49 L 684.738 302.49 Q 682.053 302.49 680.549 301.162 L 680.549 301.162 L 680.549 301.162 Q 679.045 299.834 678.918 297.353 L 678.918 297.353 L 680.803 297.353 L 680.803 297.353 Q 680.832 298.945 681.906 299.868 L 681.906 299.868 L 681.906 299.868 Q 682.98 300.791 684.816 300.791 L 684.816 300.791 L 684.816 300.791 Q 686.496 300.791 687.487 300.073 L 687.487 300.073 L 687.487 300.073 Q 688.479 299.355 688.479 298.144 L 688.479 298.144 L 688.479 298.144 Q 688.479 296.533 684.836 295.713 L 684.836 295.713 L 684.836 295.713 Q 684.211 295.566 683.879 295.488 L 683.879 295.488 L 683.879 295.488 Q 681.291 294.873 680.344 294.009 L 680.344 294.009 L 680.344 294.009 Q 679.396 293.144 679.396 291.611 L 679.396 291.611 L 679.396 291.611 Q 679.396 289.687 680.842 288.52 L 680.842 288.52 L 680.842 288.52 Q 682.287 287.353 684.699 287.353 L 684.699 287.353 L 684.699 287.353 Q 687.141 287.353 688.552 288.579 L 688.552 288.579 L 688.552 288.579 Q 689.963 289.805 689.982 291.953 Z  M 693.137 302.109 L 693.137 287.725 L 695.1 287.725 L 695.1 302.109 L 693.137 302.109 L 693.137 302.109 Z  M 704.318 289.434 L 700.559 289.434 L 700.559 294.287 L 704.318 294.287 L 704.318 294.287 Q 706.32 294.287 707.17 293.696 L 707.17 293.696 L 707.17 293.696 Q 708.02 293.105 708.02 291.748 L 708.02 291.748 L 708.02 291.748 Q 708.02 290.537 707.243 289.985 L 707.243 289.985 L 707.243 289.985 Q 706.467 289.434 704.719 289.434 L 704.719 289.434 L 704.318 289.434 L 704.318 289.434 Z  M 698.596 302.109 L 698.596 287.725 L 704.66 287.725 L 704.66 287.725 Q 704.934 287.725 705.227 287.739 L 705.227 287.739 L 705.227 287.739 Q 705.52 287.754 705.539 287.754 L 705.539 287.754 L 705.539 287.754 Q 707.648 287.754 708.854 288.779 L 708.854 288.779 L 708.854 288.779 Q 710.061 289.805 710.061 291.592 L 710.061 291.592 L 710.061 291.592 Q 710.061 292.851 709.548 293.672 L 709.548 293.672 L 709.548 293.672 Q 709.035 294.492 707.932 294.99 L 707.932 294.99 L 707.932 294.99 Q 708.82 295.234 709.196 295.767 L 709.196 295.767 L 709.196 295.767 Q 709.572 296.299 709.68 297.666 L 709.68 297.666 L 709.855 300.029 L 709.855 300.029 Q 709.904 300.752 710.07 301.138 L 710.07 301.138 L 710.07 301.138 Q 710.236 301.523 710.578 301.689 L 710.578 301.689 L 710.578 302.109 L 708.273 302.109 L 708.273 302.109 Q 707.98 301.641 707.873 300.185 L 707.873 300.185 L 707.873 300.127 L 707.736 298.252 L 707.736 298.252 Q 707.629 296.797 707.033 296.372 L 707.033 296.372 L 707.033 296.372 Q 706.438 295.947 704.533 295.947 L 704.533 295.947 L 704.133 295.947 L 700.559 295.947 L 700.559 302.109 L 698.596 302.109 L 698.596 302.109 Z " fill="rgb(0,0,0)"/><path d=" M 1096.785 288.644 L 1096.912 288.644 L 1096.912 288.644 Q 1099.48 289.084 1099.48 290.246 L 1099.48 290.246 L 1099.48 290.422 L 1099.48 290.422 Q 1099.1 291.486 1098.455 291.486 L 1098.455 291.486 L 1097.664 291.301 L 1098.23 290.363 L 1098.23 290.275 L 1098.23 290.275 Q 1097.977 289.416 1096.58 289.631 L 1096.58 289.631 L 1096.58 289.631 Q 1094.529 290.178 1094.021 291.457 L 1094.021 291.457 L 1094.021 291.457 Q 1093.66 291.848 1093.592 292.814 L 1093.592 292.814 L 1093.436 294.269 L 1093.484 294.211 L 1093.484 294.211 Q 1095.154 293.703 1096.912 293.547 L 1096.912 293.547 L 1096.912 293.547 Q 1097.547 293.664 1097.547 293.82 L 1097.547 293.82 L 1097.547 294.504 L 1097.547 294.504 Q 1094.373 294.826 1093.826 295.305 L 1093.826 295.305 L 1093.436 295.568 L 1093.436 295.568 Q 1094.471 300.324 1096.648 301.945 L 1096.648 301.945 L 1096.785 302.297 L 1096.141 302.756 L 1095.76 302.756 L 1095.76 302.756 Q 1095.34 302.551 1092.107 299.543 L 1092.107 299.543 L 1092.107 299.543 Q 1090.857 298.293 1090.857 296.789 L 1090.857 296.789 L 1090.857 296.789 Q 1090.936 295.92 1092.547 294.943 L 1092.547 294.943 L 1092.42 294.064 L 1092.42 294.064 Q 1092.42 291.769 1093.826 290.07 L 1093.826 290.07 L 1093.826 290.07 Q 1093.826 289.348 1096.785 288.644 L 1096.785 288.644 L 1096.785 288.644 Z  M 1092.029 297.482 L 1092.029 297.482 L 1092.029 297.482 Q 1092.029 298.283 1093.953 300.187 L 1093.953 300.187 L 1094.217 300.187 L 1094.217 300.187 Q 1093.699 299.523 1092.801 296.271 L 1092.801 296.271 L 1092.801 296.271 Q 1092.029 296.564 1092.029 297.482 Z  M 1102.654 295.832 L 1102.654 295.832 L 1103.084 295.832 L 1103.523 296.262 L 1103.523 296.262 Q 1103.523 297.57 1099.197 300.588 L 1099.197 300.588 L 1099.197 300.881 L 1099.197 300.881 Q 1099.822 301.75 1101.209 301.75 L 1101.209 301.75 L 1101.209 301.75 Q 1103.533 301.594 1105.691 300.305 L 1105.691 300.305 L 1106.121 300.305 L 1106.258 300.744 L 1106.258 300.744 Q 1104.09 302.619 1101.355 302.619 L 1101.355 302.619 L 1100.916 302.756 L 1100.916 302.756 Q 1098.035 302.756 1098.035 300.588 L 1098.035 300.588 L 1098.035 300.305 L 1098.035 300.305 Q 1098.035 297.238 1102.654 295.832 Z  M 1099.334 299.289 L 1099.334 299.289 L 1099.334 299.289 Q 1100.887 298.771 1101.785 297.551 L 1101.785 297.551 L 1101.785 297.414 L 1101.502 297.131 L 1101.502 297.131 Q 1099.578 298.303 1099.334 299.289 Z  M 1110.428 295.353 L 1110.428 295.353 L 1110.594 295.353 L 1111.229 295.998 L 1111.229 296.633 L 1111.229 296.633 Q 1111.229 298.508 1110.906 299.201 L 1110.906 299.201 L 1111.072 299.357 L 1111.072 299.523 L 1110.906 300.002 L 1110.906 300.002 Q 1111.209 301.447 1112.195 301.447 L 1112.195 301.447 L 1112.195 301.447 Q 1112.967 301.31 1114.92 299.523 L 1114.92 299.523 L 1114.92 299.523 Q 1114.92 299.24 1115.721 299.201 L 1115.721 299.201 L 1115.877 299.357 L 1115.877 299.523 L 1115.877 299.523 Q 1114.012 302.57 1112.029 302.57 L 1112.029 302.57 L 1111.395 302.57 L 1111.395 302.57 Q 1110.682 302.57 1109.627 301.447 L 1109.627 301.447 L 1109.627 301.447 Q 1107.938 302.726 1107.068 302.726 L 1107.068 302.726 L 1107.068 302.726 Q 1105.623 302.726 1105.301 300.646 L 1105.301 300.646 L 1105.301 300.646 Q 1106.688 295.353 1110.428 295.353 Z  M 1106.746 299.68 L 1106.58 300.48 L 1106.58 301.125 L 1106.902 301.447 L 1107.068 301.447 L 1107.068 301.447 Q 1109.109 301.447 1109.471 298.879 L 1109.471 298.879 L 1109.471 296.955 L 1109.471 296.955 Q 1108.113 296.955 1106.746 299.68 L 1106.746 299.68 L 1106.746 299.68 Z  M 1119.373 288.654 L 1119.373 288.654 L 1119.734 289.016 L 1119.734 289.191 L 1118.67 291.486 L 1118.318 292.717 L 1118.318 293.059 L 1120.262 292.717 L 1121.492 292.717 L 1121.492 293.059 L 1121.492 293.059 Q 1121.424 293.469 1117.791 294.475 L 1117.791 294.475 L 1117.791 294.475 Q 1117.254 296.789 1117.254 298.713 L 1117.254 298.713 L 1117.254 299.943 L 1117.254 299.943 Q 1117.469 301.252 1117.957 301.34 L 1117.957 301.34 L 1117.957 301.34 Q 1118.689 301.34 1119.9 300.109 L 1119.9 300.109 L 1120.076 300.109 L 1120.428 300.471 L 1120.428 300.637 L 1120.428 300.637 Q 1118.748 302.756 1117.791 302.756 L 1117.791 302.756 L 1117.791 302.756 Q 1115.672 301.711 1115.672 299.055 L 1115.672 299.055 L 1116.385 294.836 L 1116.199 294.836 L 1114.803 295.178 L 1114.441 295.178 L 1114.441 294.475 L 1114.441 294.475 Q 1114.441 294.172 1116.727 293.596 L 1116.727 293.596 L 1116.727 293.596 Q 1118.26 288.654 1119.373 288.654 Z  M 1125.467 295.021 L 1125.467 295.021 L 1125.867 299.133 L 1125.867 299.133 Q 1126.561 301.154 1126.561 302.131 L 1126.561 302.131 L 1126.561 302.131 Q 1126.463 302.756 1125.965 302.756 L 1125.965 302.756 L 1125.965 302.756 Q 1125.701 302.756 1125.369 300.236 L 1125.369 300.236 L 1125.369 300.236 Q 1125.164 300.197 1125.066 299.133 L 1125.066 299.133 L 1122.762 301.33 L 1122.762 301.33 Q 1122.762 301.652 1121.766 301.809 L 1121.766 301.809 L 1121.766 301.809 Q 1119.871 301.213 1119.871 298.81 L 1119.871 298.81 L 1119.871 297.707 L 1119.871 297.707 Q 1119.871 296.135 1120.564 295.656 L 1120.564 295.656 L 1120.564 295.656 Q 1120.867 295.764 1120.975 296.291 L 1120.975 296.291 L 1120.975 296.291 Q 1120.77 296.906 1120.77 298.019 L 1120.77 298.019 L 1120.77 298.019 Q 1120.77 299.709 1121.375 300.383 L 1121.375 300.383 L 1122.068 300.383 L 1122.068 300.383 Q 1124.861 299.035 1124.861 295.5 L 1124.861 295.5 L 1124.861 295.5 Q 1125.125 295.021 1125.467 295.021 Z  M 1133.064 294.816 L 1133.064 294.816 L 1133.221 294.816 L 1133.221 294.816 Q 1133.914 294.816 1135.125 296.252 L 1135.125 296.252 L 1135.125 296.252 Q 1136.248 296.799 1136.248 297.512 L 1136.248 297.512 L 1136.082 297.678 L 1135.604 297.678 L 1133.387 296.574 L 1133.221 296.574 L 1133.221 296.574 Q 1132.117 299.475 1131.482 302.434 L 1131.482 302.434 L 1130.525 302.756 L 1130.047 301.955 L 1130.203 301.955 L 1130.047 301.799 L 1130.047 300.851 L 1130.047 300.851 Q 1130.047 298.908 1128.943 298.312 L 1128.943 298.312 L 1128.943 298.312 Q 1128.035 298.312 1127.195 300.06 L 1127.195 300.06 L 1126.883 300.06 L 1126.561 299.738 L 1126.561 299.582 L 1126.561 299.582 Q 1126.561 297.648 1129.256 297.033 L 1129.256 297.033 L 1129.256 297.033 Q 1131.004 298.117 1131.004 299.738 L 1131.004 299.738 L 1131.16 299.738 L 1131.16 299.738 Q 1132.234 294.816 1133.064 294.816 Z  M 1138.055 294.689 L 1138.709 294.172 L 1138.973 294.172 L 1139.49 294.689 L 1139.49 294.816 L 1139.49 294.816 Q 1139.49 295.734 1138.582 295.734 L 1138.582 295.734 L 1138.582 295.734 Q 1138.211 295.734 1138.055 294.689 L 1138.055 294.689 L 1138.055 294.689 Z  M 1138.055 297.424 L 1138.055 297.424 L 1138.318 297.424 L 1138.318 297.424 Q 1138.963 297.424 1139.227 301.711 L 1139.227 301.711 L 1139.754 301.848 L 1139.754 301.848 Q 1140.32 301.848 1141.443 300.939 L 1141.443 300.939 L 1141.697 300.939 L 1141.697 301.066 L 1141.697 301.066 Q 1141.697 302.453 1139.881 302.756 L 1139.881 302.756 L 1139.881 302.756 Q 1138.26 302.756 1138.055 300.676 L 1138.055 300.676 L 1138.055 299.768 L 1138.191 299.631 L 1138.191 299.631 Q 1138.016 298.723 1137.801 298.723 L 1137.801 298.723 L 1137.801 298.723 Q 1136.639 301.213 1136.111 301.457 L 1136.111 301.457 L 1135.721 301.457 L 1135.457 301.193 L 1135.457 301.193 Q 1136.932 298.088 1138.055 297.424 Z  M 1145.545 296.379 L 1145.545 296.379 L 1145.545 296.379 Q 1146.502 296.379 1146.59 300.676 L 1146.59 300.676 L 1146.59 300.676 Q 1147.068 301.066 1147.498 301.066 L 1147.498 301.066 L 1149.969 299.894 L 1150.232 299.894 L 1150.232 300.021 L 1150.232 300.021 Q 1149.637 301.223 1146.854 302.492 L 1146.854 302.492 L 1146.854 302.492 Q 1146.248 302.492 1145.418 301.066 L 1145.418 301.066 L 1145.291 297.941 L 1145.164 297.814 L 1145.164 297.814 Q 1144.803 297.814 1143.465 300.285 L 1143.465 300.285 L 1143.465 300.285 Q 1142.352 302.756 1141.385 302.756 L 1141.385 302.756 L 1141.131 302.756 L 1141.131 302.756 Q 1140.477 302.394 1140.477 300.939 L 1140.477 300.939 L 1140.477 300.939 Q 1140.477 299.777 1141.258 297.814 L 1141.258 297.814 L 1141.258 297.814 Q 1141.912 297.99 1141.912 298.723 L 1141.912 298.723 L 1141.775 300.939 L 1141.775 300.939 Q 1142.557 300.334 1144.246 297.16 L 1144.246 297.16 L 1144.246 297.16 Q 1145.037 296.379 1145.545 296.379 Z  M 1151.443 303.43 L 1151.443 303.43 L 1151.326 304.269 L 1151.326 304.269 Q 1151.16 305.578 1151.941 305.861 L 1151.941 305.861 L 1152.42 305.861 L 1152.42 305.861 Q 1153.768 304.123 1153.523 301.545 L 1153.523 301.545 L 1153.572 300.529 L 1153.572 300.529 Q 1151.688 301.555 1151.443 303.43 Z  M 1154.646 299.992 L 1154.646 299.992 L 1154.646 299.992 Q 1154.813 305.402 1152.771 306.877 L 1152.771 306.877 L 1152.117 307.014 L 1151.619 307.014 L 1151.619 307.014 Q 1150.457 306.457 1150.457 304.279 L 1150.457 304.279 L 1150.457 303.205 L 1150.457 303.205 Q 1150.506 300.393 1153.406 299.465 L 1153.406 299.465 L 1153.406 299.465 Q 1153.699 299.465 1153.699 298.342 L 1153.699 298.342 L 1153.699 297.521 L 1153.699 297.521 Q 1153.582 297.951 1153.357 298.459 L 1153.357 298.459 L 1153.357 298.459 Q 1152.078 300.207 1150.555 300.49 L 1150.555 300.49 L 1150.555 300.49 Q 1149.061 300.353 1149.061 299.416 L 1149.061 299.416 L 1149.061 299.416 Q 1149.09 297.98 1150.594 296.105 L 1150.594 296.105 L 1151.736 295.344 L 1151.912 295.226 L 1152.234 295.226 L 1152.576 295.871 L 1152.576 295.871 Q 1150.564 297.082 1150.086 298.342 L 1150.086 298.342 L 1150.086 298.342 Q 1149.734 299.23 1150.555 299.533 L 1150.555 299.533 L 1151.053 299.533 L 1151.053 299.533 Q 1152.703 298.791 1152.703 296.682 L 1152.703 296.682 L 1153.201 296.33 L 1153.699 296.33 L 1153.699 296.33 Q 1154.656 296.33 1154.754 297.033 L 1154.754 297.033 L 1154.578 299.133 L 1154.754 299.064 L 1154.754 299.064 Q 1158.357 297.57 1159.012 297.57 L 1159.012 297.57 L 1159.012 297.824 L 1159.178 297.824 L 1159.178 297.824 Q 1159.129 298.127 1154.646 299.992 Z " fill="rgb(0,0,0)"/><path d=" M 1264.904 291.569 L 1264.904 295.612 L 1268.225 295.612 L 1268.225 295.612 Q 1270.051 295.612 1270.783 295.148 L 1270.783 295.148 L 1270.783 295.148 Q 1271.516 294.685 1271.516 293.591 L 1271.516 293.591 L 1271.516 293.591 Q 1271.516 292.468 1270.881 292.018 L 1270.881 292.018 L 1270.881 292.018 Q 1270.246 291.569 1268.459 291.569 L 1268.459 291.569 L 1264.904 291.569 L 1264.904 291.569 Z  M 1264.904 303.054 L 1261.281 303.054 L 1261.281 288.61 L 1269.836 288.61 L 1269.836 288.61 Q 1272.355 288.61 1273.767 289.914 L 1273.767 289.914 L 1273.767 289.914 Q 1275.178 291.218 1275.178 293.532 L 1275.178 293.532 L 1275.178 293.532 Q 1275.178 295.847 1273.767 297.141 L 1273.767 297.141 L 1273.767 297.141 Q 1272.355 298.435 1269.836 298.435 L 1269.836 298.435 L 1264.904 298.435 L 1264.904 303.054 L 1264.904 303.054 Z  M 1281.008 303.054 L 1277.385 303.054 L 1277.385 288.61 L 1281.008 288.61 L 1281.008 303.054 L 1281.008 303.054 Z  M 1295.344 303.054 L 1284.289 303.054 L 1284.289 288.61 L 1287.912 288.61 L 1287.912 300.017 L 1295.344 300.017 L 1295.344 303.054 L 1295.344 303.054 Z  M 1301.027 303.054 L 1297.551 303.054 L 1297.551 288.61 L 1302.229 288.61 L 1306.887 298.952 L 1311.672 288.61 L 1316.311 288.61 L 1316.311 303.054 L 1312.834 303.054 L 1312.834 293.415 L 1308.352 303.054 L 1305.334 303.054 L 1301.027 293.249 L 1301.027 303.054 L 1301.027 303.054 Z  M 1325.549 292.614 L 1323.674 297.077 L 1327.492 297.077 L 1325.549 292.614 L 1325.549 292.614 Z  M 1321.135 303.054 L 1317.229 303.054 L 1324.074 288.61 L 1327.551 288.61 L 1334.133 303.054 L 1330.109 303.054 L 1328.791 299.997 L 1322.434 299.997 L 1321.135 303.054 L 1321.135 303.054 Z  M 1338.674 291.491 L 1338.674 294.772 L 1342.766 294.772 L 1342.766 294.772 Q 1344.387 294.772 1345.046 294.377 L 1345.046 294.377 L 1345.046 294.377 Q 1345.705 293.981 1345.705 293.073 L 1345.705 293.073 L 1345.705 293.073 Q 1345.705 292.194 1345.09 291.843 L 1345.09 291.843 L 1345.09 291.843 Q 1344.475 291.491 1342.609 291.491 L 1342.609 291.491 L 1338.674 291.491 L 1338.674 291.491 Z  M 1338.674 303.054 L 1335.051 303.054 L 1335.051 288.61 L 1343.928 288.61 L 1343.928 288.61 Q 1346.818 288.61 1348.186 289.558 L 1348.186 289.558 L 1348.186 289.558 Q 1349.553 290.505 1349.553 292.497 L 1349.553 292.497 L 1349.553 292.497 Q 1349.553 293.767 1348.913 294.743 L 1348.913 294.743 L 1348.913 294.743 Q 1348.273 295.72 1347.15 296.149 L 1347.15 296.149 L 1347.15 296.149 Q 1348.107 296.55 1348.493 297.141 L 1348.493 297.141 L 1348.493 297.141 Q 1348.879 297.731 1348.947 299.226 L 1348.947 299.226 L 1348.947 299.226 Q 1348.957 299.372 1348.967 299.626 L 1348.967 299.626 L 1348.967 299.626 Q 1349.084 302.311 1349.729 303.054 L 1349.729 303.054 L 1345.666 303.054 L 1345.666 303.054 Q 1345.52 302.819 1345.446 302.536 L 1345.446 302.536 L 1345.446 302.536 Q 1345.373 302.253 1345.373 301.931 L 1345.373 301.931 L 1345.373 300.954 L 1345.373 300.954 Q 1345.373 298.962 1344.86 298.347 L 1344.86 298.347 L 1344.86 298.347 Q 1344.348 297.731 1342.854 297.731 L 1342.854 297.731 L 1342.766 297.731 L 1338.674 297.731 L 1338.674 303.054 L 1338.674 303.054 Z  M 1355.793 303.054 L 1352.17 303.054 L 1352.17 288.61 L 1355.793 288.61 L 1355.793 294.157 L 1361.867 288.61 L 1366.525 288.61 L 1360.168 294.216 L 1367.307 303.054 L 1362.873 303.054 L 1357.629 296.433 L 1355.793 298.054 L 1355.793 303.054 L 1355.793 303.054 Z  M 1166.516 298.356 L 1166.516 298.054 L 1170.217 298.054 L 1170.217 298.19 L 1170.217 298.19 Q 1170.217 299.411 1171.291 300.051 L 1171.291 300.051 L 1171.291 300.051 Q 1172.365 300.69 1174.416 300.69 L 1174.416 300.69 L 1174.416 300.69 Q 1175.998 300.69 1176.857 300.226 L 1176.857 300.226 L 1176.857 300.226 Q 1177.717 299.763 1177.717 298.913 L 1177.717 298.913 L 1177.717 298.913 Q 1177.717 298.2 1177.155 297.863 L 1177.155 297.863 L 1177.155 297.863 Q 1176.594 297.526 1174.885 297.351 L 1174.885 297.351 L 1172.316 297.097 L 1172.316 297.097 Q 1169.504 296.804 1168.181 295.817 L 1168.181 295.817 L 1168.181 295.817 Q 1166.857 294.831 1166.857 293.034 L 1166.857 293.034 L 1166.857 293.034 Q 1166.857 290.905 1168.767 289.567 L 1168.767 289.567 L 1168.767 289.567 Q 1170.676 288.229 1173.82 288.229 L 1173.82 288.229 L 1173.82 288.229 Q 1177.199 288.229 1179.108 289.489 L 1179.108 289.489 L 1179.108 289.489 Q 1181.018 290.749 1181.018 292.936 L 1181.018 292.936 L 1181.018 293.054 L 1177.424 293.054 L 1177.424 293.054 Q 1177.297 291.97 1176.413 291.433 L 1176.413 291.433 L 1176.413 291.433 Q 1175.529 290.895 1173.879 290.895 L 1173.879 290.895 L 1173.879 290.895 Q 1172.355 290.895 1171.516 291.33 L 1171.516 291.33 L 1171.516 291.33 Q 1170.676 291.765 1170.676 292.556 L 1170.676 292.556 L 1170.676 292.556 Q 1170.676 293.19 1171.169 293.483 L 1171.169 293.483 L 1171.169 293.483 Q 1171.662 293.776 1173.596 293.991 L 1173.596 293.991 L 1176.281 294.274 L 1176.281 294.274 Q 1179.055 294.577 1180.358 295.607 L 1180.358 295.607 L 1180.358 295.607 Q 1181.662 296.638 1181.662 298.513 L 1181.662 298.513 L 1181.662 298.513 Q 1181.662 300.925 1179.704 302.18 L 1179.704 302.18 L 1179.704 302.18 Q 1177.746 303.435 1173.977 303.435 L 1173.977 303.435 L 1173.977 303.435 Q 1170.383 303.435 1168.449 302.116 L 1168.449 302.116 L 1168.449 302.116 Q 1166.516 300.798 1166.516 298.356 L 1166.516 298.356 L 1166.516 298.356 Z  M 1192.18 300.456 L 1192.18 300.456 L 1192.18 300.456 Q 1194.348 300.456 1195.593 299.221 L 1195.593 299.221 L 1195.593 299.221 Q 1196.838 297.985 1196.838 295.837 L 1196.838 295.837 L 1196.838 295.837 Q 1196.838 293.669 1195.593 292.434 L 1195.593 292.434 L 1195.593 292.434 Q 1194.348 291.198 1192.18 291.198 L 1192.18 291.198 L 1192.18 291.198 Q 1190.012 291.198 1188.757 292.438 L 1188.757 292.438 L 1188.757 292.438 Q 1187.502 293.679 1187.502 295.837 L 1187.502 295.837 L 1187.502 295.837 Q 1187.502 297.985 1188.752 299.221 L 1188.752 299.221 L 1188.752 299.221 Q 1190.002 300.456 1192.18 300.456 Z  M 1183.518 295.837 L 1183.518 295.837 L 1183.518 295.837 Q 1183.518 292.37 1185.871 290.3 L 1185.871 290.3 L 1185.871 290.3 Q 1188.225 288.229 1192.18 288.229 L 1192.18 288.229 L 1192.18 288.229 Q 1196.135 288.229 1198.479 290.3 L 1198.479 290.3 L 1198.479 290.3 Q 1200.822 292.37 1200.822 295.837 L 1200.822 295.837 L 1200.822 295.837 Q 1200.822 299.304 1198.479 301.369 L 1198.479 301.369 L 1198.479 301.369 Q 1196.135 303.435 1192.18 303.435 L 1192.18 303.435 L 1192.18 303.435 Q 1188.225 303.435 1185.871 301.369 L 1185.871 301.369 L 1185.871 301.369 Q 1183.518 299.304 1183.518 295.837 Z  M 1206.926 291.491 L 1206.926 294.772 L 1211.018 294.772 L 1211.018 294.772 Q 1212.639 294.772 1213.298 294.377 L 1213.298 294.377 L 1213.298 294.377 Q 1213.957 293.981 1213.957 293.073 L 1213.957 293.073 L 1213.957 293.073 Q 1213.957 292.194 1213.342 291.843 L 1213.342 291.843 L 1213.342 291.843 Q 1212.727 291.491 1210.861 291.491 L 1210.861 291.491 L 1206.926 291.491 L 1206.926 291.491 Z  M 1206.926 303.054 L 1203.303 303.054 L 1203.303 288.61 L 1212.18 288.61 L 1212.18 288.61 Q 1215.07 288.61 1216.438 289.558 L 1216.438 289.558 L 1216.438 289.558 Q 1217.805 290.505 1217.805 292.497 L 1217.805 292.497 L 1217.805 292.497 Q 1217.805 293.767 1217.165 294.743 L 1217.165 294.743 L 1217.165 294.743 Q 1216.525 295.72 1215.402 296.149 L 1215.402 296.149 L 1215.402 296.149 Q 1216.359 296.55 1216.745 297.141 L 1216.745 297.141 L 1216.745 297.141 Q 1217.131 297.731 1217.199 299.226 L 1217.199 299.226 L 1217.199 299.226 Q 1217.209 299.372 1217.219 299.626 L 1217.219 299.626 L 1217.219 299.626 Q 1217.336 302.311 1217.98 303.054 L 1217.98 303.054 L 1213.918 303.054 L 1213.918 303.054 Q 1213.771 302.819 1213.698 302.536 L 1213.698 302.536 L 1213.698 302.536 Q 1213.625 302.253 1213.625 301.931 L 1213.625 301.931 L 1213.625 300.954 L 1213.625 300.954 Q 1213.625 298.962 1213.112 298.347 L 1213.112 298.347 L 1213.112 298.347 Q 1212.6 297.731 1211.105 297.731 L 1211.105 297.731 L 1211.018 297.731 L 1206.926 297.731 L 1206.926 303.054 L 1206.926 303.054 Z  M 1233.244 303.054 L 1220.422 303.054 L 1220.422 288.61 L 1233.244 288.61 L 1233.244 291.53 L 1224.045 291.53 L 1224.045 293.972 L 1232.238 293.972 L 1232.238 296.911 L 1224.045 296.911 L 1224.045 300.017 L 1233.244 300.017 L 1233.244 303.054 L 1233.244 303.054 Z  M 1239.055 303.054 L 1235.598 303.054 L 1235.598 288.61 L 1240.041 288.61 L 1247.258 298.796 L 1247.258 288.61 L 1250.734 288.61 L 1250.734 303.054 L 1246.34 303.054 L 1239.055 292.77 L 1239.055 303.054 L 1239.055 303.054 Z " fill="rgb(0,0,0)"/></g><path d=" M 1096.289 260.479 L 1093.849 260.479 L 1093.849 268.135 L 1096.289 268.135 L 1096.289 268.135 Q 1097.861 268.135 1098.644 267.14 L 1098.644 267.14 L 1098.644 267.14 Q 1099.427 266.146 1099.427 264.129 L 1099.427 264.129 L 1099.427 264.129 Q 1099.427 262.386 1098.603 261.432 L 1098.603 261.432 L 1098.603 261.432 Q 1097.779 260.479 1096.289 260.479 L 1096.289 260.479 L 1096.289 260.479 Z  M 1092.481 269.365 L 1092.481 259.296 L 1096.398 259.296 L 1096.398 259.296 Q 1098.545 259.296 1099.683 260.554 L 1099.683 260.554 L 1099.683 260.554 Q 1100.821 261.812 1100.821 264.184 L 1100.821 264.184 L 1100.821 264.184 Q 1100.821 266.631 1099.646 267.998 L 1099.646 267.998 L 1099.646 267.998 Q 1098.47 269.365 1096.357 269.365 L 1096.357 269.365 L 1092.481 269.365 L 1092.481 269.365 Z  M 1107.842 265.195 L 1106.16 260.656 L 1104.451 265.195 L 1107.842 265.195 L 1107.842 265.195 Z  M 1101.443 269.365 L 1105.401 259.296 L 1106.933 259.296 L 1110.877 269.365 L 1109.366 269.365 L 1108.259 266.358 L 1104.021 266.358 L 1102.872 269.365 L 1101.443 269.365 L 1101.443 269.365 Z  M 1111.902 269.365 L 1111.902 259.296 L 1113.399 259.296 L 1118.103 266.61 L 1118.103 266.61 Q 1118.28 266.891 1118.386 267.086 L 1118.386 267.086 L 1118.386 267.086 Q 1118.492 267.28 1118.567 267.458 L 1118.567 267.458 L 1118.567 259.296 L 1119.866 259.296 L 1119.866 269.365 L 1118.383 269.365 L 1113.577 261.962 L 1113.577 261.962 Q 1113.475 261.805 1113.386 261.624 L 1113.386 261.624 L 1113.386 261.624 Q 1113.297 261.443 1113.201 261.203 L 1113.201 261.203 L 1113.201 269.365 L 1111.902 269.365 L 1111.902 269.365 Z  M 1130.428 262.338 L 1130.428 262.338 L 1129.081 262.338 L 1129.081 262.338 Q 1128.89 261.34 1128.162 260.797 L 1128.162 260.797 L 1128.162 260.797 Q 1127.434 260.253 1126.278 260.253 L 1126.278 260.253 L 1126.278 260.253 Q 1124.713 260.253 1123.852 261.326 L 1123.852 261.326 L 1123.852 261.326 Q 1122.99 262.4 1122.99 264.355 L 1122.99 264.355 L 1122.99 264.355 Q 1122.99 266.187 1123.882 267.308 L 1123.882 267.308 L 1123.882 267.308 Q 1124.774 268.429 1126.237 268.429 L 1126.237 268.429 L 1126.237 268.429 Q 1127.509 268.429 1128.319 267.66 L 1128.319 267.66 L 1128.319 267.66 Q 1129.129 266.891 1129.177 265.626 L 1129.177 265.626 L 1130.51 265.626 L 1130.51 265.626 Q 1130.435 267.438 1129.249 268.542 L 1129.249 268.542 L 1129.249 268.542 Q 1128.063 269.646 1126.196 269.646 L 1126.196 269.646 L 1126.196 269.646 Q 1124.07 269.646 1122.83 268.207 L 1122.83 268.207 L 1122.83 268.207 Q 1121.589 266.768 1121.589 264.3 L 1121.589 264.3 L 1121.589 264.3 Q 1121.589 261.859 1122.86 260.448 L 1122.86 260.448 L 1122.86 260.448 Q 1124.132 259.036 1126.34 259.036 L 1126.34 259.036 L 1126.34 259.036 Q 1128.049 259.036 1129.156 259.932 L 1129.156 259.932 L 1129.156 259.932 Q 1130.264 260.827 1130.428 262.338 Z  M 1132.178 269.365 L 1132.178 259.296 L 1139.656 259.296 L 1139.656 260.547 L 1133.538 260.547 L 1133.538 263.555 L 1139.178 263.555 L 1139.178 264.731 L 1133.538 264.731 L 1133.538 268.108 L 1139.779 268.108 L 1139.779 269.365 L 1132.178 269.365 L 1132.178 269.365 Z  M 1064.283 265.195 L 1062.602 260.656 L 1060.893 265.195 L 1064.283 265.195 L 1064.283 265.195 Z  M 1057.885 269.365 L 1061.843 259.296 L 1063.374 259.296 L 1067.318 269.365 L 1065.808 269.365 L 1064.7 266.358 L 1060.462 266.358 L 1059.313 269.365 L 1057.885 269.365 L 1057.885 269.365 Z  M 1068.344 269.365 L 1068.344 259.296 L 1069.841 259.296 L 1074.544 266.61 L 1074.544 266.61 Q 1074.722 266.891 1074.828 267.086 L 1074.828 267.086 L 1074.828 267.086 Q 1074.934 267.28 1075.009 267.458 L 1075.009 267.458 L 1075.009 259.296 L 1076.308 259.296 L 1076.308 269.365 L 1074.824 269.365 L 1070.019 261.962 L 1070.019 261.962 Q 1069.916 261.805 1069.827 261.624 L 1069.827 261.624 L 1069.827 261.624 Q 1069.738 261.443 1069.643 261.203 L 1069.643 261.203 L 1069.643 269.365 L 1068.344 269.365 L 1068.344 269.365 Z  M 1082.289 260.479 L 1079.849 260.479 L 1079.849 268.135 L 1082.289 268.135 L 1082.289 268.135 Q 1083.861 268.135 1084.644 267.14 L 1084.644 267.14 L 1084.644 267.14 Q 1085.427 266.146 1085.427 264.129 L 1085.427 264.129 L 1085.427 264.129 Q 1085.427 262.386 1084.603 261.432 L 1084.603 261.432 L 1084.603 261.432 Q 1083.779 260.479 1082.289 260.479 L 1082.289 260.479 L 1082.289 260.479 Z  M 1078.481 269.365 L 1078.481 259.296 L 1082.398 259.296 L 1082.398 259.296 Q 1084.545 259.296 1085.683 260.554 L 1085.683 260.554 L 1085.683 260.554 Q 1086.821 261.812 1086.821 264.184 L 1086.821 264.184 L 1086.821 264.184 Q 1086.821 266.631 1085.646 267.998 L 1085.646 267.998 L 1085.646 267.998 Q 1084.47 269.365 1082.357 269.365 L 1082.357 269.365 L 1078.481 269.365 L 1078.481 269.365 Z  M 1005.282 260.479 L 1002.842 260.479 L 1002.842 268.135 L 1005.282 268.135 L 1005.282 268.135 Q 1006.854 268.135 1007.637 267.14 L 1007.637 267.14 L 1007.637 267.14 Q 1008.42 266.146 1008.42 264.129 L 1008.42 264.129 L 1008.42 264.129 Q 1008.42 262.386 1007.596 261.432 L 1007.596 261.432 L 1007.596 261.432 Q 1006.772 260.479 1005.282 260.479 L 1005.282 260.479 L 1005.282 260.479 Z  M 1001.475 269.365 L 1001.475 259.296 L 1005.392 259.296 L 1005.392 259.296 Q 1007.538 259.296 1008.676 260.554 L 1008.676 260.554 L 1008.676 260.554 Q 1009.814 261.812 1009.814 264.184 L 1009.814 264.184 L 1009.814 264.184 Q 1009.814 266.631 1008.639 267.998 L 1008.639 267.998 L 1008.639 267.998 Q 1007.463 269.365 1005.351 269.365 L 1005.351 269.365 L 1001.475 269.365 L 1001.475 269.365 Z  M 1011.735 269.365 L 1011.735 259.296 L 1013.109 259.296 L 1013.109 269.365 L 1011.735 269.365 L 1011.735 269.365 Z  M 1015.447 269.365 L 1015.447 259.296 L 1016.944 259.296 L 1021.647 266.61 L 1021.647 266.61 Q 1021.825 266.891 1021.931 267.086 L 1021.931 267.086 L 1021.931 267.086 Q 1022.037 267.28 1022.112 267.458 L 1022.112 267.458 L 1022.112 259.296 L 1023.411 259.296 L 1023.411 269.365 L 1021.928 269.365 L 1017.122 261.962 L 1017.122 261.962 Q 1017.02 261.805 1016.931 261.624 L 1016.931 261.624 L 1016.931 261.624 Q 1016.842 261.443 1016.746 261.203 L 1016.746 261.203 L 1016.746 269.365 L 1015.447 269.365 L 1015.447 269.365 Z  M 1025.558 269.365 L 1025.558 259.296 L 1027.055 259.296 L 1031.758 266.61 L 1031.758 266.61 Q 1031.936 266.891 1032.042 267.086 L 1032.042 267.086 L 1032.042 267.086 Q 1032.147 267.28 1032.223 267.458 L 1032.223 267.458 L 1032.223 259.296 L 1033.521 259.296 L 1033.521 269.365 L 1032.038 269.365 L 1027.232 261.962 L 1027.232 261.962 Q 1027.13 261.805 1027.041 261.624 L 1027.041 261.624 L 1027.041 261.624 Q 1026.952 261.443 1026.856 261.203 L 1026.856 261.203 L 1026.856 269.365 L 1025.558 269.365 L 1025.558 269.365 Z  M 1035.723 269.365 L 1035.723 259.296 L 1043.201 259.296 L 1043.201 260.547 L 1037.083 260.547 L 1037.083 263.555 L 1042.723 263.555 L 1042.723 264.731 L 1037.083 264.731 L 1037.083 268.108 L 1043.324 268.108 L 1043.324 269.365 L 1035.723 269.365 L 1035.723 269.365 Z  M 1049.121 260.492 L 1046.489 260.492 L 1046.489 263.89 L 1049.121 263.89 L 1049.121 263.89 Q 1050.522 263.89 1051.117 263.476 L 1051.117 263.476 L 1051.117 263.476 Q 1051.712 263.063 1051.712 262.112 L 1051.712 262.112 L 1051.712 262.112 Q 1051.712 261.265 1051.168 260.879 L 1051.168 260.879 L 1051.168 260.879 Q 1050.625 260.492 1049.401 260.492 L 1049.401 260.492 L 1049.121 260.492 L 1049.121 260.492 Z  M 1045.115 269.365 L 1045.115 259.296 L 1049.36 259.296 L 1049.36 259.296 Q 1049.552 259.296 1049.757 259.306 L 1049.757 259.306 L 1049.757 259.306 Q 1049.962 259.317 1049.976 259.317 L 1049.976 259.317 L 1049.976 259.317 Q 1051.452 259.317 1052.296 260.034 L 1052.296 260.034 L 1052.296 260.034 Q 1053.141 260.752 1053.141 262.003 L 1053.141 262.003 L 1053.141 262.003 Q 1053.141 262.885 1052.782 263.459 L 1052.782 263.459 L 1052.782 263.459 Q 1052.423 264.033 1051.65 264.382 L 1051.65 264.382 L 1051.65 264.382 Q 1052.272 264.553 1052.536 264.925 L 1052.536 264.925 L 1052.536 264.925 Q 1052.799 265.298 1052.874 266.255 L 1052.874 266.255 L 1052.997 267.909 L 1052.997 267.909 Q 1053.031 268.415 1053.147 268.685 L 1053.147 268.685 L 1053.147 268.685 Q 1053.264 268.955 1053.503 269.071 L 1053.503 269.071 L 1053.503 269.365 L 1051.89 269.365 L 1051.89 269.365 Q 1051.685 269.037 1051.609 268.019 L 1051.609 268.019 L 1051.609 267.978 L 1051.514 266.665 L 1051.514 266.665 Q 1051.438 265.647 1051.021 265.349 L 1051.021 265.349 L 1051.021 265.349 Q 1050.604 265.052 1049.271 265.052 L 1049.271 265.052 L 1048.991 265.052 L 1046.489 265.052 L 1046.489 269.365 L 1045.115 269.365 L 1045.115 269.365 Z  M 935.385 269.365 L 935.385 259.296 L 942.467 259.296 L 942.467 260.561 L 936.772 260.561 L 936.772 263.582 L 941.742 263.582 L 941.742 264.813 L 936.772 264.813 L 936.772 269.365 L 935.385 269.365 L 935.385 269.365 Z  M 947.997 260.492 L 945.365 260.492 L 945.365 263.89 L 947.997 263.89 L 947.997 263.89 Q 949.398 263.89 949.993 263.476 L 949.993 263.476 L 949.993 263.476 Q 950.588 263.063 950.588 262.112 L 950.588 262.112 L 950.588 262.112 Q 950.588 261.265 950.044 260.879 L 950.044 260.879 L 950.044 260.879 Q 949.501 260.492 948.277 260.492 L 948.277 260.492 L 947.997 260.492 L 947.997 260.492 Z  M 943.991 269.365 L 943.991 259.296 L 948.236 259.296 L 948.236 259.296 Q 948.428 259.296 948.633 259.306 L 948.633 259.306 L 948.633 259.306 Q 948.838 259.317 948.852 259.317 L 948.852 259.317 L 948.852 259.317 Q 950.328 259.317 951.172 260.034 L 951.172 260.034 L 951.172 260.034 Q 952.017 260.752 952.017 262.003 L 952.017 262.003 L 952.017 262.003 Q 952.017 262.885 951.658 263.459 L 951.658 263.459 L 951.658 263.459 Q 951.299 264.033 950.526 264.382 L 950.526 264.382 L 950.526 264.382 Q 951.148 264.553 951.412 264.925 L 951.412 264.925 L 951.412 264.925 Q 951.675 265.298 951.75 266.255 L 951.75 266.255 L 951.873 267.909 L 951.873 267.909 Q 951.907 268.415 952.023 268.685 L 952.023 268.685 L 952.023 268.685 Q 952.14 268.955 952.379 269.071 L 952.379 269.071 L 952.379 269.365 L 950.766 269.365 L 950.766 269.365 Q 950.561 269.037 950.485 268.019 L 950.485 268.019 L 950.485 267.978 L 950.39 266.665 L 950.39 266.665 Q 950.314 265.647 949.897 265.349 L 949.897 265.349 L 949.897 265.349 Q 949.48 265.052 948.147 265.052 L 948.147 265.052 L 947.867 265.052 L 945.365 265.052 L 945.365 269.365 L 943.991 269.365 L 943.991 269.365 Z  M 954.047 269.365 L 954.047 259.296 L 961.525 259.296 L 961.525 260.547 L 955.407 260.547 L 955.407 263.555 L 961.047 263.555 L 961.047 264.731 L 955.407 264.731 L 955.407 268.108 L 961.648 268.108 L 961.648 269.365 L 954.047 269.365 L 954.047 269.365 Z  M 967.165 260.479 L 964.725 260.479 L 964.725 268.135 L 967.165 268.135 L 967.165 268.135 Q 968.737 268.135 969.52 267.14 L 969.52 267.14 L 969.52 267.14 Q 970.303 266.146 970.303 264.129 L 970.303 264.129 L 970.303 264.129 Q 970.303 262.386 969.479 261.432 L 969.479 261.432 L 969.479 261.432 Q 968.655 260.479 967.165 260.479 L 967.165 260.479 L 967.165 260.479 Z  M 963.357 269.365 L 963.357 259.296 L 967.274 259.296 L 967.274 259.296 Q 969.421 259.296 970.559 260.554 L 970.559 260.554 L 970.559 260.554 Q 971.697 261.812 971.697 264.184 L 971.697 264.184 L 971.697 264.184 Q 971.697 266.631 970.521 267.998 L 970.521 267.998 L 970.521 267.998 Q 969.346 269.365 967.233 269.365 L 967.233 269.365 L 963.357 269.365 L 963.357 269.365 Z  M 978.718 265.195 L 977.036 260.656 L 975.327 265.195 L 978.718 265.195 L 978.718 265.195 Z  M 972.319 269.365 L 976.277 259.296 L 977.809 259.296 L 981.753 269.365 L 980.242 269.365 L 979.135 266.358 L 974.896 266.358 L 973.748 269.365 L 972.319 269.365 L 972.319 269.365 Z  M 991.501 262.338 L 991.501 262.338 L 990.168 262.338 L 990.168 262.338 Q 989.977 261.333 989.228 260.773 L 989.228 260.773 L 989.228 260.773 Q 988.479 260.212 987.324 260.212 L 987.324 260.212 L 987.324 260.212 Q 985.636 260.212 984.703 261.282 L 984.703 261.282 L 984.703 261.282 Q 983.77 262.352 983.77 264.3 L 983.77 264.3 L 983.77 264.3 Q 983.77 266.221 984.696 267.311 L 984.696 267.311 L 984.696 267.311 Q 985.622 268.401 987.229 268.401 L 987.229 268.401 L 987.229 268.401 Q 988.671 268.401 989.539 267.533 L 989.539 267.533 L 989.539 267.533 Q 990.407 266.665 990.407 265.223 L 990.407 265.223 L 990.407 265.066 L 987.215 265.066 L 987.215 263.944 L 991.665 263.944 L 991.665 269.365 L 990.783 269.365 L 990.476 268.005 L 990.476 268.005 Q 989.881 268.818 989.009 269.232 L 989.009 269.232 L 989.009 269.232 Q 988.138 269.646 987.03 269.646 L 987.03 269.646 L 987.03 269.646 Q 984.966 269.646 983.667 268.183 L 983.667 268.183 L 983.667 268.183 Q 982.368 266.72 982.368 264.355 L 982.368 264.355 L 982.368 264.355 Q 982.368 261.907 983.705 260.472 L 983.705 260.472 L 983.705 260.472 Q 985.041 259.036 987.324 259.036 L 987.324 259.036 L 987.324 259.036 Q 989.061 259.036 990.175 259.918 L 990.175 259.918 L 990.175 259.918 Q 991.289 260.8 991.501 262.338 Z  M 993.818 263.555 L 993.818 262.044 L 995.233 262.044 L 995.233 263.555 L 993.818 263.555 L 993.818 263.555 Z  M 993.818 269.365 L 993.818 267.841 L 995.233 267.841 L 995.233 269.365 L 993.818 269.365 L 993.818 269.365 Z " fill="rgb(0,0,0)"/><g><path d=" M 867.566 331.076 L 864.002 331.076 L 859.402 316.633 L 863.162 316.633 L 866.043 326.359 L 869.441 316.633 L 873.006 316.633 L 876.287 326.359 L 879.246 316.633 L 883.006 316.633 L 878.328 331.076 L 874.647 331.076 L 871.19 320.558 L 867.566 331.076 L 867.566 331.076 Z  M 887.967 331.076 L 884.344 331.076 L 884.344 316.633 L 887.967 316.633 L 887.967 331.076 L 887.967 331.076 Z  M 891.248 316.633 L 894.852 316.633 L 894.852 324.396 L 894.852 324.396 Q 894.852 326.525 895.75 327.492 L 895.75 327.492 L 895.75 327.492 Q 896.648 328.459 898.631 328.459 L 898.631 328.459 L 898.631 328.459 Q 899.686 328.459 900.467 328.161 L 900.467 328.161 L 900.467 328.161 Q 901.248 327.863 901.727 327.277 L 901.727 327.277 L 901.727 327.277 Q 902.107 326.818 902.269 326.227 L 902.269 326.227 L 902.269 326.227 Q 902.43 325.636 902.43 324.396 L 902.43 324.396 L 902.43 316.633 L 906.023 316.633 L 906.023 324.777 L 906.023 324.777 Q 906.023 328.058 904.148 329.758 L 904.148 329.758 L 904.148 329.758 Q 902.273 331.457 898.631 331.457 L 898.631 331.457 L 898.631 331.457 Q 894.998 331.457 893.123 329.758 L 893.123 329.758 L 893.123 329.758 Q 891.248 328.058 891.248 324.777 L 891.248 324.777 L 891.248 316.633 L 891.248 316.633 Z  M 912.762 331.076 L 909.285 331.076 L 909.285 316.633 L 913.963 316.633 L 918.621 326.974 L 923.406 316.633 L 928.045 316.633 L 928.045 331.076 L 924.568 331.076 L 924.568 321.437 L 920.086 331.076 L 917.068 331.076 L 912.762 321.271 L 912.762 331.076 L 912.762 331.076 Z  M 809.305 319.592 L 809.305 323.635 L 812.625 323.635 L 812.625 323.635 Q 814.451 323.635 815.184 323.171 L 815.184 323.171 L 815.184 323.171 Q 815.916 322.707 815.916 321.613 L 815.916 321.613 L 815.916 321.613 Q 815.916 320.49 815.281 320.041 L 815.281 320.041 L 815.281 320.041 Q 814.647 319.592 812.859 319.592 L 812.859 319.592 L 809.305 319.592 L 809.305 319.592 Z  M 809.305 331.076 L 805.682 331.076 L 805.682 316.633 L 814.236 316.633 L 814.236 316.633 Q 816.756 316.633 818.167 317.936 L 818.167 317.936 L 818.167 317.936 Q 819.578 319.24 819.578 321.554 L 819.578 321.554 L 819.578 321.554 Q 819.578 323.869 818.167 325.163 L 818.167 325.163 L 818.167 325.163 Q 816.756 326.457 814.236 326.457 L 814.236 326.457 L 809.305 326.457 L 809.305 331.076 L 809.305 331.076 Z  M 834.568 331.076 L 821.746 331.076 L 821.746 316.633 L 834.568 316.633 L 834.568 319.552 L 825.369 319.552 L 825.369 321.994 L 833.563 321.994 L 833.563 324.933 L 825.369 324.933 L 825.369 328.039 L 834.568 328.039 L 834.568 331.076 L 834.568 331.076 Z  M 840.545 319.513 L 840.545 322.795 L 844.637 322.795 L 844.637 322.795 Q 846.258 322.795 846.917 322.399 L 846.917 322.399 L 846.917 322.399 Q 847.576 322.004 847.576 321.095 L 847.576 321.095 L 847.576 321.095 Q 847.576 320.217 846.961 319.865 L 846.961 319.865 L 846.961 319.865 Q 846.346 319.513 844.481 319.513 L 844.481 319.513 L 840.545 319.513 L 840.545 319.513 Z  M 840.545 331.076 L 836.922 331.076 L 836.922 316.633 L 845.799 316.633 L 845.799 316.633 Q 848.69 316.633 850.057 317.58 L 850.057 317.58 L 850.057 317.58 Q 851.424 318.527 851.424 320.519 L 851.424 320.519 L 851.424 320.519 Q 851.424 321.789 850.784 322.765 L 850.784 322.765 L 850.784 322.765 Q 850.145 323.742 849.022 324.172 L 849.022 324.172 L 849.022 324.172 Q 849.979 324.572 850.364 325.163 L 850.364 325.163 L 850.364 325.163 Q 850.75 325.754 850.818 327.248 L 850.818 327.248 L 850.818 327.248 Q 850.828 327.394 850.838 327.648 L 850.838 327.648 L 850.838 327.648 Q 850.955 330.334 851.6 331.076 L 851.6 331.076 L 847.537 331.076 L 847.537 331.076 Q 847.391 330.842 847.317 330.558 L 847.317 330.558 L 847.317 330.558 Q 847.244 330.275 847.244 329.953 L 847.244 329.953 L 847.244 328.976 L 847.244 328.976 Q 847.244 326.984 846.732 326.369 L 846.732 326.369 L 846.732 326.369 Q 846.219 325.754 844.725 325.754 L 844.725 325.754 L 844.637 325.754 L 840.545 325.754 L 840.545 331.076 L 840.545 331.076 Z " fill="rgb(0,0,0)"/><path d=" M 945.224 316.608 L 945.224 316.608 L 945.615 316.608 L 945.615 316.608 Q 946.181 316.608 946.65 320.768 L 946.65 320.768 L 946.65 320.905 L 946.65 320.905 Q 945.908 325.192 945.224 325.192 L 945.224 325.192 L 945.224 325.192 Q 943.662 327.038 943.662 327.8 L 943.662 327.8 L 943.662 328.053 L 943.916 329.88 L 943.789 330.788 L 943.662 330.788 L 943.662 330.788 Q 942.978 330.788 942.49 327.8 L 942.49 327.8 L 942.099 327.8 L 942.099 327.8 Q 941.426 327.8 941.318 327.409 L 941.318 327.409 L 941.318 327.409 Q 943.135 326.491 943.135 325.329 L 943.135 325.329 L 943.135 325.329 Q 944.219 316.608 945.224 316.608 Z  M 944.18 324.802 L 944.18 324.802 L 944.18 324.802 Q 945.742 323.747 945.742 321.55 L 945.742 321.55 L 945.869 319.343 L 945.742 319.216 L 945.615 319.216 L 945.615 319.216 Q 944.931 319.216 944.18 324.802 Z  M 947.305 324.157 L 947.305 324.157 L 947.305 324.157 Q 948.086 324.411 948.086 324.802 L 948.086 324.802 L 948.086 324.802 Q 948.086 325.485 946.006 326.1 L 946.006 326.1 L 945.742 326.882 L 945.742 327.409 L 945.742 327.409 Q 948.476 327.829 948.476 328.317 L 948.476 328.317 L 946.777 328.708 L 946.777 328.708 Q 944.697 328.708 944.697 327.536 L 944.697 327.536 L 944.697 327.018 L 944.697 327.018 Q 944.697 325.192 947.305 324.157 Z  M 953.291 324.02 L 953.291 324.02 L 953.291 324.02 Q 954.072 324.284 954.072 325.456 L 954.072 325.456 L 954.072 325.973 L 954.199 325.973 L 954.199 325.973 Q 954.912 325.973 956.416 325.329 L 956.416 325.329 L 956.543 325.456 L 956.543 325.846 L 956.543 325.846 Q 956.513 326.393 954.072 327.018 L 954.072 327.018 L 954.072 327.018 Q 953.808 328.317 952.383 329.743 L 952.383 329.743 L 952.383 329.743 Q 951.211 330.788 950.293 330.788 L 950.293 330.788 L 949.521 330.788 L 949.521 330.788 Q 948.672 330.358 948.476 329.489 L 948.476 329.489 L 948.476 329.489 Q 949.17 326.628 949.912 326.628 L 949.912 326.628 L 949.912 326.628 Q 950.556 325.846 951.338 325.846 L 951.338 325.846 L 951.465 325.973 L 951.465 326.237 L 951.465 326.237 Q 949.648 327.887 949.648 329.098 L 949.648 329.098 L 949.648 329.616 L 949.775 329.743 L 950.166 329.88 L 950.166 330.007 L 950.166 330.007 Q 951.611 330.007 953.027 327.272 L 953.027 327.272 L 953.164 326.491 L 953.164 326.491 Q 952.383 325.348 952.383 324.938 L 952.383 324.938 L 952.383 324.938 Q 952.383 324.45 953.291 324.02 Z  M 960.566 324.411 L 960.566 324.411 L 960.566 324.411 Q 961.523 324.411 961.611 328.708 L 961.611 328.708 L 961.611 328.708 Q 962.09 329.098 962.519 329.098 L 962.519 329.098 L 964.99 327.927 L 965.254 327.927 L 965.254 328.053 L 965.254 328.053 Q 964.658 329.255 961.875 330.524 L 961.875 330.524 L 961.875 330.524 Q 961.269 330.524 960.439 329.098 L 960.439 329.098 L 960.312 325.973 L 960.185 325.846 L 960.185 325.846 Q 959.824 325.846 958.486 328.317 L 958.486 328.317 L 958.486 328.317 Q 957.373 330.788 956.406 330.788 L 956.406 330.788 L 956.152 330.788 L 956.152 330.788 Q 955.498 330.427 955.498 328.971 L 955.498 328.971 L 955.498 328.971 Q 955.498 327.809 956.279 325.846 L 956.279 325.846 L 956.279 325.846 Q 956.933 326.022 956.933 326.755 L 956.933 326.755 L 956.797 328.971 L 956.797 328.971 Q 957.578 328.366 959.267 325.192 L 959.267 325.192 L 959.267 325.192 Q 960.058 324.411 960.566 324.411 Z  M 970.068 316.677 L 970.195 316.677 L 970.195 316.677 Q 972.763 317.116 972.763 318.278 L 972.763 318.278 L 972.763 318.454 L 972.763 318.454 Q 972.383 319.518 971.738 319.518 L 971.738 319.518 L 970.947 319.333 L 971.513 318.395 L 971.513 318.307 L 971.513 318.307 Q 971.26 317.448 969.863 317.663 L 969.863 317.663 L 969.863 317.663 Q 967.812 318.21 967.305 319.489 L 967.305 319.489 L 967.305 319.489 Q 966.943 319.88 966.875 320.846 L 966.875 320.846 L 966.719 322.302 L 966.767 322.243 L 966.767 322.243 Q 968.437 321.735 970.195 321.579 L 970.195 321.579 L 970.195 321.579 Q 970.83 321.696 970.83 321.852 L 970.83 321.852 L 970.83 322.536 L 970.83 322.536 Q 967.656 322.858 967.109 323.337 L 967.109 323.337 L 966.719 323.6 L 966.719 323.6 Q 967.754 328.356 969.931 329.977 L 969.931 329.977 L 970.068 330.329 L 969.424 330.788 L 969.043 330.788 L 969.043 330.788 Q 968.623 330.583 965.39 327.575 L 965.39 327.575 L 965.39 327.575 Q 964.14 326.325 964.14 324.821 L 964.14 324.821 L 964.14 324.821 Q 964.219 323.952 965.83 322.975 L 965.83 322.975 L 965.703 322.096 L 965.703 322.096 Q 965.703 319.802 967.109 318.102 L 967.109 318.102 L 967.109 318.102 Q 967.109 317.38 970.068 316.677 L 970.068 316.677 L 970.068 316.677 Z  M 965.312 325.514 L 965.312 325.514 L 965.312 325.514 Q 965.312 326.315 967.236 328.219 L 967.236 328.219 L 967.5 328.219 L 967.5 328.219 Q 966.982 327.555 966.084 324.303 L 966.084 324.303 L 966.084 324.303 Q 965.312 324.596 965.312 325.514 Z  M 975.937 323.864 L 975.937 323.864 L 976.367 323.864 L 976.806 324.294 L 976.806 324.294 Q 976.806 325.602 972.48 328.62 L 972.48 328.62 L 972.48 328.913 L 972.48 328.913 Q 973.105 329.782 974.492 329.782 L 974.492 329.782 L 974.492 329.782 Q 976.816 329.626 978.974 328.337 L 978.974 328.337 L 979.404 328.337 L 979.541 328.776 L 979.541 328.776 Q 977.373 330.651 974.638 330.651 L 974.638 330.651 L 974.199 330.788 L 974.199 330.788 Q 971.318 330.788 971.318 328.62 L 971.318 328.62 L 971.318 328.337 L 971.318 328.337 Q 971.318 325.27 975.937 323.864 Z  M 972.617 327.321 L 972.617 327.321 L 972.617 327.321 Q 974.17 326.803 975.068 325.583 L 975.068 325.583 L 975.068 325.446 L 974.785 325.163 L 974.785 325.163 Q 972.861 326.335 972.617 327.321 Z  M 985.088 322.848 L 985.088 322.848 L 985.244 322.848 L 985.244 322.848 Q 985.937 322.848 987.148 324.284 L 987.148 324.284 L 987.148 324.284 Q 988.271 324.831 988.271 325.544 L 988.271 325.544 L 988.105 325.71 L 987.627 325.71 L 985.41 324.606 L 985.244 324.606 L 985.244 324.606 Q 984.14 327.507 983.506 330.466 L 983.506 330.466 L 982.549 330.788 L 982.07 329.987 L 982.226 329.987 L 982.07 329.831 L 982.07 328.884 L 982.07 328.884 Q 982.07 326.94 980.967 326.344 L 980.967 326.344 L 980.967 326.344 Q 980.058 326.344 979.219 328.093 L 979.219 328.093 L 978.906 328.093 L 978.584 327.77 L 978.584 327.614 L 978.584 327.614 Q 978.584 325.68 981.279 325.065 L 981.279 325.065 L 981.279 325.065 Q 983.027 326.149 983.027 327.77 L 983.027 327.77 L 983.183 327.77 L 983.183 327.77 Q 984.258 322.848 985.088 322.848 Z  M 992.099 323.864 L 992.099 323.864 L 992.529 323.864 L 992.969 324.294 L 992.969 324.294 Q 992.969 325.602 988.642 328.62 L 988.642 328.62 L 988.642 328.913 L 988.642 328.913 Q 989.267 329.782 990.654 329.782 L 990.654 329.782 L 990.654 329.782 Q 992.978 329.626 995.137 328.337 L 995.137 328.337 L 995.566 328.337 L 995.703 328.776 L 995.703 328.776 Q 993.535 330.651 990.801 330.651 L 990.801 330.651 L 990.361 330.788 L 990.361 330.788 Q 987.48 330.788 987.48 328.62 L 987.48 328.62 L 987.48 328.337 L 987.48 328.337 Q 987.48 325.27 992.099 323.864 Z  M 988.779 327.321 L 988.779 327.321 L 988.779 327.321 Q 990.332 326.803 991.23 325.583 L 991.23 325.583 L 991.23 325.446 L 990.947 325.163 L 990.947 325.163 Q 989.023 326.335 988.779 327.321 Z  M 999.814 324.411 L 999.814 324.411 L 999.814 324.411 Q 1000.771 324.411 1000.859 328.708 L 1000.859 328.708 L 1000.859 328.708 Q 1001.338 329.098 1001.767 329.098 L 1001.767 329.098 L 1004.238 327.927 L 1004.502 327.927 L 1004.502 328.053 L 1004.502 328.053 Q 1003.906 329.255 1001.123 330.524 L 1001.123 330.524 L 1001.123 330.524 Q 1000.517 330.524 999.687 329.098 L 999.687 329.098 L 999.56 325.973 L 999.433 325.846 L 999.433 325.846 Q 999.072 325.846 997.734 328.317 L 997.734 328.317 L 997.734 328.317 Q 996.621 330.788 995.654 330.788 L 995.654 330.788 L 995.4 330.788 L 995.4 330.788 Q 994.746 330.427 994.746 328.971 L 994.746 328.971 L 994.746 328.971 Q 994.746 327.809 995.527 325.846 L 995.527 325.846 L 995.527 325.846 Q 996.181 326.022 996.181 326.755 L 996.181 326.755 L 996.045 328.971 L 996.045 328.971 Q 996.826 328.366 998.515 325.192 L 998.515 325.192 L 998.515 325.192 Q 999.306 324.411 999.814 324.411 Z  M 1006.894 323.278 L 1007.754 323.132 L 1007.754 323.132 Q 1008.721 323.132 1008.906 324.577 L 1008.906 324.577 L 1008.769 324.577 L 1008.33 324.733 L 1007.617 324.44 L 1007.617 324.44 Q 1004.58 324.938 1004.58 327.907 L 1004.58 327.907 L 1004.58 328.19 L 1004.58 328.19 Q 1004.58 329.391 1005.879 329.626 L 1005.879 329.626 L 1006.318 329.626 L 1006.318 329.626 Q 1008.896 329.626 1011.943 327.175 L 1011.943 327.175 L 1012.236 327.468 L 1012.236 327.614 L 1012.236 327.614 Q 1009.521 330.788 1005.449 330.788 L 1005.449 330.788 L 1005.449 330.788 Q 1003.584 330.788 1003.281 327.751 L 1003.281 327.751 L 1003.281 327.751 Q 1003.281 324.694 1006.894 323.278 L 1006.894 323.278 L 1006.894 323.278 Z  M 1013.594 322.721 L 1014.248 322.204 L 1014.512 322.204 L 1015.029 322.721 L 1015.029 322.848 L 1015.029 322.848 Q 1015.029 323.766 1014.121 323.766 L 1014.121 323.766 L 1014.121 323.766 Q 1013.75 323.766 1013.594 322.721 L 1013.594 322.721 L 1013.594 322.721 Z  M 1013.594 325.456 L 1013.594 325.456 L 1013.857 325.456 L 1013.857 325.456 Q 1014.502 325.456 1014.765 329.743 L 1014.765 329.743 L 1015.293 329.88 L 1015.293 329.88 Q 1015.859 329.88 1016.982 328.971 L 1016.982 328.971 L 1017.236 328.971 L 1017.236 329.098 L 1017.236 329.098 Q 1017.236 330.485 1015.42 330.788 L 1015.42 330.788 L 1015.42 330.788 Q 1013.799 330.788 1013.594 328.708 L 1013.594 328.708 L 1013.594 327.8 L 1013.73 327.663 L 1013.73 327.663 Q 1013.555 326.755 1013.34 326.755 L 1013.34 326.755 L 1013.34 326.755 Q 1012.178 329.245 1011.65 329.489 L 1011.65 329.489 L 1011.26 329.489 L 1010.996 329.225 L 1010.996 329.225 Q 1012.471 326.12 1013.594 325.456 Z  M 1020.635 323.864 L 1020.635 323.864 L 1021.064 323.864 L 1021.504 324.294 L 1021.504 324.294 Q 1021.504 325.602 1017.178 328.62 L 1017.178 328.62 L 1017.178 328.913 L 1017.178 328.913 Q 1017.803 329.782 1019.189 329.782 L 1019.189 329.782 L 1019.189 329.782 Q 1021.513 329.626 1023.672 328.337 L 1023.672 328.337 L 1024.101 328.337 L 1024.238 328.776 L 1024.238 328.776 Q 1022.07 330.651 1019.336 330.651 L 1019.336 330.651 L 1018.896 330.788 L 1018.896 330.788 Q 1016.015 330.788 1016.015 328.62 L 1016.015 328.62 L 1016.015 328.337 L 1016.015 328.337 Q 1016.015 325.27 1020.635 323.864 Z  M 1017.314 327.321 L 1017.314 327.321 L 1017.314 327.321 Q 1018.867 326.803 1019.765 325.583 L 1019.765 325.583 L 1019.765 325.446 L 1019.482 325.163 L 1019.482 325.163 Q 1017.558 326.335 1017.314 327.321 Z  M 1029.785 322.848 L 1029.785 322.848 L 1029.941 322.848 L 1029.941 322.848 Q 1030.635 322.848 1031.846 324.284 L 1031.846 324.284 L 1031.846 324.284 Q 1032.969 324.831 1032.969 325.544 L 1032.969 325.544 L 1032.803 325.71 L 1032.324 325.71 L 1030.107 324.606 L 1029.941 324.606 L 1029.941 324.606 Q 1028.838 327.507 1028.203 330.466 L 1028.203 330.466 L 1027.246 330.788 L 1026.767 329.987 L 1026.924 329.987 L 1026.767 329.831 L 1026.767 328.884 L 1026.767 328.884 Q 1026.767 326.94 1025.664 326.344 L 1025.664 326.344 L 1025.664 326.344 Q 1024.756 326.344 1023.916 328.093 L 1023.916 328.093 L 1023.603 328.093 L 1023.281 327.77 L 1023.281 327.614 L 1023.281 327.614 Q 1023.281 325.68 1025.976 325.065 L 1025.976 325.065 L 1025.976 325.065 Q 1027.724 326.149 1027.724 327.77 L 1027.724 327.77 L 1027.881 327.77 L 1027.881 327.77 Q 1028.955 322.848 1029.785 322.848 Z " fill="rgb(0,0,0)"/><path d=" M 1194.943 331.076 L 1191.466 331.076 L 1191.466 316.633 L 1196.144 316.633 L 1200.802 326.974 L 1205.587 316.633 L 1210.226 316.633 L 1210.226 331.076 L 1206.75 331.076 L 1206.75 321.437 L 1202.267 331.076 L 1199.25 331.076 L 1194.943 321.271 L 1194.943 331.076 L 1194.943 331.076 Z  M 1220.705 331.076 L 1217.091 331.076 L 1217.091 324.914 L 1210.783 316.633 L 1215.382 316.633 L 1218.986 321.799 L 1222.55 316.633 L 1227.13 316.633 L 1220.705 324.914 L 1220.705 331.076 L 1220.705 331.076 Z  M 1238.742 331.076 L 1227.687 331.076 L 1227.687 316.633 L 1231.31 316.633 L 1231.31 328.039 L 1238.742 328.039 L 1238.742 331.076 L 1238.742 331.076 Z  M 1244.611 331.076 L 1240.988 331.076 L 1240.988 316.633 L 1244.611 316.633 L 1244.611 331.076 L 1244.611 331.076 Z  M 1247.892 316.633 L 1251.496 316.633 L 1251.496 324.396 L 1251.496 324.396 Q 1251.496 326.525 1252.394 327.492 L 1252.394 327.492 L 1252.394 327.492 Q 1253.293 328.459 1255.275 328.459 L 1255.275 328.459 L 1255.275 328.459 Q 1256.33 328.459 1257.111 328.161 L 1257.111 328.161 L 1257.111 328.161 Q 1257.892 327.863 1258.371 327.277 L 1258.371 327.277 L 1258.371 327.277 Q 1258.752 326.818 1258.913 326.227 L 1258.913 326.227 L 1258.913 326.227 Q 1259.074 325.636 1259.074 324.396 L 1259.074 324.396 L 1259.074 316.633 L 1262.668 316.633 L 1262.668 324.777 L 1262.668 324.777 Q 1262.668 328.058 1260.793 329.758 L 1260.793 329.758 L 1260.793 329.758 Q 1258.918 331.457 1255.275 331.457 L 1255.275 331.457 L 1255.275 331.457 Q 1251.642 331.457 1249.767 329.758 L 1249.767 329.758 L 1249.767 329.758 Q 1247.892 328.058 1247.892 324.777 L 1247.892 324.777 L 1247.892 316.633 L 1247.892 316.633 Z  M 1265.324 326.379 L 1265.324 326.076 L 1269.025 326.076 L 1269.025 326.213 L 1269.025 326.213 Q 1269.025 327.433 1270.099 328.073 L 1270.099 328.073 L 1270.099 328.073 Q 1271.173 328.713 1273.224 328.713 L 1273.224 328.713 L 1273.224 328.713 Q 1274.806 328.713 1275.666 328.249 L 1275.666 328.249 L 1275.666 328.249 Q 1276.525 327.785 1276.525 326.935 L 1276.525 326.935 L 1276.525 326.935 Q 1276.525 326.222 1275.963 325.885 L 1275.963 325.885 L 1275.963 325.885 Q 1275.402 325.549 1273.693 325.373 L 1273.693 325.373 L 1271.125 325.119 L 1271.125 325.119 Q 1268.312 324.826 1266.989 323.84 L 1266.989 323.84 L 1266.989 323.84 Q 1265.666 322.853 1265.666 321.056 L 1265.666 321.056 L 1265.666 321.056 Q 1265.666 318.927 1267.575 317.59 L 1267.575 317.59 L 1267.575 317.59 Q 1269.484 316.252 1272.628 316.252 L 1272.628 316.252 L 1272.628 316.252 Q 1276.007 316.252 1277.917 317.511 L 1277.917 317.511 L 1277.917 317.511 Q 1279.826 318.771 1279.826 320.959 L 1279.826 320.959 L 1279.826 321.076 L 1276.232 321.076 L 1276.232 321.076 Q 1276.105 319.992 1275.221 319.455 L 1275.221 319.455 L 1275.221 319.455 Q 1274.337 318.918 1272.687 318.918 L 1272.687 318.918 L 1272.687 318.918 Q 1271.164 318.918 1270.324 319.352 L 1270.324 319.352 L 1270.324 319.352 Q 1269.484 319.787 1269.484 320.578 L 1269.484 320.578 L 1269.484 320.578 Q 1269.484 321.213 1269.977 321.506 L 1269.977 321.506 L 1269.977 321.506 Q 1270.47 321.799 1272.404 322.013 L 1272.404 322.013 L 1275.089 322.297 L 1275.089 322.297 Q 1277.863 322.599 1279.167 323.63 L 1279.167 323.63 L 1279.167 323.63 Q 1280.47 324.66 1280.47 326.535 L 1280.47 326.535 L 1280.47 326.535 Q 1280.47 328.947 1278.512 330.202 L 1278.512 330.202 L 1278.512 330.202 Q 1276.554 331.457 1272.785 331.457 L 1272.785 331.457 L 1272.785 331.457 Q 1269.191 331.457 1267.257 330.138 L 1267.257 330.138 L 1267.257 330.138 Q 1265.324 328.82 1265.324 326.379 L 1265.324 326.379 L 1265.324 326.379 Z  M 1163.537 325.812 L 1163.537 325.812 L 1163.537 325.812 Q 1163.537 324.426 1162.677 323.591 L 1162.677 323.591 L 1162.677 323.591 Q 1161.818 322.756 1160.382 322.756 L 1160.382 322.756 L 1160.382 322.756 Q 1158.927 322.756 1158.073 323.586 L 1158.073 323.586 L 1158.073 323.586 Q 1157.218 324.416 1157.218 325.832 L 1157.218 325.832 L 1157.218 325.832 Q 1157.218 327.238 1158.078 328.068 L 1158.078 328.068 L 1158.078 328.068 Q 1158.937 328.898 1160.382 328.898 L 1160.382 328.898 L 1160.382 328.898 Q 1161.818 328.898 1162.677 328.053 L 1162.677 328.053 L 1162.677 328.053 Q 1163.537 327.209 1163.537 325.812 Z  M 1163.537 321.554 L 1163.537 321.554 L 1163.537 316.633 L 1166.877 316.633 L 1166.877 331.076 L 1163.537 331.076 L 1163.537 330.08 L 1163.537 330.08 Q 1162.843 330.773 1161.911 331.105 L 1161.911 331.105 L 1161.911 331.105 Q 1160.978 331.437 1159.718 331.437 L 1159.718 331.437 L 1159.718 331.437 Q 1157.013 331.437 1155.319 329.865 L 1155.319 329.865 L 1155.319 329.865 Q 1153.625 328.293 1153.625 325.793 L 1153.625 325.793 L 1153.625 325.793 Q 1153.625 323.273 1155.324 321.716 L 1155.324 321.716 L 1155.324 321.716 Q 1157.023 320.158 1159.777 320.158 L 1159.777 320.158 L 1159.777 320.158 Q 1161.007 320.158 1161.945 320.505 L 1161.945 320.505 L 1161.945 320.505 Q 1162.882 320.851 1163.537 321.554 Z  M 1172.785 324.308 L 1172.785 324.308 L 1178.175 324.318 L 1178.175 324.318 Q 1178.087 323.312 1177.365 322.736 L 1177.365 322.736 L 1177.365 322.736 Q 1176.642 322.16 1175.48 322.16 L 1175.48 322.16 L 1175.48 322.16 Q 1174.328 322.16 1173.6 322.741 L 1173.6 322.741 L 1173.6 322.741 Q 1172.873 323.322 1172.785 324.308 Z  M 1178.019 327.58 L 1181.701 327.58 L 1181.701 327.58 Q 1181.037 329.435 1179.396 330.446 L 1179.396 330.446 L 1179.396 330.446 Q 1177.755 331.457 1175.402 331.457 L 1175.402 331.457 L 1175.402 331.457 Q 1172.414 331.457 1170.67 329.899 L 1170.67 329.899 L 1170.67 329.899 Q 1168.927 328.342 1168.927 325.676 L 1168.927 325.676 L 1168.927 325.676 Q 1168.927 323.01 1170.666 321.462 L 1170.666 321.462 L 1170.666 321.462 Q 1172.404 319.914 1175.402 319.914 L 1175.402 319.914 L 1175.402 319.914 Q 1178.517 319.914 1180.202 321.52 L 1180.202 321.52 L 1180.202 321.52 Q 1181.886 323.127 1181.886 326.095 L 1181.886 326.095 L 1181.886 326.554 L 1172.687 326.554 L 1172.687 326.554 Q 1172.716 327.736 1173.454 328.434 L 1173.454 328.434 L 1173.454 328.434 Q 1174.191 329.133 1175.402 329.133 L 1175.402 329.133 L 1175.402 329.133 Q 1176.349 329.133 1177.033 328.727 L 1177.033 328.727 L 1177.033 328.727 Q 1177.716 328.322 1178.019 327.58 L 1178.019 327.58 L 1178.019 327.58 Z  M 1044.259 326.076 L 1044.259 325.138 L 1047.697 325.138 L 1047.697 325.793 L 1047.697 325.793 Q 1047.697 327.15 1048.2 327.834 L 1048.2 327.834 L 1048.2 327.834 Q 1048.703 328.517 1049.699 328.517 L 1049.699 328.517 L 1049.699 328.517 Q 1050.841 328.517 1051.31 327.804 L 1051.31 327.804 L 1051.31 327.804 Q 1051.779 327.092 1051.779 325.138 L 1051.779 325.138 L 1051.779 316.633 L 1055.373 316.633 L 1055.373 324.875 L 1055.373 324.875 Q 1055.373 326.828 1055.221 327.658 L 1055.221 327.658 L 1055.221 327.658 Q 1055.07 328.488 1054.699 329.093 L 1054.699 329.093 L 1054.699 329.093 Q 1053.996 330.246 1052.746 330.851 L 1052.746 330.851 L 1052.746 330.851 Q 1051.496 331.457 1049.816 331.457 L 1049.816 331.457 L 1049.816 331.457 Q 1046.964 331.457 1045.612 330.148 L 1045.612 330.148 L 1045.612 330.148 Q 1044.259 328.84 1044.259 326.076 L 1044.259 326.076 L 1044.259 326.076 Z  M 1066.359 328.478 L 1066.359 328.478 L 1066.359 328.478 Q 1068.527 328.478 1069.772 327.243 L 1069.772 327.243 L 1069.772 327.243 Q 1071.017 326.008 1071.017 323.859 L 1071.017 323.859 L 1071.017 323.859 Q 1071.017 321.691 1069.772 320.456 L 1069.772 320.456 L 1069.772 320.456 Q 1068.527 319.22 1066.359 319.22 L 1066.359 319.22 L 1066.359 319.22 Q 1064.191 319.22 1062.936 320.461 L 1062.936 320.461 L 1062.936 320.461 Q 1061.681 321.701 1061.681 323.859 L 1061.681 323.859 L 1061.681 323.859 Q 1061.681 326.008 1062.931 327.243 L 1062.931 327.243 L 1062.931 327.243 Q 1064.181 328.478 1066.359 328.478 Z  M 1057.697 323.859 L 1057.697 323.859 L 1057.697 323.859 Q 1057.697 320.392 1060.05 318.322 L 1060.05 318.322 L 1060.05 318.322 Q 1062.404 316.252 1066.359 316.252 L 1066.359 316.252 L 1066.359 316.252 Q 1070.314 316.252 1072.658 318.322 L 1072.658 318.322 L 1072.658 318.322 Q 1075.002 320.392 1075.002 323.859 L 1075.002 323.859 L 1075.002 323.859 Q 1075.002 327.326 1072.658 329.391 L 1072.658 329.391 L 1072.658 329.391 Q 1070.314 331.457 1066.359 331.457 L 1066.359 331.457 L 1066.359 331.457 Q 1062.404 331.457 1060.05 329.391 L 1060.05 329.391 L 1060.05 329.391 Q 1057.697 327.326 1057.697 323.859 Z  M 1081.105 319.513 L 1081.105 322.795 L 1085.197 322.795 L 1085.197 322.795 Q 1086.818 322.795 1087.477 322.399 L 1087.477 322.399 L 1087.477 322.399 Q 1088.136 322.004 1088.136 321.095 L 1088.136 321.095 L 1088.136 321.095 Q 1088.136 320.217 1087.521 319.865 L 1087.521 319.865 L 1087.521 319.865 Q 1086.906 319.513 1085.041 319.513 L 1085.041 319.513 L 1081.105 319.513 L 1081.105 319.513 Z  M 1081.105 331.076 L 1077.482 331.076 L 1077.482 316.633 L 1086.359 316.633 L 1086.359 316.633 Q 1089.25 316.633 1090.617 317.58 L 1090.617 317.58 L 1090.617 317.58 Q 1091.984 318.527 1091.984 320.519 L 1091.984 320.519 L 1091.984 320.519 Q 1091.984 321.789 1091.344 322.765 L 1091.344 322.765 L 1091.344 322.765 Q 1090.705 323.742 1089.582 324.172 L 1089.582 324.172 L 1089.582 324.172 Q 1090.539 324.572 1090.924 325.163 L 1090.924 325.163 L 1090.924 325.163 Q 1091.31 325.754 1091.378 327.248 L 1091.378 327.248 L 1091.378 327.248 Q 1091.388 327.394 1091.398 327.648 L 1091.398 327.648 L 1091.398 327.648 Q 1091.515 330.334 1092.16 331.076 L 1092.16 331.076 L 1088.097 331.076 L 1088.097 331.076 Q 1087.951 330.842 1087.878 330.558 L 1087.878 330.558 L 1087.878 330.558 Q 1087.804 330.275 1087.804 329.953 L 1087.804 329.953 L 1087.804 328.976 L 1087.804 328.976 Q 1087.804 326.984 1087.292 326.369 L 1087.292 326.369 L 1087.292 326.369 Q 1086.779 325.754 1085.285 325.754 L 1085.285 325.754 L 1085.197 325.754 L 1081.105 325.754 L 1081.105 331.076 L 1081.105 331.076 Z  M 1107.824 331.076 L 1107.619 329.455 L 1107.619 329.455 Q 1106.584 330.461 1105.26 330.959 L 1105.26 330.959 L 1105.26 330.959 Q 1103.937 331.457 1102.277 331.457 L 1102.277 331.457 L 1102.277 331.457 Q 1100.607 331.457 1099.113 330.988 L 1099.113 330.988 L 1099.113 330.988 Q 1097.619 330.519 1096.515 329.66 L 1096.515 329.66 L 1096.515 329.66 Q 1095.158 328.586 1094.489 327.155 L 1094.489 327.155 L 1094.489 327.155 Q 1093.82 325.724 1093.82 323.859 L 1093.82 323.859 L 1093.82 323.859 Q 1093.82 320.392 1096.173 318.322 L 1096.173 318.322 L 1096.173 318.322 Q 1098.527 316.252 1102.482 316.252 L 1102.482 316.252 L 1102.482 316.252 Q 1105.822 316.252 1108.048 317.741 L 1108.048 317.741 L 1108.048 317.741 Q 1110.275 319.23 1110.597 321.633 L 1110.597 321.633 L 1106.662 321.633 L 1106.662 321.633 Q 1106.164 320.422 1105.124 319.821 L 1105.124 319.821 L 1105.124 319.821 Q 1104.084 319.22 1102.482 319.22 L 1102.482 319.22 L 1102.482 319.22 Q 1100.314 319.22 1099.059 320.461 L 1099.059 320.461 L 1099.059 320.461 Q 1097.804 321.701 1097.804 323.859 L 1097.804 323.859 L 1097.804 323.859 Q 1097.804 326.008 1099.054 327.243 L 1099.054 327.243 L 1099.054 327.243 Q 1100.304 328.478 1102.482 328.478 L 1102.482 328.478 L 1102.482 328.478 Q 1103.966 328.478 1105.089 327.843 L 1105.089 327.843 L 1105.089 327.843 Q 1106.212 327.209 1106.72 326.095 L 1106.72 326.095 L 1103.439 326.095 L 1103.439 323.215 L 1110.558 323.215 L 1110.558 331.076 L 1107.824 331.076 L 1107.824 331.076 Z  M 1126.545 331.076 L 1113.722 331.076 L 1113.722 316.633 L 1126.545 316.633 L 1126.545 319.552 L 1117.345 319.552 L 1117.345 321.994 L 1125.539 321.994 L 1125.539 324.933 L 1117.345 324.933 L 1117.345 328.039 L 1126.545 328.039 L 1126.545 331.076 L 1126.545 331.076 Z  M 1132.355 331.076 L 1128.898 331.076 L 1128.898 316.633 L 1133.341 316.633 L 1140.558 326.818 L 1140.558 316.633 L 1144.035 316.633 L 1144.035 331.076 L 1139.64 331.076 L 1132.355 320.793 L 1132.355 331.076 L 1132.355 331.076 Z " fill="rgb(0,0,0)"/></g></svg>