<?xml version="1.0" encoding="UTF-8" standalone="no"?><!-- Generator: Gravit.io --><svg xmlns="http://www.w3.org/2000/svg" xmlns:xlink="http://www.w3.org/1999/xlink" style="isolation:isolate" viewBox="295.182 954.223 701.12 399.322" width="701.12pt" height="399.322pt"><g><g><path fill="#2d2222" stroke="#2d2222 " stroke-linejoin="round" stroke-miterlimit="10" d=" M 842.679 1352.176 C 847.527 1351.603 853.815 1347.979 857.979 1345.299 C 864.007 1341.417 863.825 1337.93 868.12 1332.673 C 872.368 1327.472 871.231 1330.178 875.261 1330.555 C 877.122 1330.731 879.656 1326.799 881.138 1325.36 C 884.578 1322.015 882.071 1321.358 880.405 1318.144 C 878.153 1313.793 879.014 1314.433 875.096 1312.069 L 874.626 1309.618 C 877.739 1307.436 880.609 1309.705 882.577 1309.361 C 883.943 1305.152 880.492 1300.136 879.503 1295.869 C 877.968 1289.249 878.217 1278.926 879.844 1272.029 C 881.003 1267.088 880.38 1268.815 880.992 1264.637 C 881.758 1259.442 881.755 1253.83 882.043 1248.619 C 882.364 1242.75 880.808 1238.569 882.803 1233.112 C 884.79 1227.687 884.606 1224.275 885.723 1218.96 C 886.889 1213.43 890.278 1196.648 894.238 1193.323 C 900.769 1193.513 907.454 1211.431 909.824 1216.766 C 911.953 1221.548 912.772 1226.039 915.463 1230.641 C 920.594 1239.419 921.659 1250.438 926.214 1259.33 C 930.246 1267.194 933.069 1281.063 934.55 1290.02 C 935.022 1292.879 935.324 1295.788 935.645 1298.683 C 935.88 1300.779 935.095 1306.424 936.009 1307.673 C 938.87 1308.802 944.716 1305.882 946.846 1308.629 C 947.891 1309.976 947.804 1311.714 948.31 1313.257 C 948.858 1314.939 950.093 1315.872 950.546 1317.529 C 951.272 1320.187 950.496 1326.355 950.904 1329.767 C 952.116 1339.956 948.956 1346.747 953.033 1351.218 C 955.758 1354.202 958.513 1354.378 961.252 1351.388 C 965.502 1346.744 972.083 1342.476 969.001 1335.239 C 967.573 1331.882 966.03 1329.73 965.799 1325.857 C 965.631 1323.121 966.486 1316.998 963.513 1315.509 C 961.97 1314.74 961.025 1315.475 960.419 1313.385 C 960 1311.949 959.586 1309.646 959.206 1308.059 C 958.51 1305.15 957.39 1299.795 957.334 1296.92 C 957.236 1291.783 955.654 1291.526 955.196 1286.457 C 954.883 1282.98 954.05 1279.062 953.483 1275.569 C 950.666 1258.277 947.707 1251.757 942.159 1236.074 C 940.505 1231.396 938.331 1220.628 935.578 1217.451 C 930.629 1211.747 931.423 1205.105 930.048 1197.769 C 928.882 1191.52 927.348 1182.759 925.241 1176.902 C 923.746 1172.738 925.993 1170.461 923.288 1167.115 C 921.049 1164.349 921.469 1159.752 921.441 1156.32 C 921.404 1151.877 922.922 1149.753 921.499 1145.321 C 920.144 1141.107 921.094 1139.536 919.029 1134.824 C 916.81 1129.763 919.87 1127.925 918.666 1124.317 C 918.076 1122.542 917.02 1121.626 917.578 1119.597 C 918.073 1117.811 919.554 1116.956 918.707 1114.93 C 916.955 1110.733 914.538 1111.655 919.174 1106.831 C 921.784 1104.118 919.216 1101.703 921.885 1097.389 C 926.951 1098.607 923.573 1101.279 928.843 1101.812 C 931.065 1102.039 931.579 1101.293 933.384 1102.961 C 937.8 1107.038 939.242 1107.608 945.105 1105.163 C 947.768 1104.056 951.258 1103.444 954.073 1102.748 C 962.674 1100.613 963.432 1103.872 970.558 1096.458 C 970.991 1096.008 971.463 1095.432 972.039 1095.226 C 973.961 1094.53 977.038 1094.966 979.165 1094.507 C 984.234 1093.409 986.361 1095.913 989.125 1095.117 C 989.89 1092.227 987.454 1092.66 985.668 1091.741 C 984.145 1090.955 984.659 1091.635 984.488 1090.072 C 985.299 1089.354 986.624 1089.245 987.912 1089.024 C 989.731 1088.711 998.031 1087.281 995.977 1084.276 C 995.06 1082.935 990.88 1084.788 986.523 1084.788 C 987.101 1083.201 986.604 1083.924 989.25 1083.449 C 990.371 1083.248 991.483 1082.762 992.576 1082.306 C 994.504 1081.504 997.151 1079.447 995.164 1077.366 L 985.71 1080.317 C 986.487 1077.491 995.742 1077.243 993.54 1071.676 C 992.302 1070.231 988.247 1073.66 986.545 1074.646 C 972.665 1082.681 978.614 1072.285 978.782 1070.097 C 978.955 1067.839 976.138 1064.513 974.188 1066.763 C 973.062 1070.136 974.945 1071.229 971.952 1075.507 C 970.214 1077.992 968.297 1079.808 968.227 1083.164 C 966.005 1082.63 965.6 1082.865 963.328 1082.779 C 959.237 1082.619 958.06 1077.279 951.876 1083.075 C 948.252 1086.473 939.301 1084.623 935.167 1082.885 C 932.753 1081.865 930.691 1080.428 929.257 1078.226 C 925.741 1072.833 930.106 1061.207 914.155 1061.21 C 913.342 1057.801 911.978 1055.138 911.048 1052.125 C 909.198 1046.136 907.309 1049.959 909.74 1043.381 C 912.126 1036.912 912.135 1029.635 906.956 1024.504 C 887.101 1004.833 878.273 1025.904 875.987 1026.703 C 874.411 1025.144 874.5 1020.997 874.048 1018.792 C 872.955 1013.435 867.861 1002.159 865.505 997.251 C 863.339 992.744 859.7 988.745 859.508 983.728 C 859.265 977.43 860.452 971.209 859.972 964.521 C 859.796 962.059 860.1 957.764 858.91 955.719 C 857.247 952.868 853.941 954.478 853.41 957.328 C 852.954 959.779 854.76 962.47 854.24 965.561 C 853.843 967.922 851.993 970.208 851.015 972.452 C 846.826 982.043 850.146 980.196 851.814 987.825 C 853.002 993.261 850.968 998.459 852.549 1005.347 C 854.855 1015.396 859.167 1025.541 862.14 1035.581 C 863.99 1041.833 863.194 1045.069 866.304 1051.337 C 868.878 1056.529 869.78 1062.334 869.434 1068.085 C 868.981 1075.58 861.201 1089.055 855.587 1094.111 C 842.805 1105.618 848.813 1101.36 842.254 1110.456 C 840.823 1112.437 839.015 1113.938 837.512 1115.874 C 834.868 1119.303 831.336 1125.136 831.403 1129.526 C 831.495 1135.872 837.914 1136.568 842.749 1137.91 C 848.628 1139.536 853.491 1140.78 859.664 1140.835 C 872.125 1140.95 862.35 1147.542 862.207 1150.541 C 862.026 1154.459 868.928 1154.098 865.485 1165.447 C 864.75 1167.87 863.521 1169.902 862.83 1172.498 C 858.868 1187.454 859.692 1203.26 858.845 1218.516 C 858.197 1230.175 857.029 1245.19 859.13 1256.482 C 860.447 1263.533 859.245 1267.487 858.024 1274.217 C 856.682 1281.617 859.851 1284.576 859.801 1291.786 C 859.776 1295.335 859.038 1296.894 858.356 1300.147 C 857.616 1303.668 858.214 1306.6 858.127 1310.088 C 858.013 1314.612 855.458 1321.375 854.374 1326.254 C 852.088 1336.555 854.273 1340.177 844.11 1346.171 C 841.634 1347.607 840.935 1349.795 842.679 1352.176 L 842.679 1352.176 Z " fill-rule="evenodd" fill="rgb(24,22,24)"/><path fill="#2d2222" stroke="#2d2222 " stroke-linejoin="round" stroke-miterlimit="10" d=" M 366.481 973.497 C 365.936 966.463 368.046 964.239 368.037 959.745 C 363.669 959.737 363.259 961.894 362.574 965.667 L 361.532 976.007 C 356.94 975.909 357.983 970.063 355.331 968.386 C 353.335 968.38 352.379 970.093 352.76 971.778 C 352.938 972.572 354.635 974.665 355.157 975.875 C 357.331 980.892 354.755 984.754 355.509 993.445 C 355.75 996.222 354.481 1000.909 353.369 1003.622 C 352.374 1006.045 351.569 1005.391 349.842 1006.599 C 348.973 1014.239 351.533 1024.593 348.112 1031.294 C 344.066 1039.222 347.212 1049.713 344.862 1054.877 C 343.163 1054.729 338.429 1051.876 338.029 1049.92 C 337.761 1048.598 337.999 1045.789 337.968 1044.292 C 337.825 1037.867 334.905 1039.222 334.715 1042.699 C 334.682 1043.322 334.757 1044.09 334.668 1044.677 C 334.486 1045.887 334.483 1045.669 333.852 1046.376 C 332.242 1045.063 331.652 1035.441 327.276 1036.886 C 326.633 1038.515 327.634 1039.58 328.475 1041.181 C 329.738 1043.582 329.411 1043.601 329.411 1046.343 C 326.141 1045.457 324.755 1036.992 320.329 1038.479 C 319.345 1041.6 323.8 1043.386 324.127 1047.156 C 320.977 1046.393 319.516 1043.498 316.704 1044.61 C 316.224 1047.405 323.937 1051.409 325.683 1053.519 C 323.953 1054.791 321.916 1053.891 322.198 1057.281 C 326.935 1055.017 326.331 1058.348 332.941 1061.92 C 334.9 1062.976 335.967 1064.432 336.995 1066.402 C 339.335 1070.89 339.969 1068.316 342.319 1070.024 C 342.403 1072.329 338.843 1075.152 337.11 1077.209 C 334.584 1080.207 334.095 1081.764 332.239 1084.938 C 328.385 1091.525 323.579 1093.381 320.326 1098.232 C 316.601 1103.788 314.469 1107.689 309.413 1112.526 C 304.822 1116.914 300.873 1120.762 297.712 1126.44 C 293.47 1134.055 294.638 1138.094 300.638 1143.825 C 303.329 1146.391 306.401 1146.539 305.638 1150.937 C 299.998 1183.499 312.655 1177.796 324.794 1192.844 C 333.48 1203.609 317.207 1213.477 335.411 1229.797 C 337.521 1231.686 339.58 1234.24 341.324 1236.484 C 344.418 1240.469 343.831 1241.665 343.375 1246.511 C 342.85 1252.078 342.825 1265.849 352.198 1262.242 C 356.079 1260.746 359.377 1249.856 361.02 1245.857 C 363.178 1240.589 367.649 1233.086 369.091 1228.316 C 372.648 1216.548 369.664 1196.472 360.953 1209.201 C 359.137 1211.853 357.418 1215.058 353.805 1215.064 C 352.421 1209.863 353.092 1206.971 355.034 1202.069 C 356.365 1198.713 355.21 1198.216 354.098 1196.055 C 353.165 1194.244 354.023 1191.221 355.604 1189.974 C 360.076 1189.717 372.053 1191.819 377.044 1192.638 C 390.508 1194.848 403.782 1198.238 416.677 1202.603 C 422.685 1204.64 428.369 1207.505 434.66 1209.419 C 448.666 1213.686 462.454 1213.661 476.754 1216.514 C 488.726 1218.904 490.66 1225.882 502.064 1228.201 C 506.776 1229.162 508.497 1227.131 508.735 1222.755 C 507.374 1221.701 506.225 1220.79 507.159 1218.853 C 509.316 1214.371 511.529 1216.78 516.428 1207.348 C 518.066 1204.193 519.689 1200.865 520.324 1197.419 C 520.871 1194.44 521.534 1188.882 516.758 1189.041 C 515.95 1189.849 514.343 1192.791 513.349 1194.102 C 512.119 1195.717 510.845 1197.291 509.579 1198.867 C 507.583 1201.357 501.98 1205.012 498.797 1205.568 C 496.028 1206.054 485.655 1205.705 483.95 1203.226 C 481.245 1199.303 485.805 1191.556 484.83 1188.943 C 481.602 1187.677 472.772 1194.348 464.248 1190.405 C 460.504 1188.675 457.318 1188.887 453.327 1188.314 C 438.832 1186.235 435.967 1182.295 425.77 1177.251 C 412.669 1170.773 402.589 1166.903 388.538 1162.853 C 378.439 1159.944 377.955 1156.979 385.52 1150.426 C 389.092 1147.338 389.184 1146.659 389.622 1141.928 C 389.991 1137.926 390.042 1133.698 390.374 1129.668 C 391.098 1120.929 387.655 1115.379 391.976 1113.381 C 394.985 1111.99 393.2 1111.366 394.457 1109.36 C 396.855 1108.214 402.377 1106.521 403.252 1103.517 C 404.707 1098.506 400.784 1094.524 401.558 1090.846 C 402.536 1089.999 405.269 1089.077 406.896 1088.051 C 411.574 1085.098 417.277 1080.663 419.113 1075.47 C 421.883 1067.632 433.919 1066.12 431.65 1055.106 C 427.804 1036.464 403.989 1029.894 394.192 1047.704 C 392.428 1050.909 391.285 1058.521 389.93 1059.704 C 388.385 1061.053 385.065 1061.034 383.542 1059.709 C 381.848 1058.242 381.345 1056.252 379.196 1055.52 C 377.254 1054.858 374.635 1055.171 373.448 1053.136 C 372.456 1051.437 373.082 1047.394 372.855 1045.191 C 371.659 1033.653 364.907 1040.552 369.745 1018.375 C 372.917 1003.826 368.568 1012.129 368.797 1004.891 C 369.37 986.978 382.494 990.25 385.115 987.802 C 384.645 982.577 378.858 986.293 374.811 984.284 C 372.771 978.17 383.936 969.928 381.859 965.443 C 377.053 965.449 376.418 973.03 371.29 975.607 C 371.282 968.405 379.995 959.494 375.211 958.27 C 374.582 958.108 373.696 958.379 373.185 958.77 C 371.648 959.938 369.549 969.915 366.481 973.497 L 366.481 973.497 Z " fill-rule="evenodd" fill="rgb(24,22,24)"/><path fill="#2d2222" stroke="#2d2222 " stroke-linejoin="round" stroke-miterlimit="10" d=" M 558.333 1099.647 C 556.262 1102.234 552.423 1098.937 546.054 1100.901 C 542.974 1101.851 533.098 1099.677 532.031 1107.985 C 531.983 1108.352 531.972 1108.706 531.888 1109.061 C 531.307 1111.562 529.055 1109.726 526.003 1110.087 C 525.779 1110.397 525.187 1114.108 522.546 1111.325 C 518.01 1106.543 518.81 1109.268 513.355 1111.261 C 512.016 1111.747 509.814 1113.083 508.755 1113.98 C 506.776 1115.64 507.671 1116.006 504.538 1116.688 C 497.669 1118.188 498.703 1112.409 498.094 1108.927 C 495.989 1096.919 484.001 1093.856 476.427 1097.914 C 471.33 1100.647 468.536 1105.057 467.404 1110.433 C 466.739 1113.583 465.52 1113.298 464.883 1115.237 L 467.264 1117.465 C 466.876 1119.72 466.655 1124.965 467.812 1127.016 C 467.423 1127.355 467.731 1127.142 467.113 1127.612 C 466.845 1127.813 466.666 1127.944 466.381 1128.126 C 465.889 1128.436 465.314 1128.704 464.785 1128.961 C 463.472 1129.604 462.636 1130.157 461.39 1130.851 C 449.027 1137.717 453.954 1135.604 452.394 1142.188 C 451.83 1144.569 451.341 1143.831 449.667 1144.742 C 448.367 1145.452 448.082 1146.821 447.47 1147.83 C 446.065 1147.785 444.15 1147.411 443.019 1148.261 C 441.56 1149.353 442.482 1150.298 441.864 1151.983 C 438.547 1153.685 437.522 1151.474 434.196 1153.671 C 432.494 1154.789 424.84 1155.068 420.699 1158.871 C 417.085 1162.194 417.448 1160.313 413.955 1161.482 C 413.612 1162.513 413.871 1163.074 414.025 1163.991 C 408.478 1164.416 407.888 1154.389 403.791 1150.309 C 399.144 1152.366 400.723 1154.987 401.813 1159.266 C 403.537 1166.045 406.184 1173.065 413.352 1175.373 C 416.459 1176.371 417.189 1175.424 419.402 1175.544 C 421.009 1175.625 422.121 1177.455 423.474 1178.288 L 438.76 1171.651 C 449.955 1166.051 442.275 1168.546 455.002 1165.936 C 456.136 1163.932 455.334 1163.983 457.914 1163.555 C 459.652 1163.27 460.652 1163.172 462.427 1163.67 C 465.752 1161.591 463.321 1162.027 468.164 1162.027 C 468.885 1162.661 472.004 1166.665 472.705 1167.649 C 476.17 1172.495 471.372 1173.713 482.894 1187.954 C 486.583 1192.512 499.429 1206.245 500.223 1211.158 C 498.739 1214.072 485.826 1227.106 482.701 1230.228 C 475.98 1236.946 468.569 1240.861 466.434 1250.952 C 463.897 1262.938 460.56 1265.934 453.537 1275.055 C 452.104 1276.916 445.453 1283.707 445.372 1285.236 C 445.165 1289.022 453.574 1291.459 452.889 1295.956 C 451.514 1297.221 451.223 1296.282 450.167 1297.708 C 449.27 1298.915 449.988 1299.06 448.331 1300.343 C 446.615 1301.67 444.553 1302.816 442.465 1303.423 C 428.107 1307.598 415.204 1294.941 414.743 1303.143 C 414.592 1305.829 420.223 1311.423 422.127 1313.366 C 425.692 1317.007 428.766 1319.354 434.017 1319.36 C 436.396 1319.365 439.428 1319.765 441.616 1320.707 C 444.922 1322.127 444.762 1322.344 445.713 1325.553 C 447.345 1331.077 453.878 1328.887 457.028 1326.109 C 461.018 1322.599 460.574 1316.814 460.876 1312.072 C 461.331 1304.971 464.467 1305.027 466.283 1299.588 C 467.205 1296.833 477.705 1280.669 480.018 1277.548 C 483.204 1273.247 483.523 1269.432 485.029 1264.673 C 487.424 1257.097 496.177 1250.53 502.302 1246.171 C 507.405 1242.535 519.329 1233.508 525.083 1232.765 L 526.112 1264.668 C 527.02 1268.887 529.963 1272.244 534.44 1272.604 C 540.199 1273.063 542.927 1271.774 547.714 1269.22 C 557.034 1264.249 570.71 1256.312 580.43 1252.338 C 586.315 1249.932 587.061 1249.029 593.79 1249.029 C 593.603 1246.945 592.935 1244.43 593.533 1242.267 C 594.184 1239.897 596.574 1240.165 598.485 1239.902 C 606.156 1238.832 615.663 1241.104 622.381 1244.826 C 625.738 1246.688 628.141 1250.404 632.168 1249.177 C 633.099 1246.022 625.176 1232.656 619.696 1228 C 615.979 1224.84 614.641 1226.259 611.136 1224.77 C 606.181 1222.668 607.556 1221.763 607.213 1217.314 C 606.964 1214.12 603.451 1212.057 600.553 1213.494 C 597.977 1214.765 595.624 1216.07 593.681 1218.024 C 589.833 1221.9 590.971 1220.676 589.724 1225.857 C 587.111 1225.807 586.896 1224.334 585.253 1222.925 C 579.533 1227.536 560.267 1243.415 553.135 1240.087 C 552.087 1237.756 553.856 1234.897 554.611 1232.614 L 561.818 1209.738 C 562.525 1207.298 562.715 1204.487 564.408 1202.573 C 566.479 1200.231 568.743 1200.248 568.111 1196.285 C 567.432 1192.023 530.533 1139.936 530.371 1133.572 C 534.104 1131.077 536.927 1130.085 540.811 1128.157 C 554.136 1121.553 554.217 1117.889 570.601 1117.699 C 573.971 1117.655 575.696 1118.867 576.699 1115.662 C 577.965 1111.602 578.943 1106.504 576.21 1102.774 C 573.027 1098.431 574.195 1096.455 568.234 1094.485 C 566.493 1093.909 557.193 1090.424 556.424 1090.494 C 553.381 1090.777 553.775 1093.345 554.689 1095.418 C 555.483 1097.196 558.009 1098.339 558.333 1099.647 L 558.333 1099.647 Z " fill-rule="evenodd" fill="rgb(24,22,24)"/><path fill="#2d2222" stroke="#2d2222 " stroke-linejoin="round" stroke-miterlimit="10" d=" M 679.438 1228.425 C 678.51 1225.642 682.397 1223.465 684.155 1221.886 C 693.707 1213.337 694.718 1221.869 689.068 1226.393 C 687.114 1227.956 682.028 1229.291 679.438 1228.425 L 679.438 1228.425 Z  M 597.186 1152.807 C 597.675 1151.34 596.878 1148.822 597.594 1147.928 C 599.089 1146.587 600.014 1147.791 601.707 1148.437 C 603.51 1149.118 604.6 1148.917 606.447 1148.252 C 613.724 1145.611 609.376 1150.004 615.239 1149.317 C 615.722 1149.082 616.309 1146.38 619.14 1147.249 L 619.456 1150.977 C 625.685 1152.089 625.643 1148.859 636.729 1145.198 C 642.631 1143.25 648.787 1141.911 654.754 1138.829 C 657.216 1137.557 659.309 1135.744 661.919 1134.207 L 674.036 1128.028 C 675.724 1127.363 677.644 1127.503 679.002 1126.899 C 680.592 1126.189 680.022 1125.306 682.467 1124.269 C 686.301 1122.637 687.704 1120.645 687.704 1128.288 C 684.569 1128.288 683.11 1127.29 680.31 1129.428 C 678.275 1130.979 677.652 1132.401 675.02 1133.894 C 667.483 1138.172 669.171 1139.575 673.125 1144.488 C 675.906 1147.936 679.225 1151.206 682.696 1154.029 C 684.619 1155.591 686.346 1156.806 688.691 1157.385 C 691.837 1158.159 693.981 1157.877 693.271 1162.309 C 692.287 1163.421 685.726 1165.883 683.811 1166.677 C 673.852 1170.787 642.667 1188.952 652.848 1201.363 C 654.552 1203.442 658.35 1205.652 660.561 1207.472 C 662.271 1208.874 667.083 1214.039 667.804 1214.486 C 670.244 1213.879 669.702 1212.602 672.127 1212.499 C 674.64 1215.861 670.16 1215.702 663.204 1222.903 C 657.85 1228.453 652.197 1244.086 664.135 1238.474 C 669.718 1235.85 673.485 1231.172 676.537 1232.111 C 677.789 1232.5 678.175 1233.17 679.963 1233.612 C 681.363 1233.956 682.948 1233.788 683.962 1234.489 C 683.529 1241.23 657.663 1241.006 654.27 1251.687 C 651.685 1259.825 666.206 1257.91 670.224 1256.737 C 672.96 1255.94 684.203 1251.011 686.561 1249.504 C 691.773 1246.185 694.738 1242.834 699.229 1239.003 C 701.322 1237.217 704.111 1235.766 705.978 1233.964 C 708.736 1231.295 708.437 1228.942 709.432 1225.625 C 710.527 1221.984 712.455 1221.57 715.398 1219.801 C 717.832 1218.34 719.945 1216.537 722.172 1214.785 C 726.655 1211.264 730.528 1207.597 734.597 1203.635 C 751.168 1187.474 742.441 1186.322 749.114 1183.19 C 761.139 1177.542 769.828 1186.082 756.995 1144.781 C 755.26 1139.203 750.615 1131.781 758.241 1128.439 C 765.89 1125.088 787.294 1116.092 773.98 1105.792 C 769.386 1102.24 765.368 1098.409 759.773 1096.472 C 756.478 1095.332 755.179 1093.859 752.342 1092.52 C 749.355 1091.109 746.817 1091.173 745.107 1087.968 C 743.534 1085.023 743.592 1082.871 740.404 1080.881 C 737.419 1079.017 733.901 1079.805 730.659 1078.886 C 726.814 1077.79 726.758 1075.946 722.29 1077.15 C 718.486 1078.176 716.72 1078.305 712.824 1077.209 C 705.357 1075.113 709.854 1071.092 705.475 1060.922 C 703.541 1056.426 697.913 1051.426 693.615 1049.208 C 687.877 1046.248 680.357 1048.302 675.098 1051.457 C 669.285 1054.942 666.164 1059.578 667.209 1066.629 C 668.067 1072.391 673.756 1075.619 677.093 1080.395 C 680.556 1085.35 688.325 1088.08 680.827 1092.501 C 671.923 1097.746 678.781 1103.388 672.256 1107.552 C 665.764 1111.694 666.027 1113.904 658.062 1116.939 C 645.842 1121.589 636.857 1124.803 625.008 1131.043 C 619.126 1134.137 614.962 1137.502 608.02 1137.583 C 599.95 1137.68 597.278 1133.231 590.862 1140.782 C 584.58 1148.157 592.645 1154.015 597.186 1152.807 L 597.186 1152.807 Z " fill-rule="evenodd" fill="rgb(24,22,24)"/></g></g></svg>
