<?xml version="1.0" encoding="UTF-8" standalone="no"?><!-- Generator: Gravit.io --><svg xmlns="http://www.w3.org/2000/svg" xmlns:xlink="http://www.w3.org/1999/xlink" style="isolation:isolate" viewBox="637.086 362.25 63.828 22.344" width="63.828pt" height="22.344pt"><path d=" M 683.859 365.004 L 685.939 364.75 L 686.203 364.75 L 686.203 364.75 Q 687.766 364.75 687.766 366.303 L 687.766 366.303 L 687.766 366.303 Q 687.004 367.66 684.377 370.727 L 684.377 370.727 L 684.25 371.254 L 684.25 371.254 Q 684.25 371.596 685.549 372.553 L 685.549 372.553 L 685.549 372.553 Q 689.318 376.596 689.318 378.148 L 689.318 378.148 L 689.318 378.666 L 689.318 378.666 Q 689.318 379.486 685.158 379.838 L 685.158 379.838 L 685.158 379.838 Q 684.953 380.229 684.25 380.229 L 684.25 380.229 L 684.25 380.355 L 684.25 380.355 Q 682.395 380.355 681.652 373.461 L 681.652 373.461 L 681.652 373.461 Q 681.652 370.023 680.344 369.164 L 680.344 369.164 L 680.217 369.037 L 680.217 368.256 L 680.217 368.256 Q 680.217 366.928 683.859 365.004 L 683.859 365.004 L 683.859 365.004 Z  M 681.516 368.129 L 681.516 368.129 L 681.516 368.129 Q 683.078 370.238 683.078 375.414 L 683.078 375.414 L 683.078 375.414 Q 683.449 378.539 684.768 378.539 L 684.768 378.539 L 685.158 378.539 L 688.283 378.148 L 688.283 378.012 L 688.283 378.012 Q 688.117 376.547 683.342 371.645 L 683.342 371.645 L 683.205 371.508 L 683.205 371.381 L 683.205 371.381 Q 683.41 370.131 686.33 366.693 L 686.33 366.693 L 686.457 366.303 L 686.066 366.049 L 685.813 366.049 L 685.813 366.049 Q 683.625 366.049 681.516 368.129 Z  M 693.938 373.432 L 693.938 373.432 L 694.367 373.432 L 694.807 373.861 L 694.807 373.861 Q 694.807 375.17 690.48 378.188 L 690.48 378.188 L 690.48 378.48 L 690.48 378.48 Q 691.105 379.35 692.492 379.35 L 692.492 379.35 L 692.492 379.35 Q 694.816 379.193 696.975 377.904 L 696.975 377.904 L 697.404 377.904 L 697.541 378.344 L 697.541 378.344 Q 695.373 380.219 692.639 380.219 L 692.639 380.219 L 692.199 380.355 L 692.199 380.355 Q 689.318 380.355 689.318 378.188 L 689.318 378.188 L 689.318 377.904 L 689.318 377.904 Q 689.318 374.838 693.938 373.432 Z  M 690.617 376.889 L 690.617 376.889 L 690.617 376.889 Q 692.17 376.371 693.068 375.15 L 693.068 375.15 L 693.068 375.014 L 692.785 374.73 L 692.785 374.73 Q 690.861 375.902 690.617 376.889 Z  M 666.311 367.475 L 666.701 367.084 L 666.701 367.084 Q 668.391 367.689 668.391 371.898 L 668.391 371.898 L 668.654 378.666 L 668.654 378.666 Q 668.781 379.184 669.436 379.184 L 669.436 379.184 L 669.563 379.574 L 669.563 379.574 Q 669.387 380.111 668.908 380.355 L 668.908 380.355 L 668 380.355 L 668 380.355 Q 667.434 380.355 667.219 378.012 L 667.219 378.012 L 667.355 377.104 L 667.355 374.506 L 667.355 374.506 Q 667.355 369.271 666.311 367.611 L 666.311 367.611 L 666.311 367.475 L 666.311 367.475 Z  M 674.494 366.254 L 674.494 366.254 L 674.855 366.615 L 674.855 366.791 L 673.791 369.086 L 673.439 370.316 L 673.439 370.658 L 675.383 370.316 L 676.613 370.316 L 676.613 370.658 L 676.613 370.658 Q 676.545 371.068 672.912 372.074 L 672.912 372.074 L 672.912 372.074 Q 672.375 374.389 672.375 376.313 L 672.375 376.313 L 672.375 377.543 L 672.375 377.543 Q 672.59 378.852 673.078 378.939 L 673.078 378.939 L 673.078 378.939 Q 673.811 378.939 675.021 377.709 L 675.021 377.709 L 675.197 377.709 L 675.549 378.07 L 675.549 378.236 L 675.549 378.236 Q 673.869 380.355 672.912 380.355 L 672.912 380.355 L 672.912 380.355 Q 670.793 379.311 670.793 376.654 L 670.793 376.654 L 671.506 372.436 L 671.32 372.436 L 669.924 372.777 L 669.563 372.777 L 669.563 372.074 L 669.563 372.074 Q 669.563 371.771 671.848 371.195 L 671.848 371.195 L 671.848 371.195 Q 673.381 366.254 674.494 366.254 Z  M 643.459 366.205 L 643.459 366.205 L 643.596 366.205 L 644.182 366.781 L 644.182 366.781 Q 644.182 367.709 641.291 375.59 L 641.291 375.59 L 641.291 375.59 Q 640.715 377.172 640.715 378.188 L 640.715 378.188 L 640.715 378.344 L 640.715 378.344 Q 640.715 378.764 641.584 378.764 L 641.584 378.764 L 641.584 378.91 L 641.584 378.91 Q 647.258 377.182 648.225 377.182 L 648.225 377.182 L 648.225 377.182 Q 649.006 377.182 649.377 377.904 L 649.377 377.904 L 649.377 378.051 L 649.377 378.051 Q 649.377 378.48 646.779 378.617 L 646.779 378.617 L 646.779 378.617 Q 645.402 379.457 641.154 380.355 L 641.154 380.355 L 640.861 380.355 L 640.861 380.355 Q 639.924 380.355 639.416 379.35 L 639.416 379.35 L 639.416 378.051 L 639.416 378.051 Q 639.416 376.918 642.736 368.08 L 642.736 368.08 L 642.736 368.08 Q 643.068 366.205 643.459 366.205 Z  M 653.01 373.432 L 653.01 373.432 L 653.439 373.432 L 653.879 373.861 L 653.879 373.861 Q 653.879 375.17 649.553 378.188 L 649.553 378.188 L 649.553 378.48 L 649.553 378.48 Q 650.178 379.35 651.564 379.35 L 651.564 379.35 L 651.564 379.35 Q 653.889 379.193 656.047 377.904 L 656.047 377.904 L 656.477 377.904 L 656.613 378.344 L 656.613 378.344 Q 654.445 380.219 651.711 380.219 L 651.711 380.219 L 651.271 380.355 L 651.271 380.355 Q 648.391 380.355 648.391 378.188 L 648.391 378.188 L 648.391 377.904 L 648.391 377.904 Q 648.391 374.838 653.01 373.432 Z  M 649.689 376.889 L 649.689 376.889 L 649.689 376.889 Q 651.242 376.371 652.141 375.15 L 652.141 375.15 L 652.141 375.014 L 651.857 374.73 L 651.857 374.73 Q 649.934 375.902 649.689 376.889 Z  M 660.588 366.254 L 660.588 366.254 L 660.949 366.615 L 660.949 366.791 L 659.885 369.086 L 659.533 370.316 L 659.533 370.658 L 661.477 370.316 L 662.707 370.316 L 662.707 370.658 L 662.707 370.658 Q 662.639 371.068 659.006 372.074 L 659.006 372.074 L 659.006 372.074 Q 658.469 374.389 658.469 376.313 L 658.469 376.313 L 658.469 377.543 L 658.469 377.543 Q 658.684 378.852 659.172 378.939 L 659.172 378.939 L 659.172 378.939 Q 659.904 378.939 661.115 377.709 L 661.115 377.709 L 661.291 377.709 L 661.643 378.07 L 661.643 378.236 L 661.643 378.236 Q 659.963 380.355 659.006 380.355 L 659.006 380.355 L 659.006 380.355 Q 656.887 379.311 656.887 376.654 L 656.887 376.654 L 657.6 372.436 L 657.414 372.436 L 656.018 372.777 L 655.656 372.777 L 655.656 372.074 L 655.656 372.074 Q 655.656 371.771 657.941 371.195 L 657.941 371.195 L 657.941 371.195 Q 659.475 366.254 660.588 366.254 Z " fill="rgb(0,0,0)"/></svg>