<?xml version="1.0" encoding="UTF-8" standalone="no"?><!-- Generator: Gravit.io --><svg xmlns="http://www.w3.org/2000/svg" xmlns:xlink="http://www.w3.org/1999/xlink" style="isolation:isolate" viewBox="1128 676 707.016 252.451" width="707.016pt" height="252.451pt"><g><path d=" M 1440.341 676 L 1440.62 676 L 1440.62 676 Q 1446.264 676.956 1446.264 679.483 L 1446.264 679.483 L 1446.264 679.865 L 1446.264 679.865 Q 1445.427 682.18 1444.011 682.18 L 1444.011 682.18 L 1442.272 681.776 L 1443.517 679.738 L 1443.517 679.547 L 1443.517 679.547 Q 1442.959 677.678 1439.89 678.145 L 1439.89 678.145 L 1439.89 678.145 Q 1435.383 679.334 1434.266 682.116 L 1434.266 682.116 L 1434.266 682.116 Q 1433.472 682.965 1433.322 685.068 L 1433.322 685.068 L 1432.979 688.232 L 1433.086 688.104 L 1433.086 688.104 Q 1436.756 687 1440.62 686.66 L 1440.62 686.66 L 1440.62 686.66 Q 1442.015 686.915 1442.015 687.255 L 1442.015 687.255 L 1442.015 688.742 L 1442.015 688.742 Q 1435.039 689.442 1433.837 690.483 L 1433.837 690.483 L 1432.979 691.056 L 1432.979 691.056 Q 1435.254 701.398 1440.04 704.923 L 1440.04 704.923 L 1440.341 705.687 L 1438.924 706.685 L 1438.087 706.685 L 1438.087 706.685 Q 1437.164 706.239 1430.06 699.699 L 1430.06 699.699 L 1430.06 699.699 Q 1427.312 696.981 1427.312 693.711 L 1427.312 693.711 L 1427.312 693.711 Q 1427.484 691.821 1431.026 689.697 L 1431.026 689.697 L 1430.747 687.786 L 1430.747 687.786 Q 1430.747 682.796 1433.837 679.101 L 1433.837 679.101 L 1433.837 679.101 Q 1433.837 677.529 1440.341 676 L 1440.341 676 L 1440.341 676 Z  M 1429.888 695.218 L 1429.888 695.218 L 1429.888 695.218 Q 1429.888 696.96 1434.116 701.101 L 1434.116 701.101 L 1434.696 701.101 L 1434.696 701.101 Q 1433.558 699.657 1431.584 692.585 L 1431.584 692.585 L 1431.584 692.585 Q 1429.888 693.222 1429.888 695.218 Z  M 1453.669 691.969 L 1453.669 691.969 L 1453.669 691.969 Q 1455.386 692.543 1455.386 695.091 L 1455.386 695.091 L 1455.386 696.216 L 1455.665 696.216 L 1455.665 696.216 Q 1457.232 696.216 1460.537 694.815 L 1460.537 694.815 L 1460.816 695.091 L 1460.816 695.94 L 1460.816 695.94 Q 1460.752 697.13 1455.386 698.489 L 1455.386 698.489 L 1455.386 698.489 Q 1454.807 701.313 1451.673 704.413 L 1451.673 704.413 L 1451.673 704.413 Q 1449.098 706.685 1447.08 706.685 L 1447.08 706.685 L 1445.384 706.685 L 1445.384 706.685 Q 1443.517 705.751 1443.088 703.861 L 1443.088 703.861 L 1443.088 703.861 Q 1444.612 697.639 1446.243 697.639 L 1446.243 697.639 L 1446.243 697.639 Q 1447.659 695.94 1449.377 695.94 L 1449.377 695.94 L 1449.656 696.216 L 1449.656 696.79 L 1449.656 696.79 Q 1445.663 700.379 1445.663 703.012 L 1445.663 703.012 L 1445.663 704.137 L 1445.942 704.413 L 1446.801 704.711 L 1446.801 704.987 L 1446.801 704.987 Q 1449.978 704.987 1453.09 699.041 L 1453.09 699.041 L 1453.39 697.342 L 1453.39 697.342 Q 1451.673 694.857 1451.673 693.965 L 1451.673 693.965 L 1451.673 693.965 Q 1451.673 692.904 1453.669 691.969 Z  M 1472.814 689.421 L 1472.814 689.421 L 1473.158 689.421 L 1473.158 689.421 Q 1474.682 689.421 1477.343 692.543 L 1477.343 692.543 L 1477.343 692.543 Q 1479.811 693.732 1479.811 695.282 L 1479.811 695.282 L 1479.446 695.643 L 1478.395 695.643 L 1473.523 693.243 L 1473.158 693.243 L 1473.158 693.243 Q 1470.732 699.55 1469.337 705.985 L 1469.337 705.985 L 1467.234 706.685 L 1466.182 704.944 L 1466.526 704.944 L 1466.182 704.604 L 1466.182 702.545 L 1466.182 702.545 Q 1466.182 698.319 1463.757 697.023 L 1463.757 697.023 L 1463.757 697.023 Q 1461.761 697.023 1459.915 700.824 L 1459.915 700.824 L 1459.228 700.824 L 1458.52 700.124 L 1458.52 699.784 L 1458.52 699.784 Q 1458.52 695.579 1464.444 694.241 L 1464.444 694.241 L 1464.444 694.241 Q 1468.286 696.599 1468.286 700.124 L 1468.286 700.124 L 1468.629 700.124 L 1468.629 700.124 Q 1470.99 689.421 1472.814 689.421 Z  M 1488.225 691.63 L 1488.225 691.63 L 1489.169 691.63 L 1490.135 692.564 L 1490.135 692.564 Q 1490.135 695.409 1480.627 701.971 L 1480.627 701.971 L 1480.627 702.608 L 1480.627 702.608 Q 1482.001 704.498 1485.048 704.498 L 1485.048 704.498 L 1485.048 704.498 Q 1490.156 704.158 1494.9 701.355 L 1494.9 701.355 L 1495.844 701.355 L 1496.145 702.311 L 1496.145 702.311 Q 1491.38 706.388 1485.37 706.388 L 1485.37 706.388 L 1484.404 706.685 L 1484.404 706.685 Q 1478.073 706.685 1478.073 701.971 L 1478.073 701.971 L 1478.073 701.355 L 1478.073 701.355 Q 1478.073 694.687 1488.225 691.63 Z  M 1480.927 699.147 L 1480.927 699.147 L 1480.927 699.147 Q 1484.34 698.021 1486.315 695.367 L 1486.315 695.367 L 1486.315 695.07 L 1485.692 694.454 L 1485.692 694.454 Q 1481.464 697.002 1480.927 699.147 Z  M 1502.906 690.844 L 1502.906 690.844 L 1502.906 690.844 Q 1504.193 690.844 1504.902 693.116 L 1504.902 693.116 L 1506.619 693.392 L 1509.774 693.116 L 1510.053 693.392 L 1510.053 693.965 L 1510.053 693.965 Q 1508.186 695.94 1505.76 695.94 L 1505.76 695.94 L 1504.623 695.664 L 1504.344 695.664 L 1504.344 695.664 Q 1503.764 705.56 1502.326 705.56 L 1502.326 705.56 L 1500.051 706.685 L 1500.051 706.685 Q 1494.621 703.84 1494.621 699.89 L 1494.621 699.89 L 1494.32 698.191 L 1494.041 698.191 L 1494.32 697.915 L 1494.32 696.492 L 1494.041 696.216 L 1494.32 695.94 L 1494.32 695.664 L 1494.041 694.518 L 1494.041 694.518 Q 1494.599 692.543 1496.037 692.543 L 1496.037 692.543 L 1496.037 692.543 Q 1496.746 692.543 1497.196 700.74 L 1497.196 700.74 L 1497.196 700.74 Q 1498.355 703.288 1500.051 703.288 L 1500.051 703.288 L 1500.051 703.288 Q 1501.768 703.288 1502.047 698.765 L 1502.047 698.765 L 1502.047 696.79 L 1501.189 693.116 L 1501.189 693.116 Q 1501.489 691.608 1502.906 690.844 Z  M 1517.737 691.63 L 1517.737 691.63 L 1518.681 691.63 L 1519.647 692.564 L 1519.647 692.564 Q 1519.647 695.409 1510.139 701.971 L 1510.139 701.971 L 1510.139 702.608 L 1510.139 702.608 Q 1511.512 704.498 1514.56 704.498 L 1514.56 704.498 L 1514.56 704.498 Q 1519.668 704.158 1524.412 701.355 L 1524.412 701.355 L 1525.356 701.355 L 1525.657 702.311 L 1525.657 702.311 Q 1520.892 706.388 1514.882 706.388 L 1514.882 706.388 L 1513.916 706.685 L 1513.916 706.685 Q 1507.585 706.685 1507.585 701.971 L 1507.585 701.971 L 1507.585 701.355 L 1507.585 701.355 Q 1507.585 694.687 1517.737 691.63 Z  M 1510.439 699.147 L 1510.439 699.147 L 1510.439 699.147 Q 1513.852 698.021 1515.826 695.367 L 1515.826 695.367 L 1515.826 695.07 L 1515.204 694.454 L 1515.204 694.454 Q 1510.976 697.002 1510.439 699.147 Z  M 1537.848 689.421 L 1537.848 689.421 L 1538.191 689.421 L 1538.191 689.421 Q 1539.715 689.421 1542.376 692.543 L 1542.376 692.543 L 1542.376 692.543 Q 1544.845 693.732 1544.845 695.282 L 1544.845 695.282 L 1544.48 695.643 L 1543.428 695.643 L 1538.556 693.243 L 1538.191 693.243 L 1538.191 693.243 Q 1535.766 699.55 1534.371 705.985 L 1534.371 705.985 L 1532.267 706.685 L 1531.215 704.944 L 1531.559 704.944 L 1531.215 704.604 L 1531.215 702.545 L 1531.215 702.545 Q 1531.215 698.319 1528.79 697.023 L 1528.79 697.023 L 1528.79 697.023 Q 1526.794 697.023 1524.948 700.824 L 1524.948 700.824 L 1524.261 700.824 L 1523.553 700.124 L 1523.553 699.784 L 1523.553 699.784 Q 1523.553 695.579 1529.477 694.241 L 1529.477 694.241 L 1529.477 694.241 Q 1533.319 696.599 1533.319 700.124 L 1533.319 700.124 L 1533.662 700.124 L 1533.662 700.124 Q 1536.023 689.421 1537.848 689.421 Z " fill="rgb(0,0,0)"/><path d=" M 1409.103 777.179 L 1409.103 777.179 L 1388.493 777.179 L 1388.493 814.659 L 1409.103 814.659 L 1409.103 814.659 Q 1416.067 814.659 1418.655 810.481 L 1418.655 810.481 L 1418.655 810.481 Q 1421.243 806.303 1421.243 796.103 L 1421.243 796.103 L 1421.243 796.103 Q 1421.243 786.027 1418.443 781.603 L 1418.443 781.603 L 1418.443 781.603 Q 1415.644 777.179 1409.103 777.179 Z  M 1388.493 846.609 L 1388.493 887.407 L 1411.691 887.407 L 1411.691 887.407 Q 1418.749 887.407 1421.29 882.983 L 1421.29 882.983 L 1421.29 882.983 Q 1423.831 878.559 1423.831 867.5 L 1423.831 867.5 L 1423.831 867.5 Q 1423.831 856.44 1421.008 851.525 L 1421.008 851.525 L 1421.008 851.525 Q 1418.185 846.609 1411.691 846.609 L 1411.691 846.609 L 1388.493 846.609 L 1388.493 846.609 Z  M 1419.502 923.658 L 1371.035 923.658 L 1371.035 741.911 L 1416.02 741.911 L 1416.02 741.911 Q 1427.737 741.911 1433.595 753.278 L 1433.595 753.278 L 1433.595 753.278 Q 1439.454 764.645 1439.454 787.256 L 1439.454 787.256 L 1439.454 787.256 Q 1439.454 800.527 1437.054 810.665 L 1437.054 810.665 L 1437.054 810.665 Q 1434.654 820.803 1429.995 827.071 L 1429.995 827.071 L 1429.995 827.071 Q 1436.019 832.109 1439.077 843.476 L 1439.077 843.476 L 1439.077 843.476 Q 1442.136 854.843 1442.136 871.801 L 1442.136 871.801 L 1442.136 871.801 Q 1442.136 896.009 1436.113 909.834 L 1436.113 909.834 L 1436.113 909.834 Q 1430.09 923.658 1419.502 923.658 L 1419.502 923.658 L 1419.502 923.658 Z  M 1509.953 923.658 L 1448.169 923.658 L 1448.169 741.911 L 1509.953 741.911 L 1509.953 778.654 L 1465.627 778.654 L 1465.627 809.375 L 1505.106 809.375 L 1505.106 846.364 L 1465.627 846.364 L 1465.627 885.441 L 1509.953 885.441 L 1509.953 923.658 L 1509.953 923.658 Z  M 1544.831 792.294 L 1535.797 848.453 L 1554.195 848.453 L 1544.831 792.294 L 1544.831 792.294 Z  M 1523.562 923.658 L 1504.74 923.658 L 1537.726 741.911 L 1554.478 741.911 L 1586.193 923.658 L 1566.806 923.658 L 1560.454 885.195 L 1529.821 885.195 L 1523.562 923.658 L 1523.562 923.658 Z  M 1636.647 778.654 L 1612.837 778.654 L 1612.837 923.658 L 1595.52 923.658 L 1595.52 778.654 L 1571.71 778.654 L 1571.71 741.911 L 1636.647 741.911 L 1636.647 778.654 L 1636.647 778.654 Z  M 1691.9 923.658 L 1638.634 923.658 L 1638.634 741.911 L 1656.091 741.911 L 1656.091 885.441 L 1691.9 885.441 L 1691.9 923.658 L 1691.9 923.658 Z  M 1758.964 923.658 L 1697.181 923.658 L 1697.181 741.911 L 1758.964 741.911 L 1758.964 778.654 L 1714.638 778.654 L 1714.638 809.375 L 1754.118 809.375 L 1754.118 846.364 L 1714.638 846.364 L 1714.638 885.441 L 1758.964 885.441 L 1758.964 923.658 L 1758.964 923.658 Z  M 1762.033 864.551 L 1762.033 860.741 L 1779.867 860.741 L 1779.867 862.461 L 1779.867 862.461 Q 1779.867 877.822 1785.044 885.871 L 1785.044 885.871 L 1785.044 885.871 Q 1790.22 893.92 1800.101 893.92 L 1800.101 893.92 L 1800.101 893.92 Q 1807.724 893.92 1811.865 888.083 L 1811.865 888.083 L 1811.865 888.083 Q 1816.006 882.246 1816.006 871.555 L 1816.006 871.555 L 1816.006 871.555 Q 1816.006 862.584 1813.3 858.345 L 1813.3 858.345 L 1813.3 858.345 Q 1810.595 854.105 1802.36 851.893 L 1802.36 851.893 L 1789.984 848.698 L 1789.984 848.698 Q 1776.432 845.012 1770.056 832.6 L 1770.056 832.6 L 1770.056 832.6 Q 1763.68 820.189 1763.68 797.578 L 1763.68 797.578 L 1763.68 797.578 Q 1763.68 770.789 1772.88 753.954 L 1772.88 753.954 L 1772.88 753.954 Q 1782.079 737.118 1797.231 737.118 L 1797.231 737.118 L 1797.231 737.118 Q 1813.512 737.118 1822.711 752.971 L 1822.711 752.971 L 1822.711 752.971 Q 1831.911 768.823 1831.911 796.349 L 1831.911 796.349 L 1831.911 797.824 L 1814.594 797.824 L 1814.594 797.824 Q 1813.983 784.184 1809.724 777.425 L 1809.724 777.425 L 1809.724 777.425 Q 1805.466 770.666 1797.513 770.666 L 1797.513 770.666 L 1797.513 770.666 Q 1790.173 770.666 1786.126 776.135 L 1786.126 776.135 L 1786.126 776.135 Q 1782.079 781.603 1782.079 791.557 L 1782.079 791.557 L 1782.079 791.557 Q 1782.079 799.544 1784.455 803.231 L 1784.455 803.231 L 1784.455 803.231 Q 1786.832 806.917 1796.149 809.621 L 1796.149 809.621 L 1809.089 813.184 L 1809.089 813.184 Q 1822.453 816.994 1828.734 829.958 L 1828.734 829.958 L 1828.734 829.958 Q 1835.016 842.923 1835.016 866.517 L 1835.016 866.517 L 1835.016 866.517 Q 1835.016 896.869 1825.582 912.66 L 1825.582 912.66 L 1825.582 912.66 Q 1816.147 928.451 1797.984 928.451 L 1797.984 928.451 L 1797.984 928.451 Q 1780.667 928.451 1771.35 911.861 L 1771.35 911.861 L 1771.35 911.861 Q 1762.033 895.272 1762.033 864.551 L 1762.033 864.551 L 1762.033 864.551 Z  M 1192.936 778.654 L 1169.126 778.654 L 1169.126 923.658 L 1151.81 923.658 L 1151.81 778.654 L 1128 778.654 L 1128 741.911 L 1192.936 741.911 L 1192.936 778.654 L 1192.936 778.654 Z  M 1212.38 923.658 L 1194.923 923.658 L 1194.923 741.911 L 1212.38 741.911 L 1212.38 810.112 L 1245.79 810.112 L 1245.79 741.911 L 1263.153 741.911 L 1263.153 923.658 L 1245.79 923.658 L 1245.79 848.207 L 1212.38 848.207 L 1212.38 923.658 L 1212.38 923.658 Z  M 1335.205 923.658 L 1273.422 923.658 L 1273.422 741.911 L 1335.205 741.911 L 1335.205 778.654 L 1290.879 778.654 L 1290.879 809.375 L 1330.358 809.375 L 1330.358 846.364 L 1290.879 846.364 L 1290.879 885.441 L 1335.205 885.441 L 1335.205 923.658 L 1335.205 923.658 Z " fill="rgb(255,74,6)"/></g></svg>