<?xml version="1.0" encoding="UTF-8" standalone="no"?><!-- Generator: Gravit.io --><svg xmlns="http://www.w3.org/2000/svg" xmlns:xlink="http://www.w3.org/1999/xlink" style="isolation:isolate" viewBox="823.438 414.1 428.233 77.657" width="428.233pt" height="77.657pt"><g><path d=" M 1200.157 459.206 L 1200.157 444.821 L 1210.274 444.821 L 1210.274 446.627 L 1202.14 446.627 L 1202.14 450.944 L 1209.239 450.944 L 1209.239 452.702 L 1202.14 452.702 L 1202.14 459.206 L 1200.157 459.206 L 1200.157 459.206 Z  M 1218.175 446.53 L 1214.415 446.53 L 1214.415 451.383 L 1218.175 451.383 L 1218.175 451.383 Q 1220.177 451.383 1221.026 450.793 L 1221.026 450.793 L 1221.026 450.793 Q 1221.876 450.202 1221.876 448.844 L 1221.876 448.844 L 1221.876 448.844 Q 1221.876 447.633 1221.1 447.082 L 1221.1 447.082 L 1221.1 447.082 Q 1220.323 446.53 1218.575 446.53 L 1218.575 446.53 L 1218.175 446.53 L 1218.175 446.53 Z  M 1212.452 459.206 L 1212.452 444.821 L 1218.517 444.821 L 1218.517 444.821 Q 1218.79 444.821 1219.083 444.835 L 1219.083 444.835 L 1219.083 444.835 Q 1219.376 444.85 1219.395 444.85 L 1219.395 444.85 L 1219.395 444.85 Q 1221.505 444.85 1222.711 445.876 L 1222.711 445.876 L 1222.711 445.876 Q 1223.917 446.901 1223.917 448.688 L 1223.917 448.688 L 1223.917 448.688 Q 1223.917 449.948 1223.404 450.768 L 1223.404 450.768 L 1223.404 450.768 Q 1222.892 451.588 1221.788 452.086 L 1221.788 452.086 L 1221.788 452.086 Q 1222.677 452.331 1223.053 452.863 L 1223.053 452.863 L 1223.053 452.863 Q 1223.429 453.395 1223.536 454.762 L 1223.536 454.762 L 1223.712 457.126 L 1223.712 457.126 Q 1223.761 457.848 1223.927 458.234 L 1223.927 458.234 L 1223.927 458.234 Q 1224.093 458.62 1224.435 458.786 L 1224.435 458.786 L 1224.435 459.206 L 1222.13 459.206 L 1222.13 459.206 Q 1221.837 458.737 1221.729 457.282 L 1221.729 457.282 L 1221.729 457.223 L 1221.593 455.348 L 1221.593 455.348 Q 1221.485 453.893 1220.89 453.468 L 1220.89 453.468 L 1220.89 453.468 Q 1220.294 453.043 1218.39 453.043 L 1218.39 453.043 L 1217.989 453.043 L 1214.415 453.043 L 1214.415 459.206 L 1212.452 459.206 L 1212.452 459.206 Z  M 1234.278 453.249 L 1231.876 446.764 L 1229.435 453.249 L 1234.278 453.249 L 1234.278 453.249 Z  M 1225.138 459.206 L 1230.792 444.821 L 1232.979 444.821 L 1238.614 459.206 L 1236.456 459.206 L 1234.874 454.909 L 1228.819 454.909 L 1227.179 459.206 L 1225.138 459.206 L 1225.138 459.206 Z  M 1076.681 453.747 L 1076.681 444.821 L 1078.634 444.821 L 1078.634 453.766 L 1078.634 453.766 Q 1078.634 455.797 1079.552 456.759 L 1079.552 456.759 L 1079.552 456.759 Q 1080.47 457.721 1082.394 457.721 L 1082.394 457.721 L 1082.394 457.721 Q 1084.298 457.721 1085.226 456.745 L 1085.226 456.745 L 1085.226 456.745 Q 1086.153 455.768 1086.153 453.766 L 1086.153 453.766 L 1086.153 444.821 L 1088.116 444.821 L 1088.116 453.747 L 1088.116 453.747 Q 1088.116 456.627 1086.607 458.117 L 1086.607 458.117 L 1086.607 458.117 Q 1085.099 459.606 1082.179 459.606 L 1082.179 459.606 L 1082.179 459.606 Q 1079.425 459.606 1078.053 458.141 L 1078.053 458.141 L 1078.053 458.141 Q 1076.681 456.676 1076.681 453.747 L 1076.681 453.747 L 1076.681 453.747 Z  M 1096.642 446.51 L 1093.155 446.51 L 1093.155 457.448 L 1096.642 457.448 L 1096.642 457.448 Q 1098.888 457.448 1100.006 456.027 L 1100.006 456.027 L 1100.006 456.027 Q 1101.124 454.606 1101.124 451.725 L 1101.124 451.725 L 1101.124 451.725 Q 1101.124 449.235 1099.947 447.873 L 1099.947 447.873 L 1099.947 447.873 Q 1098.77 446.51 1096.642 446.51 L 1096.642 446.51 L 1096.642 446.51 Z  M 1091.202 459.206 L 1091.202 444.821 L 1096.798 444.821 L 1096.798 444.821 Q 1099.864 444.821 1101.49 446.618 L 1101.49 446.618 L 1101.49 446.618 Q 1103.116 448.415 1103.116 451.803 L 1103.116 451.803 L 1103.116 451.803 Q 1103.116 455.299 1101.436 457.252 L 1101.436 457.252 L 1101.436 457.252 Q 1099.757 459.206 1096.739 459.206 L 1096.739 459.206 L 1091.202 459.206 L 1091.202 459.206 Z  M 1116.046 449.049 L 1116.046 449.049 L 1114.181 449.049 L 1114.181 449.049 Q 1114.112 447.633 1113.18 446.847 L 1113.18 446.847 L 1113.18 446.847 Q 1112.247 446.061 1110.645 446.061 L 1110.645 446.061 L 1110.645 446.061 Q 1109.093 446.061 1108.209 446.701 L 1108.209 446.701 L 1108.209 446.701 Q 1107.325 447.34 1107.325 448.444 L 1107.325 448.444 L 1107.325 448.444 Q 1107.325 450.036 1111.124 450.885 L 1111.124 450.885 L 1111.124 450.885 Q 1111.603 450.983 1111.866 451.042 L 1111.866 451.042 L 1111.866 451.042 Q 1114.649 451.686 1115.567 452.565 L 1115.567 452.565 L 1115.567 452.565 Q 1116.485 453.444 1116.485 455.045 L 1116.485 455.045 L 1116.485 455.045 Q 1116.485 457.126 1114.957 458.356 L 1114.957 458.356 L 1114.957 458.356 Q 1113.429 459.586 1110.802 459.586 L 1110.802 459.586 L 1110.802 459.586 Q 1108.116 459.586 1106.612 458.258 L 1106.612 458.258 L 1106.612 458.258 Q 1105.108 456.93 1104.981 454.45 L 1104.981 454.45 L 1106.866 454.45 L 1106.866 454.45 Q 1106.895 456.042 1107.97 456.964 L 1107.97 456.964 L 1107.97 456.964 Q 1109.044 457.887 1110.88 457.887 L 1110.88 457.887 L 1110.88 457.887 Q 1112.56 457.887 1113.551 457.169 L 1113.551 457.169 L 1113.551 457.169 Q 1114.542 456.452 1114.542 455.241 L 1114.542 455.241 L 1114.542 455.241 Q 1114.542 453.629 1110.899 452.809 L 1110.899 452.809 L 1110.899 452.809 Q 1110.274 452.663 1109.942 452.585 L 1109.942 452.585 L 1109.942 452.585 Q 1107.354 451.969 1106.407 451.105 L 1106.407 451.105 L 1106.407 451.105 Q 1105.46 450.241 1105.46 448.708 L 1105.46 448.708 L 1105.46 448.708 Q 1105.46 446.784 1106.905 445.617 L 1106.905 445.617 L 1106.905 445.617 Q 1108.351 444.45 1110.763 444.45 L 1110.763 444.45 L 1110.763 444.45 Q 1113.204 444.45 1114.615 445.675 L 1114.615 445.675 L 1114.615 445.675 Q 1116.026 446.901 1116.046 449.049 Z  M 1117.599 446.569 L 1117.599 444.821 L 1129.425 444.821 L 1129.425 446.569 L 1124.503 446.569 L 1124.503 459.206 L 1122.52 459.206 L 1122.52 446.569 L 1117.599 446.569 L 1117.599 446.569 Z  M 1131.417 459.206 L 1131.417 444.821 L 1133.38 444.821 L 1133.38 459.206 L 1131.417 459.206 L 1131.417 459.206 Z  M 1136.798 459.206 L 1136.798 444.821 L 1138.78 444.821 L 1138.78 457.389 L 1146.261 457.389 L 1146.261 459.206 L 1136.798 459.206 L 1136.798 459.206 Z  M 1147.921 459.206 L 1147.921 444.821 L 1149.903 444.821 L 1149.903 457.389 L 1157.384 457.389 L 1157.384 459.206 L 1147.921 459.206 L 1147.921 459.206 Z  M 1159.22 459.206 L 1159.22 444.821 L 1161.183 444.821 L 1161.183 459.206 L 1159.22 459.206 L 1159.22 459.206 Z  M 1164.522 459.206 L 1164.522 444.821 L 1166.661 444.821 L 1173.38 455.27 L 1173.38 455.27 Q 1173.634 455.67 1173.785 455.949 L 1173.785 455.949 L 1173.785 455.949 Q 1173.936 456.227 1174.044 456.481 L 1174.044 456.481 L 1174.044 444.821 L 1175.899 444.821 L 1175.899 459.206 L 1173.78 459.206 L 1166.915 448.629 L 1166.915 448.629 Q 1166.769 448.405 1166.642 448.146 L 1166.642 448.146 L 1166.642 448.146 Q 1166.515 447.887 1166.378 447.545 L 1166.378 447.545 L 1166.378 459.206 L 1164.522 459.206 L 1164.522 459.206 Z  M 1191.427 449.167 L 1191.427 449.167 L 1189.522 449.167 L 1189.522 449.167 Q 1189.249 447.731 1188.18 446.93 L 1188.18 446.93 L 1188.18 446.93 Q 1187.11 446.129 1185.46 446.129 L 1185.46 446.129 L 1185.46 446.129 Q 1183.048 446.129 1181.715 447.658 L 1181.715 447.658 L 1181.715 447.658 Q 1180.382 449.186 1180.382 451.969 L 1180.382 451.969 L 1180.382 451.969 Q 1180.382 454.713 1181.705 456.271 L 1181.705 456.271 L 1181.705 456.271 Q 1183.028 457.829 1185.323 457.829 L 1185.323 457.829 L 1185.323 457.829 Q 1187.384 457.829 1188.624 456.588 L 1188.624 456.588 L 1188.624 456.588 Q 1189.864 455.348 1189.864 453.288 L 1189.864 453.288 L 1189.864 453.063 L 1185.304 453.063 L 1185.304 451.461 L 1191.661 451.461 L 1191.661 459.206 L 1190.401 459.206 L 1189.962 457.262 L 1189.962 457.262 Q 1189.112 458.424 1187.867 459.015 L 1187.867 459.015 L 1187.867 459.015 Q 1186.622 459.606 1185.04 459.606 L 1185.04 459.606 L 1185.04 459.606 Q 1182.091 459.606 1180.235 457.516 L 1180.235 457.516 L 1180.235 457.516 Q 1178.38 455.426 1178.38 452.047 L 1178.38 452.047 L 1178.38 452.047 Q 1178.38 448.551 1180.289 446.501 L 1180.289 446.501 L 1180.289 446.501 Q 1182.198 444.45 1185.46 444.45 L 1185.46 444.45 L 1185.46 444.45 Q 1187.94 444.45 1189.532 445.71 L 1189.532 445.71 L 1189.532 445.71 Q 1191.124 446.969 1191.427 449.167 Z  M 1046.29 444.45 L 1046.29 444.45 L 1046.29 444.45 Q 1049.474 444.45 1051.28 446.461 L 1051.28 446.461 L 1051.28 446.461 Q 1053.087 448.473 1053.087 452.028 L 1053.087 452.028 L 1053.087 452.028 Q 1053.087 455.583 1051.28 457.594 L 1051.28 457.594 L 1051.28 457.594 Q 1049.474 459.606 1046.29 459.606 L 1046.29 459.606 L 1046.29 459.606 Q 1043.097 459.606 1041.29 457.594 L 1041.29 457.594 L 1041.29 457.594 Q 1039.483 455.583 1039.483 452.028 L 1039.483 452.028 L 1039.483 452.028 Q 1039.483 448.473 1041.29 446.461 L 1041.29 446.461 L 1041.29 446.461 Q 1043.097 444.45 1046.29 444.45 Z  M 1046.29 446.149 L 1046.29 446.149 L 1046.29 446.149 Q 1044.044 446.149 1042.774 447.707 L 1042.774 447.707 L 1042.774 447.707 Q 1041.505 449.264 1041.505 452.028 L 1041.505 452.028 L 1041.505 452.028 Q 1041.505 454.792 1042.779 456.359 L 1042.779 456.359 L 1042.779 456.359 Q 1044.054 457.926 1046.29 457.926 L 1046.29 457.926 L 1046.29 457.926 Q 1048.526 457.926 1049.796 456.359 L 1049.796 456.359 L 1049.796 456.359 Q 1051.065 454.792 1051.065 452.028 L 1051.065 452.028 L 1051.065 452.028 Q 1051.065 449.264 1049.796 447.707 L 1049.796 447.707 L 1049.796 447.707 Q 1048.526 446.149 1046.29 446.149 Z  M 1068.067 449.167 L 1068.067 449.167 L 1066.163 449.167 L 1066.163 449.167 Q 1065.89 447.731 1064.82 446.93 L 1064.82 446.93 L 1064.82 446.93 Q 1063.751 446.129 1062.101 446.129 L 1062.101 446.129 L 1062.101 446.129 Q 1059.688 446.129 1058.355 447.658 L 1058.355 447.658 L 1058.355 447.658 Q 1057.022 449.186 1057.022 451.969 L 1057.022 451.969 L 1057.022 451.969 Q 1057.022 454.713 1058.346 456.271 L 1058.346 456.271 L 1058.346 456.271 Q 1059.669 457.829 1061.964 457.829 L 1061.964 457.829 L 1061.964 457.829 Q 1064.024 457.829 1065.265 456.588 L 1065.265 456.588 L 1065.265 456.588 Q 1066.505 455.348 1066.505 453.288 L 1066.505 453.288 L 1066.505 453.063 L 1061.944 453.063 L 1061.944 451.461 L 1068.302 451.461 L 1068.302 459.206 L 1067.042 459.206 L 1066.603 457.262 L 1066.603 457.262 Q 1065.753 458.424 1064.508 459.015 L 1064.508 459.015 L 1064.508 459.015 Q 1063.263 459.606 1061.681 459.606 L 1061.681 459.606 L 1061.681 459.606 Q 1058.731 459.606 1056.876 457.516 L 1056.876 457.516 L 1056.876 457.516 Q 1055.02 455.426 1055.02 452.047 L 1055.02 452.047 L 1055.02 452.047 Q 1055.02 448.551 1056.93 446.501 L 1056.93 446.501 L 1056.93 446.501 Q 1058.839 444.45 1062.101 444.45 L 1062.101 444.45 L 1062.101 444.45 Q 1064.581 444.45 1066.173 445.71 L 1066.173 445.71 L 1066.173 445.71 Q 1067.765 446.969 1068.067 449.167 Z  M 829.278 459.206 L 823.595 444.821 L 825.655 444.821 L 830.333 457.126 L 834.874 444.821 L 836.935 444.821 L 831.339 459.206 L 829.278 459.206 L 829.278 459.206 Z  M 838.731 459.206 L 838.731 444.821 L 840.694 444.821 L 840.694 459.206 L 838.731 459.206 L 838.731 459.206 Z  M 844.034 459.206 L 844.034 444.821 L 846.173 444.821 L 852.892 455.27 L 852.892 455.27 Q 853.145 455.67 853.297 455.949 L 853.297 455.949 L 853.297 455.949 Q 853.448 456.227 853.556 456.481 L 853.556 456.481 L 853.556 444.821 L 855.411 444.821 L 855.411 459.206 L 853.292 459.206 L 846.427 448.629 L 846.427 448.629 Q 846.28 448.405 846.153 448.146 L 846.153 448.146 L 846.153 448.146 Q 846.026 447.887 845.89 447.545 L 845.89 447.545 L 845.89 459.206 L 844.034 459.206 L 844.034 459.206 Z  M 862.696 453.483 L 856.895 444.821 L 859.239 444.821 L 863.673 451.764 L 868.058 444.821 L 870.353 444.821 L 864.679 453.327 L 864.679 459.206 L 862.696 459.206 L 862.696 453.483 L 862.696 453.483 Z  M 871.895 459.206 L 871.895 444.821 L 873.878 444.821 L 873.878 457.389 L 881.358 457.389 L 881.358 459.206 L 871.895 459.206 L 871.895 459.206 Z  M 883.019 459.206 L 883.019 444.821 L 885.001 444.821 L 885.001 457.389 L 892.481 457.389 L 892.481 459.206 L 883.019 459.206 L 883.019 459.206 Z  M 899.591 444.45 L 899.591 444.45 L 899.591 444.45 Q 902.774 444.45 904.581 446.461 L 904.581 446.461 L 904.581 446.461 Q 906.388 448.473 906.388 452.028 L 906.388 452.028 L 906.388 452.028 Q 906.388 455.583 904.581 457.594 L 904.581 457.594 L 904.581 457.594 Q 902.774 459.606 899.591 459.606 L 899.591 459.606 L 899.591 459.606 Q 896.397 459.606 894.591 457.594 L 894.591 457.594 L 894.591 457.594 Q 892.784 455.583 892.784 452.028 L 892.784 452.028 L 892.784 452.028 Q 892.784 448.473 894.591 446.461 L 894.591 446.461 L 894.591 446.461 Q 896.397 444.45 899.591 444.45 Z  M 899.591 446.149 L 899.591 446.149 L 899.591 446.149 Q 897.345 446.149 896.075 447.707 L 896.075 447.707 L 896.075 447.707 Q 894.806 449.264 894.806 452.028 L 894.806 452.028 L 894.806 452.028 Q 894.806 454.792 896.08 456.359 L 896.08 456.359 L 896.08 456.359 Q 897.354 457.926 899.591 457.926 L 899.591 457.926 L 899.591 457.926 Q 901.827 457.926 903.097 456.359 L 903.097 456.359 L 903.097 456.359 Q 904.366 454.792 904.366 452.028 L 904.366 452.028 L 904.366 452.028 Q 904.366 449.264 903.097 447.707 L 903.097 447.707 L 903.097 447.707 Q 901.827 446.149 899.591 446.149 Z  M 914.708 446.588 L 910.987 446.588 L 910.987 451.422 L 914.561 451.422 L 914.561 451.422 Q 916.407 451.422 917.145 450.861 L 917.145 450.861 L 917.145 450.861 Q 917.882 450.299 917.882 448.981 L 917.882 448.981 L 917.882 448.981 Q 917.882 447.711 917.149 447.15 L 917.149 447.15 L 917.149 447.15 Q 916.417 446.588 914.708 446.588 L 914.708 446.588 L 914.708 446.588 Z  M 909.024 459.206 L 909.024 444.821 L 914.083 444.821 L 914.083 444.821 Q 914.464 444.821 914.85 444.835 L 914.85 444.835 L 914.85 444.835 Q 915.235 444.85 915.245 444.85 L 915.245 444.85 L 915.245 444.85 Q 917.53 444.85 918.707 445.9 L 918.707 445.9 L 918.707 445.9 Q 919.884 446.95 919.884 448.981 L 919.884 448.981 L 919.884 448.981 Q 919.884 450.172 919.381 451.095 L 919.381 451.095 L 919.381 451.095 Q 918.878 452.018 917.94 452.565 L 917.94 452.565 L 917.94 452.565 Q 917.403 452.877 916.69 453.009 L 916.69 453.009 L 916.69 453.009 Q 915.978 453.141 914.22 453.141 L 914.22 453.141 L 910.987 453.141 L 910.987 459.206 L 909.024 459.206 L 909.024 459.206 Z  M 928.048 446.588 L 924.327 446.588 L 924.327 451.422 L 927.901 451.422 L 927.901 451.422 Q 929.747 451.422 930.484 450.861 L 930.484 450.861 L 930.484 450.861 Q 931.222 450.299 931.222 448.981 L 931.222 448.981 L 931.222 448.981 Q 931.222 447.711 930.489 447.15 L 930.489 447.15 L 930.489 447.15 Q 929.757 446.588 928.048 446.588 L 928.048 446.588 L 928.048 446.588 Z  M 922.364 459.206 L 922.364 444.821 L 927.423 444.821 L 927.423 444.821 Q 927.804 444.821 928.189 444.835 L 928.189 444.835 L 928.189 444.835 Q 928.575 444.85 928.585 444.85 L 928.585 444.85 L 928.585 444.85 Q 930.87 444.85 932.047 445.9 L 932.047 445.9 L 932.047 445.9 Q 933.224 446.95 933.224 448.981 L 933.224 448.981 L 933.224 448.981 Q 933.224 450.172 932.721 451.095 L 932.721 451.095 L 932.721 451.095 Q 932.218 452.018 931.28 452.565 L 931.28 452.565 L 931.28 452.565 Q 930.743 452.877 930.03 453.009 L 930.03 453.009 L 930.03 453.009 Q 929.317 453.141 927.56 453.141 L 927.56 453.141 L 924.327 453.141 L 924.327 459.206 L 922.364 459.206 L 922.364 459.206 Z  M 935.665 459.206 L 935.665 444.821 L 946.349 444.821 L 946.349 446.608 L 937.608 446.608 L 937.608 450.905 L 945.665 450.905 L 945.665 452.585 L 937.608 452.585 L 937.608 457.409 L 946.524 457.409 L 946.524 459.206 L 935.665 459.206 L 935.665 459.206 Z  M 948.946 459.206 L 948.946 444.821 L 951.739 444.821 L 955.323 455.827 L 955.323 455.827 Q 955.401 456.061 955.489 456.369 L 955.489 456.369 L 955.489 456.369 Q 955.577 456.676 955.665 457.028 L 955.665 457.028 L 955.665 457.028 Q 955.733 456.735 955.816 456.442 L 955.816 456.442 L 955.816 456.442 Q 955.899 456.149 956.007 455.827 L 956.007 455.827 L 959.708 444.821 L 962.501 444.821 L 962.501 459.206 L 960.587 459.206 L 960.587 446.93 L 960.587 446.93 Q 960.46 447.477 960.387 447.746 L 960.387 447.746 L 960.387 447.746 Q 960.313 448.014 960.245 448.21 L 960.245 448.21 L 956.544 459.206 L 954.708 459.206 L 951.065 448.21 L 951.065 448.21 Q 950.968 447.917 950.89 447.599 L 950.89 447.599 L 950.89 447.599 Q 950.811 447.282 950.743 446.93 L 950.743 446.93 L 950.743 459.206 L 948.946 459.206 L 948.946 459.206 Z  M 973.126 453.249 L 970.724 446.764 L 968.282 453.249 L 973.126 453.249 L 973.126 453.249 Z  M 963.985 459.206 L 969.64 444.821 L 971.827 444.821 L 977.462 459.206 L 975.304 459.206 L 973.722 454.909 L 967.667 454.909 L 966.026 459.206 L 963.985 459.206 L 963.985 459.206 Z  M 984.806 446.53 L 981.046 446.53 L 981.046 451.383 L 984.806 451.383 L 984.806 451.383 Q 986.808 451.383 987.657 450.793 L 987.657 450.793 L 987.657 450.793 Q 988.507 450.202 988.507 448.844 L 988.507 448.844 L 988.507 448.844 Q 988.507 447.633 987.73 447.082 L 987.73 447.082 L 987.73 447.082 Q 986.954 446.53 985.206 446.53 L 985.206 446.53 L 984.806 446.53 L 984.806 446.53 Z  M 979.083 459.206 L 979.083 444.821 L 985.147 444.821 L 985.147 444.821 Q 985.421 444.821 985.714 444.835 L 985.714 444.835 L 985.714 444.835 Q 986.007 444.85 986.026 444.85 L 986.026 444.85 L 986.026 444.85 Q 988.136 444.85 989.342 445.876 L 989.342 445.876 L 989.342 445.876 Q 990.548 446.901 990.548 448.688 L 990.548 448.688 L 990.548 448.688 Q 990.548 449.948 990.035 450.768 L 990.035 450.768 L 990.035 450.768 Q 989.522 451.588 988.419 452.086 L 988.419 452.086 L 988.419 452.086 Q 989.308 452.331 989.684 452.863 L 989.684 452.863 L 989.684 452.863 Q 990.06 453.395 990.167 454.762 L 990.167 454.762 L 990.343 457.126 L 990.343 457.126 Q 990.392 457.848 990.558 458.234 L 990.558 458.234 L 990.558 458.234 Q 990.724 458.62 991.065 458.786 L 991.065 458.786 L 991.065 459.206 L 988.761 459.206 L 988.761 459.206 Q 988.468 458.737 988.36 457.282 L 988.36 457.282 L 988.36 457.223 L 988.224 455.348 L 988.224 455.348 Q 988.116 453.893 987.52 453.468 L 987.52 453.468 L 987.52 453.468 Q 986.925 453.043 985.02 453.043 L 985.02 453.043 L 984.62 453.043 L 981.046 453.043 L 981.046 459.206 L 979.083 459.206 L 979.083 459.206 Z  M 993.448 459.206 L 993.448 444.821 L 995.392 444.821 L 995.392 451.862 L 1002.765 444.821 L 1005.411 444.821 L 999.249 450.583 L 1005.587 459.206 L 1003.126 459.206 L 997.784 451.95 L 995.392 454.186 L 995.392 459.206 L 993.448 459.206 L 993.448 459.206 Z  M 1006.788 459.206 L 1006.788 444.821 L 1017.472 444.821 L 1017.472 446.608 L 1008.731 446.608 L 1008.731 450.905 L 1016.788 450.905 L 1016.788 452.585 L 1008.731 452.585 L 1008.731 457.409 L 1017.647 457.409 L 1017.647 459.206 L 1006.788 459.206 L 1006.788 459.206 Z  M 1025.528 446.51 L 1022.042 446.51 L 1022.042 457.448 L 1025.528 457.448 L 1025.528 457.448 Q 1027.774 457.448 1028.893 456.027 L 1028.893 456.027 L 1028.893 456.027 Q 1030.011 454.606 1030.011 451.725 L 1030.011 451.725 L 1030.011 451.725 Q 1030.011 449.235 1028.834 447.873 L 1028.834 447.873 L 1028.834 447.873 Q 1027.657 446.51 1025.528 446.51 L 1025.528 446.51 L 1025.528 446.51 Z  M 1020.089 459.206 L 1020.089 444.821 L 1025.685 444.821 L 1025.685 444.821 Q 1028.751 444.821 1030.377 446.618 L 1030.377 446.618 L 1030.377 446.618 Q 1032.003 448.415 1032.003 451.803 L 1032.003 451.803 L 1032.003 451.803 Q 1032.003 455.299 1030.323 457.252 L 1030.323 457.252 L 1030.323 457.252 Q 1028.644 459.206 1025.626 459.206 L 1025.626 459.206 L 1020.089 459.206 L 1020.089 459.206 Z " fill="rgb(0,0,0)"/><path d=" M 1043.506 475.477 L 1043.506 478.759 L 1047.598 478.759 L 1047.598 478.759 Q 1049.219 478.759 1049.878 478.363 L 1049.878 478.363 L 1049.878 478.363 Q 1050.537 477.968 1050.537 477.059 L 1050.537 477.059 L 1050.537 477.059 Q 1050.537 476.18 1049.922 475.829 L 1049.922 475.829 L 1049.922 475.829 Q 1049.307 475.477 1047.442 475.477 L 1047.442 475.477 L 1043.506 475.477 L 1043.506 475.477 Z  M 1043.506 487.04 L 1039.883 487.04 L 1039.883 472.597 L 1048.76 472.597 L 1048.76 472.597 Q 1051.651 472.597 1053.018 473.544 L 1053.018 473.544 L 1053.018 473.544 Q 1054.385 474.491 1054.385 476.483 L 1054.385 476.483 L 1054.385 476.483 Q 1054.385 477.753 1053.745 478.729 L 1053.745 478.729 L 1053.745 478.729 Q 1053.106 479.706 1051.983 480.136 L 1051.983 480.136 L 1051.983 480.136 Q 1052.94 480.536 1053.325 481.127 L 1053.325 481.127 L 1053.325 481.127 Q 1053.711 481.718 1053.78 483.212 L 1053.78 483.212 L 1053.78 483.212 Q 1053.789 483.358 1053.799 483.612 L 1053.799 483.612 L 1053.799 483.612 Q 1053.916 486.298 1054.561 487.04 L 1054.561 487.04 L 1050.498 487.04 L 1050.498 487.04 Q 1050.352 486.805 1050.279 486.522 L 1050.279 486.522 L 1050.279 486.522 Q 1050.205 486.239 1050.205 485.917 L 1050.205 485.917 L 1050.205 484.94 L 1050.205 484.94 Q 1050.205 482.948 1049.693 482.333 L 1049.693 482.333 L 1049.693 482.333 Q 1049.18 481.718 1047.686 481.718 L 1047.686 481.718 L 1047.598 481.718 L 1043.506 481.718 L 1043.506 487.04 L 1043.506 487.04 Z  M 1064.883 484.442 L 1064.883 484.442 L 1064.883 484.442 Q 1067.051 484.442 1068.296 483.207 L 1068.296 483.207 L 1068.296 483.207 Q 1069.541 481.972 1069.541 479.823 L 1069.541 479.823 L 1069.541 479.823 Q 1069.541 477.655 1068.296 476.42 L 1068.296 476.42 L 1068.296 476.42 Q 1067.051 475.184 1064.883 475.184 L 1064.883 475.184 L 1064.883 475.184 Q 1062.715 475.184 1061.46 476.425 L 1061.46 476.425 L 1061.46 476.425 Q 1060.205 477.665 1060.205 479.823 L 1060.205 479.823 L 1060.205 479.823 Q 1060.205 481.972 1061.455 483.207 L 1061.455 483.207 L 1061.455 483.207 Q 1062.705 484.442 1064.883 484.442 Z  M 1056.221 479.823 L 1056.221 479.823 L 1056.221 479.823 Q 1056.221 476.356 1058.574 474.286 L 1058.574 474.286 L 1058.574 474.286 Q 1060.928 472.216 1064.883 472.216 L 1064.883 472.216 L 1064.883 472.216 Q 1068.838 472.216 1071.182 474.286 L 1071.182 474.286 L 1071.182 474.286 Q 1073.526 476.356 1073.526 479.823 L 1073.526 479.823 L 1073.526 479.823 Q 1073.526 483.29 1071.182 485.355 L 1071.182 485.355 L 1071.182 485.355 Q 1068.838 487.421 1064.883 487.421 L 1064.883 487.421 L 1064.883 487.421 Q 1060.928 487.421 1058.574 485.355 L 1058.574 485.355 L 1058.574 485.355 Q 1056.221 483.29 1056.221 479.823 Z  M 1088.242 481.444 L 1092.207 481.444 L 1092.207 481.444 Q 1091.914 484.159 1089.654 485.79 L 1089.654 485.79 L 1089.654 485.79 Q 1087.393 487.421 1083.887 487.421 L 1083.887 487.421 L 1083.887 487.421 Q 1079.932 487.421 1077.578 485.355 L 1077.578 485.355 L 1077.578 485.355 Q 1075.225 483.29 1075.225 479.823 L 1075.225 479.823 L 1075.225 479.823 Q 1075.225 476.356 1077.578 474.286 L 1077.578 474.286 L 1077.578 474.286 Q 1079.932 472.216 1083.887 472.216 L 1083.887 472.216 L 1083.887 472.216 Q 1087.344 472.216 1089.605 473.773 L 1089.605 473.773 L 1089.605 473.773 Q 1091.865 475.331 1092.149 477.86 L 1092.149 477.86 L 1088.203 477.86 L 1088.203 477.86 Q 1087.842 476.532 1086.753 475.858 L 1086.753 475.858 L 1086.753 475.858 Q 1085.664 475.184 1083.887 475.184 L 1083.887 475.184 L 1083.887 475.184 Q 1081.719 475.184 1080.464 476.425 L 1080.464 476.425 L 1080.464 476.425 Q 1079.209 477.665 1079.209 479.823 L 1079.209 479.823 L 1079.209 479.823 Q 1079.209 481.972 1080.459 483.207 L 1080.459 483.207 L 1080.459 483.207 Q 1081.709 484.442 1083.887 484.442 L 1083.887 484.442 L 1083.887 484.442 Q 1085.772 484.442 1086.919 483.651 L 1086.919 483.651 L 1086.919 483.651 Q 1088.067 482.86 1088.242 481.444 L 1088.242 481.444 L 1088.242 481.444 Z  M 1098.252 487.04 L 1094.629 487.04 L 1094.629 472.597 L 1098.252 472.597 L 1098.252 478.143 L 1104.326 472.597 L 1108.985 472.597 L 1102.627 478.202 L 1109.766 487.04 L 1105.332 487.04 L 1100.088 480.419 L 1098.252 482.04 L 1098.252 487.04 L 1098.252 487.04 Z  M 1114.229 487.04 L 1110.752 487.04 L 1110.752 472.597 L 1115.43 472.597 L 1120.088 482.938 L 1124.873 472.597 L 1129.512 472.597 L 1129.512 487.04 L 1126.035 487.04 L 1126.035 477.401 L 1121.553 487.04 L 1118.535 487.04 L 1114.229 477.235 L 1114.229 487.04 L 1114.229 487.04 Z  M 1132.754 472.597 L 1136.358 472.597 L 1136.358 480.36 L 1136.358 480.36 Q 1136.358 482.489 1137.256 483.456 L 1137.256 483.456 L 1137.256 483.456 Q 1138.155 484.423 1140.137 484.423 L 1140.137 484.423 L 1140.137 484.423 Q 1141.192 484.423 1141.973 484.125 L 1141.973 484.125 L 1141.973 484.125 Q 1142.754 483.827 1143.233 483.241 L 1143.233 483.241 L 1143.233 483.241 Q 1143.614 482.782 1143.775 482.191 L 1143.775 482.191 L 1143.775 482.191 Q 1143.936 481.6 1143.936 480.36 L 1143.936 480.36 L 1143.936 472.597 L 1147.53 472.597 L 1147.53 480.741 L 1147.53 480.741 Q 1147.53 484.022 1145.655 485.722 L 1145.655 485.722 L 1145.655 485.722 Q 1143.78 487.421 1140.137 487.421 L 1140.137 487.421 L 1140.137 487.421 Q 1136.504 487.421 1134.629 485.722 L 1134.629 485.722 L 1134.629 485.722 Q 1132.754 484.022 1132.754 480.741 L 1132.754 480.741 L 1132.754 472.597 L 1132.754 472.597 Z  M 1150.186 482.343 L 1150.186 482.04 L 1153.887 482.04 L 1153.887 482.177 L 1153.887 482.177 Q 1153.887 483.397 1154.961 484.037 L 1154.961 484.037 L 1154.961 484.037 Q 1156.035 484.677 1158.086 484.677 L 1158.086 484.677 L 1158.086 484.677 Q 1159.668 484.677 1160.528 484.213 L 1160.528 484.213 L 1160.528 484.213 Q 1161.387 483.749 1161.387 482.899 L 1161.387 482.899 L 1161.387 482.899 Q 1161.387 482.186 1160.825 481.849 L 1160.825 481.849 L 1160.825 481.849 Q 1160.264 481.513 1158.555 481.337 L 1158.555 481.337 L 1155.987 481.083 L 1155.987 481.083 Q 1153.174 480.79 1151.851 479.804 L 1151.851 479.804 L 1151.851 479.804 Q 1150.528 478.817 1150.528 477.02 L 1150.528 477.02 L 1150.528 477.02 Q 1150.528 474.891 1152.437 473.554 L 1152.437 473.554 L 1152.437 473.554 Q 1154.346 472.216 1157.49 472.216 L 1157.49 472.216 L 1157.49 472.216 Q 1160.869 472.216 1162.779 473.475 L 1162.779 473.475 L 1162.779 473.475 Q 1164.688 474.735 1164.688 476.923 L 1164.688 476.923 L 1164.688 477.04 L 1161.094 477.04 L 1161.094 477.04 Q 1160.967 475.956 1160.083 475.419 L 1160.083 475.419 L 1160.083 475.419 Q 1159.199 474.882 1157.549 474.882 L 1157.549 474.882 L 1157.549 474.882 Q 1156.026 474.882 1155.186 475.316 L 1155.186 475.316 L 1155.186 475.316 Q 1154.346 475.751 1154.346 476.542 L 1154.346 476.542 L 1154.346 476.542 Q 1154.346 477.177 1154.839 477.47 L 1154.839 477.47 L 1154.839 477.47 Q 1155.332 477.763 1157.266 477.977 L 1157.266 477.977 L 1159.951 478.261 L 1159.951 478.261 Q 1162.725 478.563 1164.029 479.594 L 1164.029 479.594 L 1164.029 479.594 Q 1165.332 480.624 1165.332 482.499 L 1165.332 482.499 L 1165.332 482.499 Q 1165.332 484.911 1163.374 486.166 L 1163.374 486.166 L 1163.374 486.166 Q 1161.416 487.421 1157.647 487.421 L 1157.647 487.421 L 1157.647 487.421 Q 1154.053 487.421 1152.119 486.102 L 1152.119 486.102 L 1152.119 486.102 Q 1150.186 484.784 1150.186 482.343 L 1150.186 482.343 L 1150.186 482.343 Z  M 1180.791 487.04 L 1167.969 487.04 L 1167.969 472.597 L 1180.791 472.597 L 1180.791 475.516 L 1171.592 475.516 L 1171.592 477.958 L 1179.785 477.958 L 1179.785 480.897 L 1171.592 480.897 L 1171.592 484.003 L 1180.791 484.003 L 1180.791 487.04 L 1180.791 487.04 Z  M 1183.145 472.597 L 1186.748 472.597 L 1186.748 480.36 L 1186.748 480.36 Q 1186.748 482.489 1187.647 483.456 L 1187.647 483.456 L 1187.647 483.456 Q 1188.545 484.423 1190.528 484.423 L 1190.528 484.423 L 1190.528 484.423 Q 1191.582 484.423 1192.364 484.125 L 1192.364 484.125 L 1192.364 484.125 Q 1193.145 483.827 1193.623 483.241 L 1193.623 483.241 L 1193.623 483.241 Q 1194.004 482.782 1194.165 482.191 L 1194.165 482.191 L 1194.165 482.191 Q 1194.326 481.6 1194.326 480.36 L 1194.326 480.36 L 1194.326 472.597 L 1197.92 472.597 L 1197.92 480.741 L 1197.92 480.741 Q 1197.92 484.022 1196.045 485.722 L 1196.045 485.722 L 1196.045 485.722 Q 1194.17 487.421 1190.528 487.421 L 1190.528 487.421 L 1190.528 487.421 Q 1186.895 487.421 1185.02 485.722 L 1185.02 485.722 L 1185.02 485.722 Q 1183.145 484.022 1183.145 480.741 L 1183.145 480.741 L 1183.145 472.597 L 1183.145 472.597 Z  M 1204.658 487.04 L 1201.182 487.04 L 1201.182 472.597 L 1205.86 472.597 L 1210.518 482.938 L 1215.303 472.597 L 1219.942 472.597 L 1219.942 487.04 L 1216.465 487.04 L 1216.465 477.401 L 1211.983 487.04 L 1208.965 487.04 L 1204.658 477.235 L 1204.658 487.04 L 1204.658 487.04 Z  M 980.205 487.04 L 969.151 487.04 L 969.151 472.597 L 972.774 472.597 L 972.774 484.003 L 980.205 484.003 L 980.205 487.04 L 980.205 487.04 Z  M 989.522 476.6 L 987.647 481.063 L 991.465 481.063 L 989.522 476.6 L 989.522 476.6 Z  M 985.108 487.04 L 981.201 487.04 L 988.047 472.597 L 991.524 472.597 L 998.106 487.04 L 994.082 487.04 L 992.764 483.983 L 986.406 483.983 L 985.108 487.04 L 985.108 487.04 Z  M 1002.481 487.04 L 999.024 487.04 L 999.024 472.597 L 1003.467 472.597 L 1010.684 482.782 L 1010.684 472.597 L 1014.16 472.597 L 1014.16 487.04 L 1009.766 487.04 L 1002.481 476.757 L 1002.481 487.04 L 1002.481 487.04 Z  M 1030.225 487.04 L 1017.403 487.04 L 1017.403 472.597 L 1030.225 472.597 L 1030.225 475.516 L 1021.026 475.516 L 1021.026 477.958 L 1029.219 477.958 L 1029.219 480.897 L 1021.026 480.897 L 1021.026 484.003 L 1030.225 484.003 L 1030.225 487.04 L 1030.225 487.04 Z  M 856.153 487.04 L 852.676 487.04 L 852.676 472.597 L 857.354 472.597 L 862.012 482.938 L 866.797 472.597 L 871.436 472.597 L 871.436 487.04 L 867.959 487.04 L 867.959 477.401 L 863.477 487.04 L 860.459 487.04 L 856.153 477.235 L 856.153 487.04 L 856.153 487.04 Z  M 887.5 487.04 L 874.678 487.04 L 874.678 472.597 L 887.5 472.597 L 887.5 475.516 L 878.301 475.516 L 878.301 477.958 L 886.494 477.958 L 886.494 480.897 L 878.301 480.897 L 878.301 484.003 L 887.5 484.003 L 887.5 487.04 L 887.5 487.04 Z  M 893.33 487.04 L 889.854 487.04 L 889.854 472.597 L 894.531 472.597 L 899.19 482.938 L 903.975 472.597 L 908.614 472.597 L 908.614 487.04 L 905.137 487.04 L 905.137 477.401 L 900.655 487.04 L 897.637 487.04 L 893.33 477.235 L 893.33 487.04 L 893.33 487.04 Z  M 919.737 484.442 L 919.737 484.442 L 919.737 484.442 Q 921.905 484.442 923.15 483.207 L 923.15 483.207 L 923.15 483.207 Q 924.395 481.972 924.395 479.823 L 924.395 479.823 L 924.395 479.823 Q 924.395 477.655 923.15 476.42 L 923.15 476.42 L 923.15 476.42 Q 921.905 475.184 919.737 475.184 L 919.737 475.184 L 919.737 475.184 Q 917.569 475.184 916.314 476.425 L 916.314 476.425 L 916.314 476.425 Q 915.059 477.665 915.059 479.823 L 915.059 479.823 L 915.059 479.823 Q 915.059 481.972 916.309 483.207 L 916.309 483.207 L 916.309 483.207 Q 917.559 484.442 919.737 484.442 Z  M 911.074 479.823 L 911.074 479.823 L 911.074 479.823 Q 911.074 476.356 913.428 474.286 L 913.428 474.286 L 913.428 474.286 Q 915.781 472.216 919.737 472.216 L 919.737 472.216 L 919.737 472.216 Q 923.692 472.216 926.035 474.286 L 926.035 474.286 L 926.035 474.286 Q 928.379 476.356 928.379 479.823 L 928.379 479.823 L 928.379 479.823 Q 928.379 483.29 926.035 485.355 L 926.035 485.355 L 926.035 485.355 Q 923.692 487.421 919.737 487.421 L 919.737 487.421 L 919.737 487.421 Q 915.781 487.421 913.428 485.355 L 913.428 485.355 L 913.428 485.355 Q 911.074 483.29 911.074 479.823 Z  M 934.483 475.477 L 934.483 478.759 L 938.574 478.759 L 938.574 478.759 Q 940.196 478.759 940.855 478.363 L 940.855 478.363 L 940.855 478.363 Q 941.514 477.968 941.514 477.059 L 941.514 477.059 L 941.514 477.059 Q 941.514 476.18 940.899 475.829 L 940.899 475.829 L 940.899 475.829 Q 940.283 475.477 938.418 475.477 L 938.418 475.477 L 934.483 475.477 L 934.483 475.477 Z  M 934.483 487.04 L 930.86 487.04 L 930.86 472.597 L 939.737 472.597 L 939.737 472.597 Q 942.627 472.597 943.994 473.544 L 943.994 473.544 L 943.994 473.544 Q 945.362 474.491 945.362 476.483 L 945.362 476.483 L 945.362 476.483 Q 945.362 477.753 944.722 478.729 L 944.722 478.729 L 944.722 478.729 Q 944.082 479.706 942.959 480.136 L 942.959 480.136 L 942.959 480.136 Q 943.916 480.536 944.302 481.127 L 944.302 481.127 L 944.302 481.127 Q 944.688 481.718 944.756 483.212 L 944.756 483.212 L 944.756 483.212 Q 944.766 483.358 944.776 483.612 L 944.776 483.612 L 944.776 483.612 Q 944.893 486.298 945.537 487.04 L 945.537 487.04 L 941.475 487.04 L 941.475 487.04 Q 941.328 486.805 941.255 486.522 L 941.255 486.522 L 941.255 486.522 Q 941.182 486.239 941.182 485.917 L 941.182 485.917 L 941.182 484.94 L 941.182 484.94 Q 941.182 482.948 940.669 482.333 L 940.669 482.333 L 940.669 482.333 Q 940.156 481.718 938.662 481.718 L 938.662 481.718 L 938.574 481.718 L 934.483 481.718 L 934.483 487.04 L 934.483 487.04 Z  M 954.864 487.04 L 951.25 487.04 L 951.25 480.878 L 944.942 472.597 L 949.541 472.597 L 953.145 477.763 L 956.709 472.597 L 961.289 472.597 L 954.864 480.878 L 954.864 487.04 L 954.864 487.04 Z " fill="rgb(0,0,0)"/></g><path d=" M 1067.567 427.594 L 1067.567 417.525 L 1069.522 417.525 L 1072.031 425.229 L 1072.031 425.229 Q 1072.085 425.393 1072.147 425.608 L 1072.147 425.608 L 1072.147 425.608 Q 1072.208 425.823 1072.27 426.07 L 1072.27 426.07 L 1072.27 426.07 Q 1072.318 425.865 1072.376 425.659 L 1072.376 425.659 L 1072.376 425.659 Q 1072.434 425.454 1072.509 425.229 L 1072.509 425.229 L 1075.1 417.525 L 1077.055 417.525 L 1077.055 427.594 L 1075.715 427.594 L 1075.715 419.001 L 1075.715 419.001 Q 1075.626 419.384 1075.575 419.572 L 1075.575 419.572 L 1075.575 419.572 Q 1075.524 419.76 1075.476 419.897 L 1075.476 419.897 L 1072.885 427.594 L 1071.6 427.594 L 1069.05 419.897 L 1069.05 419.897 Q 1068.982 419.692 1068.927 419.469 L 1068.927 419.469 L 1068.927 419.469 Q 1068.872 419.247 1068.824 419.001 L 1068.824 419.001 L 1068.824 427.594 L 1067.567 427.594 L 1067.567 427.594 Z  M 1079.27 427.594 L 1079.27 417.525 L 1086.748 417.525 L 1086.748 418.776 L 1080.63 418.776 L 1080.63 421.783 L 1086.27 421.783 L 1086.27 422.959 L 1080.63 422.959 L 1080.63 426.336 L 1086.871 426.336 L 1086.871 427.594 L 1079.27 427.594 L 1079.27 427.594 Z  M 1088.567 427.594 L 1088.567 417.525 L 1090.522 417.525 L 1093.031 425.229 L 1093.031 425.229 Q 1093.085 425.393 1093.147 425.608 L 1093.147 425.608 L 1093.147 425.608 Q 1093.208 425.823 1093.27 426.07 L 1093.27 426.07 L 1093.27 426.07 Q 1093.318 425.865 1093.376 425.659 L 1093.376 425.659 L 1093.376 425.659 Q 1093.434 425.454 1093.509 425.229 L 1093.509 425.229 L 1096.1 417.525 L 1098.055 417.525 L 1098.055 427.594 L 1096.715 427.594 L 1096.715 419.001 L 1096.715 419.001 Q 1096.626 419.384 1096.575 419.572 L 1096.575 419.572 L 1096.575 419.572 Q 1096.524 419.76 1096.476 419.897 L 1096.476 419.897 L 1093.885 427.594 L 1092.6 427.594 L 1090.05 419.897 L 1090.05 419.897 Q 1089.982 419.692 1089.927 419.469 L 1089.927 419.469 L 1089.927 419.469 Q 1089.872 419.247 1089.824 419.001 L 1089.824 419.001 L 1089.824 427.594 L 1088.567 427.594 L 1088.567 427.594 Z  M 1104.583 417.265 L 1104.583 417.265 L 1104.583 417.265 Q 1106.812 417.265 1108.076 418.673 L 1108.076 418.673 L 1108.076 418.673 Q 1109.341 420.081 1109.341 422.57 L 1109.341 422.57 L 1109.341 422.57 Q 1109.341 425.058 1108.076 426.466 L 1108.076 426.466 L 1108.076 426.466 Q 1106.812 427.874 1104.583 427.874 L 1104.583 427.874 L 1104.583 427.874 Q 1102.348 427.874 1101.083 426.466 L 1101.083 426.466 L 1101.083 426.466 Q 1099.819 425.058 1099.819 422.57 L 1099.819 422.57 L 1099.819 422.57 Q 1099.819 420.081 1101.083 418.673 L 1101.083 418.673 L 1101.083 418.673 Q 1102.348 417.265 1104.583 417.265 Z  M 1104.583 418.454 L 1104.583 418.454 L 1104.583 418.454 Q 1103.011 418.454 1102.122 419.545 L 1102.122 419.545 L 1102.122 419.545 Q 1101.234 420.635 1101.234 422.57 L 1101.234 422.57 L 1101.234 422.57 Q 1101.234 424.504 1102.126 425.601 L 1102.126 425.601 L 1102.126 425.601 Q 1103.018 426.698 1104.583 426.698 L 1104.583 426.698 L 1104.583 426.698 Q 1106.149 426.698 1107.037 425.601 L 1107.037 425.601 L 1107.037 425.601 Q 1107.926 424.504 1107.926 422.57 L 1107.926 422.57 L 1107.926 422.57 Q 1107.926 420.635 1107.037 419.545 L 1107.037 419.545 L 1107.037 419.545 Q 1106.149 418.454 1104.583 418.454 Z  M 1115.22 418.721 L 1112.588 418.721 L 1112.588 422.118 L 1115.22 422.118 L 1115.22 422.118 Q 1116.621 422.118 1117.216 421.705 L 1117.216 421.705 L 1117.216 421.705 Q 1117.811 421.291 1117.811 420.341 L 1117.811 420.341 L 1117.811 420.341 Q 1117.811 419.493 1117.267 419.107 L 1117.267 419.107 L 1117.267 419.107 Q 1116.724 418.721 1115.5 418.721 L 1115.5 418.721 L 1115.22 418.721 L 1115.22 418.721 Z  M 1111.214 427.594 L 1111.214 417.525 L 1115.459 417.525 L 1115.459 417.525 Q 1115.651 417.525 1115.856 417.535 L 1115.856 417.535 L 1115.856 417.535 Q 1116.061 417.545 1116.074 417.545 L 1116.074 417.545 L 1116.074 417.545 Q 1117.551 417.545 1118.395 418.263 L 1118.395 418.263 L 1118.395 418.263 Q 1119.239 418.981 1119.239 420.232 L 1119.239 420.232 L 1119.239 420.232 Q 1119.239 421.114 1118.881 421.688 L 1118.881 421.688 L 1118.881 421.688 Q 1118.522 422.262 1117.749 422.611 L 1117.749 422.611 L 1117.749 422.611 Q 1118.371 422.781 1118.635 423.154 L 1118.635 423.154 L 1118.635 423.154 Q 1118.898 423.527 1118.973 424.484 L 1118.973 424.484 L 1119.096 426.138 L 1119.096 426.138 Q 1119.13 426.644 1119.246 426.914 L 1119.246 426.914 L 1119.246 426.914 Q 1119.363 427.184 1119.602 427.3 L 1119.602 427.3 L 1119.602 427.594 L 1117.989 427.594 L 1117.989 427.594 Q 1117.783 427.266 1117.708 426.247 L 1117.708 426.247 L 1117.708 426.206 L 1117.613 424.894 L 1117.613 424.894 Q 1117.537 423.875 1117.12 423.578 L 1117.12 423.578 L 1117.12 423.578 Q 1116.703 423.281 1115.37 423.281 L 1115.37 423.281 L 1115.09 423.281 L 1112.588 423.281 L 1112.588 427.594 L 1111.214 427.594 L 1111.214 427.594 Z  M 1121.393 427.594 L 1121.393 417.525 L 1122.767 417.525 L 1122.767 427.594 L 1121.393 427.594 L 1121.393 427.594 Z  M 1125.159 427.594 L 1125.159 417.525 L 1132.638 417.525 L 1132.638 418.776 L 1126.52 418.776 L 1126.52 421.783 L 1132.159 421.783 L 1132.159 422.959 L 1126.52 422.959 L 1126.52 426.336 L 1132.761 426.336 L 1132.761 427.594 L 1125.159 427.594 L 1125.159 427.594 Z  M 1141.75 420.485 L 1141.75 420.485 L 1140.445 420.485 L 1140.445 420.485 Q 1140.397 419.493 1139.744 418.943 L 1139.744 418.943 L 1139.744 418.943 Q 1139.091 418.393 1137.97 418.393 L 1137.97 418.393 L 1137.97 418.393 Q 1136.883 418.393 1136.264 418.841 L 1136.264 418.841 L 1136.264 418.841 Q 1135.646 419.288 1135.646 420.061 L 1135.646 420.061 L 1135.646 420.061 Q 1135.646 421.175 1138.305 421.77 L 1138.305 421.77 L 1138.305 421.77 Q 1138.64 421.838 1138.824 421.879 L 1138.824 421.879 L 1138.824 421.879 Q 1140.773 422.33 1141.415 422.946 L 1141.415 422.946 L 1141.415 422.946 Q 1142.058 423.561 1142.058 424.682 L 1142.058 424.682 L 1142.058 424.682 Q 1142.058 426.138 1140.988 426.999 L 1140.988 426.999 L 1140.988 426.999 Q 1139.918 427.861 1138.079 427.861 L 1138.079 427.861 L 1138.079 427.861 Q 1136.199 427.861 1135.147 426.931 L 1135.147 426.931 L 1135.147 426.931 Q 1134.094 426.001 1134.005 424.265 L 1134.005 424.265 L 1135.324 424.265 L 1135.324 424.265 Q 1135.345 425.379 1136.097 426.025 L 1136.097 426.025 L 1136.097 426.025 Q 1136.849 426.671 1138.134 426.671 L 1138.134 426.671 L 1138.134 426.671 Q 1139.31 426.671 1140.004 426.169 L 1140.004 426.169 L 1140.004 426.169 Q 1140.698 425.666 1140.698 424.819 L 1140.698 424.819 L 1140.698 424.819 Q 1140.698 423.691 1138.148 423.116 L 1138.148 423.116 L 1138.148 423.116 Q 1137.71 423.014 1137.478 422.959 L 1137.478 422.959 L 1137.478 422.959 Q 1135.666 422.529 1135.003 421.924 L 1135.003 421.924 L 1135.003 421.924 Q 1134.34 421.319 1134.34 420.245 L 1134.34 420.245 L 1134.34 420.245 Q 1134.34 418.899 1135.352 418.082 L 1135.352 418.082 L 1135.352 418.082 Q 1136.364 417.265 1138.052 417.265 L 1138.052 417.265 L 1138.052 417.265 Q 1139.761 417.265 1140.749 418.123 L 1140.749 418.123 L 1140.749 418.123 Q 1141.737 418.981 1141.75 420.485 Z  M 1001.443 427.594 L 1001.443 417.525 L 1003.398 417.525 L 1005.906 425.229 L 1005.906 425.229 Q 1005.961 425.393 1006.023 425.608 L 1006.023 425.608 L 1006.023 425.608 Q 1006.084 425.823 1006.146 426.07 L 1006.146 426.07 L 1006.146 426.07 Q 1006.194 425.865 1006.252 425.659 L 1006.252 425.659 L 1006.252 425.659 Q 1006.31 425.454 1006.385 425.229 L 1006.385 425.229 L 1008.976 417.525 L 1010.931 417.525 L 1010.931 427.594 L 1009.591 427.594 L 1009.591 419.001 L 1009.591 419.001 Q 1009.502 419.384 1009.451 419.572 L 1009.451 419.572 L 1009.451 419.572 Q 1009.4 419.76 1009.352 419.897 L 1009.352 419.897 L 1006.761 427.594 L 1005.476 427.594 L 1002.926 419.897 L 1002.926 419.897 Q 1002.858 419.692 1002.803 419.469 L 1002.803 419.469 L 1002.803 419.469 Q 1002.748 419.247 1002.7 419.001 L 1002.7 419.001 L 1002.7 427.594 L 1001.443 427.594 L 1001.443 427.594 Z  M 1013.064 423.773 L 1013.064 417.525 L 1014.431 417.525 L 1014.431 423.786 L 1014.431 423.786 Q 1014.431 425.208 1015.073 425.882 L 1015.073 425.882 L 1015.073 425.882 Q 1015.716 426.555 1017.063 426.555 L 1017.063 426.555 L 1017.063 426.555 Q 1018.396 426.555 1019.045 425.871 L 1019.045 425.871 L 1019.045 425.871 Q 1019.695 425.188 1019.695 423.786 L 1019.695 423.786 L 1019.695 417.525 L 1021.069 417.525 L 1021.069 423.773 L 1021.069 423.773 Q 1021.069 425.789 1020.012 426.832 L 1020.012 426.832 L 1020.012 426.832 Q 1018.956 427.874 1016.912 427.874 L 1016.912 427.874 L 1016.912 427.874 Q 1014.985 427.874 1014.024 426.849 L 1014.024 426.849 L 1014.024 426.849 Q 1013.064 425.823 1013.064 423.773 L 1013.064 423.773 L 1013.064 423.773 Z  M 1030.509 420.485 L 1030.509 420.485 L 1029.203 420.485 L 1029.203 420.485 Q 1029.156 419.493 1028.503 418.943 L 1028.503 418.943 L 1028.503 418.943 Q 1027.85 418.393 1026.729 418.393 L 1026.729 418.393 L 1026.729 418.393 Q 1025.642 418.393 1025.023 418.841 L 1025.023 418.841 L 1025.023 418.841 Q 1024.405 419.288 1024.405 420.061 L 1024.405 420.061 L 1024.405 420.061 Q 1024.405 421.175 1027.064 421.77 L 1027.064 421.77 L 1027.064 421.77 Q 1027.399 421.838 1027.583 421.879 L 1027.583 421.879 L 1027.583 421.879 Q 1029.531 422.33 1030.174 422.946 L 1030.174 422.946 L 1030.174 422.946 Q 1030.817 423.561 1030.817 424.682 L 1030.817 424.682 L 1030.817 424.682 Q 1030.817 426.138 1029.747 426.999 L 1029.747 426.999 L 1029.747 426.999 Q 1028.677 427.861 1026.838 427.861 L 1026.838 427.861 L 1026.838 427.861 Q 1024.958 427.861 1023.906 426.931 L 1023.906 426.931 L 1023.906 426.931 Q 1022.853 426.001 1022.764 424.265 L 1022.764 424.265 L 1024.083 424.265 L 1024.083 424.265 Q 1024.104 425.379 1024.856 426.025 L 1024.856 426.025 L 1024.856 426.025 Q 1025.608 426.671 1026.893 426.671 L 1026.893 426.671 L 1026.893 426.671 Q 1028.069 426.671 1028.762 426.169 L 1028.762 426.169 L 1028.762 426.169 Q 1029.456 425.666 1029.456 424.819 L 1029.456 424.819 L 1029.456 424.819 Q 1029.456 423.691 1026.906 423.116 L 1026.906 423.116 L 1026.906 423.116 Q 1026.469 423.014 1026.237 422.959 L 1026.237 422.959 L 1026.237 422.959 Q 1024.425 422.529 1023.762 421.924 L 1023.762 421.924 L 1023.762 421.924 Q 1023.099 421.319 1023.099 420.245 L 1023.099 420.245 L 1023.099 420.245 Q 1023.099 418.899 1024.111 418.082 L 1024.111 418.082 L 1024.111 418.082 Q 1025.122 417.265 1026.811 417.265 L 1026.811 417.265 L 1026.811 417.265 Q 1028.52 417.265 1029.508 418.123 L 1029.508 418.123 L 1029.508 418.123 Q 1030.495 418.981 1030.509 420.485 Z  M 1032.717 427.594 L 1032.717 417.525 L 1034.091 417.525 L 1034.091 427.594 L 1032.717 427.594 L 1032.717 427.594 Z  M 1044.844 420.567 L 1044.844 420.567 L 1043.497 420.567 L 1043.497 420.567 Q 1043.306 419.569 1042.578 419.025 L 1042.578 419.025 L 1042.578 419.025 Q 1041.85 418.482 1040.695 418.482 L 1040.695 418.482 L 1040.695 418.482 Q 1039.129 418.482 1038.268 419.555 L 1038.268 419.555 L 1038.268 419.555 Q 1037.406 420.628 1037.406 422.583 L 1037.406 422.583 L 1037.406 422.583 Q 1037.406 424.415 1038.299 425.536 L 1038.299 425.536 L 1038.299 425.536 Q 1039.191 426.657 1040.654 426.657 L 1040.654 426.657 L 1040.654 426.657 Q 1041.925 426.657 1042.735 425.888 L 1042.735 425.888 L 1042.735 425.888 Q 1043.545 425.119 1043.593 423.855 L 1043.593 423.855 L 1044.926 423.855 L 1044.926 423.855 Q 1044.851 425.666 1043.665 426.77 L 1043.665 426.77 L 1043.665 426.77 Q 1042.479 427.874 1040.613 427.874 L 1040.613 427.874 L 1040.613 427.874 Q 1038.487 427.874 1037.246 426.435 L 1037.246 426.435 L 1037.246 426.435 Q 1036.005 424.996 1036.005 422.529 L 1036.005 422.529 L 1036.005 422.529 Q 1036.005 420.088 1037.277 418.677 L 1037.277 418.677 L 1037.277 418.677 Q 1038.548 417.265 1040.756 417.265 L 1040.756 417.265 L 1040.756 417.265 Q 1042.465 417.265 1043.573 418.16 L 1043.573 418.16 L 1043.573 418.16 Q 1044.68 419.056 1044.844 420.567 Z  M 1051.817 423.424 L 1050.135 418.885 L 1048.426 423.424 L 1051.817 423.424 L 1051.817 423.424 Z  M 1045.418 427.594 L 1049.376 417.525 L 1050.907 417.525 L 1054.852 427.594 L 1053.341 427.594 L 1052.234 424.586 L 1047.995 424.586 L 1046.847 427.594 L 1045.418 427.594 L 1045.418 427.594 Z  M 1055.932 427.594 L 1055.932 417.525 L 1057.32 417.525 L 1057.32 426.323 L 1062.556 426.323 L 1062.556 427.594 L 1055.932 427.594 L 1055.932 427.594 Z  M 931.19 427.594 L 931.19 417.525 L 932.577 417.525 L 932.577 426.323 L 937.814 426.323 L 937.814 427.594 L 931.19 427.594 L 931.19 427.594 Z  M 942.79 417.265 L 942.79 417.265 L 942.79 417.265 Q 945.019 417.265 946.283 418.673 L 946.283 418.673 L 946.283 418.673 Q 947.548 420.081 947.548 422.57 L 947.548 422.57 L 947.548 422.57 Q 947.548 425.058 946.283 426.466 L 946.283 426.466 L 946.283 426.466 Q 945.019 427.874 942.79 427.874 L 942.79 427.874 L 942.79 427.874 Q 940.555 427.874 939.29 426.466 L 939.29 426.466 L 939.29 426.466 Q 938.026 425.058 938.026 422.57 L 938.026 422.57 L 938.026 422.57 Q 938.026 420.081 939.29 418.673 L 939.29 418.673 L 939.29 418.673 Q 940.555 417.265 942.79 417.265 Z  M 942.79 418.454 L 942.79 418.454 L 942.79 418.454 Q 941.218 418.454 940.329 419.545 L 940.329 419.545 L 940.329 419.545 Q 939.441 420.635 939.441 422.57 L 939.441 422.57 L 939.441 422.57 Q 939.441 424.504 940.333 425.601 L 940.333 425.601 L 940.333 425.601 Q 941.225 426.698 942.79 426.698 L 942.79 426.698 L 942.79 426.698 Q 944.356 426.698 945.244 425.601 L 945.244 425.601 L 945.244 425.601 Q 946.133 424.504 946.133 422.57 L 946.133 422.57 L 946.133 422.57 Q 946.133 420.635 945.244 419.545 L 945.244 419.545 L 945.244 419.545 Q 944.356 418.454 942.79 418.454 Z  M 953.427 418.721 L 950.795 418.721 L 950.795 422.118 L 953.427 422.118 L 953.427 422.118 Q 954.828 422.118 955.423 421.705 L 955.423 421.705 L 955.423 421.705 Q 956.018 421.291 956.018 420.341 L 956.018 420.341 L 956.018 420.341 Q 956.018 419.493 955.474 419.107 L 955.474 419.107 L 955.474 419.107 Q 954.931 418.721 953.707 418.721 L 953.707 418.721 L 953.427 418.721 L 953.427 418.721 Z  M 949.421 427.594 L 949.421 417.525 L 953.666 417.525 L 953.666 417.525 Q 953.858 417.525 954.063 417.535 L 954.063 417.535 L 954.063 417.535 Q 954.268 417.545 954.281 417.545 L 954.281 417.545 L 954.281 417.545 Q 955.758 417.545 956.602 418.263 L 956.602 418.263 L 956.602 418.263 Q 957.447 418.981 957.447 420.232 L 957.447 420.232 L 957.447 420.232 Q 957.447 421.114 957.088 421.688 L 957.088 421.688 L 957.088 421.688 Q 956.729 422.262 955.956 422.611 L 955.956 422.611 L 955.956 422.611 Q 956.578 422.781 956.842 423.154 L 956.842 423.154 L 956.842 423.154 Q 957.105 423.527 957.18 424.484 L 957.18 424.484 L 957.303 426.138 L 957.303 426.138 Q 957.337 426.644 957.453 426.914 L 957.453 426.914 L 957.453 426.914 Q 957.57 427.184 957.809 427.3 L 957.809 427.3 L 957.809 427.594 L 956.196 427.594 L 956.196 427.594 Q 955.99 427.266 955.915 426.247 L 955.915 426.247 L 955.915 426.206 L 955.82 424.894 L 955.82 424.894 Q 955.744 423.875 955.327 423.578 L 955.327 423.578 L 955.327 423.578 Q 954.91 423.281 953.577 423.281 L 953.577 423.281 L 953.297 423.281 L 950.795 423.281 L 950.795 427.594 L 949.421 427.594 L 949.421 427.594 Z  M 963.257 418.707 L 960.817 418.707 L 960.817 426.364 L 963.257 426.364 L 963.257 426.364 Q 964.829 426.364 965.612 425.369 L 965.612 425.369 L 965.612 425.369 Q 966.395 424.374 966.395 422.358 L 966.395 422.358 L 966.395 422.358 Q 966.395 420.615 965.571 419.661 L 965.571 419.661 L 965.571 419.661 Q 964.747 418.707 963.257 418.707 L 963.257 418.707 L 963.257 418.707 Z  M 959.449 427.594 L 959.449 417.525 L 963.366 417.525 L 963.366 417.525 Q 965.513 417.525 966.651 418.782 L 966.651 418.782 L 966.651 418.782 Q 967.789 420.04 967.789 422.412 L 967.789 422.412 L 967.789 422.412 Q 967.789 424.86 966.614 426.227 L 966.614 426.227 L 966.614 426.227 Q 965.438 427.594 963.325 427.594 L 963.325 427.594 L 959.449 427.594 L 959.449 427.594 Z  M 974.81 423.424 L 973.128 418.885 L 971.419 423.424 L 974.81 423.424 L 974.81 423.424 Z  M 968.411 427.594 L 972.369 417.525 L 973.901 417.525 L 977.845 427.594 L 976.334 427.594 L 975.227 424.586 L 970.989 424.586 L 969.84 427.594 L 968.411 427.594 L 968.411 427.594 Z  M 987.593 420.567 L 987.593 420.567 L 986.26 420.567 L 986.26 420.567 Q 986.069 419.562 985.32 419.001 L 985.32 419.001 L 985.32 419.001 Q 984.572 418.441 983.416 418.441 L 983.416 418.441 L 983.416 418.441 Q 981.728 418.441 980.795 419.51 L 980.795 419.51 L 980.795 419.51 Q 979.862 420.58 979.862 422.529 L 979.862 422.529 L 979.862 422.529 Q 979.862 424.449 980.788 425.54 L 980.788 425.54 L 980.788 425.54 Q 981.714 426.63 983.321 426.63 L 983.321 426.63 L 983.321 426.63 Q 984.763 426.63 985.631 425.762 L 985.631 425.762 L 985.631 425.762 Q 986.499 424.894 986.499 423.451 L 986.499 423.451 L 986.499 423.294 L 983.307 423.294 L 983.307 422.173 L 987.757 422.173 L 987.757 427.594 L 986.875 427.594 L 986.568 426.234 L 986.568 426.234 Q 985.973 427.047 985.101 427.461 L 985.101 427.461 L 985.101 427.461 Q 984.23 427.874 983.122 427.874 L 983.122 427.874 L 983.122 427.874 Q 981.058 427.874 979.759 426.411 L 979.759 426.411 L 979.759 426.411 Q 978.46 424.948 978.46 422.583 L 978.46 422.583 L 978.46 422.583 Q 978.46 420.136 979.797 418.7 L 979.797 418.7 L 979.797 418.7 Q 981.133 417.265 983.416 417.265 L 983.416 417.265 L 983.416 417.265 Q 985.153 417.265 986.267 418.147 L 986.267 418.147 L 986.267 418.147 Q 987.381 419.029 987.593 420.567 Z  M 989.91 421.783 L 989.91 420.273 L 991.325 420.273 L 991.325 421.783 L 989.91 421.783 L 989.91 421.783 Z  M 989.91 427.594 L 989.91 426.07 L 991.325 426.07 L 991.325 427.594 L 989.91 427.594 L 989.91 427.594 Z " fill="rgb(0,0,0)"/></svg>