<?xml version="1.0" encoding="UTF-8" standalone="no"?><!-- Generator: Gravit.io --><svg xmlns="http://www.w3.org/2000/svg" xmlns:xlink="http://www.w3.org/1999/xlink" style="isolation:isolate" viewBox="0 0 461.575 461.575" width="461.575pt" height="461.575pt"><defs><clipPath id="_clipPath_IrBC5gfaH07K1aLJKwnudO5CwZ0tK0YP"><rect width="461.575" height="461.575"/></clipPath></defs><g clip-path="url(#_clipPath_IrBC5gfaH07K1aLJKwnudO5CwZ0tK0YP)"><path d=" M 57.205 269.014 L 100.625 269.014 L 100.625 186.777 C 100.625 178.455 107.374 171.706 115.695 171.706 L 117.792 171.706 L 117.792 164.81 C 117.792 156.487 124.542 149.738 132.862 149.738 L 148.404 149.738 L 148.404 66.206 L 132.816 66.206 C 128.454 66.206 124.926 62.676 124.926 58.316 C 124.926 53.954 128.454 50.426 132.816 50.426 L 156.294 50.426 C 160.655 50.426 164.184 53.954 164.184 58.316 L 164.184 150.708 C 170.11 152.743 174.432 158.198 174.432 164.81 L 174.432 171.706 L 181.528 171.706 C 186.775 171.706 191.645 174.434 194.381 178.91 L 249.551 269.015 L 309.69 269.015 C 321.178 269.015 344.44 272.437 369.344 278.269 L 372.365 266.372 C 374.167 259.299 379.277 253.534 386.08 250.901 L 410.159 241.576 C 411.476 241.068 412.963 241.239 414.128 242.038 C 415.291 242.84 415.992 244.165 415.992 245.576 L 415.992 292.062 C 422.211 294.371 428.143 296.792 433.483 299.351 C 433.245 296.098 433.083 292.739 433.083 289.187 C 433.083 268.729 437.214 252.148 442.283 252.148 C 447.369 252.148 451.498 268.729 451.498 289.187 C 451.498 296.515 450.952 303.304 450.035 309.059 C 457.238 314.476 461.576 320.239 461.576 326.218 C 461.576 332.197 457.238 337.96 450.034 343.378 C 450.951 349.134 451.497 355.921 451.497 363.25 C 451.497 383.707 447.368 400.289 442.282 400.289 C 437.213 400.289 433.082 383.707 433.082 363.25 C 433.082 359.697 433.244 356.338 433.482 353.086 C 428.142 355.646 422.211 358.065 415.991 360.376 L 415.991 406.862 C 415.991 408.27 415.29 409.596 414.127 410.398 C 412.962 411.2 411.476 411.369 410.158 410.86 L 386.079 401.537 C 379.276 398.902 374.166 393.138 372.364 386.064 L 369.343 374.167 C 344.439 379.999 321.177 383.421 309.689 383.421 L 57.204 383.421 C 25.612 383.421 0 357.81 0 326.217 C 0.001 294.628 25.613 269.014 57.205 269.014 Z  M 298.232 345.4 C 308.938 345.4 317.617 336.721 317.617 326.014 C 317.617 315.308 308.938 306.629 298.232 306.629 C 287.526 306.629 278.846 315.308 278.846 326.014 C 278.846 336.721 287.526 345.4 298.232 345.4 Z  M 207.705 345.4 C 218.412 345.4 227.091 336.721 227.091 326.014 C 227.091 315.308 218.412 306.629 207.705 306.629 C 196.999 306.629 188.32 315.308 188.32 326.014 C 188.32 336.721 196.999 345.4 207.705 345.4 Z  M 117.179 345.4 C 127.886 345.4 136.565 336.721 136.565 326.014 C 136.565 315.308 127.886 306.629 117.179 306.629 C 106.473 306.629 97.794 315.308 97.794 326.014 C 97.793 336.721 106.473 345.4 117.179 345.4 Z " fill="rgb(45,34,34)" vector-effect="non-scaling-stroke" stroke-width="1" stroke="rgb(45,34,34)" stroke-linejoin="round" stroke-linecap="butt" stroke-miterlimit="10"/></g></svg>