<?xml version="1.0" encoding="UTF-8" standalone="no"?><!-- Generator: Gravit.io --><svg xmlns="http://www.w3.org/2000/svg" xmlns:xlink="http://www.w3.org/1999/xlink" style="isolation:isolate" viewBox="545 363 699.539 93.716" width="699.539pt" height="93.716pt"><defs><clipPath id="_clipPath_1H5u5YKQIyhPCHz7wLKk43UAkqu2xa0b"><rect x="545" y="363" width="699.539" height="93.716"/></clipPath></defs><g clip-path="url(#_clipPath_1H5u5YKQIyhPCHz7wLKk43UAkqu2xa0b)"><g><path d=" M 1142.136 400.882 L 1142.136 404.925 L 1145.457 404.925 L 1145.457 404.925 Q 1147.283 404.925 1148.015 404.461 L 1148.015 404.461 L 1148.015 404.461 Q 1148.748 403.997 1148.748 402.904 L 1148.748 402.904 L 1148.748 402.904 Q 1148.748 401.781 1148.113 401.331 L 1148.113 401.331 L 1148.113 401.331 Q 1147.478 400.882 1145.691 400.882 L 1145.691 400.882 L 1142.136 400.882 L 1142.136 400.882 Z  M 1142.136 412.367 L 1138.513 412.367 L 1138.513 397.923 L 1147.068 397.923 L 1147.068 397.923 Q 1149.587 397.923 1150.999 399.227 L 1150.999 399.227 L 1150.999 399.227 Q 1152.41 400.531 1152.41 402.845 L 1152.41 402.845 L 1152.41 402.845 Q 1152.41 405.16 1150.999 406.454 L 1150.999 406.454 L 1150.999 406.454 Q 1149.587 407.747 1147.068 407.747 L 1147.068 407.747 L 1142.136 407.747 L 1142.136 412.367 L 1142.136 412.367 Z  M 1158.24 412.367 L 1154.617 412.367 L 1154.617 397.923 L 1158.24 397.923 L 1158.24 412.367 L 1158.24 412.367 Z  M 1172.576 412.367 L 1161.521 412.367 L 1161.521 397.923 L 1165.144 397.923 L 1165.144 409.329 L 1172.576 409.329 L 1172.576 412.367 L 1172.576 412.367 Z  M 1178.259 412.367 L 1174.783 412.367 L 1174.783 397.923 L 1179.46 397.923 L 1184.119 408.265 L 1188.904 397.923 L 1193.543 397.923 L 1193.543 412.367 L 1190.066 412.367 L 1190.066 402.728 L 1185.584 412.367 L 1182.566 412.367 L 1178.259 402.562 L 1178.259 412.367 L 1178.259 412.367 Z  M 1202.781 401.927 L 1200.906 406.39 L 1204.724 406.39 L 1202.781 401.927 L 1202.781 401.927 Z  M 1198.367 412.367 L 1194.46 412.367 L 1201.306 397.923 L 1204.783 397.923 L 1211.365 412.367 L 1207.341 412.367 L 1206.023 409.31 L 1199.666 409.31 L 1198.367 412.367 L 1198.367 412.367 Z  M 1215.906 400.804 L 1215.906 404.085 L 1219.998 404.085 L 1219.998 404.085 Q 1221.619 404.085 1222.278 403.69 L 1222.278 403.69 L 1222.278 403.69 Q 1222.937 403.294 1222.937 402.386 L 1222.937 402.386 L 1222.937 402.386 Q 1222.937 401.507 1222.322 401.156 L 1222.322 401.156 L 1222.322 401.156 Q 1221.707 400.804 1219.841 400.804 L 1219.841 400.804 L 1215.906 400.804 L 1215.906 400.804 Z  M 1215.906 412.367 L 1212.283 412.367 L 1212.283 397.923 L 1221.16 397.923 L 1221.16 397.923 Q 1224.05 397.923 1225.418 398.871 L 1225.418 398.871 L 1225.418 398.871 Q 1226.785 399.818 1226.785 401.81 L 1226.785 401.81 L 1226.785 401.81 Q 1226.785 403.079 1226.145 404.056 L 1226.145 404.056 L 1226.145 404.056 Q 1225.505 405.033 1224.382 405.462 L 1224.382 405.462 L 1224.382 405.462 Q 1225.339 405.863 1225.725 406.454 L 1225.725 406.454 L 1225.725 406.454 Q 1226.111 407.044 1226.179 408.538 L 1226.179 408.538 L 1226.179 408.538 Q 1226.189 408.685 1226.199 408.939 L 1226.199 408.939 L 1226.199 408.939 Q 1226.316 411.624 1226.96 412.367 L 1226.96 412.367 L 1222.898 412.367 L 1222.898 412.367 Q 1222.752 412.132 1222.678 411.849 L 1222.678 411.849 L 1222.678 411.849 Q 1222.605 411.566 1222.605 411.244 L 1222.605 411.244 L 1222.605 410.267 L 1222.605 410.267 Q 1222.605 408.275 1222.092 407.66 L 1222.092 407.66 L 1222.092 407.66 Q 1221.58 407.044 1220.085 407.044 L 1220.085 407.044 L 1219.998 407.044 L 1215.906 407.044 L 1215.906 412.367 L 1215.906 412.367 Z  M 1233.025 412.367 L 1229.402 412.367 L 1229.402 397.923 L 1233.025 397.923 L 1233.025 403.47 L 1239.099 397.923 L 1243.757 397.923 L 1237.4 403.529 L 1244.539 412.367 L 1240.105 412.367 L 1234.861 405.746 L 1233.025 407.367 L 1233.025 412.367 L 1233.025 412.367 Z  M 1043.748 407.669 L 1043.748 407.367 L 1047.449 407.367 L 1047.449 407.503 L 1047.449 407.503 Q 1047.449 408.724 1048.523 409.364 L 1048.523 409.364 L 1048.523 409.364 Q 1049.597 410.003 1051.648 410.003 L 1051.648 410.003 L 1051.648 410.003 Q 1053.23 410.003 1054.089 409.539 L 1054.089 409.539 L 1054.089 409.539 Q 1054.949 409.076 1054.949 408.226 L 1054.949 408.226 L 1054.949 408.226 Q 1054.949 407.513 1054.387 407.176 L 1054.387 407.176 L 1054.387 407.176 Q 1053.826 406.839 1052.117 406.663 L 1052.117 406.663 L 1049.548 406.41 L 1049.548 406.41 Q 1046.736 406.117 1045.413 405.13 L 1045.413 405.13 L 1045.413 405.13 Q 1044.089 404.144 1044.089 402.347 L 1044.089 402.347 L 1044.089 402.347 Q 1044.089 400.218 1045.999 398.88 L 1045.999 398.88 L 1045.999 398.88 Q 1047.908 397.542 1051.052 397.542 L 1051.052 397.542 L 1051.052 397.542 Q 1054.431 397.542 1056.34 398.802 L 1056.34 398.802 L 1056.34 398.802 Q 1058.25 400.062 1058.25 402.249 L 1058.25 402.249 L 1058.25 402.367 L 1054.656 402.367 L 1054.656 402.367 Q 1054.529 401.283 1053.645 400.746 L 1053.645 400.746 L 1053.645 400.746 Q 1052.761 400.208 1051.111 400.208 L 1051.111 400.208 L 1051.111 400.208 Q 1049.587 400.208 1048.748 400.643 L 1048.748 400.643 L 1048.748 400.643 Q 1047.908 401.078 1047.908 401.869 L 1047.908 401.869 L 1047.908 401.869 Q 1047.908 402.503 1048.401 402.796 L 1048.401 402.796 L 1048.401 402.796 Q 1048.894 403.089 1050.828 403.304 L 1050.828 403.304 L 1053.513 403.587 L 1053.513 403.587 Q 1056.287 403.89 1057.59 404.92 L 1057.59 404.92 L 1057.59 404.92 Q 1058.894 405.951 1058.894 407.826 L 1058.894 407.826 L 1058.894 407.826 Q 1058.894 410.238 1056.936 411.493 L 1056.936 411.493 L 1056.936 411.493 Q 1054.978 412.747 1051.209 412.747 L 1051.209 412.747 L 1051.209 412.747 Q 1047.615 412.747 1045.681 411.429 L 1045.681 411.429 L 1045.681 411.429 Q 1043.748 410.111 1043.748 407.669 L 1043.748 407.669 L 1043.748 407.669 Z  M 1065.31 407.689 L 1065.31 407.689 L 1072.253 401.302 L 1072.253 401.302 Q 1071.609 400.902 1070.906 400.706 L 1070.906 400.706 L 1070.906 400.706 Q 1070.203 400.511 1069.412 400.511 L 1069.412 400.511 L 1069.412 400.511 Q 1067.244 400.511 1065.989 401.751 L 1065.989 401.751 L 1065.989 401.751 Q 1064.734 402.992 1064.734 405.15 L 1064.734 405.15 L 1064.734 405.15 Q 1064.734 405.951 1064.876 406.571 L 1064.876 406.571 L 1064.876 406.571 Q 1065.017 407.191 1065.31 407.689 Z  M 1073.494 402.63 L 1073.494 402.63 L 1066.589 409.007 L 1066.589 409.007 Q 1067.127 409.378 1067.849 409.574 L 1067.849 409.574 L 1067.849 409.574 Q 1068.572 409.769 1069.412 409.769 L 1069.412 409.769 L 1069.412 409.769 Q 1071.589 409.769 1072.83 408.538 L 1072.83 408.538 L 1072.83 408.538 Q 1074.07 407.308 1074.07 405.15 L 1074.07 405.15 L 1074.07 405.15 Q 1074.07 404.369 1073.923 403.724 L 1073.923 403.724 L 1073.923 403.724 Q 1073.777 403.079 1073.494 402.63 Z  M 1060.867 411.849 L 1062.605 410.208 L 1062.605 410.208 Q 1061.668 409.173 1061.209 407.923 L 1061.209 407.923 L 1061.209 407.923 Q 1060.75 406.673 1060.75 405.15 L 1060.75 405.15 L 1060.75 405.15 Q 1060.75 401.683 1063.103 399.613 L 1063.103 399.613 L 1063.103 399.613 Q 1065.457 397.542 1069.412 397.542 L 1069.412 397.542 L 1069.412 397.542 Q 1071.003 397.542 1072.371 397.899 L 1072.371 397.899 L 1072.371 397.899 Q 1073.738 398.255 1074.773 398.929 L 1074.773 398.929 L 1076.648 397.21 L 1077.908 398.548 L 1076.209 400.13 L 1076.209 400.13 Q 1077.117 401.087 1077.585 402.352 L 1077.585 402.352 L 1077.585 402.352 Q 1078.054 403.617 1078.054 405.15 L 1078.054 405.15 L 1078.054 405.15 Q 1078.054 408.617 1075.71 410.682 L 1075.71 410.682 L 1075.71 410.682 Q 1073.367 412.747 1069.412 412.747 L 1069.412 412.747 L 1069.412 412.747 Q 1067.8 412.747 1066.423 412.391 L 1066.423 412.391 L 1066.423 412.391 Q 1065.046 412.035 1064.05 411.371 L 1064.05 411.371 L 1062.048 413.226 L 1060.867 411.849 L 1060.867 411.849 Z  M 1084.158 400.804 L 1084.158 404.085 L 1088.25 404.085 L 1088.25 404.085 Q 1089.871 404.085 1090.53 403.69 L 1090.53 403.69 L 1090.53 403.69 Q 1091.189 403.294 1091.189 402.386 L 1091.189 402.386 L 1091.189 402.386 Q 1091.189 401.507 1090.574 401.156 L 1090.574 401.156 L 1090.574 401.156 Q 1089.959 400.804 1088.093 400.804 L 1088.093 400.804 L 1084.158 400.804 L 1084.158 400.804 Z  M 1084.158 412.367 L 1080.535 412.367 L 1080.535 397.923 L 1089.412 397.923 L 1089.412 397.923 Q 1092.302 397.923 1093.669 398.871 L 1093.669 398.871 L 1093.669 398.871 Q 1095.037 399.818 1095.037 401.81 L 1095.037 401.81 L 1095.037 401.81 Q 1095.037 403.079 1094.397 404.056 L 1094.397 404.056 L 1094.397 404.056 Q 1093.757 405.033 1092.634 405.462 L 1092.634 405.462 L 1092.634 405.462 Q 1093.591 405.863 1093.977 406.454 L 1093.977 406.454 L 1093.977 406.454 Q 1094.363 407.044 1094.431 408.538 L 1094.431 408.538 L 1094.431 408.538 Q 1094.441 408.685 1094.451 408.939 L 1094.451 408.939 L 1094.451 408.939 Q 1094.568 411.624 1095.212 412.367 L 1095.212 412.367 L 1091.15 412.367 L 1091.15 412.367 Q 1091.003 412.132 1090.93 411.849 L 1090.93 411.849 L 1090.93 411.849 Q 1090.857 411.566 1090.857 411.244 L 1090.857 411.244 L 1090.857 410.267 L 1090.857 410.267 Q 1090.857 408.275 1090.344 407.66 L 1090.344 407.66 L 1090.344 407.66 Q 1089.832 407.044 1088.337 407.044 L 1088.337 407.044 L 1088.25 407.044 L 1084.158 407.044 L 1084.158 412.367 L 1084.158 412.367 Z  M 1110.476 412.367 L 1097.654 412.367 L 1097.654 397.923 L 1110.476 397.923 L 1110.476 400.843 L 1101.277 400.843 L 1101.277 403.285 L 1109.47 403.285 L 1109.47 406.224 L 1101.277 406.224 L 1101.277 409.329 L 1110.476 409.329 L 1110.476 412.367 L 1110.476 412.367 Z  M 1116.287 412.367 L 1112.83 412.367 L 1112.83 397.923 L 1117.273 397.923 L 1124.49 408.109 L 1124.49 397.923 L 1127.966 397.923 L 1127.966 412.367 L 1123.572 412.367 L 1116.287 402.083 L 1116.287 412.367 L 1116.287 412.367 Z  M 960.552 394.727 L 960.71 394.727 L 960.71 394.727 Q 963.921 395.277 963.921 396.729 L 963.921 396.729 L 963.921 396.949 L 963.921 396.949 Q 963.445 398.28 962.639 398.28 L 962.639 398.28 L 961.65 398.048 L 962.358 396.876 L 962.358 396.766 L 962.358 396.766 Q 962.041 395.692 960.295 395.96 L 960.295 395.96 L 960.295 395.96 Q 957.732 396.644 957.097 398.243 L 957.097 398.243 L 957.097 398.243 Q 956.646 398.731 956.56 399.94 L 956.56 399.94 L 956.365 401.759 L 956.426 401.685 L 956.426 401.685 Q 958.513 401.051 960.71 400.855 L 960.71 400.855 L 960.71 400.855 Q 961.504 401.002 961.504 401.197 L 961.504 401.197 L 961.504 402.052 L 961.504 402.052 Q 957.537 402.454 956.853 403.053 L 956.853 403.053 L 956.365 403.382 L 956.365 403.382 Q 957.659 409.327 960.381 411.353 L 960.381 411.353 L 960.552 411.793 L 959.746 412.367 L 959.27 412.367 L 959.27 412.367 Q 958.745 412.11 954.705 408.35 L 954.705 408.35 L 954.705 408.35 Q 953.142 406.788 953.142 404.908 L 953.142 404.908 L 953.142 404.908 Q 953.24 403.822 955.254 402.601 L 955.254 402.601 L 955.095 401.502 L 955.095 401.502 Q 955.095 398.634 956.853 396.51 L 956.853 396.51 L 956.853 396.51 Q 956.853 395.606 960.552 394.727 L 960.552 394.727 L 960.552 394.727 Z  M 954.607 405.775 L 954.607 405.775 L 954.607 405.775 Q 954.607 406.776 957.012 409.156 L 957.012 409.156 L 957.341 409.156 L 957.341 409.156 Q 956.694 408.326 955.571 404.261 L 955.571 404.261 L 955.571 404.261 Q 954.607 404.627 954.607 405.775 Z  M 967.888 403.712 L 967.888 403.712 L 968.425 403.712 L 968.975 404.249 L 968.975 404.249 Q 968.975 405.885 963.567 409.657 L 963.567 409.657 L 963.567 410.023 L 963.567 410.023 Q 964.348 411.109 966.082 411.109 L 966.082 411.109 L 966.082 411.109 Q 968.987 410.914 971.685 409.303 L 971.685 409.303 L 972.222 409.303 L 972.393 409.852 L 972.393 409.852 Q 969.683 412.196 966.265 412.196 L 966.265 412.196 L 965.715 412.367 L 965.715 412.367 Q 962.114 412.367 962.114 409.657 L 962.114 409.657 L 962.114 409.303 L 962.114 409.303 Q 962.114 405.47 967.888 403.712 Z  M 963.738 408.033 L 963.738 408.033 L 963.738 408.033 Q 965.679 407.386 966.802 405.86 L 966.802 405.86 L 966.802 405.689 L 966.448 405.335 L 966.448 405.335 Q 964.043 406.8 963.738 408.033 Z  M 977.605 403.114 L 977.605 403.114 L 977.813 403.114 L 978.606 403.919 L 978.606 404.713 L 978.606 404.713 Q 978.606 407.057 978.203 407.923 L 978.203 407.923 L 978.411 408.119 L 978.411 408.326 L 978.203 408.924 L 978.203 408.924 Q 978.582 410.731 979.815 410.731 L 979.815 410.731 L 979.815 410.731 Q 980.779 410.56 983.22 408.326 L 983.22 408.326 L 983.22 408.326 Q 983.22 407.972 984.221 407.923 L 984.221 407.923 L 984.417 408.119 L 984.417 408.326 L 984.417 408.326 Q 982.085 412.135 979.607 412.135 L 979.607 412.135 L 978.814 412.135 L 978.814 412.135 Q 977.922 412.135 976.604 410.731 L 976.604 410.731 L 976.604 410.731 Q 974.492 412.33 973.406 412.33 L 973.406 412.33 L 973.406 412.33 Q 971.599 412.33 971.196 409.73 L 971.196 409.73 L 971.196 409.73 Q 972.93 403.114 977.605 403.114 Z  M 973.003 408.521 L 972.795 409.522 L 972.795 410.328 L 973.198 410.731 L 973.406 410.731 L 973.406 410.731 Q 975.957 410.731 976.409 407.52 L 976.409 407.52 L 976.409 405.116 L 976.409 405.116 Q 974.712 405.116 973.003 408.521 L 973.003 408.521 L 973.003 408.521 Z  M 988.787 394.74 L 988.787 394.74 L 989.238 395.191 L 989.238 395.411 L 987.908 398.28 L 987.468 399.818 L 987.468 400.245 L 989.898 399.818 L 991.436 399.818 L 991.436 400.245 L 991.436 400.245 Q 991.35 400.758 986.809 402.015 L 986.809 402.015 L 986.809 402.015 Q 986.138 404.908 986.138 407.313 L 986.138 407.313 L 986.138 408.851 L 986.138 408.851 Q 986.406 410.487 987.017 410.597 L 987.017 410.597 L 987.017 410.597 Q 987.932 410.597 989.446 409.059 L 989.446 409.059 L 989.666 409.059 L 990.105 409.51 L 990.105 409.718 L 990.105 409.718 Q 988.005 412.367 986.809 412.367 L 986.809 412.367 L 986.809 412.367 Q 984.16 411.06 984.16 407.74 L 984.16 407.74 L 985.051 402.467 L 984.819 402.467 L 983.074 402.894 L 982.622 402.894 L 982.622 402.015 L 982.622 402.015 Q 982.622 401.637 985.479 400.916 L 985.479 400.916 L 985.479 400.916 Q 987.395 394.74 988.787 394.74 Z  M 996.404 402.699 L 996.404 402.699 L 996.904 407.838 L 996.904 407.838 Q 997.771 410.365 997.771 411.585 L 997.771 411.585 L 997.771 411.585 Q 997.649 412.367 997.026 412.367 L 997.026 412.367 L 997.026 412.367 Q 996.697 412.367 996.282 409.217 L 996.282 409.217 L 996.282 409.217 Q 996.025 409.168 995.903 407.838 L 995.903 407.838 L 993.023 410.584 L 993.023 410.584 Q 993.023 410.987 991.777 411.183 L 991.777 411.183 L 991.777 411.183 Q 989.409 410.438 989.409 407.435 L 989.409 407.435 L 989.409 406.056 L 989.409 406.056 Q 989.409 404.09 990.276 403.492 L 990.276 403.492 L 990.276 403.492 Q 990.654 403.626 990.789 404.286 L 990.789 404.286 L 990.789 404.286 Q 990.532 405.055 990.532 406.446 L 990.532 406.446 L 990.532 406.446 Q 990.532 408.558 991.289 409.4 L 991.289 409.4 L 992.156 409.4 L 992.156 409.4 Q 995.647 407.716 995.647 403.297 L 995.647 403.297 L 995.647 403.297 Q 995.977 402.699 996.404 402.699 Z  M 1005.901 402.442 L 1005.901 402.442 L 1006.096 402.442 L 1006.096 402.442 Q 1006.963 402.442 1008.477 404.237 L 1008.477 404.237 L 1008.477 404.237 Q 1009.88 404.92 1009.88 405.811 L 1009.88 405.811 L 1009.673 406.019 L 1009.075 406.019 L 1006.304 404.64 L 1006.096 404.64 L 1006.096 404.64 Q 1004.717 408.265 1003.923 411.964 L 1003.923 411.964 L 1002.727 412.367 L 1002.129 411.366 L 1002.324 411.366 L 1002.129 411.17 L 1002.129 409.986 L 1002.129 409.986 Q 1002.129 407.557 1000.75 406.812 L 1000.75 406.812 L 1000.75 406.812 Q 999.614 406.812 998.565 408.997 L 998.565 408.997 L 998.174 408.997 L 997.771 408.595 L 997.771 408.399 L 997.771 408.399 Q 997.771 405.982 1001.14 405.213 L 1001.14 405.213 L 1001.14 405.213 Q 1003.325 406.568 1003.325 408.595 L 1003.325 408.595 L 1003.521 408.595 L 1003.521 408.595 Q 1004.863 402.442 1005.901 402.442 Z  M 1012.139 402.284 L 1012.957 401.637 L 1013.286 401.637 L 1013.933 402.284 L 1013.933 402.442 L 1013.933 402.442 Q 1013.933 403.59 1012.798 403.59 L 1012.798 403.59 L 1012.798 403.59 Q 1012.334 403.59 1012.139 402.284 L 1012.139 402.284 L 1012.139 402.284 Z  M 1012.139 405.702 L 1012.139 405.702 L 1012.468 405.702 L 1012.468 405.702 Q 1013.274 405.702 1013.604 411.06 L 1013.604 411.06 L 1014.263 411.231 L 1014.263 411.231 Q 1014.971 411.231 1016.375 410.096 L 1016.375 410.096 L 1016.692 410.096 L 1016.692 410.255 L 1016.692 410.255 Q 1016.692 411.988 1014.421 412.367 L 1014.421 412.367 L 1014.421 412.367 Q 1012.395 412.367 1012.139 409.767 L 1012.139 409.767 L 1012.139 408.631 L 1012.31 408.46 L 1012.31 408.46 Q 1012.09 407.325 1011.821 407.325 L 1011.821 407.325 L 1011.821 407.325 Q 1010.369 410.438 1009.71 410.743 L 1009.71 410.743 L 1009.221 410.743 L 1008.892 410.413 L 1008.892 410.413 Q 1010.735 406.532 1012.139 405.702 Z  M 1021.502 404.395 L 1021.502 404.395 L 1021.502 404.395 Q 1022.698 404.395 1022.808 409.767 L 1022.808 409.767 L 1022.808 409.767 Q 1023.406 410.255 1023.943 410.255 L 1023.943 410.255 L 1027.031 408.79 L 1027.361 408.79 L 1027.361 408.949 L 1027.361 408.949 Q 1026.616 410.45 1023.137 412.037 L 1023.137 412.037 L 1023.137 412.037 Q 1022.38 412.037 1021.343 410.255 L 1021.343 410.255 L 1021.184 406.349 L 1021.025 406.19 L 1021.025 406.19 Q 1020.574 406.19 1018.901 409.278 L 1018.901 409.278 L 1018.901 409.278 Q 1017.51 412.367 1016.301 412.367 L 1016.301 412.367 L 1015.984 412.367 L 1015.984 412.367 Q 1015.166 411.915 1015.166 410.096 L 1015.166 410.096 L 1015.166 410.096 Q 1015.166 408.643 1016.143 406.19 L 1016.143 406.19 L 1016.143 406.19 Q 1016.96 406.41 1016.96 407.325 L 1016.96 407.325 L 1016.79 410.096 L 1016.79 410.096 Q 1017.766 409.339 1019.878 405.372 L 1019.878 405.372 L 1019.878 405.372 Q 1020.867 404.395 1021.502 404.395 Z  M 1028.875 413.209 L 1028.875 413.209 L 1028.728 414.259 L 1028.728 414.259 Q 1028.521 415.894 1029.497 416.248 L 1029.497 416.248 L 1030.095 416.248 L 1030.095 416.248 Q 1031.78 414.076 1031.475 410.853 L 1031.475 410.853 L 1031.536 409.583 L 1031.536 409.583 Q 1029.18 410.865 1028.875 413.209 Z  M 1032.878 408.912 L 1032.878 408.912 L 1032.878 408.912 Q 1033.086 415.675 1030.535 417.518 L 1030.535 417.518 L 1029.717 417.689 L 1029.094 417.689 L 1029.094 417.689 Q 1027.642 416.993 1027.642 414.271 L 1027.642 414.271 L 1027.642 412.928 L 1027.642 412.928 Q 1027.703 409.413 1031.328 408.253 L 1031.328 408.253 L 1031.328 408.253 Q 1031.694 408.253 1031.694 406.849 L 1031.694 406.849 L 1031.694 405.824 L 1031.694 405.824 Q 1031.548 406.361 1031.267 406.996 L 1031.267 406.996 L 1031.267 406.996 Q 1029.668 409.181 1027.764 409.535 L 1027.764 409.535 L 1027.764 409.535 Q 1025.896 409.364 1025.896 408.192 L 1025.896 408.192 L 1025.896 408.192 Q 1025.933 406.397 1027.813 404.054 L 1027.813 404.054 L 1029.241 403.101 L 1029.46 402.955 L 1029.863 402.955 L 1030.291 403.761 L 1030.291 403.761 Q 1027.776 405.274 1027.178 406.849 L 1027.178 406.849 L 1027.178 406.849 Q 1026.738 407.96 1027.764 408.338 L 1027.764 408.338 L 1028.386 408.338 L 1028.386 408.338 Q 1030.449 407.411 1030.449 404.774 L 1030.449 404.774 L 1031.072 404.334 L 1031.694 404.334 L 1031.694 404.334 Q 1032.891 404.334 1033.013 405.213 L 1033.013 405.213 L 1032.793 407.838 L 1033.013 407.752 L 1033.013 407.752 Q 1037.517 405.885 1038.335 405.885 L 1038.335 405.885 L 1038.335 406.202 L 1038.543 406.202 L 1038.543 406.202 Q 1038.481 406.58 1032.878 408.912 Z  M 862.647 399.691 L 858.887 399.691 L 858.887 404.544 L 862.647 404.544 L 862.647 404.544 Q 864.648 404.544 865.498 403.954 L 865.498 403.954 L 865.498 403.954 Q 866.348 403.363 866.348 402.005 L 866.348 402.005 L 866.348 402.005 Q 866.348 400.794 865.571 400.243 L 865.571 400.243 L 865.571 400.243 Q 864.795 399.691 863.047 399.691 L 863.047 399.691 L 862.647 399.691 L 862.647 399.691 Z  M 856.924 412.367 L 856.924 397.982 L 862.988 397.982 L 862.988 397.982 Q 863.262 397.982 863.555 397.996 L 863.555 397.996 L 863.555 397.996 Q 863.848 398.011 863.867 398.011 L 863.867 398.011 L 863.867 398.011 Q 865.977 398.011 867.183 399.037 L 867.183 399.037 L 867.183 399.037 Q 868.389 400.062 868.389 401.849 L 868.389 401.849 L 868.389 401.849 Q 868.389 403.109 867.876 403.929 L 867.876 403.929 L 867.876 403.929 Q 867.363 404.749 866.26 405.247 L 866.26 405.247 L 866.26 405.247 Q 867.148 405.492 867.524 406.024 L 867.524 406.024 L 867.524 406.024 Q 867.9 406.556 868.008 407.923 L 868.008 407.923 L 868.184 410.287 L 868.184 410.287 Q 868.232 411.009 868.398 411.395 L 868.398 411.395 L 868.398 411.395 Q 868.565 411.781 868.906 411.947 L 868.906 411.947 L 868.906 412.367 L 866.602 412.367 L 866.602 412.367 Q 866.309 411.898 866.201 410.443 L 866.201 410.443 L 866.201 410.384 L 866.065 408.509 L 866.065 408.509 Q 865.957 407.054 865.361 406.629 L 865.361 406.629 L 865.361 406.629 Q 864.766 406.204 862.861 406.204 L 862.861 406.204 L 862.461 406.204 L 858.887 406.204 L 858.887 412.367 L 856.924 412.367 L 856.924 412.367 Z  M 871.289 412.367 L 871.289 397.982 L 881.973 397.982 L 881.973 399.769 L 873.232 399.769 L 873.232 404.066 L 881.289 404.066 L 881.289 405.746 L 873.232 405.746 L 873.232 410.57 L 882.148 410.57 L 882.148 412.367 L 871.289 412.367 L 871.289 412.367 Z  M 884.512 406.908 L 884.512 397.982 L 886.465 397.982 L 886.465 406.927 L 886.465 406.927 Q 886.465 408.958 887.383 409.92 L 887.383 409.92 L 887.383 409.92 Q 888.301 410.882 890.225 410.882 L 890.225 410.882 L 890.225 410.882 Q 892.129 410.882 893.057 409.906 L 893.057 409.906 L 893.057 409.906 Q 893.984 408.929 893.984 406.927 L 893.984 406.927 L 893.984 397.982 L 895.947 397.982 L 895.947 406.908 L 895.947 406.908 Q 895.947 409.788 894.439 411.278 L 894.439 411.278 L 894.439 411.278 Q 892.93 412.767 890.01 412.767 L 890.01 412.767 L 890.01 412.767 Q 887.256 412.767 885.884 411.302 L 885.884 411.302 L 885.884 411.302 Q 884.512 409.837 884.512 406.908 L 884.512 406.908 L 884.512 406.908 Z  M 898.994 412.367 L 898.994 397.982 L 901.133 397.982 L 907.852 408.431 L 907.852 408.431 Q 908.106 408.831 908.257 409.11 L 908.257 409.11 L 908.257 409.11 Q 908.408 409.388 908.516 409.642 L 908.516 409.642 L 908.516 397.982 L 910.371 397.982 L 910.371 412.367 L 908.252 412.367 L 901.387 401.79 L 901.387 401.79 Q 901.24 401.566 901.113 401.307 L 901.113 401.307 L 901.113 401.307 Q 900.986 401.048 900.85 400.706 L 900.85 400.706 L 900.85 412.367 L 898.994 412.367 L 898.994 412.367 Z  M 913.691 412.367 L 913.691 397.982 L 915.654 397.982 L 915.654 412.367 L 913.691 412.367 L 913.691 412.367 Z  M 925.234 397.611 L 925.234 397.611 L 925.234 397.611 Q 928.418 397.611 930.225 399.622 L 930.225 399.622 L 930.225 399.622 Q 932.031 401.634 932.031 405.189 L 932.031 405.189 L 932.031 405.189 Q 932.031 408.744 930.225 410.755 L 930.225 410.755 L 930.225 410.755 Q 928.418 412.767 925.234 412.767 L 925.234 412.767 L 925.234 412.767 Q 922.041 412.767 920.234 410.755 L 920.234 410.755 L 920.234 410.755 Q 918.428 408.744 918.428 405.189 L 918.428 405.189 L 918.428 405.189 Q 918.428 401.634 920.234 399.622 L 920.234 399.622 L 920.234 399.622 Q 922.041 397.611 925.234 397.611 Z  M 925.234 399.31 L 925.234 399.31 L 925.234 399.31 Q 922.988 399.31 921.719 400.868 L 921.719 400.868 L 921.719 400.868 Q 920.449 402.425 920.449 405.189 L 920.449 405.189 L 920.449 405.189 Q 920.449 407.953 921.724 409.52 L 921.724 409.52 L 921.724 409.52 Q 922.998 411.087 925.234 411.087 L 925.234 411.087 L 925.234 411.087 Q 927.471 411.087 928.74 409.52 L 928.74 409.52 L 928.74 409.52 Q 930.01 407.953 930.01 405.189 L 930.01 405.189 L 930.01 405.189 Q 930.01 402.425 928.74 400.868 L 928.74 400.868 L 928.74 400.868 Q 927.471 399.31 925.234 399.31 Z  M 934.551 412.367 L 934.551 397.982 L 936.69 397.982 L 943.408 408.431 L 943.408 408.431 Q 943.662 408.831 943.814 409.11 L 943.814 409.11 L 943.814 409.11 Q 943.965 409.388 944.072 409.642 L 944.072 409.642 L 944.072 397.982 L 945.928 397.982 L 945.928 412.367 L 943.809 412.367 L 936.943 401.79 L 936.943 401.79 Q 936.797 401.566 936.67 401.307 L 936.67 401.307 L 936.67 401.307 Q 936.543 401.048 936.406 400.706 L 936.406 400.706 L 936.406 412.367 L 934.551 412.367 L 934.551 412.367 Z  M 677.881 412.367 L 677.881 397.982 L 680.674 397.982 L 684.258 408.988 L 684.258 408.988 Q 684.336 409.222 684.424 409.53 L 684.424 409.53 L 684.424 409.53 Q 684.512 409.837 684.6 410.189 L 684.6 410.189 L 684.6 410.189 Q 684.668 409.896 684.751 409.603 L 684.751 409.603 L 684.751 409.603 Q 684.834 409.31 684.941 408.988 L 684.941 408.988 L 688.643 397.982 L 691.436 397.982 L 691.436 412.367 L 689.522 412.367 L 689.522 400.091 L 689.522 400.091 Q 689.395 400.638 689.321 400.907 L 689.321 400.907 L 689.321 400.907 Q 689.248 401.175 689.18 401.371 L 689.18 401.371 L 685.479 412.367 L 683.643 412.367 L 680 401.371 L 680 401.371 Q 679.902 401.078 679.824 400.76 L 679.824 400.76 L 679.824 400.76 Q 679.746 400.443 679.678 400.091 L 679.678 400.091 L 679.678 412.367 L 677.881 412.367 L 677.881 412.367 Z  M 702.52 405.384 L 702.52 405.384 L 700.781 405.384 L 700.781 405.384 Q 700.723 404.32 700.073 403.734 L 700.073 403.734 L 700.073 403.734 Q 699.424 403.148 698.301 403.148 L 698.301 403.148 L 698.301 403.148 Q 696.982 403.148 696.27 404.178 L 696.27 404.178 L 696.27 404.178 Q 695.557 405.208 695.557 407.103 L 695.557 407.103 L 695.557 407.103 Q 695.557 409.056 696.255 410.072 L 696.255 410.072 L 696.255 410.072 Q 696.953 411.087 698.301 411.087 L 698.301 411.087 L 698.301 411.087 Q 699.356 411.087 700.029 410.433 L 700.029 410.433 L 700.029 410.433 Q 700.703 409.779 700.859 408.607 L 700.859 408.607 L 702.539 408.607 L 702.539 408.607 Q 702.422 410.521 701.25 411.605 L 701.25 411.605 L 701.25 411.605 Q 700.078 412.689 698.115 412.689 L 698.115 412.689 L 698.115 412.689 Q 696.065 412.689 694.902 411.209 L 694.902 411.209 L 694.902 411.209 Q 693.74 409.73 693.74 407.103 L 693.74 407.103 L 693.74 407.103 Q 693.74 404.535 694.961 403.06 L 694.961 403.06 L 694.961 403.06 Q 696.182 401.585 698.301 401.585 L 698.301 401.585 L 698.301 401.585 Q 700.176 401.585 701.323 402.625 L 701.323 402.625 L 701.323 402.625 Q 702.471 403.665 702.52 405.384 Z  M 710.4 399.691 L 706.641 399.691 L 706.641 404.544 L 710.4 404.544 L 710.4 404.544 Q 712.402 404.544 713.252 403.954 L 713.252 403.954 L 713.252 403.954 Q 714.102 403.363 714.102 402.005 L 714.102 402.005 L 714.102 402.005 Q 714.102 400.794 713.325 400.243 L 713.325 400.243 L 713.325 400.243 Q 712.549 399.691 710.801 399.691 L 710.801 399.691 L 710.4 399.691 L 710.4 399.691 Z  M 704.678 412.367 L 704.678 397.982 L 710.742 397.982 L 710.742 397.982 Q 711.016 397.982 711.309 397.996 L 711.309 397.996 L 711.309 397.996 Q 711.602 398.011 711.621 398.011 L 711.621 398.011 L 711.621 398.011 Q 713.731 398.011 714.937 399.037 L 714.937 399.037 L 714.937 399.037 Q 716.143 400.062 716.143 401.849 L 716.143 401.849 L 716.143 401.849 Q 716.143 403.109 715.63 403.929 L 715.63 403.929 L 715.63 403.929 Q 715.117 404.749 714.014 405.247 L 714.014 405.247 L 714.014 405.247 Q 714.902 405.492 715.278 406.024 L 715.278 406.024 L 715.278 406.024 Q 715.654 406.556 715.762 407.923 L 715.762 407.923 L 715.938 410.287 L 715.938 410.287 Q 715.986 411.009 716.152 411.395 L 716.152 411.395 L 716.152 411.395 Q 716.318 411.781 716.66 411.947 L 716.66 411.947 L 716.66 412.367 L 714.356 412.367 L 714.356 412.367 Q 714.063 411.898 713.955 410.443 L 713.955 410.443 L 713.955 410.384 L 713.818 408.509 L 713.818 408.509 Q 713.711 407.054 713.115 406.629 L 713.115 406.629 L 713.115 406.629 Q 712.52 406.204 710.615 406.204 L 710.615 406.204 L 710.215 406.204 L 706.641 406.204 L 706.641 412.367 L 704.678 412.367 L 704.678 412.367 Z  M 719.219 412.367 L 719.219 397.982 L 721.182 397.982 L 721.182 412.367 L 719.219 412.367 L 719.219 412.367 Z  M 730 399.671 L 726.514 399.671 L 726.514 410.609 L 730 410.609 L 730 410.609 Q 732.246 410.609 733.364 409.188 L 733.364 409.188 L 733.364 409.188 Q 734.482 407.767 734.482 404.886 L 734.482 404.886 L 734.482 404.886 Q 734.482 402.396 733.306 401.034 L 733.306 401.034 L 733.306 401.034 Q 732.129 399.671 730 399.671 L 730 399.671 L 730 399.671 Z  M 724.561 412.367 L 724.561 397.982 L 730.156 397.982 L 730.156 397.982 Q 733.223 397.982 734.849 399.779 L 734.849 399.779 L 734.849 399.779 Q 736.475 401.576 736.475 404.964 L 736.475 404.964 L 736.475 404.964 Q 736.475 408.46 734.795 410.413 L 734.795 410.413 L 734.795 410.413 Q 733.115 412.367 730.098 412.367 L 730.098 412.367 L 724.561 412.367 L 724.561 412.367 Z  M 744.443 399.671 L 740.957 399.671 L 740.957 410.609 L 744.443 410.609 L 744.443 410.609 Q 746.69 410.609 747.808 409.188 L 747.808 409.188 L 747.808 409.188 Q 748.926 407.767 748.926 404.886 L 748.926 404.886 L 748.926 404.886 Q 748.926 402.396 747.749 401.034 L 747.749 401.034 L 747.749 401.034 Q 746.572 399.671 744.443 399.671 L 744.443 399.671 L 744.443 399.671 Z  M 739.004 412.367 L 739.004 397.982 L 744.6 397.982 L 744.6 397.982 Q 747.666 397.982 749.292 399.779 L 749.292 399.779 L 749.292 399.779 Q 750.918 401.576 750.918 404.964 L 750.918 404.964 L 750.918 404.964 Q 750.918 408.46 749.238 410.413 L 749.238 410.413 L 749.238 410.413 Q 747.559 412.367 744.541 412.367 L 744.541 412.367 L 739.004 412.367 L 739.004 412.367 Z  M 753.486 412.367 L 753.486 397.982 L 755.469 397.982 L 755.469 410.55 L 762.949 410.55 L 762.949 412.367 L 753.486 412.367 L 753.486 412.367 Z  M 764.609 412.367 L 764.609 397.982 L 775.293 397.982 L 775.293 399.769 L 766.553 399.769 L 766.553 404.066 L 774.609 404.066 L 774.609 405.746 L 766.553 405.746 L 766.553 410.57 L 775.469 410.57 L 775.469 412.367 L 764.609 412.367 L 764.609 412.367 Z  M 790.332 402.328 L 790.332 402.328 L 788.428 402.328 L 788.428 402.328 Q 788.154 400.892 787.085 400.091 L 787.085 400.091 L 787.085 400.091 Q 786.016 399.29 784.365 399.29 L 784.365 399.29 L 784.365 399.29 Q 781.953 399.29 780.62 400.819 L 780.62 400.819 L 780.62 400.819 Q 779.287 402.347 779.287 405.13 L 779.287 405.13 L 779.287 405.13 Q 779.287 407.874 780.61 409.432 L 780.61 409.432 L 780.61 409.432 Q 781.934 410.99 784.229 410.99 L 784.229 410.99 L 784.229 410.99 Q 786.289 410.99 787.529 409.749 L 787.529 409.749 L 787.529 409.749 Q 788.77 408.509 788.77 406.449 L 788.77 406.449 L 788.77 406.224 L 784.209 406.224 L 784.209 404.622 L 790.566 404.622 L 790.566 412.367 L 789.307 412.367 L 788.867 410.423 L 788.867 410.423 Q 788.018 411.585 786.773 412.176 L 786.773 412.176 L 786.773 412.176 Q 785.527 412.767 783.945 412.767 L 783.945 412.767 L 783.945 412.767 Q 780.996 412.767 779.141 410.677 L 779.141 410.677 L 779.141 410.677 Q 777.285 408.587 777.285 405.208 L 777.285 405.208 L 777.285 405.208 Q 777.285 401.712 779.194 399.662 L 779.194 399.662 L 779.194 399.662 Q 781.104 397.611 784.365 397.611 L 784.365 397.611 L 784.365 397.611 Q 786.846 397.611 788.438 398.871 L 788.438 398.871 L 788.438 398.871 Q 790.029 400.13 790.332 402.328 Z  M 799.668 397.611 L 799.668 397.611 L 799.668 397.611 Q 802.852 397.611 804.658 399.622 L 804.658 399.622 L 804.658 399.622 Q 806.465 401.634 806.465 405.189 L 806.465 405.189 L 806.465 405.189 Q 806.465 408.744 804.658 410.755 L 804.658 410.755 L 804.658 410.755 Q 802.852 412.767 799.668 412.767 L 799.668 412.767 L 799.668 412.767 Q 796.475 412.767 794.668 410.755 L 794.668 410.755 L 794.668 410.755 Q 792.861 408.744 792.861 405.189 L 792.861 405.189 L 792.861 405.189 Q 792.861 401.634 794.668 399.622 L 794.668 399.622 L 794.668 399.622 Q 796.475 397.611 799.668 397.611 Z  M 799.668 399.31 L 799.668 399.31 L 799.668 399.31 Q 797.422 399.31 796.152 400.868 L 796.152 400.868 L 796.152 400.868 Q 794.883 402.425 794.883 405.189 L 794.883 405.189 L 794.883 405.189 Q 794.883 407.953 796.157 409.52 L 796.157 409.52 L 796.157 409.52 Q 797.432 411.087 799.668 411.087 L 799.668 411.087 L 799.668 411.087 Q 801.904 411.087 803.174 409.52 L 803.174 409.52 L 803.174 409.52 Q 804.443 407.953 804.443 405.189 L 804.443 405.189 L 804.443 405.189 Q 804.443 402.425 803.174 400.868 L 803.174 400.868 L 803.174 400.868 Q 801.904 399.31 799.668 399.31 Z  M 808.945 406.908 L 808.945 397.982 L 810.898 397.982 L 810.898 406.927 L 810.898 406.927 Q 810.898 408.958 811.816 409.92 L 811.816 409.92 L 811.816 409.92 Q 812.734 410.882 814.658 410.882 L 814.658 410.882 L 814.658 410.882 Q 816.563 410.882 817.49 409.906 L 817.49 409.906 L 817.49 409.906 Q 818.418 408.929 818.418 406.927 L 818.418 406.927 L 818.418 397.982 L 820.381 397.982 L 820.381 406.908 L 820.381 406.908 Q 820.381 409.788 818.872 411.278 L 818.872 411.278 L 818.872 411.278 Q 817.363 412.767 814.443 412.767 L 814.443 412.767 L 814.443 412.767 Q 811.69 412.767 810.317 411.302 L 810.317 411.302 L 810.317 411.302 Q 808.945 409.837 808.945 406.908 L 808.945 406.908 L 808.945 406.908 Z  M 829.229 399.749 L 825.508 399.749 L 825.508 404.583 L 829.082 404.583 L 829.082 404.583 Q 830.928 404.583 831.665 404.022 L 831.665 404.022 L 831.665 404.022 Q 832.402 403.46 832.402 402.142 L 832.402 402.142 L 832.402 402.142 Q 832.402 400.872 831.67 400.311 L 831.67 400.311 L 831.67 400.311 Q 830.938 399.749 829.229 399.749 L 829.229 399.749 L 829.229 399.749 Z  M 823.545 412.367 L 823.545 397.982 L 828.604 397.982 L 828.604 397.982 Q 828.984 397.982 829.37 397.996 L 829.37 397.996 L 829.37 397.996 Q 829.756 398.011 829.766 398.011 L 829.766 398.011 L 829.766 398.011 Q 832.051 398.011 833.228 399.061 L 833.228 399.061 L 833.228 399.061 Q 834.404 400.111 834.404 402.142 L 834.404 402.142 L 834.404 402.142 Q 834.404 403.333 833.901 404.256 L 833.901 404.256 L 833.901 404.256 Q 833.398 405.179 832.461 405.726 L 832.461 405.726 L 832.461 405.726 Q 831.924 406.038 831.211 406.17 L 831.211 406.17 L 831.211 406.17 Q 830.498 406.302 828.74 406.302 L 828.74 406.302 L 825.508 406.302 L 825.508 412.367 L 823.545 412.367 L 823.545 412.367 Z  M 836.768 412.367 L 836.768 397.982 L 838.721 397.982 L 838.721 403.89 L 846.162 403.89 L 846.162 397.982 L 848.125 397.982 L 848.125 412.367 L 846.162 412.367 L 846.162 405.648 L 838.721 405.648 L 838.721 412.367 L 836.768 412.367 L 836.768 412.367 Z  M 584.6 412.367 L 584.6 397.982 L 594.717 397.982 L 594.717 399.788 L 586.582 399.788 L 586.582 404.105 L 593.682 404.105 L 593.682 405.863 L 586.582 405.863 L 586.582 412.367 L 584.6 412.367 L 584.6 412.367 Z  M 602.617 399.691 L 598.857 399.691 L 598.857 404.544 L 602.617 404.544 L 602.617 404.544 Q 604.619 404.544 605.469 403.954 L 605.469 403.954 L 605.469 403.954 Q 606.318 403.363 606.318 402.005 L 606.318 402.005 L 606.318 402.005 Q 606.318 400.794 605.542 400.243 L 605.542 400.243 L 605.542 400.243 Q 604.766 399.691 603.018 399.691 L 603.018 399.691 L 602.617 399.691 L 602.617 399.691 Z  M 596.895 412.367 L 596.895 397.982 L 602.959 397.982 L 602.959 397.982 Q 603.232 397.982 603.525 397.996 L 603.525 397.996 L 603.525 397.996 Q 603.818 398.011 603.838 398.011 L 603.838 398.011 L 603.838 398.011 Q 605.947 398.011 607.153 399.037 L 607.153 399.037 L 607.153 399.037 Q 608.359 400.062 608.359 401.849 L 608.359 401.849 L 608.359 401.849 Q 608.359 403.109 607.847 403.929 L 607.847 403.929 L 607.847 403.929 Q 607.334 404.749 606.231 405.247 L 606.231 405.247 L 606.231 405.247 Q 607.119 405.492 607.495 406.024 L 607.495 406.024 L 607.495 406.024 Q 607.871 406.556 607.979 407.923 L 607.979 407.923 L 608.154 410.287 L 608.154 410.287 Q 608.203 411.009 608.369 411.395 L 608.369 411.395 L 608.369 411.395 Q 608.535 411.781 608.877 411.947 L 608.877 411.947 L 608.877 412.367 L 606.572 412.367 L 606.572 412.367 Q 606.279 411.898 606.172 410.443 L 606.172 410.443 L 606.172 410.384 L 606.035 408.509 L 606.035 408.509 Q 605.928 407.054 605.332 406.629 L 605.332 406.629 L 605.332 406.629 Q 604.736 406.204 602.832 406.204 L 602.832 406.204 L 602.432 406.204 L 598.857 406.204 L 598.857 412.367 L 596.895 412.367 L 596.895 412.367 Z  M 618.721 406.41 L 616.318 399.925 L 613.877 406.41 L 618.721 406.41 L 618.721 406.41 Z  M 609.58 412.367 L 615.234 397.982 L 617.422 397.982 L 623.057 412.367 L 620.898 412.367 L 619.316 408.07 L 613.262 408.07 L 611.621 412.367 L 609.58 412.367 L 609.58 412.367 Z  M 624.522 412.367 L 624.522 397.982 L 626.66 397.982 L 633.379 408.431 L 633.379 408.431 Q 633.633 408.831 633.784 409.11 L 633.784 409.11 L 633.784 409.11 Q 633.936 409.388 634.043 409.642 L 634.043 409.642 L 634.043 397.982 L 635.898 397.982 L 635.898 412.367 L 633.779 412.367 L 626.914 401.79 L 626.914 401.79 Q 626.768 401.566 626.641 401.307 L 626.641 401.307 L 626.641 401.307 Q 626.514 401.048 626.377 400.706 L 626.377 400.706 L 626.377 412.367 L 624.522 412.367 L 624.522 412.367 Z  M 650.986 402.328 L 650.986 402.328 L 649.063 402.328 L 649.063 402.328 Q 648.789 400.902 647.749 400.125 L 647.749 400.125 L 647.749 400.125 Q 646.709 399.349 645.059 399.349 L 645.059 399.349 L 645.059 399.349 Q 642.822 399.349 641.592 400.882 L 641.592 400.882 L 641.592 400.882 Q 640.361 402.415 640.361 405.208 L 640.361 405.208 L 640.361 405.208 Q 640.361 407.826 641.636 409.427 L 641.636 409.427 L 641.636 409.427 Q 642.91 411.029 645 411.029 L 645 411.029 L 645 411.029 Q 646.816 411.029 647.974 409.93 L 647.974 409.93 L 647.974 409.93 Q 649.131 408.831 649.199 407.025 L 649.199 407.025 L 651.104 407.025 L 651.104 407.025 Q 650.996 409.613 649.302 411.19 L 649.302 411.19 L 649.302 411.19 Q 647.607 412.767 644.941 412.767 L 644.941 412.767 L 644.941 412.767 Q 641.904 412.767 640.132 410.711 L 640.132 410.711 L 640.132 410.711 Q 638.359 408.656 638.359 405.13 L 638.359 405.13 L 638.359 405.13 Q 638.359 401.644 640.176 399.627 L 640.176 399.627 L 640.176 399.627 Q 641.992 397.611 645.147 397.611 L 645.147 397.611 L 645.147 397.611 Q 647.588 397.611 649.17 398.89 L 649.17 398.89 L 649.17 398.89 Q 650.752 400.169 650.986 402.328 Z  M 653.662 412.367 L 653.662 397.982 L 655.625 397.982 L 655.625 412.367 L 653.662 412.367 L 653.662 412.367 Z  M 669.404 402.21 L 669.404 402.21 L 667.539 402.21 L 667.539 402.21 Q 667.471 400.794 666.538 400.008 L 666.538 400.008 L 666.538 400.008 Q 665.606 399.222 664.004 399.222 L 664.004 399.222 L 664.004 399.222 Q 662.451 399.222 661.567 399.862 L 661.567 399.862 L 661.567 399.862 Q 660.684 400.501 660.684 401.605 L 660.684 401.605 L 660.684 401.605 Q 660.684 403.197 664.482 404.046 L 664.482 404.046 L 664.482 404.046 Q 664.961 404.144 665.225 404.203 L 665.225 404.203 L 665.225 404.203 Q 668.008 404.847 668.926 405.726 L 668.926 405.726 L 668.926 405.726 Q 669.844 406.605 669.844 408.206 L 669.844 408.206 L 669.844 408.206 Q 669.844 410.287 668.315 411.517 L 668.315 411.517 L 668.315 411.517 Q 666.787 412.747 664.16 412.747 L 664.16 412.747 L 664.16 412.747 Q 661.475 412.747 659.971 411.419 L 659.971 411.419 L 659.971 411.419 Q 658.467 410.091 658.34 407.611 L 658.34 407.611 L 660.225 407.611 L 660.225 407.611 Q 660.254 409.203 661.328 410.125 L 661.328 410.125 L 661.328 410.125 Q 662.402 411.048 664.238 411.048 L 664.238 411.048 L 664.238 411.048 Q 665.918 411.048 666.909 410.33 L 666.909 410.33 L 666.909 410.33 Q 667.9 409.613 667.9 408.402 L 667.9 408.402 L 667.9 408.402 Q 667.9 406.79 664.258 405.97 L 664.258 405.97 L 664.258 405.97 Q 663.633 405.824 663.301 405.746 L 663.301 405.746 L 663.301 405.746 Q 660.713 405.13 659.766 404.266 L 659.766 404.266 L 659.766 404.266 Q 658.818 403.402 658.818 401.869 L 658.818 401.869 L 658.818 401.869 Q 658.818 399.945 660.264 398.778 L 660.264 398.778 L 660.264 398.778 Q 661.709 397.611 664.121 397.611 L 664.121 397.611 L 664.121 397.611 Q 666.563 397.611 667.974 398.836 L 667.974 398.836 L 667.974 398.836 Q 669.385 400.062 669.404 402.21 Z  M 556.065 402.21 L 556.065 402.21 L 554.199 402.21 L 554.199 402.21 Q 554.131 400.794 553.198 400.008 L 553.198 400.008 L 553.198 400.008 Q 552.266 399.222 550.664 399.222 L 550.664 399.222 L 550.664 399.222 Q 549.111 399.222 548.228 399.862 L 548.228 399.862 L 548.228 399.862 Q 547.344 400.501 547.344 401.605 L 547.344 401.605 L 547.344 401.605 Q 547.344 403.197 551.143 404.046 L 551.143 404.046 L 551.143 404.046 Q 551.621 404.144 551.885 404.203 L 551.885 404.203 L 551.885 404.203 Q 554.668 404.847 555.586 405.726 L 555.586 405.726 L 555.586 405.726 Q 556.504 406.605 556.504 408.206 L 556.504 408.206 L 556.504 408.206 Q 556.504 410.287 554.976 411.517 L 554.976 411.517 L 554.976 411.517 Q 553.447 412.747 550.82 412.747 L 550.82 412.747 L 550.82 412.747 Q 548.135 412.747 546.631 411.419 L 546.631 411.419 L 546.631 411.419 Q 545.127 410.091 545 407.611 L 545 407.611 L 546.885 407.611 L 546.885 407.611 Q 546.914 409.203 547.988 410.125 L 547.988 410.125 L 547.988 410.125 Q 549.063 411.048 550.898 411.048 L 550.898 411.048 L 550.898 411.048 Q 552.578 411.048 553.569 410.33 L 553.569 410.33 L 553.569 410.33 Q 554.561 409.613 554.561 408.402 L 554.561 408.402 L 554.561 408.402 Q 554.561 406.79 550.918 405.97 L 550.918 405.97 L 550.918 405.97 Q 550.293 405.824 549.961 405.746 L 549.961 405.746 L 549.961 405.746 Q 547.373 405.13 546.426 404.266 L 546.426 404.266 L 546.426 404.266 Q 545.479 403.402 545.479 401.869 L 545.479 401.869 L 545.479 401.869 Q 545.479 399.945 546.924 398.778 L 546.924 398.778 L 546.924 398.778 Q 548.369 397.611 550.781 397.611 L 550.781 397.611 L 550.781 397.611 Q 553.223 397.611 554.634 398.836 L 554.634 398.836 L 554.634 398.836 Q 556.045 400.062 556.065 402.21 Z  M 559.219 412.367 L 559.219 397.982 L 561.182 397.982 L 561.182 412.367 L 559.219 412.367 L 559.219 412.367 Z  M 570.4 399.691 L 566.641 399.691 L 566.641 404.544 L 570.4 404.544 L 570.4 404.544 Q 572.402 404.544 573.252 403.954 L 573.252 403.954 L 573.252 403.954 Q 574.102 403.363 574.102 402.005 L 574.102 402.005 L 574.102 402.005 Q 574.102 400.794 573.325 400.243 L 573.325 400.243 L 573.325 400.243 Q 572.549 399.691 570.801 399.691 L 570.801 399.691 L 570.4 399.691 L 570.4 399.691 Z  M 564.678 412.367 L 564.678 397.982 L 570.742 397.982 L 570.742 397.982 Q 571.016 397.982 571.309 397.996 L 571.309 397.996 L 571.309 397.996 Q 571.602 398.011 571.621 398.011 L 571.621 398.011 L 571.621 398.011 Q 573.731 398.011 574.937 399.037 L 574.937 399.037 L 574.937 399.037 Q 576.143 400.062 576.143 401.849 L 576.143 401.849 L 576.143 401.849 Q 576.143 403.109 575.63 403.929 L 575.63 403.929 L 575.63 403.929 Q 575.117 404.749 574.014 405.247 L 574.014 405.247 L 574.014 405.247 Q 574.902 405.492 575.278 406.024 L 575.278 406.024 L 575.278 406.024 Q 575.654 406.556 575.762 407.923 L 575.762 407.923 L 575.938 410.287 L 575.938 410.287 Q 575.986 411.009 576.152 411.395 L 576.152 411.395 L 576.152 411.395 Q 576.318 411.781 576.66 411.947 L 576.66 411.947 L 576.66 412.367 L 574.356 412.367 L 574.356 412.367 Q 574.063 411.898 573.955 410.443 L 573.955 410.443 L 573.955 410.384 L 573.818 408.509 L 573.818 408.509 Q 573.711 407.054 573.115 406.629 L 573.115 406.629 L 573.115 406.629 Q 572.52 406.204 570.615 406.204 L 570.615 406.204 L 570.215 406.204 L 566.641 406.204 L 566.641 412.367 L 564.678 412.367 L 564.678 412.367 Z " fill="rgb(0,0,0)"/><path d=" M 1141.268 432.153 L 1142.096 431.528 L 1142.315 431.528 L 1142.315 431.528 Q 1142.925 431.669 1142.925 433.2 L 1142.925 433.2 L 1142.925 434.857 L 1142.925 434.857 Q 1142.925 440.325 1139.393 444.638 L 1139.393 444.638 L 1139.19 445.482 L 1139.19 445.482 Q 1139.768 449.06 1142.018 448.169 L 1142.018 448.169 L 1142.221 448.169 L 1143.893 447.763 L 1144.518 447.966 L 1144.518 448.169 L 1142.846 449.216 L 1140.44 450.263 L 1140.44 450.263 Q 1138.815 449.278 1137.94 446.31 L 1137.94 446.31 L 1137.94 446.31 Q 1135.971 447.232 1134.393 448.591 L 1134.393 448.591 L 1131.909 449.013 L 1131.909 449.013 Q 1129.612 448.591 1129.612 446.935 L 1129.612 446.935 L 1129.612 446.935 Q 1129.612 444.06 1134.612 441.528 L 1134.612 441.528 L 1137.721 441.107 L 1137.94 441.107 L 1137.94 440.482 L 1137.94 440.482 Q 1138.237 436.95 1141.268 432.153 L 1141.268 432.153 L 1141.268 432.153 Z  M 1139.19 441.732 L 1139.19 441.732 L 1139.19 442.982 L 1139.19 442.982 Q 1141.893 440.138 1141.893 436.528 L 1141.893 436.528 L 1141.893 435.482 L 1141.69 434.45 L 1141.69 434.45 Q 1139.19 436.638 1139.19 441.732 Z  M 1131.487 446.31 L 1131.284 446.513 L 1131.487 447.357 L 1132.315 447.357 L 1132.315 447.357 Q 1134.987 447.357 1137.518 444.435 L 1137.518 444.435 L 1137.315 443.388 L 1137.315 443.388 Q 1131.878 443.466 1131.487 446.31 L 1131.487 446.31 L 1131.487 446.31 Z  M 1144.456 431.732 L 1144.456 431.732 L 1144.456 431.732 Q 1146.065 432.31 1146.315 432.982 L 1146.315 432.982 L 1146.315 433.607 L 1146.315 433.607 Q 1145.987 434.45 1144.862 434.45 L 1144.862 434.45 L 1144.456 434.45 L 1143.612 433.607 L 1143.612 433.2 L 1143.612 433.2 Q 1143.612 432.466 1144.456 431.732 Z  M 1143.831 439.232 L 1144.456 438.607 L 1145.284 438.607 L 1145.284 438.607 Q 1147.003 438.607 1147.721 446.732 L 1147.721 446.732 L 1147.925 446.732 L 1147.925 446.732 Q 1150.987 442.357 1152.3 442.357 L 1152.3 442.357 L 1152.3 442.982 L 1152.3 442.982 Q 1147.925 448.528 1147.925 449.435 L 1147.925 449.435 L 1147.925 449.435 Q 1147.925 456.716 1144.815 456.716 L 1144.815 456.716 L 1144.815 456.716 Q 1143.143 456.45 1143.143 455.044 L 1143.143 455.044 L 1143.143 453.794 L 1143.143 453.794 Q 1143.143 451.935 1146.268 448.607 L 1146.268 448.607 L 1146.268 447.56 L 1146.268 447.56 Q 1145.393 440.278 1144.659 440.278 L 1144.659 440.278 L 1144.659 440.278 Q 1143.831 440.278 1143.831 439.857 L 1143.831 439.857 L 1143.831 439.232 L 1143.831 439.232 Z  M 1144.393 454.419 L 1144.393 454.419 L 1144.815 454.841 L 1144.815 454.841 Q 1145.846 454.56 1145.846 451.919 L 1145.846 451.919 L 1145.846 451.716 L 1145.846 451.716 Q 1144.393 452.685 1144.393 454.419 Z  M 1037.874 450.263 L 1034.397 450.263 L 1034.397 435.819 L 1039.075 435.819 L 1043.733 446.161 L 1048.518 435.819 L 1053.157 435.819 L 1053.157 450.263 L 1049.68 450.263 L 1049.68 440.624 L 1045.198 450.263 L 1042.18 450.263 L 1037.874 440.458 L 1037.874 450.263 L 1037.874 450.263 Z  M 1063.636 450.263 L 1060.022 450.263 L 1060.022 444.101 L 1053.714 435.819 L 1058.313 435.819 L 1061.917 440.985 L 1065.481 435.819 L 1070.061 435.819 L 1063.636 444.101 L 1063.636 450.263 L 1063.636 450.263 Z  M 1081.673 450.263 L 1070.618 450.263 L 1070.618 435.819 L 1074.241 435.819 L 1074.241 447.226 L 1081.673 447.226 L 1081.673 450.263 L 1081.673 450.263 Z  M 1087.542 450.263 L 1083.919 450.263 L 1083.919 435.819 L 1087.542 435.819 L 1087.542 450.263 L 1087.542 450.263 Z  M 1090.823 435.819 L 1094.427 435.819 L 1094.427 443.583 L 1094.427 443.583 Q 1094.427 445.712 1095.325 446.679 L 1095.325 446.679 L 1095.325 446.679 Q 1096.223 447.646 1098.206 447.646 L 1098.206 447.646 L 1098.206 447.646 Q 1099.261 447.646 1100.042 447.348 L 1100.042 447.348 L 1100.042 447.348 Q 1100.823 447.05 1101.302 446.464 L 1101.302 446.464 L 1101.302 446.464 Q 1101.682 446.005 1101.844 445.414 L 1101.844 445.414 L 1101.844 445.414 Q 1102.005 444.823 1102.005 443.583 L 1102.005 443.583 L 1102.005 435.819 L 1105.598 435.819 L 1105.598 443.964 L 1105.598 443.964 Q 1105.598 447.245 1103.723 448.944 L 1103.723 448.944 L 1103.723 448.944 Q 1101.848 450.644 1098.206 450.644 L 1098.206 450.644 L 1098.206 450.644 Q 1094.573 450.644 1092.698 448.944 L 1092.698 448.944 L 1092.698 448.944 Q 1090.823 447.245 1090.823 443.964 L 1090.823 443.964 L 1090.823 435.819 L 1090.823 435.819 Z  M 1108.255 445.566 L 1108.255 445.263 L 1111.956 445.263 L 1111.956 445.399 L 1111.956 445.399 Q 1111.956 446.62 1113.03 447.26 L 1113.03 447.26 L 1113.03 447.26 Q 1114.104 447.899 1116.155 447.899 L 1116.155 447.899 L 1116.155 447.899 Q 1117.737 447.899 1118.596 447.436 L 1118.596 447.436 L 1118.596 447.436 Q 1119.456 446.972 1119.456 446.122 L 1119.456 446.122 L 1119.456 446.122 Q 1119.456 445.409 1118.894 445.072 L 1118.894 445.072 L 1118.894 445.072 Q 1118.333 444.735 1116.624 444.56 L 1116.624 444.56 L 1114.055 444.306 L 1114.055 444.306 Q 1111.243 444.013 1109.92 443.026 L 1109.92 443.026 L 1109.92 443.026 Q 1108.596 442.04 1108.596 440.243 L 1108.596 440.243 L 1108.596 440.243 Q 1108.596 438.114 1110.506 436.776 L 1110.506 436.776 L 1110.506 436.776 Q 1112.415 435.439 1115.559 435.439 L 1115.559 435.439 L 1115.559 435.439 Q 1118.938 435.439 1120.847 436.698 L 1120.847 436.698 L 1120.847 436.698 Q 1122.757 437.958 1122.757 440.146 L 1122.757 440.146 L 1122.757 440.263 L 1119.163 440.263 L 1119.163 440.263 Q 1119.036 439.179 1118.152 438.642 L 1118.152 438.642 L 1118.152 438.642 Q 1117.268 438.105 1115.618 438.105 L 1115.618 438.105 L 1115.618 438.105 Q 1114.095 438.105 1113.255 438.539 L 1113.255 438.539 L 1113.255 438.539 Q 1112.415 438.974 1112.415 439.765 L 1112.415 439.765 L 1112.415 439.765 Q 1112.415 440.399 1112.908 440.692 L 1112.908 440.692 L 1112.908 440.692 Q 1113.401 440.985 1115.335 441.2 L 1115.335 441.2 L 1118.02 441.483 L 1118.02 441.483 Q 1120.794 441.786 1122.097 442.816 L 1122.097 442.816 L 1122.097 442.816 Q 1123.401 443.847 1123.401 445.722 L 1123.401 445.722 L 1123.401 445.722 Q 1123.401 448.134 1121.443 449.389 L 1121.443 449.389 L 1121.443 449.389 Q 1119.485 450.644 1115.716 450.644 L 1115.716 450.644 L 1115.716 450.644 Q 1112.122 450.644 1110.188 449.325 L 1110.188 449.325 L 1110.188 449.325 Q 1108.255 448.007 1108.255 445.566 L 1108.255 445.566 L 1108.255 445.566 Z  M 1006.468 444.999 L 1006.468 444.999 L 1006.468 444.999 Q 1006.468 443.612 1005.608 442.777 L 1005.608 442.777 L 1005.608 442.777 Q 1004.749 441.942 1003.313 441.942 L 1003.313 441.942 L 1003.313 441.942 Q 1001.858 441.942 1001.004 442.773 L 1001.004 442.773 L 1001.004 442.773 Q 1000.149 443.603 1000.149 445.019 L 1000.149 445.019 L 1000.149 445.019 Q 1000.149 446.425 1001.009 447.255 L 1001.009 447.255 L 1001.009 447.255 Q 1001.868 448.085 1003.313 448.085 L 1003.313 448.085 L 1003.313 448.085 Q 1004.749 448.085 1005.608 447.24 L 1005.608 447.24 L 1005.608 447.24 Q 1006.468 446.396 1006.468 444.999 Z  M 1006.468 440.741 L 1006.468 440.741 L 1006.468 435.819 L 1009.807 435.819 L 1009.807 450.263 L 1006.468 450.263 L 1006.468 449.267 L 1006.468 449.267 Q 1005.774 449.96 1004.842 450.292 L 1004.842 450.292 L 1004.842 450.292 Q 1003.909 450.624 1002.649 450.624 L 1002.649 450.624 L 1002.649 450.624 Q 999.944 450.624 998.25 449.052 L 998.25 449.052 L 998.25 449.052 Q 996.555 447.48 996.555 444.98 L 996.555 444.98 L 996.555 444.98 Q 996.555 442.46 998.255 440.902 L 998.255 440.902 L 998.255 440.902 Q 999.954 439.345 1002.708 439.345 L 1002.708 439.345 L 1002.708 439.345 Q 1003.938 439.345 1004.876 439.691 L 1004.876 439.691 L 1004.876 439.691 Q 1005.813 440.038 1006.468 440.741 Z  M 1015.716 443.495 L 1015.716 443.495 L 1021.106 443.505 L 1021.106 443.505 Q 1021.018 442.499 1020.296 441.923 L 1020.296 441.923 L 1020.296 441.923 Q 1019.573 441.347 1018.411 441.347 L 1018.411 441.347 L 1018.411 441.347 Q 1017.259 441.347 1016.531 441.928 L 1016.531 441.928 L 1016.531 441.928 Q 1015.804 442.509 1015.716 443.495 Z  M 1020.95 446.767 L 1024.632 446.767 L 1024.632 446.767 Q 1023.968 448.622 1022.327 449.633 L 1022.327 449.633 L 1022.327 449.633 Q 1020.686 450.644 1018.333 450.644 L 1018.333 450.644 L 1018.333 450.644 Q 1015.345 450.644 1013.601 449.086 L 1013.601 449.086 L 1013.601 449.086 Q 1011.858 447.528 1011.858 444.862 L 1011.858 444.862 L 1011.858 444.862 Q 1011.858 442.196 1013.596 440.649 L 1013.596 440.649 L 1013.596 440.649 Q 1015.335 439.101 1018.333 439.101 L 1018.333 439.101 L 1018.333 439.101 Q 1021.448 439.101 1023.133 440.707 L 1023.133 440.707 L 1023.133 440.707 Q 1024.817 442.314 1024.817 445.282 L 1024.817 445.282 L 1024.817 445.741 L 1015.618 445.741 L 1015.618 445.741 Q 1015.647 446.923 1016.385 447.621 L 1016.385 447.621 L 1016.385 447.621 Q 1017.122 448.319 1018.333 448.319 L 1018.333 448.319 L 1018.333 448.319 Q 1019.28 448.319 1019.964 447.914 L 1019.964 447.914 L 1019.964 447.914 Q 1020.647 447.509 1020.95 446.767 L 1020.95 446.767 L 1020.95 446.767 Z  M 887.19 445.263 L 887.19 444.325 L 890.628 444.325 L 890.628 444.98 L 890.628 444.98 Q 890.628 446.337 891.131 447.021 L 891.131 447.021 L 891.131 447.021 Q 891.634 447.704 892.63 447.704 L 892.63 447.704 L 892.63 447.704 Q 893.772 447.704 894.241 446.991 L 894.241 446.991 L 894.241 446.991 Q 894.71 446.278 894.71 444.325 L 894.71 444.325 L 894.71 435.819 L 898.304 435.819 L 898.304 444.062 L 898.304 444.062 Q 898.304 446.015 898.152 446.845 L 898.152 446.845 L 898.152 446.845 Q 898.001 447.675 897.63 448.28 L 897.63 448.28 L 897.63 448.28 Q 896.927 449.433 895.677 450.038 L 895.677 450.038 L 895.677 450.038 Q 894.427 450.644 892.747 450.644 L 892.747 450.644 L 892.747 450.644 Q 889.895 450.644 888.543 449.335 L 888.543 449.335 L 888.543 449.335 Q 887.19 448.026 887.19 445.263 L 887.19 445.263 L 887.19 445.263 Z  M 905.188 445.585 L 905.188 445.585 L 912.132 439.198 L 912.132 439.198 Q 911.487 438.798 910.784 438.603 L 910.784 438.603 L 910.784 438.603 Q 910.081 438.407 909.29 438.407 L 909.29 438.407 L 909.29 438.407 Q 907.122 438.407 905.867 439.648 L 905.867 439.648 L 905.867 439.648 Q 904.612 440.888 904.612 443.046 L 904.612 443.046 L 904.612 443.046 Q 904.612 443.847 904.754 444.467 L 904.754 444.467 L 904.754 444.467 Q 904.895 445.087 905.188 445.585 Z  M 913.372 440.526 L 913.372 440.526 L 906.468 446.903 L 906.468 446.903 Q 907.005 447.274 907.727 447.47 L 907.727 447.47 L 907.727 447.47 Q 908.45 447.665 909.29 447.665 L 909.29 447.665 L 909.29 447.665 Q 911.468 447.665 912.708 446.435 L 912.708 446.435 L 912.708 446.435 Q 913.948 445.204 913.948 443.046 L 913.948 443.046 L 913.948 443.046 Q 913.948 442.265 913.802 441.62 L 913.802 441.62 L 913.802 441.62 Q 913.655 440.976 913.372 440.526 Z  M 900.745 449.745 L 902.483 448.105 L 902.483 448.105 Q 901.546 447.069 901.087 445.819 L 901.087 445.819 L 901.087 445.819 Q 900.628 444.569 900.628 443.046 L 900.628 443.046 L 900.628 443.046 Q 900.628 439.579 902.981 437.509 L 902.981 437.509 L 902.981 437.509 Q 905.335 435.439 909.29 435.439 L 909.29 435.439 L 909.29 435.439 Q 910.882 435.439 912.249 435.795 L 912.249 435.795 L 912.249 435.795 Q 913.616 436.151 914.651 436.825 L 914.651 436.825 L 916.526 435.107 L 917.786 436.444 L 916.087 438.026 L 916.087 438.026 Q 916.995 438.983 917.464 440.248 L 917.464 440.248 L 917.464 440.248 Q 917.932 441.513 917.932 443.046 L 917.932 443.046 L 917.932 443.046 Q 917.932 446.513 915.589 448.578 L 915.589 448.578 L 915.589 448.578 Q 913.245 450.644 909.29 450.644 L 909.29 450.644 L 909.29 450.644 Q 907.679 450.644 906.302 450.287 L 906.302 450.287 L 906.302 450.287 Q 904.925 449.931 903.929 449.267 L 903.929 449.267 L 901.927 451.122 L 900.745 449.745 L 900.745 449.745 Z  M 924.036 438.7 L 924.036 441.982 L 928.128 441.982 L 928.128 441.982 Q 929.749 441.982 930.408 441.586 L 930.408 441.586 L 930.408 441.586 Q 931.067 441.191 931.067 440.282 L 931.067 440.282 L 931.067 440.282 Q 931.067 439.403 930.452 439.052 L 930.452 439.052 L 930.452 439.052 Q 929.837 438.7 927.971 438.7 L 927.971 438.7 L 924.036 438.7 L 924.036 438.7 Z  M 924.036 450.263 L 920.413 450.263 L 920.413 435.819 L 929.29 435.819 L 929.29 435.819 Q 932.18 435.819 933.548 436.767 L 933.548 436.767 L 933.548 436.767 Q 934.915 437.714 934.915 439.706 L 934.915 439.706 L 934.915 439.706 Q 934.915 440.976 934.275 441.952 L 934.275 441.952 L 934.275 441.952 Q 933.636 442.929 932.513 443.358 L 932.513 443.358 L 932.513 443.358 Q 933.47 443.759 933.855 444.35 L 933.855 444.35 L 933.855 444.35 Q 934.241 444.941 934.309 446.435 L 934.309 446.435 L 934.309 446.435 Q 934.319 446.581 934.329 446.835 L 934.329 446.835 L 934.329 446.835 Q 934.446 449.521 935.091 450.263 L 935.091 450.263 L 931.028 450.263 L 931.028 450.263 Q 930.882 450.028 930.808 449.745 L 930.808 449.745 L 930.808 449.745 Q 930.735 449.462 930.735 449.14 L 930.735 449.14 L 930.735 448.163 L 930.735 448.163 Q 930.735 446.171 930.222 445.556 L 930.222 445.556 L 930.222 445.556 Q 929.71 444.941 928.216 444.941 L 928.216 444.941 L 928.128 444.941 L 924.036 444.941 L 924.036 450.263 L 924.036 450.263 Z  M 950.755 450.263 L 950.55 448.642 L 950.55 448.642 Q 949.514 449.648 948.191 450.146 L 948.191 450.146 L 948.191 450.146 Q 946.868 450.644 945.208 450.644 L 945.208 450.644 L 945.208 450.644 Q 943.538 450.644 942.044 450.175 L 942.044 450.175 L 942.044 450.175 Q 940.55 449.706 939.446 448.847 L 939.446 448.847 L 939.446 448.847 Q 938.089 447.773 937.42 446.342 L 937.42 446.342 L 937.42 446.342 Q 936.751 444.911 936.751 443.046 L 936.751 443.046 L 936.751 443.046 Q 936.751 439.579 939.104 437.509 L 939.104 437.509 L 939.104 437.509 Q 941.458 435.439 945.413 435.439 L 945.413 435.439 L 945.413 435.439 Q 948.753 435.439 950.979 436.928 L 950.979 436.928 L 950.979 436.928 Q 953.206 438.417 953.528 440.819 L 953.528 440.819 L 949.593 440.819 L 949.593 440.819 Q 949.095 439.608 948.054 439.008 L 948.054 439.008 L 948.054 439.008 Q 947.014 438.407 945.413 438.407 L 945.413 438.407 L 945.413 438.407 Q 943.245 438.407 941.99 439.648 L 941.99 439.648 L 941.99 439.648 Q 940.735 440.888 940.735 443.046 L 940.735 443.046 L 940.735 443.046 Q 940.735 445.194 941.985 446.43 L 941.985 446.43 L 941.985 446.43 Q 943.235 447.665 945.413 447.665 L 945.413 447.665 L 945.413 447.665 Q 946.897 447.665 948.02 447.03 L 948.02 447.03 L 948.02 447.03 Q 949.143 446.396 949.651 445.282 L 949.651 445.282 L 946.37 445.282 L 946.37 442.401 L 953.489 442.401 L 953.489 450.263 L 950.755 450.263 L 950.755 450.263 Z  M 969.475 450.263 L 956.653 450.263 L 956.653 435.819 L 969.475 435.819 L 969.475 438.739 L 960.276 438.739 L 960.276 441.181 L 968.47 441.181 L 968.47 444.12 L 960.276 444.12 L 960.276 447.226 L 969.475 447.226 L 969.475 450.263 L 969.475 450.263 Z  M 975.286 450.263 L 971.829 450.263 L 971.829 435.819 L 976.272 435.819 L 983.489 446.005 L 983.489 435.819 L 986.966 435.819 L 986.966 450.263 L 982.571 450.263 L 975.286 439.98 L 975.286 450.263 L 975.286 450.263 Z  M 772.62 432.538 L 772.62 432.538 L 773.108 432.538 L 773.108 432.538 Q 773.816 432.538 774.402 437.738 L 774.402 437.738 L 774.402 437.909 L 774.402 437.909 Q 773.474 443.268 772.62 443.268 L 772.62 443.268 L 772.62 443.268 Q 770.667 445.575 770.667 446.527 L 770.667 446.527 L 770.667 446.845 L 770.984 449.128 L 770.825 450.263 L 770.667 450.263 L 770.667 450.263 Q 769.812 450.263 769.202 446.527 L 769.202 446.527 L 768.714 446.527 L 768.714 446.527 Q 767.871 446.527 767.737 446.039 L 767.737 446.039 L 767.737 446.039 Q 770.008 444.892 770.008 443.439 L 770.008 443.439 L 770.008 443.439 Q 771.363 432.538 772.62 432.538 Z  M 771.314 442.78 L 771.314 442.78 L 771.314 442.78 Q 773.267 441.462 773.267 438.715 L 773.267 438.715 L 773.426 435.956 L 773.267 435.797 L 773.108 435.797 L 773.108 435.797 Q 772.254 435.797 771.314 442.78 Z  M 775.22 441.974 L 775.22 441.974 L 775.22 441.974 Q 776.197 442.292 776.197 442.78 L 776.197 442.78 L 776.197 442.78 Q 776.197 443.634 773.596 444.403 L 773.596 444.403 L 773.267 445.38 L 773.267 446.039 L 773.267 446.039 Q 776.685 446.564 776.685 447.174 L 776.685 447.174 L 774.561 447.663 L 774.561 447.663 Q 771.961 447.663 771.961 446.198 L 771.961 446.198 L 771.961 445.551 L 771.961 445.551 Q 771.961 443.268 775.22 441.974 Z  M 782.703 441.803 L 782.703 441.803 L 782.703 441.803 Q 783.679 442.133 783.679 443.598 L 783.679 443.598 L 783.679 444.245 L 783.838 444.245 L 783.838 444.245 Q 784.729 444.245 786.609 443.439 L 786.609 443.439 L 786.768 443.598 L 786.768 444.086 L 786.768 444.086 Q 786.731 444.77 783.679 445.551 L 783.679 445.551 L 783.679 445.551 Q 783.35 447.174 781.568 448.957 L 781.568 448.957 L 781.568 448.957 Q 780.103 450.263 778.955 450.263 L 778.955 450.263 L 777.991 450.263 L 777.991 450.263 Q 776.929 449.726 776.685 448.639 L 776.685 448.639 L 776.685 448.639 Q 777.552 445.063 778.479 445.063 L 778.479 445.063 L 778.479 445.063 Q 779.285 444.086 780.262 444.086 L 780.262 444.086 L 780.42 444.245 L 780.42 444.574 L 780.42 444.574 Q 778.15 446.637 778.15 448.151 L 778.15 448.151 L 778.15 448.798 L 778.308 448.957 L 778.797 449.128 L 778.797 449.286 L 778.797 449.286 Q 780.603 449.286 782.373 445.868 L 782.373 445.868 L 782.544 444.892 L 782.544 444.892 Q 781.568 443.463 781.568 442.951 L 781.568 442.951 L 781.568 442.951 Q 781.568 442.34 782.703 441.803 Z  M 791.797 442.292 L 791.797 442.292 L 791.797 442.292 Q 792.993 442.292 793.103 447.663 L 793.103 447.663 L 793.103 447.663 Q 793.701 448.151 794.239 448.151 L 794.239 448.151 L 797.327 446.686 L 797.657 446.686 L 797.657 446.845 L 797.657 446.845 Q 796.912 448.346 793.433 449.933 L 793.433 449.933 L 793.433 449.933 Q 792.676 449.933 791.638 448.151 L 791.638 448.151 L 791.48 444.245 L 791.321 444.086 L 791.321 444.086 Q 790.869 444.086 789.197 447.174 L 789.197 447.174 L 789.197 447.174 Q 787.805 450.263 786.597 450.263 L 786.597 450.263 L 786.28 450.263 L 786.28 450.263 Q 785.462 449.811 785.462 447.992 L 785.462 447.992 L 785.462 447.992 Q 785.462 446.54 786.438 444.086 L 786.438 444.086 L 786.438 444.086 Q 787.256 444.306 787.256 445.221 L 787.256 445.221 L 787.085 447.992 L 787.085 447.992 Q 788.062 447.235 790.174 443.268 L 790.174 443.268 L 790.174 443.268 Q 791.162 442.292 791.797 442.292 Z  M 803.675 432.624 L 803.833 432.624 L 803.833 432.624 Q 807.044 433.173 807.044 434.626 L 807.044 434.626 L 807.044 434.845 L 807.044 434.845 Q 806.568 436.176 805.762 436.176 L 805.762 436.176 L 804.773 435.944 L 805.481 434.772 L 805.481 434.662 L 805.481 434.662 Q 805.164 433.588 803.418 433.857 L 803.418 433.857 L 803.418 433.857 Q 800.855 434.54 800.22 436.139 L 800.22 436.139 L 800.22 436.139 Q 799.768 436.628 799.683 437.836 L 799.683 437.836 L 799.488 439.655 L 799.549 439.582 L 799.549 439.582 Q 801.636 438.947 803.833 438.752 L 803.833 438.752 L 803.833 438.752 Q 804.627 438.898 804.627 439.093 L 804.627 439.093 L 804.627 439.948 L 804.627 439.948 Q 800.659 440.351 799.976 440.949 L 799.976 440.949 L 799.488 441.278 L 799.488 441.278 Q 800.782 447.223 803.504 449.25 L 803.504 449.25 L 803.675 449.689 L 802.869 450.263 L 802.393 450.263 L 802.393 450.263 Q 801.868 450.006 797.827 446.247 L 797.827 446.247 L 797.827 446.247 Q 796.265 444.684 796.265 442.804 L 796.265 442.804 L 796.265 442.804 Q 796.363 441.718 798.377 440.497 L 798.377 440.497 L 798.218 439.399 L 798.218 439.399 Q 798.218 436.53 799.976 434.406 L 799.976 434.406 L 799.976 434.406 Q 799.976 433.503 803.675 432.624 L 803.675 432.624 L 803.675 432.624 Z  M 797.73 443.671 L 797.73 443.671 L 797.73 443.671 Q 797.73 444.672 800.135 447.052 L 800.135 447.052 L 800.464 447.052 L 800.464 447.052 Q 799.817 446.222 798.694 442.157 L 798.694 442.157 L 798.694 442.157 Q 797.73 442.524 797.73 443.671 Z  M 811.011 441.608 L 811.011 441.608 L 811.548 441.608 L 812.097 442.145 L 812.097 442.145 Q 812.097 443.781 806.69 447.553 L 806.69 447.553 L 806.69 447.919 L 806.69 447.919 Q 807.471 449.005 809.204 449.005 L 809.204 449.005 L 809.204 449.005 Q 812.11 448.81 814.807 447.199 L 814.807 447.199 L 815.345 447.199 L 815.515 447.748 L 815.515 447.748 Q 812.805 450.092 809.388 450.092 L 809.388 450.092 L 808.838 450.263 L 808.838 450.263 Q 805.237 450.263 805.237 447.553 L 805.237 447.553 L 805.237 447.199 L 805.237 447.199 Q 805.237 443.366 811.011 441.608 Z  M 806.861 445.929 L 806.861 445.929 L 806.861 445.929 Q 808.802 445.282 809.925 443.756 L 809.925 443.756 L 809.925 443.586 L 809.571 443.232 L 809.571 443.232 Q 807.166 444.696 806.861 445.929 Z  M 822.449 440.338 L 822.449 440.338 L 822.644 440.338 L 822.644 440.338 Q 823.511 440.338 825.025 442.133 L 825.025 442.133 L 825.025 442.133 Q 826.429 442.816 826.429 443.708 L 826.429 443.708 L 826.221 443.915 L 825.623 443.915 L 822.852 442.536 L 822.644 442.536 L 822.644 442.536 Q 821.265 446.161 820.471 449.86 L 820.471 449.86 L 819.275 450.263 L 818.677 449.262 L 818.872 449.262 L 818.677 449.066 L 818.677 447.882 L 818.677 447.882 Q 818.677 445.453 817.298 444.709 L 817.298 444.709 L 817.298 444.709 Q 816.162 444.709 815.113 446.894 L 815.113 446.894 L 814.722 446.894 L 814.319 446.491 L 814.319 446.295 L 814.319 446.295 Q 814.319 443.879 817.688 443.109 L 817.688 443.109 L 817.688 443.109 Q 819.873 444.464 819.873 446.491 L 819.873 446.491 L 820.069 446.491 L 820.069 446.491 Q 821.411 440.338 822.449 440.338 Z  M 831.214 441.608 L 831.214 441.608 L 831.751 441.608 L 832.3 442.145 L 832.3 442.145 Q 832.3 443.781 826.892 447.553 L 826.892 447.553 L 826.892 447.919 L 826.892 447.919 Q 827.674 449.005 829.407 449.005 L 829.407 449.005 L 829.407 449.005 Q 832.312 448.81 835.01 447.199 L 835.01 447.199 L 835.547 447.199 L 835.718 447.748 L 835.718 447.748 Q 833.008 450.092 829.59 450.092 L 829.59 450.092 L 829.041 450.263 L 829.041 450.263 Q 825.44 450.263 825.44 447.553 L 825.44 447.553 L 825.44 447.199 L 825.44 447.199 Q 825.44 443.366 831.214 441.608 Z  M 827.063 445.929 L 827.063 445.929 L 827.063 445.929 Q 829.004 445.282 830.127 443.756 L 830.127 443.756 L 830.127 443.586 L 829.773 443.232 L 829.773 443.232 Q 827.368 444.696 827.063 445.929 Z  M 840.857 442.292 L 840.857 442.292 L 840.857 442.292 Q 842.054 442.292 842.163 447.663 L 842.163 447.663 L 842.163 447.663 Q 842.762 448.151 843.299 448.151 L 843.299 448.151 L 846.387 446.686 L 846.717 446.686 L 846.717 446.845 L 846.717 446.845 Q 845.972 448.346 842.493 449.933 L 842.493 449.933 L 842.493 449.933 Q 841.736 449.933 840.699 448.151 L 840.699 448.151 L 840.54 444.245 L 840.381 444.086 L 840.381 444.086 Q 839.929 444.086 838.257 447.174 L 838.257 447.174 L 838.257 447.174 Q 836.866 450.263 835.657 450.263 L 835.657 450.263 L 835.34 450.263 L 835.34 450.263 Q 834.522 449.811 834.522 447.992 L 834.522 447.992 L 834.522 447.992 Q 834.522 446.54 835.498 444.086 L 835.498 444.086 L 835.498 444.086 Q 836.316 444.306 836.316 445.221 L 836.316 445.221 L 836.145 447.992 L 836.145 447.992 Q 837.122 447.235 839.234 443.268 L 839.234 443.268 L 839.234 443.268 Q 840.222 442.292 840.857 442.292 Z  M 849.707 440.876 L 850.782 440.692 L 850.782 440.692 Q 851.99 440.692 852.222 442.499 L 852.222 442.499 L 852.051 442.499 L 851.502 442.694 L 850.611 442.328 L 850.611 442.328 Q 846.814 442.951 846.814 446.662 L 846.814 446.662 L 846.814 447.016 L 846.814 447.016 Q 846.814 448.517 848.438 448.81 L 848.438 448.81 L 848.987 448.81 L 848.987 448.81 Q 852.21 448.81 856.018 445.746 L 856.018 445.746 L 856.385 446.112 L 856.385 446.295 L 856.385 446.295 Q 852.991 450.263 847.901 450.263 L 847.901 450.263 L 847.901 450.263 Q 845.569 450.263 845.191 446.466 L 845.191 446.466 L 845.191 446.466 Q 845.191 442.646 849.707 440.876 L 849.707 440.876 L 849.707 440.876 Z  M 858.081 440.18 L 858.899 439.533 L 859.229 439.533 L 859.876 440.18 L 859.876 440.338 L 859.876 440.338 Q 859.876 441.486 858.741 441.486 L 858.741 441.486 L 858.741 441.486 Q 858.277 441.486 858.081 440.18 L 858.081 440.18 L 858.081 440.18 Z  M 858.081 443.598 L 858.081 443.598 L 858.411 443.598 L 858.411 443.598 Q 859.217 443.598 859.546 448.957 L 859.546 448.957 L 860.205 449.128 L 860.205 449.128 Q 860.913 449.128 862.317 447.992 L 862.317 447.992 L 862.635 447.992 L 862.635 448.151 L 862.635 448.151 Q 862.635 449.884 860.364 450.263 L 860.364 450.263 L 860.364 450.263 Q 858.338 450.263 858.081 447.663 L 858.081 447.663 L 858.081 446.527 L 858.252 446.357 L 858.252 446.357 Q 858.033 445.221 857.764 445.221 L 857.764 445.221 L 857.764 445.221 Q 856.311 448.334 855.652 448.639 L 855.652 448.639 L 855.164 448.639 L 854.834 448.31 L 854.834 448.31 Q 856.678 444.428 858.081 443.598 Z  M 866.883 441.608 L 866.883 441.608 L 867.42 441.608 L 867.969 442.145 L 867.969 442.145 Q 867.969 443.781 862.561 447.553 L 862.561 447.553 L 862.561 447.919 L 862.561 447.919 Q 863.343 449.005 865.076 449.005 L 865.076 449.005 L 865.076 449.005 Q 867.981 448.81 870.679 447.199 L 870.679 447.199 L 871.216 447.199 L 871.387 447.748 L 871.387 447.748 Q 868.677 450.092 865.259 450.092 L 865.259 450.092 L 864.71 450.263 L 864.71 450.263 Q 861.109 450.263 861.109 447.553 L 861.109 447.553 L 861.109 447.199 L 861.109 447.199 Q 861.109 443.366 866.883 441.608 Z  M 862.732 445.929 L 862.732 445.929 L 862.732 445.929 Q 864.673 445.282 865.796 443.756 L 865.796 443.756 L 865.796 443.586 L 865.442 443.232 L 865.442 443.232 Q 863.037 444.696 862.732 445.929 Z  M 878.321 440.338 L 878.321 440.338 L 878.516 440.338 L 878.516 440.338 Q 879.383 440.338 880.896 442.133 L 880.896 442.133 L 880.896 442.133 Q 882.3 442.816 882.3 443.708 L 882.3 443.708 L 882.093 443.915 L 881.494 443.915 L 878.723 442.536 L 878.516 442.536 L 878.516 442.536 Q 877.137 446.161 876.343 449.86 L 876.343 449.86 L 875.147 450.263 L 874.549 449.262 L 874.744 449.262 L 874.549 449.066 L 874.549 447.882 L 874.549 447.882 Q 874.549 445.453 873.169 444.709 L 873.169 444.709 L 873.169 444.709 Q 872.034 444.709 870.984 446.894 L 870.984 446.894 L 870.594 446.894 L 870.191 446.491 L 870.191 446.295 L 870.191 446.295 Q 870.191 443.879 873.56 443.109 L 873.56 443.109 L 873.56 443.109 Q 875.745 444.464 875.745 446.491 L 875.745 446.491 L 875.94 446.491 L 875.94 446.491 Q 877.283 440.338 878.321 440.338 Z  M 700.442 450.263 L 696.878 450.263 L 692.278 435.819 L 696.038 435.819 L 698.919 445.546 L 702.317 435.819 L 705.882 435.819 L 709.163 445.546 L 712.122 435.819 L 715.882 435.819 L 711.204 450.263 L 707.522 450.263 L 704.065 439.745 L 700.442 450.263 L 700.442 450.263 Z  M 720.843 450.263 L 717.22 450.263 L 717.22 435.819 L 720.843 435.819 L 720.843 450.263 L 720.843 450.263 Z  M 724.124 435.819 L 727.727 435.819 L 727.727 443.583 L 727.727 443.583 Q 727.727 445.712 728.626 446.679 L 728.626 446.679 L 728.626 446.679 Q 729.524 447.646 731.507 447.646 L 731.507 447.646 L 731.507 447.646 Q 732.561 447.646 733.343 447.348 L 733.343 447.348 L 733.343 447.348 Q 734.124 447.05 734.602 446.464 L 734.602 446.464 L 734.602 446.464 Q 734.983 446.005 735.144 445.414 L 735.144 445.414 L 735.144 445.414 Q 735.305 444.823 735.305 443.583 L 735.305 443.583 L 735.305 435.819 L 738.899 435.819 L 738.899 443.964 L 738.899 443.964 Q 738.899 447.245 737.024 448.944 L 737.024 448.944 L 737.024 448.944 Q 735.149 450.644 731.507 450.644 L 731.507 450.644 L 731.507 450.644 Q 727.874 450.644 725.999 448.944 L 725.999 448.944 L 725.999 448.944 Q 724.124 447.245 724.124 443.964 L 724.124 443.964 L 724.124 435.819 L 724.124 435.819 Z  M 745.638 450.263 L 742.161 450.263 L 742.161 435.819 L 746.839 435.819 L 751.497 446.161 L 756.282 435.819 L 760.921 435.819 L 760.921 450.263 L 757.444 450.263 L 757.444 440.624 L 752.962 450.263 L 749.944 450.263 L 745.638 440.458 L 745.638 450.263 L 745.638 450.263 Z  M 642.18 438.778 L 642.18 442.821 L 645.501 442.821 L 645.501 442.821 Q 647.327 442.821 648.059 442.358 L 648.059 442.358 L 648.059 442.358 Q 648.792 441.894 648.792 440.8 L 648.792 440.8 L 648.792 440.8 Q 648.792 439.677 648.157 439.228 L 648.157 439.228 L 648.157 439.228 Q 647.522 438.778 645.735 438.778 L 645.735 438.778 L 642.18 438.778 L 642.18 438.778 Z  M 642.18 450.263 L 638.557 450.263 L 638.557 435.819 L 647.112 435.819 L 647.112 435.819 Q 649.632 435.819 651.043 437.123 L 651.043 437.123 L 651.043 437.123 Q 652.454 438.427 652.454 440.741 L 652.454 440.741 L 652.454 440.741 Q 652.454 443.056 651.043 444.35 L 651.043 444.35 L 651.043 444.35 Q 649.632 445.644 647.112 445.644 L 647.112 445.644 L 642.18 445.644 L 642.18 450.263 L 642.18 450.263 Z  M 667.444 450.263 L 654.622 450.263 L 654.622 435.819 L 667.444 435.819 L 667.444 438.739 L 658.245 438.739 L 658.245 441.181 L 666.438 441.181 L 666.438 444.12 L 658.245 444.12 L 658.245 447.226 L 667.444 447.226 L 667.444 450.263 L 667.444 450.263 Z  M 673.421 438.7 L 673.421 441.982 L 677.513 441.982 L 677.513 441.982 Q 679.134 441.982 679.793 441.586 L 679.793 441.586 L 679.793 441.586 Q 680.452 441.191 680.452 440.282 L 680.452 440.282 L 680.452 440.282 Q 680.452 439.403 679.837 439.052 L 679.837 439.052 L 679.837 439.052 Q 679.221 438.7 677.356 438.7 L 677.356 438.7 L 673.421 438.7 L 673.421 438.7 Z  M 673.421 450.263 L 669.798 450.263 L 669.798 435.819 L 678.675 435.819 L 678.675 435.819 Q 681.565 435.819 682.932 436.767 L 682.932 436.767 L 682.932 436.767 Q 684.3 437.714 684.3 439.706 L 684.3 439.706 L 684.3 439.706 Q 684.3 440.976 683.66 441.952 L 683.66 441.952 L 683.66 441.952 Q 683.02 442.929 681.897 443.358 L 681.897 443.358 L 681.897 443.358 Q 682.854 443.759 683.24 444.35 L 683.24 444.35 L 683.24 444.35 Q 683.626 444.941 683.694 446.435 L 683.694 446.435 L 683.694 446.435 Q 683.704 446.581 683.714 446.835 L 683.714 446.835 L 683.714 446.835 Q 683.831 449.521 684.475 450.263 L 684.475 450.263 L 680.413 450.263 L 680.413 450.263 Q 680.266 450.028 680.193 449.745 L 680.193 449.745 L 680.193 449.745 Q 680.12 449.462 680.12 449.14 L 680.12 449.14 L 680.12 448.163 L 680.12 448.163 Q 680.12 446.171 679.607 445.556 L 679.607 445.556 L 679.607 445.556 Q 679.095 444.941 677.6 444.941 L 677.6 444.941 L 677.513 444.941 L 673.421 444.941 L 673.421 450.263 L 673.421 450.263 Z " fill="rgb(0,0,0)"/><path d=" M 969.816 364.854 L 966.679 364.854 L 966.679 374.698 L 969.816 374.698 L 969.816 374.698 Q 971.838 374.698 972.844 373.419 L 972.844 373.419 L 972.844 373.419 Q 973.85 372.14 973.85 369.548 L 973.85 369.548 L 973.85 369.548 Q 973.85 367.306 972.791 366.08 L 972.791 366.08 L 972.791 366.08 Q 971.732 364.854 969.816 364.854 L 969.816 364.854 L 969.816 364.854 Z  M 964.921 376.28 L 964.921 363.334 L 969.957 363.334 L 969.957 363.334 Q 972.717 363.334 974.18 364.951 L 974.18 364.951 L 974.18 364.951 Q 975.643 366.568 975.643 369.618 L 975.643 369.618 L 975.643 369.618 Q 975.643 372.764 974.132 374.522 L 974.132 374.522 L 974.132 374.522 Q 972.62 376.28 969.904 376.28 L 969.904 376.28 L 964.921 376.28 L 964.921 376.28 Z  M 984.67 370.919 L 982.508 365.083 L 980.31 370.919 L 984.67 370.919 L 984.67 370.919 Z  M 976.443 376.28 L 981.532 363.334 L 983.501 363.334 L 988.572 376.28 L 986.63 376.28 L 985.206 372.413 L 979.757 372.413 L 978.28 376.28 L 976.443 376.28 L 976.443 376.28 Z  M 989.89 376.28 L 989.89 363.334 L 991.815 363.334 L 997.862 372.738 L 997.862 372.738 Q 998.091 373.098 998.227 373.349 L 998.227 373.349 L 998.227 373.349 Q 998.363 373.599 998.46 373.828 L 998.46 373.828 L 998.46 363.334 L 1000.13 363.334 L 1000.13 376.28 L 998.222 376.28 L 992.044 366.761 L 992.044 366.761 Q 991.912 366.559 991.798 366.326 L 991.798 366.326 L 991.798 366.326 Q 991.683 366.093 991.56 365.786 L 991.56 365.786 L 991.56 376.28 L 989.89 376.28 L 989.89 376.28 Z  M 1013.709 367.245 L 1013.709 367.245 L 1011.977 367.245 L 1011.977 367.245 Q 1011.731 365.962 1010.795 365.263 L 1010.795 365.263 L 1010.795 365.263 Q 1009.859 364.564 1008.374 364.564 L 1008.374 364.564 L 1008.374 364.564 Q 1006.361 364.564 1005.254 365.944 L 1005.254 365.944 L 1005.254 365.944 Q 1004.146 367.324 1004.146 369.838 L 1004.146 369.838 L 1004.146 369.838 Q 1004.146 372.193 1005.293 373.634 L 1005.293 373.634 L 1005.293 373.634 Q 1006.44 375.076 1008.321 375.076 L 1008.321 375.076 L 1008.321 375.076 Q 1009.956 375.076 1010.997 374.087 L 1010.997 374.087 L 1010.997 374.087 Q 1012.039 373.098 1012.1 371.472 L 1012.1 371.472 L 1013.814 371.472 L 1013.814 371.472 Q 1013.718 373.801 1012.193 375.221 L 1012.193 375.221 L 1012.193 375.221 Q 1010.668 376.64 1008.268 376.64 L 1008.268 376.64 L 1008.268 376.64 Q 1005.535 376.64 1003.94 374.79 L 1003.94 374.79 L 1003.94 374.79 Q 1002.345 372.94 1002.345 369.767 L 1002.345 369.767 L 1002.345 369.767 Q 1002.345 366.63 1003.979 364.815 L 1003.979 364.815 L 1003.979 364.815 Q 1005.614 363 1008.453 363 L 1008.453 363 L 1008.453 363 Q 1010.65 363 1012.074 364.151 L 1012.074 364.151 L 1012.074 364.151 Q 1013.498 365.302 1013.709 367.245 Z  M 1015.959 376.28 L 1015.959 363.334 L 1025.574 363.334 L 1025.574 364.942 L 1017.708 364.942 L 1017.708 368.809 L 1024.959 368.809 L 1024.959 370.321 L 1017.708 370.321 L 1017.708 374.663 L 1025.732 374.663 L 1025.732 376.28 L 1015.959 376.28 L 1015.959 376.28 Z  M 928.666 370.919 L 926.504 365.083 L 924.306 370.919 L 928.666 370.919 L 928.666 370.919 Z  M 920.439 376.28 L 925.528 363.334 L 927.497 363.334 L 932.568 376.28 L 930.626 376.28 L 929.202 372.413 L 923.753 372.413 L 922.276 376.28 L 920.439 376.28 L 920.439 376.28 Z  M 933.887 376.28 L 933.887 363.334 L 935.811 363.334 L 941.858 372.738 L 941.858 372.738 Q 942.087 373.098 942.223 373.349 L 942.223 373.349 L 942.223 373.349 Q 942.359 373.599 942.456 373.828 L 942.456 373.828 L 942.456 363.334 L 944.126 363.334 L 944.126 376.28 L 942.219 376.28 L 936.04 366.761 L 936.04 366.761 Q 935.908 366.559 935.794 366.326 L 935.794 366.326 L 935.794 366.326 Q 935.679 366.093 935.556 365.786 L 935.556 365.786 L 935.556 376.28 L 933.887 376.28 L 933.887 376.28 Z  M 951.816 364.854 L 948.679 364.854 L 948.679 374.698 L 951.816 374.698 L 951.816 374.698 Q 953.838 374.698 954.844 373.419 L 954.844 373.419 L 954.844 373.419 Q 955.85 372.14 955.85 369.548 L 955.85 369.548 L 955.85 369.548 Q 955.85 367.306 954.791 366.08 L 954.791 366.08 L 954.791 366.08 Q 953.732 364.854 951.816 364.854 L 951.816 364.854 L 951.816 364.854 Z  M 946.921 376.28 L 946.921 363.334 L 951.957 363.334 L 951.957 363.334 Q 954.717 363.334 956.18 364.951 L 956.18 364.951 L 956.18 364.951 Q 957.643 366.568 957.643 369.618 L 957.643 369.618 L 957.643 369.618 Q 957.643 372.764 956.132 374.522 L 956.132 374.522 L 956.132 374.522 Q 954.62 376.28 951.904 376.28 L 951.904 376.28 L 946.921 376.28 L 946.921 376.28 Z  M 852.807 364.854 L 849.67 364.854 L 849.67 374.698 L 852.807 374.698 L 852.807 374.698 Q 854.829 374.698 855.835 373.419 L 855.835 373.419 L 855.835 373.419 Q 856.842 372.14 856.842 369.548 L 856.842 369.548 L 856.842 369.548 Q 856.842 367.306 855.783 366.08 L 855.783 366.08 L 855.783 366.08 Q 854.723 364.854 852.807 364.854 L 852.807 364.854 L 852.807 364.854 Z  M 847.912 376.28 L 847.912 363.334 L 852.948 363.334 L 852.948 363.334 Q 855.708 363.334 857.171 364.951 L 857.171 364.951 L 857.171 364.951 Q 858.635 366.568 858.635 369.618 L 858.635 369.618 L 858.635 369.618 Q 858.635 372.764 857.123 374.522 L 857.123 374.522 L 857.123 374.522 Q 855.611 376.28 852.895 376.28 L 852.895 376.28 L 847.912 376.28 L 847.912 376.28 Z  M 861.104 376.28 L 861.104 363.334 L 862.871 363.334 L 862.871 376.28 L 861.104 376.28 L 861.104 376.28 Z  M 865.877 376.28 L 865.877 363.334 L 867.802 363.334 L 873.848 372.738 L 873.848 372.738 Q 874.077 373.098 874.213 373.349 L 874.213 373.349 L 874.213 373.349 Q 874.349 373.599 874.446 373.828 L 874.446 373.828 L 874.446 363.334 L 876.116 363.334 L 876.116 376.28 L 874.209 376.28 L 868.03 366.761 L 868.03 366.761 Q 867.898 366.559 867.784 366.326 L 867.784 366.326 L 867.784 366.326 Q 867.67 366.093 867.547 365.786 L 867.547 365.786 L 867.547 376.28 L 865.877 376.28 L 865.877 376.28 Z  M 878.876 376.28 L 878.876 363.334 L 880.801 363.334 L 886.847 372.738 L 886.847 372.738 Q 887.076 373.098 887.212 373.349 L 887.212 373.349 L 887.212 373.349 Q 887.348 373.599 887.445 373.828 L 887.445 373.828 L 887.445 363.334 L 889.115 363.334 L 889.115 376.28 L 887.208 376.28 L 881.029 366.761 L 881.029 366.761 Q 880.897 366.559 880.783 366.326 L 880.783 366.326 L 880.783 366.326 Q 880.669 366.093 880.546 365.786 L 880.546 365.786 L 880.546 376.28 L 878.876 376.28 L 878.876 376.28 Z  M 891.945 376.28 L 891.945 363.334 L 901.56 363.334 L 901.56 364.942 L 893.694 364.942 L 893.694 368.809 L 900.945 368.809 L 900.945 370.321 L 893.694 370.321 L 893.694 374.663 L 901.719 374.663 L 901.719 376.28 L 891.945 376.28 L 891.945 376.28 Z  M 909.172 364.872 L 905.788 364.872 L 905.788 369.24 L 909.172 369.24 L 909.172 369.24 Q 910.973 369.24 911.738 368.708 L 911.738 368.708 L 911.738 368.708 Q 912.503 368.176 912.503 366.955 L 912.503 366.955 L 912.503 366.955 Q 912.503 365.865 911.804 365.368 L 911.804 365.368 L 911.804 365.368 Q 911.105 364.872 909.532 364.872 L 909.532 364.872 L 909.172 364.872 L 909.172 364.872 Z  M 904.021 376.28 L 904.021 363.334 L 909.479 363.334 L 909.479 363.334 Q 909.725 363.334 909.989 363.347 L 909.989 363.347 L 909.989 363.347 Q 910.253 363.36 910.27 363.36 L 910.27 363.36 L 910.27 363.36 Q 912.169 363.36 913.254 364.283 L 913.254 364.283 L 913.254 364.283 Q 914.34 365.206 914.34 366.814 L 914.34 366.814 L 914.34 366.814 Q 914.34 367.948 913.878 368.686 L 913.878 368.686 L 913.878 368.686 Q 913.417 369.425 912.424 369.873 L 912.424 369.873 L 912.424 369.873 Q 913.223 370.093 913.562 370.572 L 913.562 370.572 L 913.562 370.572 Q 913.9 371.051 913.997 372.281 L 913.997 372.281 L 914.155 374.408 L 914.155 374.408 Q 914.199 375.058 914.348 375.405 L 914.348 375.405 L 914.348 375.405 Q 914.498 375.753 914.805 375.902 L 914.805 375.902 L 914.805 376.28 L 912.731 376.28 L 912.731 376.28 Q 912.468 375.858 912.371 374.549 L 912.371 374.549 L 912.371 374.496 L 912.248 372.808 L 912.248 372.808 Q 912.151 371.499 911.615 371.116 L 911.615 371.116 L 911.615 371.116 Q 911.079 370.734 909.365 370.734 L 909.365 370.734 L 909.005 370.734 L 905.788 370.734 L 905.788 376.28 L 904.021 376.28 L 904.021 376.28 Z  M 762.939 376.28 L 762.939 363.334 L 772.045 363.334 L 772.045 364.96 L 764.723 364.96 L 764.723 368.844 L 771.113 368.844 L 771.113 370.426 L 764.723 370.426 L 764.723 376.28 L 762.939 376.28 L 762.939 376.28 Z  M 779.155 364.872 L 775.771 364.872 L 775.771 369.24 L 779.155 369.24 L 779.155 369.24 Q 780.957 369.24 781.721 368.708 L 781.721 368.708 L 781.721 368.708 Q 782.486 368.176 782.486 366.955 L 782.486 366.955 L 782.486 366.955 Q 782.486 365.865 781.787 365.368 L 781.787 365.368 L 781.787 365.368 Q 781.089 364.872 779.515 364.872 L 779.515 364.872 L 779.155 364.872 L 779.155 364.872 Z  M 774.005 376.28 L 774.005 363.334 L 779.463 363.334 L 779.463 363.334 Q 779.709 363.334 779.972 363.347 L 779.972 363.347 L 779.972 363.347 Q 780.236 363.36 780.254 363.36 L 780.254 363.36 L 780.254 363.36 Q 782.152 363.36 783.238 364.283 L 783.238 364.283 L 783.238 364.283 Q 784.323 365.206 784.323 366.814 L 784.323 366.814 L 784.323 366.814 Q 784.323 367.948 783.862 368.686 L 783.862 368.686 L 783.862 368.686 Q 783.4 369.425 782.407 369.873 L 782.407 369.873 L 782.407 369.873 Q 783.207 370.093 783.545 370.572 L 783.545 370.572 L 783.545 370.572 Q 783.884 371.051 783.98 372.281 L 783.98 372.281 L 784.138 374.408 L 784.138 374.408 Q 784.182 375.058 784.332 375.405 L 784.332 375.405 L 784.332 375.405 Q 784.481 375.753 784.789 375.902 L 784.789 375.902 L 784.789 376.28 L 782.715 376.28 L 782.715 376.28 Q 782.451 375.858 782.354 374.549 L 782.354 374.549 L 782.354 374.496 L 782.231 372.808 L 782.231 372.808 Q 782.135 371.499 781.598 371.116 L 781.598 371.116 L 781.598 371.116 Q 781.062 370.734 779.348 370.734 L 779.348 370.734 L 778.988 370.734 L 775.771 370.734 L 775.771 376.28 L 774.005 376.28 L 774.005 376.28 Z  M 786.933 376.28 L 786.933 363.334 L 796.549 363.334 L 796.549 364.942 L 788.682 364.942 L 788.682 368.809 L 795.933 368.809 L 795.933 370.321 L 788.682 370.321 L 788.682 374.663 L 796.707 374.663 L 796.707 376.28 L 786.933 376.28 L 786.933 376.28 Z  M 803.8 364.854 L 800.662 364.854 L 800.662 374.698 L 803.8 374.698 L 803.8 374.698 Q 805.821 374.698 806.827 373.419 L 806.827 373.419 L 806.827 373.419 Q 807.834 372.14 807.834 369.548 L 807.834 369.548 L 807.834 369.548 Q 807.834 367.306 806.775 366.08 L 806.775 366.08 L 806.775 366.08 Q 805.716 364.854 803.8 364.854 L 803.8 364.854 L 803.8 364.854 Z  M 798.904 376.28 L 798.904 363.334 L 803.94 363.334 L 803.94 363.334 Q 806.7 363.334 808.163 364.951 L 808.163 364.951 L 808.163 364.951 Q 809.627 366.568 809.627 369.618 L 809.627 369.618 L 809.627 369.618 Q 809.627 372.764 808.115 374.522 L 808.115 374.522 L 808.115 374.522 Q 806.603 376.28 803.888 376.28 L 803.888 376.28 L 798.904 376.28 L 798.904 376.28 Z  M 818.653 370.919 L 816.491 365.083 L 814.294 370.919 L 818.653 370.919 L 818.653 370.919 Z  M 810.427 376.28 L 815.515 363.334 L 817.484 363.334 L 822.555 376.28 L 820.613 376.28 L 819.189 372.413 L 813.74 372.413 L 812.263 376.28 L 810.427 376.28 L 810.427 376.28 Z  M 835.089 367.245 L 835.089 367.245 L 833.375 367.245 L 833.375 367.245 Q 833.129 365.953 832.166 365.232 L 832.166 365.232 L 832.166 365.232 Q 831.204 364.511 829.719 364.511 L 829.719 364.511 L 829.719 364.511 Q 827.548 364.511 826.348 365.887 L 826.348 365.887 L 826.348 365.887 Q 825.148 367.262 825.148 369.767 L 825.148 369.767 L 825.148 369.767 Q 825.148 372.237 826.339 373.639 L 826.339 373.639 L 826.339 373.639 Q 827.53 375.041 829.596 375.041 L 829.596 375.041 L 829.596 375.041 Q 831.45 375.041 832.566 373.925 L 832.566 373.925 L 832.566 373.925 Q 833.682 372.808 833.682 370.954 L 833.682 370.954 L 833.682 370.752 L 829.578 370.752 L 829.578 369.31 L 835.3 369.31 L 835.3 376.28 L 834.166 376.28 L 833.77 374.531 L 833.77 374.531 Q 833.006 375.577 831.885 376.109 L 831.885 376.109 L 831.885 376.109 Q 830.764 376.64 829.341 376.64 L 829.341 376.64 L 829.341 376.64 Q 826.686 376.64 825.016 374.759 L 825.016 374.759 L 825.016 374.759 Q 823.346 372.879 823.346 369.838 L 823.346 369.838 L 823.346 369.838 Q 823.346 366.691 825.065 364.845 L 825.065 364.845 L 825.065 364.845 Q 826.783 363 829.719 363 L 829.719 363 L 829.719 363 Q 831.951 363 833.384 364.134 L 833.384 364.134 L 833.384 364.134 Q 834.816 365.267 835.089 367.245 Z  M 838.068 368.809 L 838.068 366.867 L 839.888 366.867 L 839.888 368.809 L 838.068 368.809 L 838.068 368.809 Z  M 838.068 376.28 L 838.068 374.32 L 839.888 374.32 L 839.888 376.28 L 838.068 376.28 L 838.068 376.28 Z " fill="rgb(0,0,0)"/></g></g></svg>