<?xml version="1.0" encoding="UTF-8" standalone="no"?><!-- Generator: Gravit.io --><svg xmlns="http://www.w3.org/2000/svg" xmlns:xlink="http://www.w3.org/1999/xlink" style="isolation:isolate" viewBox="1459.091 92.424 366.268 160.738" width="366.268pt" height="160.738pt"><g><path d=" M 1528.818 107.95 C 1528.163 107.901 1526.521 108.566 1526.431 106.882 C 1526.346 105.288 1528.032 99.247 1526.181 96.688 L 1522.181 93.214 C 1520.264 92.135 1516.942 92.153 1514.668 93.317 C 1511.027 95.18 1506.751 102.514 1506.031 105.757 C 1505.214 109.434 1506.106 113.509 1505.633 114.905 C 1504.737 117.552 1501.95 118.346 1501.462 123.429 C 1501.126 126.924 1501.578 126.841 1501.837 129.737 C 1502.216 133.971 1501.768 133.85 1502.883 138.147 C 1503.903 142.078 1503.585 147.683 1502.622 151.841 C 1502.059 154.27 1500.43 159.445 1500.303 161.195 C 1500.235 162.138 1500.394 162.866 1500.349 164.424 C 1500.181 170.193 1498.581 179.083 1495.849 184.301 C 1493.64 188.52 1491.88 190.69 1489.325 195.961 L 1483.825 207.508 C 1483.196 209.649 1484.371 210.802 1483.912 213.054 C 1483.495 215.101 1481.984 217.022 1483.101 218.283 C 1484.493 219.852 1486.619 219.538 1487.734 219.783 C 1490.582 220.408 1491.428 221.4 1496.053 221.329 C 1498.147 221.297 1500.792 220.861 1502.167 219.761 C 1503.881 218.389 1499.795 218.032 1496.371 214.988 C 1493.232 212.197 1497.054 212.463 1497.916 209.874 C 1498.603 207.815 1497.874 204.867 1498.257 202.486 C 1498.557 200.628 1500.558 195.109 1501.485 193.553 C 1502.987 191.032 1503.221 192.584 1505.735 186.393 L 1511.054 172.71 C 1514.128 165.507 1514.016 168.584 1519.691 175.301 C 1520.804 176.618 1521.623 177.437 1522.851 179.869 C 1524.078 182.301 1525.715 186.347 1527.851 190.87 C 1529.987 195.393 1532.624 200.394 1534.397 203.69 C 1536.17 206.986 1537.079 208.577 1537.693 209.849 C 1538.621 211.775 1539.373 214.144 1541.125 215.396 C 1542.396 216.303 1544.304 214.839 1545.24 213.941 C 1546.579 212.655 1545.611 212.675 1548.763 211.1 C 1552.283 209.34 1552.767 209.185 1555.718 206.645 C 1556.536 205.94 1557.218 205.395 1557.286 204.94 C 1557.354 204.485 1556.809 204.122 1556.15 204.122 C 1554.861 204.122 1551.978 206.073 1549.376 205.168 C 1547.684 204.579 1549.449 204.539 1549.263 203.486 C 1548.874 201.284 1543.074 194.662 1541.08 192.552 C 1538.222 189.528 1535.024 187.204 1534.239 184.483 C 1533.898 183.301 1533.761 181.8 1533.398 180.324 C 1532.832 178.025 1530.336 172.26 1529.284 169.55 C 1528.74 168.149 1526.694 163.238 1526.829 162.754 C 1527.168 161.533 1531.965 161.004 1532.125 160.845 C 1532.353 160.617 1531.897 160.162 1531.716 159.731 C 1531.149 158.382 1533.224 157.759 1527.761 153.548 C 1526.069 152.244 1524.489 151.644 1524.783 149.525 C 1525.003 147.944 1526.095 146.499 1525.488 144.07 C 1524.868 141.592 1522.9 139.741 1523.533 134.774 C 1523.963 131.408 1525.288 129.417 1523.67 124.909 C 1522.294 121.076 1523.032 122.016 1522.398 119.476 C 1521.948 117.676 1521.182 116.656 1522.489 114.134 C 1523.222 112.721 1523.808 113.924 1525.569 113.662 C 1527.842 113.324 1525.256 113.016 1524.745 112.292 C 1524.065 111.328 1526.097 111.922 1526.171 111.935 C 1527.104 112.099 1528.58 111.476 1528.472 111.349 C 1528.295 111.141 1526.35 111.429 1525.597 110.082 C 1524.878 108.798 1527.366 109.953 1528.359 108.929 C 1528.538 108.741 1529.348 107.989 1528.818 107.95 L 1528.818 107.95 Z  M 1601.917 110.096 C 1602.371 109.196 1605.763 111.639 1605.602 108.325 C 1605.516 106.547 1605.855 106.903 1606.091 105.858 C 1606.193 105.404 1606.171 104.836 1606.409 104.63 C 1606.674 104.403 1608.172 104.802 1607.33 103.573 C 1606.608 102.521 1605.928 102.606 1606.171 100.426 C 1607.012 92.864 1596.418 90.842 1592.169 93.816 C 1588.46 96.412 1589.098 103.629 1589.855 107.643 C 1590.809 112.708 1590.696 112.682 1586.941 115.808 C 1582.954 119.126 1582.154 121.433 1582.05 126.65 C 1581.963 131.007 1582.76 136.375 1582.558 139.283 C 1582.411 141.409 1581.834 143.363 1581.296 145.647 C 1580.458 149.205 1578.273 159.865 1579.346 162.934 C 1579.992 164.782 1581.615 164.63 1582.096 165.639 C 1582.937 167.397 1581.244 168.539 1580.778 169.094 C 1579.374 170.765 1579.648 172.522 1578.482 174.344 C 1577.754 175.481 1576.436 176.799 1575.345 178.64 C 1574.254 180.482 1573.39 182.845 1572.435 184.982 C 1571.48 187.119 1570.435 189.028 1569.639 190.711 C 1568.844 192.393 1568.298 193.848 1567.661 195.211 C 1566.6 197.485 1565.189 199.593 1564.775 201.78 C 1564.446 203.516 1564.722 204.101 1564.07 206.463 C 1563.667 207.924 1563.819 208.978 1565.592 210.122 C 1567.845 211.575 1569.634 209.663 1573.411 211.486 C 1575.678 212.58 1576.033 212.485 1578.752 212.485 C 1579.675 212.485 1582.161 212.36 1580.616 211.008 C 1578.916 209.52 1574.183 208.761 1576.638 208.121 C 1578.776 207.563 1579.028 206.37 1580.275 203.12 C 1581.025 201.165 1582.025 198.574 1583.071 196.141 C 1584.681 192.396 1586.92 188.104 1587.731 184.753 C 1589.072 179.211 1588.031 181.845 1590.663 176.275 C 1592.071 173.296 1591.795 173.61 1594.413 179.797 C 1596.56 184.874 1600.184 193.237 1603.346 197.595 C 1606.032 201.296 1611.375 206.897 1612.71 209.824 C 1613.753 212.111 1614.061 214.889 1616.256 215.121 L 1622.143 214.484 C 1624.599 213.525 1628.647 208.141 1626.121 208.051 C 1624.754 208.002 1623.314 209.02 1621.28 208.414 C 1616.733 207.062 1621.341 205.794 1622.143 203.823 C 1622.867 202.046 1619.923 199.084 1618.029 196.8 C 1616.484 194.936 1614.757 192.799 1613.279 191.208 C 1611.802 189.616 1610.574 188.571 1609.461 186.412 C 1608.208 183.982 1604.469 172.384 1603.505 169.319 C 1601.984 164.48 1601.412 161.845 1602.661 160.537 C 1603.625 159.527 1605.675 159.308 1609.211 159.476 C 1612.625 159.639 1616.185 159.465 1617.552 156.226 C 1618.516 153.943 1616.806 152.231 1615.802 150.18 C 1613.633 145.75 1614.51 141.177 1609.484 133.428 C 1606.17 128.318 1605.548 126.905 1603.778 120.676 C 1602.198 115.119 1602.974 115.75 1602.397 112.916 C 1602.178 111.831 1601.69 110.547 1601.917 110.096 L 1601.917 110.096 Z  M 1675.232 117.514 C 1675.66 117.029 1679.168 116.876 1679.265 115.105 C 1679.308 114.355 1678.622 113.815 1679.152 113.218 C 1679.613 112.699 1680.045 112.627 1679.927 111.514 C 1679.73 109.612 1680.277 110.606 1680.667 110.025 C 1680.974 109.567 1680.048 108.12 1680.026 106.695 C 1680.003 105.049 1681.094 102.102 1677.401 99.956 C 1671.508 96.532 1663.463 101.891 1663.354 106.514 C 1663.27 110.011 1664.391 110.238 1662.899 114.958 C 1662.503 116.212 1662.538 116.27 1663.626 116.981 C 1665.337 118.098 1661.083 118.774 1659.069 125.845 C 1657.421 131.638 1658.223 137.358 1657.626 140.29 C 1657.376 141.517 1656.853 142.744 1656.444 144.506 C 1654.977 150.825 1655.86 152.977 1652.274 159.542 L 1646.704 167.543 C 1644.532 170.131 1646.462 168.287 1648.626 171.475 C 1649.397 172.613 1649.517 173.832 1650.784 174.668 C 1652.589 175.858 1654.251 175.235 1652.102 179.226 L 1647.84 186.727 C 1646.303 188.972 1644.49 190.332 1642.817 192.557 L 1637.361 200.922 C 1636.2 202.656 1634.08 205.559 1633.554 206.911 C 1632.653 209.226 1631.514 209.147 1630.838 211.139 C 1630.132 213.219 1632.356 215.729 1633.429 216.253 C 1634.58 216.815 1634.258 216.073 1636.247 217.673 C 1638.641 219.598 1639.875 219.834 1643.088 219.969 C 1644.581 220.032 1648.977 220.458 1646.77 218.481 C 1645.389 217.243 1641.939 217.312 1643.827 215.219 C 1646.973 211.732 1647.522 209.254 1650.077 203.922 C 1651.993 199.927 1654.751 194.709 1656.966 192.103 C 1660.911 187.457 1659.132 188.71 1660.966 185.215 C 1661.927 183.383 1663.712 181.525 1664.398 179.419 C 1664.998 177.579 1665.031 176.389 1667.808 176.657 C 1670.82 176.948 1670.396 177.691 1672.287 181.68 C 1673.736 184.741 1675.951 188.721 1676.865 191.727 C 1678.459 196.952 1678.095 196.805 1680.685 202.432 C 1681.667 204.569 1682.894 206.96 1683.242 208.524 C 1684.115 212.457 1685.029 210.284 1685.48 213.593 C 1685.687 215.102 1685.785 216.685 1687.548 217.365 C 1689.87 218.261 1691.909 216.222 1692.868 215.865 C 1694.446 215.276 1703.22 214.663 1703.722 212.217 C 1703.896 211.369 1703.585 210.362 1702.175 210.524 C 1699.769 210.802 1698.601 211.378 1695.538 209.957 C 1691.294 207.986 1696.595 207.667 1696.97 205.899 C 1697.185 204.89 1694.031 199.762 1693.107 198.148 C 1691.502 195.346 1689.32 191.454 1687.367 189.556 C 1685.668 187.904 1684.635 187.717 1684.435 185.613 C 1684.029 181.33 1683.677 180.829 1681.833 176.044 C 1680.099 171.549 1678.79 168.633 1678.479 164.406 C 1678.301 162 1678.874 163.476 1679.684 164.224 C 1680.543 165.018 1681.594 164.806 1682.274 165.44 L 1683.946 167.928 C 1685.612 169.981 1685.475 171.689 1687.798 170.951 C 1691.605 169.742 1690.655 164.768 1687.265 162.325 C 1683.619 159.697 1685.48 160.982 1683.197 157.733 C 1681.883 155.864 1678.74 152.732 1678.32 151.54 L 1677.558 148.085 C 1677.646 147.164 1679.365 145.133 1678.001 141.822 C 1677.058 139.528 1677.349 138.321 1677.138 134.889 L 1676.126 124.888 C 1675.673 123.052 1675.216 123.482 1675.308 120.524 C 1675.331 119.808 1675.376 119.308 1675.287 118.808 C 1675.196 118.31 1674.97 117.81 1675.232 117.514 L 1675.232 117.514 Z  M 1762.534 109.019 C 1763.054 108.653 1764.97 109.524 1763.841 106.928 C 1762.82 104.574 1763.161 105.272 1762.857 102.761 C 1762.767 102.01 1762.601 101.366 1762.539 100.692 C 1762.393 99.054 1762.611 97.949 1760.91 96.37 C 1758.474 94.108 1754.961 94.273 1751.613 94.858 C 1746.429 95.766 1745.293 97.692 1742.545 101.927 C 1740.742 104.705 1741.6 104.514 1740.76 107.03 C 1739.307 111.392 1739.199 109.377 1739.09 114.952 C 1739.004 119.311 1736.311 119.448 1735.93 123.907 C 1735.655 127.155 1736.157 127.015 1734.977 130.966 C 1733.081 137.305 1734.752 136.371 1735.227 140.728 C 1735.571 143.892 1732.94 147.934 1730.942 151.241 L 1724.282 161.981 C 1723.999 162.458 1723.884 162.685 1724.339 163.072 C 1727.663 165.897 1734.491 164.225 1737.761 165.719 C 1738.683 166.14 1738.728 166.777 1738.318 168.038 C 1737.91 169.299 1737.047 171.185 1736.386 172.891 C 1735.013 176.443 1733.786 181.818 1730.806 184.039 C 1729.064 185.339 1728.079 185.334 1726.238 187.756 C 1724.884 189.533 1725.412 189.142 1723.408 191.403 C 1718.517 196.922 1717.599 197.108 1712.168 201.575 C 1710.953 202.575 1710.201 203.303 1709.475 203.871 C 1707.651 205.297 1707.467 205.134 1708.577 206.474 C 1710.261 208.504 1705.764 208.85 1706.747 211.554 C 1707.681 214.12 1711.343 219.647 1713.522 221.385 C 1717.872 224.857 1722.065 222.308 1721.942 220.794 C 1721.805 219.089 1719.407 218.939 1718.499 218.032 L 1717.034 215.474 C 1716.764 214.618 1717.641 213.715 1718.341 213.565 C 1720.376 213.128 1719.171 214.406 1722.011 210.315 C 1724.511 206.714 1729.888 199.857 1733.046 196.676 C 1736.325 193.376 1738.378 192.575 1741.138 189.017 C 1743.39 186.115 1746.523 180.8 1747.902 177.788 C 1749.06 175.256 1748.439 176.688 1749.095 178.63 C 1750.265 182.102 1752.759 182.23 1753.947 191.79 C 1754.385 195.301 1754.674 200.151 1755.254 203.428 C 1755.664 205.736 1756.322 208.122 1756.846 210.451 C 1757.369 212.781 1757.756 215.055 1757.994 216.384 C 1758.557 219.519 1758.992 217.792 1759.971 218.918 C 1760.989 220.091 1760.047 222.284 1761.631 222.772 C 1762.86 223.152 1767.434 222.743 1768.768 222.498 C 1771.553 221.988 1770.62 221.913 1773.872 221.953 C 1775.229 221.97 1780.491 221.756 1780.237 219.736 C 1780.063 218.333 1779.165 217.705 1777.827 217.679 C 1774.573 217.616 1774.843 217.23 1772.268 215.861 C 1770.709 215.031 1770.719 214.389 1770.178 210.678 C 1769.34 204.94 1767.563 193.354 1765.438 188.278 C 1764.09 185.058 1764.065 185.905 1762.995 181.607 C 1762.462 179.459 1761.665 176.027 1760.825 173.094 C 1758.821 166.114 1757.313 164.904 1757.563 159.081 C 1757.62 157.751 1757.709 156.138 1757.62 154.899 C 1757.528 153.66 1757.257 152.795 1757.188 151.819 C 1757.12 150.841 1757.256 149.751 1757.266 148.841 C 1757.293 146.749 1756.918 147.04 1757.483 144.987 C 1758.633 140.799 1756.919 142.867 1759.438 138.157 C 1762.358 132.698 1759.948 125.26 1759.403 119.655 C 1759.122 116.759 1761.178 117.847 1762.176 115.438 C 1762.66 114.271 1761.83 113.403 1761.914 112.381 C 1761.992 111.449 1762.857 110.876 1762.607 109.812 C 1762.525 109.473 1762.343 109.154 1762.534 109.019 L 1762.534 109.019 Z " fill-rule="evenodd" fill="rgb(0,0,0)"/><path d=" M 1745.876 186.684 L 1750.308 186.684 C 1750.859 188.438 1751.169 190.358 1751.386 192.108 C 1751.439 192.531 1751.488 192.955 1751.532 193.379 L 1740.667 193.379 C 1741.56 192.521 1742.38 191.617 1743.171 190.596 C 1744.13 189.359 1745.03 188.027 1745.876 186.684 L 1745.876 186.684 Z  M 1770.788 198.59 L 1820.8 248.602 L 1825.359 253.162 L 1764.017 253.162 L 1763.615 252.564 L 1730.551 203.389 C 1731.926 201.702 1733.369 200.005 1734.873 198.493 C 1734.957 198.407 1735.043 198.323 1735.129 198.239 L 1768.174 247.382 L 1810.324 247.594 L 1782.812 220.083 C 1782.826 219.862 1782.818 219.64 1782.791 219.417 C 1782.457 216.753 1780.51 215.153 1777.871 215.103 L 1777.832 215.102 L 1772.67 209.94 C 1772.143 206.344 1771.576 202.752 1770.9 199.18 L 1770.788 198.59 L 1770.788 198.59 Z  M 1721.4 189.781 L 1719.316 186.683 L 1723.82 186.683 C 1723.556 187.048 1723.3 187.415 1723.043 187.791 C 1722.584 188.458 1722.014 189.088 1721.477 189.692 L 1721.4 189.781 L 1721.4 189.781 Z  M 1552.591 193.379 L 1545.309 193.379 C 1544.384 192.319 1543.547 191.409 1542.954 190.781 C 1541.615 189.364 1540.159 188.078 1538.805 186.683 L 1558.862 186.683 L 1565.133 186.683 L 1561.634 191.887 L 1555.031 201.706 C 1553.965 201.974 1552.767 202.498 1551.73 202.723 C 1551.417 201.555 1550.464 199.969 1549.273 198.31 L 1552.591 193.379 L 1552.591 193.379 Z  M 1526.898 194.822 L 1504.476 217.244 C 1503.786 216.385 1502.675 215.859 1501.671 215.349 C 1500.621 214.816 1499.616 214.27 1498.691 213.561 L 1523.874 188.378 C 1524.412 189.579 1524.958 190.778 1525.521 191.969 C 1525.972 192.924 1526.431 193.875 1526.898 194.822 L 1526.898 194.822 Z  M 1497.927 223.793 L 1474.127 247.593 L 1516.278 247.381 L 1537.697 215.528 C 1538.207 216.253 1538.823 216.918 1539.628 217.492 C 1541.112 218.553 1542.761 218.407 1544.257 217.731 L 1520.836 252.563 L 1520.434 253.161 L 1459.091 253.161 L 1463.651 248.601 L 1489.326 222.926 L 1489.461 222.97 C 1491.77 223.726 1493.652 223.942 1496.092 223.905 C 1496.673 223.896 1497.293 223.862 1497.927 223.793 L 1497.927 223.793 Z  M 1613.094 187.222 L 1629.365 186.985 L 1633.38 186.926 L 1632.699 190.881 L 1629.77 207.897 C 1629.66 208.028 1629.555 208.158 1629.457 208.29 C 1629.392 207.766 1629.207 207.269 1628.876 206.816 C 1628.244 205.952 1627.269 205.516 1626.217 205.478 C 1625.393 205.45 1624.716 205.615 1623.98 205.792 C 1624.199 205.486 1624.388 205.158 1624.534 204.798 C 1625.079 203.462 1624.836 202.09 1624.214 200.766 L 1625.428 193.712 L 1618.904 193.808 C 1617.69 192.331 1616.466 190.852 1615.172 189.457 C 1614.429 188.658 1613.727 187.978 1613.094 187.222 L 1613.094 187.222 Z  M 1628.646 214.429 L 1622.439 250.482 L 1621.978 253.162 L 1559.578 253.162 L 1561.777 248.914 L 1579.301 215.053 C 1580.981 214.983 1582.85 214.541 1583.505 212.783 C 1584.03 211.375 1583.415 210.059 1582.372 209.119 L 1592.638 189.284 L 1593.556 187.509 L 1594.963 187.488 C 1595.317 188.26 1595.675 189.031 1596.041 189.799 C 1596.712 191.204 1597.428 192.67 1598.198 194.112 L 1597.655 194.12 L 1570.258 247.057 L 1616.321 246.614 L 1621.391 217.163 L 1622.764 217.015 L 1623.083 216.89 C 1624.609 216.295 1626.763 214.479 1628.142 212.413 C 1628.195 213.099 1628.374 213.778 1628.646 214.429 L 1628.646 214.429 Z  M 1674.823 193.908 L 1661.405 193.712 L 1670.51 246.611 L 1716.573 247.054 L 1700.942 216.85 C 1702.551 216.404 1704.249 215.727 1705.299 214.571 C 1706.928 217.66 1709.762 221.628 1711.807 223.315 L 1725.055 248.913 L 1727.252 253.161 L 1664.854 253.161 L 1664.393 250.481 L 1655.526 198.974 C 1656.528 197.166 1657.69 195.231 1658.93 193.77 C 1660.157 192.327 1661.703 190.582 1662.307 188.754 C 1662.524 188.095 1662.684 187.614 1662.932 187.063 L 1672.141 187.198 L 1672.184 187.287 C 1672.989 188.927 1673.87 190.73 1674.401 192.477 C 1674.546 192.953 1674.687 193.43 1674.823 193.908 L 1674.823 193.908 Z  M 1688.886 187.444 L 1691.265 187.479 L 1693.275 187.508 L 1694.195 189.283 L 1703.992 208.214 C 1703.375 207.972 1702.66 207.875 1701.883 207.965 C 1700.319 208.146 1699.535 208.403 1698.522 208.251 C 1698.987 207.76 1699.338 207.172 1699.495 206.436 C 1699.872 204.661 1698.263 201.963 1697.411 200.437 C 1696.741 199.234 1696.03 198.061 1695.347 196.868 C 1693.673 193.947 1691.562 190.037 1689.167 187.709 C 1689.071 187.618 1688.98 187.53 1688.886 187.444 L 1688.886 187.444 Z " fill="rgb(0,0,0)"/></g></svg>