<?xml version="1.0" encoding="UTF-8" standalone="no"?><!-- Generator: Gravit.io --><svg xmlns="http://www.w3.org/2000/svg" xmlns:xlink="http://www.w3.org/1999/xlink" style="isolation:isolate" viewBox="603.268 631.631 1053.589 34.008" width="1053.589pt" height="34.008pt"><g><g><g><g><path d=" M 1388.69 646.909 C 1378.973 646.909 1369.75 642.676 1363.385 635.295 C 1361.676 633.313 1359.187 632.172 1356.569 632.172 C 1353.951 632.172 1351.463 633.312 1349.753 635.295 C 1343.39 642.675 1334.167 646.908 1324.449 646.908 C 1314.731 646.908 1305.509 642.675 1299.144 635.294 C 1297.435 633.312 1294.946 632.171 1292.328 632.171 C 1289.71 632.171 1287.222 633.311 1285.512 635.294 C 1279.149 642.674 1269.926 646.907 1260.208 646.907 C 1250.49 646.907 1241.268 642.674 1234.904 635.294 C 1233.194 633.311 1230.706 632.171 1228.088 632.171 C 1225.47 632.171 1222.982 633.311 1221.272 635.294 C 1214.908 642.675 1205.685 646.908 1195.967 646.908 C 1186.249 646.908 1177.027 642.675 1170.663 635.295 C 1168.953 633.312 1166.465 632.172 1163.847 632.172 C 1161.229 632.172 1158.741 633.312 1157.031 635.295 C 1150.667 642.677 1141.444 646.909 1131.727 646.909 C 1126.756 646.909 1122.727 650.938 1122.727 655.909 C 1122.727 660.88 1126.756 664.909 1131.727 664.909 C 1142.196 664.909 1152.285 661.714 1160.756 655.909 C 1161.811 655.186 1162.846 654.429 1163.848 653.626 C 1164.85 654.429 1165.885 655.186 1166.94 655.909 C 1175.41 661.714 1185.5 664.909 1195.968 664.909 C 1206.436 664.909 1216.526 661.714 1224.997 655.909 C 1226.052 655.186 1227.087 654.429 1228.089 653.626 C 1229.091 654.429 1230.126 655.186 1231.181 655.909 C 1239.651 661.714 1249.741 664.909 1260.209 664.909 C 1270.677 664.909 1280.767 661.714 1289.237 655.909 C 1290.292 655.186 1291.326 654.429 1292.329 653.626 C 1293.331 654.429 1294.366 655.186 1295.421 655.909 C 1303.891 661.714 1313.981 664.909 1324.45 664.909 C 1334.919 664.909 1345.008 661.714 1353.478 655.909 C 1354.533 655.186 1355.567 654.429 1356.57 653.626 C 1357.572 654.429 1358.607 655.186 1359.662 655.909 C 1368.132 661.714 1378.222 664.909 1388.691 664.909 C 1393.662 664.909 1397.691 660.88 1397.691 655.909 C 1397.691 650.938 1393.661 646.909 1388.69 646.909 Z " fill="rgb(0,0,0)"/></g></g></g></g><path d=" M 1647.856 646.369 C 1638.139 646.369 1628.916 642.136 1622.551 634.755 C 1620.842 632.773 1618.353 631.632 1615.735 631.632 C 1613.117 631.632 1610.629 632.772 1608.919 634.755 C 1602.556 642.135 1593.333 646.368 1583.615 646.368 C 1573.897 646.368 1564.675 642.135 1558.31 634.754 C 1556.601 632.772 1554.112 631.631 1551.494 631.631 C 1548.876 631.631 1546.388 632.771 1544.678 634.754 C 1538.315 642.134 1529.092 646.367 1519.374 646.367 C 1509.656 646.367 1500.434 642.134 1494.07 634.754 C 1492.36 632.771 1489.872 631.631 1487.254 631.631 C 1484.636 631.631 1482.148 632.771 1480.438 634.754 C 1474.074 642.135 1464.851 646.368 1455.133 646.368 C 1445.415 646.368 1436.193 642.135 1429.829 634.755 C 1428.119 632.772 1425.631 631.632 1423.013 631.632 C 1420.395 631.632 1417.907 632.772 1416.197 634.755 C 1409.833 642.137 1400.61 646.369 1390.893 646.369 C 1385.922 646.369 1381.893 650.398 1381.893 655.369 C 1381.893 660.34 1385.922 664.369 1390.893 664.369 C 1401.362 664.369 1411.451 661.174 1419.922 655.369 C 1420.977 654.646 1422.012 653.889 1423.014 653.086 C 1424.016 653.889 1425.051 654.646 1426.106 655.369 C 1434.576 661.174 1444.666 664.369 1455.134 664.369 C 1465.602 664.369 1475.692 661.174 1484.163 655.369 C 1485.218 654.646 1486.253 653.889 1487.255 653.086 C 1488.257 653.889 1489.292 654.646 1490.347 655.369 C 1498.817 661.174 1508.907 664.369 1519.375 664.369 C 1529.843 664.369 1539.933 661.174 1548.403 655.369 C 1549.458 654.646 1550.492 653.889 1551.495 653.086 C 1552.497 653.889 1553.532 654.646 1554.587 655.369 C 1563.057 661.174 1573.147 664.369 1583.616 664.369 C 1594.085 664.369 1604.174 661.174 1612.644 655.369 C 1613.699 654.646 1614.733 653.889 1615.736 653.086 C 1616.738 653.889 1617.773 654.646 1618.828 655.369 C 1627.298 661.174 1637.388 664.369 1647.857 664.369 C 1652.828 664.369 1656.857 660.34 1656.857 655.369 C 1656.857 650.398 1652.827 646.369 1647.856 646.369 Z " fill="rgb(0,0,0)"/><path d=" M 869.231 647.639 C 859.514 647.639 850.291 643.406 843.926 636.025 C 842.217 634.043 839.728 632.902 837.11 632.902 C 834.492 632.902 832.004 634.042 830.294 636.025 C 823.931 643.405 814.708 647.638 804.99 647.638 C 795.272 647.638 786.05 643.405 779.685 636.024 C 777.976 634.042 775.487 632.901 772.869 632.901 C 770.251 632.901 767.763 634.041 766.053 636.024 C 759.69 643.404 750.467 647.637 740.749 647.637 C 731.031 647.637 721.809 643.404 715.445 636.024 C 713.735 634.041 711.247 632.901 708.629 632.901 C 706.011 632.901 703.523 634.041 701.813 636.024 C 695.449 643.405 686.226 647.638 676.508 647.638 C 666.79 647.638 657.568 643.405 651.204 636.025 C 649.494 634.042 647.006 632.902 644.388 632.902 C 641.77 632.902 639.282 634.042 637.572 636.025 C 631.208 643.407 621.985 647.639 612.268 647.639 C 607.297 647.639 603.268 651.668 603.268 656.639 C 603.268 661.61 607.297 665.639 612.268 665.639 C 622.737 665.639 632.826 662.444 641.297 656.639 C 642.352 655.916 643.387 655.159 644.389 654.356 C 645.391 655.159 646.426 655.916 647.481 656.639 C 655.951 662.444 666.041 665.639 676.509 665.639 C 686.977 665.639 697.067 662.444 705.538 656.639 C 706.593 655.916 707.628 655.159 708.63 654.356 C 709.632 655.159 710.667 655.916 711.722 656.639 C 720.192 662.444 730.282 665.639 740.75 665.639 C 751.218 665.639 761.308 662.444 769.778 656.639 C 770.833 655.916 771.867 655.159 772.87 654.356 C 773.872 655.159 774.907 655.916 775.962 656.639 C 784.432 662.444 794.522 665.639 804.991 665.639 C 815.46 665.639 825.549 662.444 834.019 656.639 C 835.074 655.916 836.108 655.159 837.111 654.356 C 838.113 655.159 839.148 655.916 840.203 656.639 C 848.673 662.444 858.763 665.639 869.232 665.639 C 874.203 665.639 878.232 661.61 878.232 656.639 C 878.232 651.668 874.202 647.639 869.231 647.639 Z " fill="rgb(0,0,0)"/><path d=" M 1128.397 647.099 C 1118.68 647.099 1109.457 642.866 1103.092 635.485 C 1101.383 633.503 1098.894 632.362 1096.276 632.362 C 1093.658 632.362 1091.17 633.502 1089.46 635.485 C 1083.097 642.865 1073.874 647.098 1064.156 647.098 C 1054.438 647.098 1045.216 642.865 1038.851 635.484 C 1037.142 633.502 1034.653 632.361 1032.035 632.361 C 1029.417 632.361 1026.929 633.501 1025.219 635.484 C 1018.856 642.864 1009.633 647.097 999.915 647.097 C 990.197 647.097 980.975 642.864 974.611 635.484 C 972.901 633.501 970.413 632.361 967.795 632.361 C 965.177 632.361 962.689 633.501 960.979 635.484 C 954.615 642.865 945.392 647.098 935.674 647.098 C 925.956 647.098 916.734 642.865 910.37 635.485 C 908.66 633.502 906.172 632.362 903.554 632.362 C 900.936 632.362 898.448 633.502 896.738 635.485 C 890.374 642.867 881.151 647.099 871.434 647.099 C 866.463 647.099 862.434 651.128 862.434 656.099 C 862.434 661.07 866.463 665.099 871.434 665.099 C 881.903 665.099 891.992 661.904 900.463 656.099 C 901.518 655.376 902.553 654.619 903.555 653.816 C 904.557 654.619 905.592 655.376 906.647 656.099 C 915.117 661.904 925.207 665.099 935.675 665.099 C 946.143 665.099 956.233 661.904 964.704 656.099 C 965.759 655.376 966.794 654.619 967.796 653.816 C 968.798 654.619 969.833 655.376 970.888 656.099 C 979.358 661.904 989.448 665.099 999.916 665.099 C 1010.384 665.099 1020.474 661.904 1028.944 656.099 C 1029.999 655.376 1031.033 654.619 1032.036 653.816 C 1033.038 654.619 1034.073 655.376 1035.128 656.099 C 1043.598 661.904 1053.688 665.099 1064.157 665.099 C 1074.626 665.099 1084.715 661.904 1093.185 656.099 C 1094.24 655.376 1095.274 654.619 1096.277 653.816 C 1097.279 654.619 1098.314 655.376 1099.369 656.099 C 1107.839 661.904 1117.929 665.099 1128.398 665.099 C 1133.369 665.099 1137.398 661.07 1137.398 656.099 C 1137.398 651.128 1133.368 647.099 1128.397 647.099 Z " fill="rgb(0,0,0)"/></svg>